<svg width="1254" height="1911" viewBox="0 0 1254 1911" fill="none" xmlns="http://www.w3.org/2000/svg">
<path d="M1061.06 54.4827C1056.94 53.2713 1057.63 40.8544 1058.49 34.7973C1058.83 33.6196 1059.31 30.8602 1058.49 29.245C1057.66 27.6298 1061.92 26.8895 1064.15 26.7213C1063.81 24.0292 1064.36 18.3423 1069.3 17.1309C1074.25 15.9195 1074.8 26.0482 1074.45 31.264L1069.3 27.7308C1067.76 30.0863 1065.59 34.7973 1069.3 34.7973C1073.94 34.7973 1069.3 41.3591 1069.3 49.4352C1069.3 57.5113 1066.21 55.997 1061.06 54.4827Z" fill="#E5DBDB"/>
<path d="M1081.66 43.8829L1079.09 36.8163C1077.03 37.3211 1074.66 37.6239 1081.66 34.7973C1090.42 31.264 1088.36 41.3591 1089.39 38.3306C1090.42 35.3021 1091.96 37.8259 1091.96 41.3591C1091.96 44.8924 1084.75 41.8639 1083.21 40.3496C1081.97 39.1382 1081.66 42.2004 1081.66 43.8829Z" fill="#E5DBDB"/>
<path d="M1083.21 25.207C1078.26 23.9956 1077.03 21.3372 1077.03 20.1594C1077.71 19.8229 1079.09 18.4433 1079.09 15.6166C1079.09 12.79 1080.12 9.72785 1080.63 8.5501C1080.46 5.85806 1081.04 0.473999 1084.75 0.473999C1088.46 0.473999 1086.3 4.17553 1084.75 6.0263C1084.24 7.87707 1084.44 10.0644 1089.39 4.00731C1094.33 -2.04974 1094.54 4.51206 1094.02 8.5501C1092.13 9.05485 1088.87 10.1653 1090.93 10.5691C1093.51 11.0739 1091.96 17.1309 1089.39 17.1309C1086.81 17.1309 1087.33 19.1499 1087.33 21.6737C1087.33 24.1975 1089.39 26.7213 1083.21 25.207Z" fill="#E5DBDB"/>
<path fill-rule="evenodd" clip-rule="evenodd" d="M758.727 1291.07H758.723C758.333 1291.08 757.943 1291.1 757.552 1291.11C757.944 1291.1 758.336 1291.08 758.727 1291.07Z" fill="#E5DBDB"/>
<path fill-rule="evenodd" clip-rule="evenodd" d="M914.427 1625.51C914.723 1625.92 914.862 1626.04 914.797 1625.78C914.783 1625.73 914.754 1625.68 914.71 1625.64C914.646 1625.58 914.551 1625.54 914.427 1625.51ZM1095.57 1186.65C1095.96 1185.87 1096.28 1185.01 1096.5 1184.06C1096.38 1184.94 1096.08 1185.82 1095.57 1186.65ZM758.727 1291.07H758.723C758.333 1291.08 757.943 1291.1 757.552 1291.11C757.944 1291.1 758.336 1291.08 758.727 1291.07ZM527.505 1622.75C528.492 1623.28 527.537 1623.38 525.875 1623.46C526.123 1622.67 526.618 1622.28 527.505 1622.75ZM665.916 747.919C665.57 747.525 665.022 747.211 664.499 747.006C664.583 747.059 664.669 747.113 664.755 747.168C664.961 747.3 665.172 747.436 665.389 747.576C665.561 747.688 665.738 747.802 665.916 747.919ZM750.348 504.259C750.8 504.562 751.212 504.91 751.537 505.228C751.14 504.985 750.697 504.647 750.348 504.259ZM633.598 529.457C633.672 529.384 633.64 529.364 633.53 529.394C633.539 529.468 633.56 529.493 633.598 529.457ZM832.909 1634.87L833.515 1634.08C831.955 1633.79 832.277 1634.35 832.909 1634.87ZM1198.57 1450.63C1198.72 1450.73 1198.9 1450.83 1199.11 1450.93C1198.96 1450.81 1198.78 1450.71 1198.57 1450.63ZM809.219 1091.75C808.699 1092.06 808.117 1092.42 807.514 1092.83C808.2 1092.52 808.798 1092.11 809.219 1091.75Z" fill="#E5DBDB"/>
<path fill-rule="evenodd" clip-rule="evenodd" d="M557.376 670.788C557.472 670.599 557.424 670.675 557.213 670.93C557.296 670.883 557.351 670.836 557.376 670.788Z" fill="#E5DBDB"/>
<path fill-rule="evenodd" clip-rule="evenodd" d="M408.021 866.633C407.159 867.196 406.92 867.113 407.143 866.604C407.449 866.605 407.742 866.615 408.021 866.633ZM281.842 924.174C279.266 924.757 280.884 924.219 284.026 923.221C283.413 923.653 282.691 923.983 281.842 924.174ZM431.08 870.108C431.084 871.132 432.174 870.571 433.257 869.661C432.617 869.806 431.879 869.959 431.08 870.108ZM540.292 917.706C540.323 917.846 540.352 917.983 540.38 918.117C540.119 917.604 539.968 917.132 540.12 916.964C540.181 917.218 540.239 917.466 540.292 917.706ZM203.045 976.669C203.181 976.134 203.252 975.408 203.176 974.576C203.023 975.383 202.998 976.117 203.045 976.669ZM72.3566 1265.07C72.3513 1265.06 71.7657 1265.29 70.8086 1265.56C71.1022 1265.59 71.4051 1265.54 71.7155 1265.39C72.1604 1265.17 72.3598 1265.08 72.3566 1265.07Z" fill="#E5DBDB"/>
<path fill-rule="evenodd" clip-rule="evenodd" d="M534.039 368.085C535.064 368.446 536.057 368.98 536.775 369.45C536.067 369.218 535.013 368.754 534.039 368.085Z" fill="#E5DBDB"/>
<path fill-rule="evenodd" clip-rule="evenodd" d="M1056.43 77.7014C1056.03 77.8325 1056.3 77.8253 1056.95 77.7386C1056.75 77.6706 1056.57 77.6547 1056.43 77.7014Z" fill="#E5DBDB"/>
<path d="M433.257 1693.92C439.437 1696.45 452.931 1698.87 457.463 1688.37C466.115 1688.37 472.055 1692.07 473.943 1693.92C476.69 1696.11 481.977 1701.6 481.153 1706.04C480.329 1710.48 484.243 1714.96 486.304 1716.64L494.029 1709.07H498.664L504.329 1702.51C505.187 1699.98 505.256 1695.14 498.664 1695.94C499.446 1695.43 500.031 1695.08 500.509 1694.8C501.919 1693.95 502.406 1693.66 504.329 1691.4C506.389 1688.98 510.338 1689.38 512.054 1689.89L516.69 1683.33L516.908 1683.18C522.285 1679.73 526.104 1677.27 536.775 1677.27C540.375 1677.27 539.768 1675 538.979 1672.04C538.738 1671.14 538.481 1670.17 538.32 1669.19L542.955 1667.17V1663.13H551.196V1667.17H574.886C577.29 1665.32 583.127 1661.92 587.247 1663.13C591.367 1664.35 595.487 1666.33 597.032 1667.17C596.689 1669.53 596.826 1673.73 600.122 1671.72C603.418 1669.7 609.392 1669.19 611.967 1669.19C612.482 1671.88 614.234 1677.27 617.118 1677.27C620.002 1677.27 625.53 1675.92 627.933 1675.25L641.838 1694.43C643.898 1694.26 648.843 1694.33 652.139 1695.94C655.435 1697.56 658.319 1695.61 659.349 1694.43V1683.33C661.237 1681.64 665.632 1678.58 668.104 1679.79C670.576 1681 669.134 1677.27 668.104 1675.25H674.284V1671.72C677.031 1670.03 681.701 1666.47 678.404 1665.66C676.878 1665.28 676.059 1665.4 675.448 1665.48C674.411 1665.62 673.979 1665.68 671.709 1663.13C668.825 1659.9 674.971 1658.76 678.404 1658.59C678.748 1651.86 680.98 1638 687.16 1636.38V1626.29C687.846 1629.15 690.765 1634.67 696.945 1633.86C703.125 1633.05 707.074 1628.48 708.275 1626.29L718.061 1624.77C720.121 1625.78 724.962 1627.2 727.846 1624.77C729.623 1623.28 732.15 1623.75 734.503 1624.19C736.925 1624.64 739.162 1625.05 740.206 1623.26C741.854 1620.43 748.103 1620.74 751.022 1621.24C764.457 1627.91 790.896 1644.15 790.19 1656.23C791.238 1643.41 793.827 1641.43 800.463 1641.43C802.783 1641.43 808.997 1643.37 816.043 1645.57C829.334 1649.71 845.586 1654.78 844.24 1649.51C844.341 1649.23 844.441 1648.96 844.539 1648.69C846.92 1642.2 847.994 1639.27 839.089 1635.88C836.224 1634.79 834.496 1634.26 833.515 1634.08L832.909 1634.87C832.277 1634.35 831.955 1633.79 833.515 1634.08L837.544 1628.81L847.33 1634.87L848.875 1637.9L851.965 1632.34H863.295C872.909 1631.67 891.312 1631.44 888.016 1635.88C884.72 1640.32 890.419 1635.04 893.681 1631.84C899.977 1629.37 912.13 1624.98 914.427 1625.51C912.846 1623.34 906.792 1612.92 903.467 1607.11C915.655 1617.37 942.711 1636.69 953.423 1631.84C964.136 1626.99 955.483 1625.78 949.818 1625.78L945.183 1617.71C952.221 1619.39 965.887 1623.66 964.239 1627.3C962.591 1630.93 959.432 1632.18 958.058 1632.34L972.479 1640.93V1634.87C982.436 1632.85 1005.13 1629.52 1016.26 1632.34C1023.31 1634.14 1023.47 1633.2 1023.67 1632.04C1023.86 1630.92 1024.08 1629.58 1030.68 1630.33C1041.39 1631.54 1070.5 1641.26 1083.72 1645.97C1087.84 1643.79 1096.08 1638.5 1096.08 1634.87C1096.08 1632.75 1102.58 1632.28 1109.67 1631.76C1117.79 1631.17 1126.67 1630.53 1127.5 1627.3C1128.73 1622.45 1138.31 1618.21 1142.95 1616.7C1147.76 1619.22 1157.78 1623.86 1159.43 1622.25C1161.08 1620.63 1161.49 1612.83 1161.49 1609.13L1173.33 1596.51C1175.91 1597.18 1181.58 1598.12 1183.64 1596.51C1185.7 1594.89 1194.79 1590.79 1199.09 1588.94C1204.58 1585.07 1213.71 1574 1206.3 1560.67C1206.3 1556.63 1209.73 1556.3 1211.45 1556.63C1213.16 1552.93 1214.85 1545.53 1207.84 1545.53C1200.84 1545.53 1165.44 1547.88 1148.61 1549.06C1158.06 1548.05 1171.89 1544.42 1151.7 1537.96C1131.52 1531.49 1137.46 1541.32 1142.95 1547.04C1139.34 1544.35 1130.38 1539.47 1123.38 1541.49C1122.41 1539.84 1124.49 1539.18 1127.35 1538.27C1130.6 1537.24 1134.85 1535.9 1136.77 1532.4C1139.65 1527.15 1121.83 1526.85 1112.56 1527.36L1105.87 1530.38L1112.56 1522.81C1118.06 1522.98 1129.25 1522.91 1130.07 1521.3C1130.35 1520.77 1132.37 1520.69 1135.3 1520.58C1143.48 1520.27 1158.73 1519.7 1162.52 1508.18C1167.67 1492.53 1166.64 1486.98 1160.46 1486.98C1158.3 1486.98 1156.51 1488.15 1154.62 1489.4C1151.11 1491.71 1147.22 1494.27 1139.86 1490C1130.79 1484.75 1141.92 1485.8 1148.61 1486.98C1152.39 1487.14 1159.33 1486.37 1156.85 1481.93C1154.38 1477.49 1163.03 1474.02 1167.67 1472.84C1171.45 1478.73 1181.58 1487.68 1191.88 1476.38C1202.18 1465.07 1196.17 1464.6 1191.88 1465.78C1195.63 1461.62 1202.01 1453.16 1199.11 1450.93C1198.9 1450.83 1198.72 1450.73 1198.57 1450.63C1198.78 1450.71 1198.96 1450.81 1199.11 1450.93C1203.13 1452.87 1217.01 1454.78 1215.05 1447.1C1212.99 1439.02 1232.05 1433.98 1232.56 1435.49C1233.08 1437 1244.92 1405.21 1237.71 1404.2C1242.35 1398.64 1251.41 1385.12 1250.59 1375.42C1256.77 1373.81 1253.16 1366.34 1250.59 1362.81C1251.96 1351.03 1251.62 1326.06 1239.26 1320.41C1238.02 1312.73 1229.82 1310.14 1225.87 1309.81C1216.94 1301.56 1194.55 1285.58 1176.43 1287.6C1183.64 1291.64 1166.12 1291.64 1165.09 1287.6C1164.06 1283.56 1125.95 1283.56 1125.95 1290.63C1125.95 1296.28 1118.06 1308.12 1114.11 1313.34C1112.22 1312.33 1107.62 1310.61 1104.32 1311.83C1102.97 1312.32 1101.52 1310.12 1099.57 1307.17C1095.57 1301.11 1089.49 1291.93 1078.06 1296.68C1079.91 1295.13 1081.9 1293.74 1083.8 1292.41L1083.8 1292.41C1089.29 1288.58 1094.01 1285.28 1092.48 1280.03C1091.14 1275.43 1098.94 1272.54 1105.13 1270.25L1105.13 1270.25C1108.46 1269.02 1111.33 1267.96 1112.05 1266.9C1114.11 1263.87 1117.2 1219.96 1100.72 1208.86C1103.6 1199.97 1095.4 1198.42 1090.93 1198.76C1085.95 1190.85 1075.48 1176.75 1073.42 1183.62C1073.42 1174.33 1067.93 1174.03 1065.18 1175.04C1061.92 1169.49 1056.22 1158.58 1059.52 1159.39C1061.32 1159.83 1064.2 1163.45 1067.13 1167.14L1067.13 1167.14C1070.91 1171.89 1074.77 1176.74 1076.51 1175.04C1077.62 1175.04 1078.98 1174.65 1080.5 1174.22C1083.22 1173.45 1086.41 1172.55 1089.39 1173.52C1093.26 1174.79 1097.13 1179.57 1096.5 1184.06C1098.33 1176.29 1094.22 1162.51 1079.09 1142.73C1065.49 1124.97 1067.24 1110.09 1069.82 1104.88L1080.63 1095.79L1065.18 1086.71C1066.55 1083.51 1066.83 1076.51 1056.94 1074.09C1047.05 1071.66 1048.01 1064.33 1049.73 1060.96C1049.22 1055.41 1046.85 1044.51 1041.49 1045.32C1041.49 1040.27 1012.14 1009.98 993.594 1013.01C978.762 1015.43 981.921 1008.3 985.354 1004.43C985.182 1000.22 982.676 991.408 974.024 989.793C965.372 988.177 965.612 965.228 966.814 953.955C966.985 951.431 966.402 945.475 962.693 941.841C958.985 938.207 958.402 932.587 958.573 930.232C958.917 921.819 958.161 904.792 952.393 903.984C946.625 903.177 949.99 897.591 952.393 894.899C952.565 893.384 952.393 888.842 950.333 882.785C948.273 876.728 950.848 875.55 952.393 875.718C953.423 870.166 954.453 859.263 950.333 860.071C951.535 859.734 953.217 858.355 950.333 855.528C950.333 851.49 948.788 841.9 942.608 842.404C937.664 842.808 936.771 841.563 936.943 840.89C938.144 839.544 939.003 836.953 932.822 837.357C926.642 837.761 927.501 834.497 928.702 832.814C927.157 827.598 922.522 815.551 916.342 809.091C911.083 806.937 903.768 816.224 898.157 823.347C894.563 827.909 891.669 831.583 890.463 830.795C887.373 828.776 880.162 832.814 885.313 837.357C889.433 840.991 890.463 858.052 890.463 866.128C885.828 866.464 876.557 868.349 876.557 873.194C876.969 883.693 870.205 880.934 866.772 878.242C862.995 881.27 854.721 887.428 851.837 887.832C848.952 888.236 846.858 896.077 846.171 899.946C836.901 906.845 818.052 921.146 816.816 923.165C815.579 925.184 810.12 924.006 807.545 923.165L805.613 933.26C807.158 934.774 806.643 938.812 803.553 938.812C800.463 938.812 793.253 938.812 791.708 936.793C790.163 934.774 773.167 938.812 782.438 941.841C789.854 944.264 782.781 944.869 778.318 944.869C777.288 942.85 774.404 940.226 771.107 945.879C766.987 952.945 762.352 963.545 764.412 964.555C766.06 965.362 760.635 967.92 757.717 969.098C752.223 978.183 741.649 996.758 743.297 998.373C744.055 999.117 743.277 999.723 742.352 1000.45C740.764 1001.68 738.741 1003.26 743.297 1006.45C749.065 1010.49 756.687 1025.63 759.777 1032.7C758.919 1036.9 757.923 1045.42 760.807 1045.82C761.837 1048.34 766.472 1057.93 770.592 1057.43C773.888 1057.03 776.086 1051.2 776.773 1048.34C777.459 1052.55 778.009 1060.96 774.712 1060.96C771.416 1060.96 772.309 1069.38 773.167 1073.58C776.086 1074.09 781.408 1076 779.348 1079.64C776.773 1084.18 785.013 1076.11 783.983 1073.58C783.586 1072.61 785.022 1071.12 786.849 1069.21C789.768 1066.17 793.688 1062.09 792.738 1057.43C791.502 1051.37 794.626 1054.23 796.343 1056.42C796 1060.29 796.343 1067.83 800.463 1067.02C803.948 1066.34 805.547 1063.8 806.535 1062.24C807.008 1061.49 807.341 1060.96 807.674 1060.96C808.704 1060.96 813.339 1062.48 813.339 1068.03C813.339 1069.89 813.916 1071.24 814.414 1072.4C815.402 1074.71 816.074 1076.28 811.279 1079.64C804.068 1084.69 799.948 1088.22 802.523 1091.75C803.952 1093.71 805.96 1093.52 807.514 1092.83C808.117 1092.42 808.699 1092.06 809.219 1091.75C808.798 1092.11 808.2 1092.52 807.514 1092.83C804.132 1095.09 800.076 1098.62 802.523 1100.33C803.697 1101.16 801.596 1101.23 798.495 1101.34C792.069 1101.56 781.347 1101.93 786.558 1109.42C792.738 1118.3 788.446 1123.22 785.528 1124.56C785.871 1128.94 788.824 1137.38 797.888 1136.17C785.116 1142.23 777.803 1156.53 775.743 1162.92L780.893 1181.6C777.803 1183.45 771.107 1186.95 769.047 1186.14C766.472 1185.13 760.807 1188.16 764.927 1193.71C769.047 1199.27 772.137 1209.36 771.622 1211.38L783.983 1223.49C780.893 1226.35 775.64 1232.58 779.348 1234.6C783.983 1237.12 787.073 1252.26 785.528 1255.29C784.292 1257.72 793.253 1258.99 797.888 1259.33C799.348 1266.73 799.614 1278.92 789.005 1268.42C778.395 1257.92 768.532 1264.04 764.927 1268.42C760.078 1272.12 751.511 1281.84 756.044 1291.13C756.543 1291.13 757.047 1291.12 757.552 1291.11C757.943 1291.1 758.333 1291.08 758.723 1291.07H758.727H758.732H758.736C764.051 1290.88 769.047 1290.71 769.047 1297.19C769.047 1303.25 761.408 1310.14 757.589 1312.84C753.726 1314.01 747.004 1317.88 751.022 1323.94C753.677 1327.94 757.412 1327.43 760.342 1327.03C762.954 1326.67 764.927 1326.4 764.927 1329.49C764.927 1334.74 754.198 1338.07 748.833 1339.08C745.057 1340.77 738.636 1345.54 743.168 1351.2C747.7 1356.85 757.074 1361.63 761.194 1363.31C762.91 1367.85 764.593 1376.84 757.589 1376.43C748.833 1375.93 744.455 1414.29 751.022 1422.37C756.275 1428.83 765.228 1429.1 769.047 1428.42C773.682 1430.27 781.923 1435.49 777.803 1441.55C773.682 1447.6 783.554 1445.42 789.005 1443.57C783.211 1456.52 773.991 1482.84 783.468 1484.45C784.669 1483.61 787.073 1481.63 787.073 1480.41C787.073 1479.74 788.802 1478.57 790.677 1477.3C793.023 1475.71 795.599 1473.96 795.313 1472.84C795.06 1471.85 798.042 1469.88 801.14 1467.84C804.345 1465.72 807.674 1463.53 807.674 1462.24C807.674 1461.04 809.907 1460.98 812.296 1460.93C814.907 1460.86 817.705 1460.8 817.974 1459.21C818.489 1456.19 818.489 1465.27 814.369 1463.76C810.249 1462.24 798.918 1473.85 797.888 1475.37C797.518 1475.91 797.48 1476.39 797.441 1476.9C797.37 1477.8 797.292 1478.8 795.313 1480.41C792.223 1482.94 785.528 1492.53 785.013 1495.56C784.601 1497.98 780.034 1499.26 777.803 1499.59C773.167 1499.93 762.558 1502.72 757.202 1511.2C751.846 1509.18 749.82 1516.42 749.477 1520.29C748.447 1522.64 746.078 1526.65 744.842 1523.82C743.606 1521 743.297 1535.1 743.297 1542.5C732.138 1540.82 708.893 1538.46 705.185 1542.5C703.554 1534.18 694.272 1533.97 685.724 1533.78C680.782 1533.67 676.085 1533.56 673.254 1531.9C665.529 1527.36 661.924 1525.84 657.804 1528.87C656.023 1530.18 648.76 1529.51 640.794 1528.77C630.328 1527.81 618.65 1526.73 616.603 1529.88C613.719 1534.32 616.088 1536.44 617.633 1536.95H611.452C613.856 1540.65 617.942 1548.45 615.057 1550.07C613.627 1550.87 612.277 1552.94 610.88 1555.09C608.757 1558.35 606.523 1561.78 603.727 1561.17C602.931 1561 601.557 1560.6 599.861 1560.11C591.687 1557.75 576.037 1553.23 581.582 1561.17C576.637 1564 575.745 1570.43 575.916 1573.29C575.23 1580.86 573.238 1595.8 570.766 1594.99C567.676 1593.98 562.011 1598.02 562.011 1602.06C562.011 1605.29 554.801 1606.77 551.196 1607.11C551.024 1609.8 549.651 1615.89 545.53 1618.72C541.41 1621.54 533.17 1619.89 529.565 1618.72C529.565 1621.91 530.595 1628.71 534.715 1630.33C538.835 1631.94 530.595 1629.65 525.96 1628.31C525.699 1626.87 525.489 1624.68 525.875 1623.46L525.714 1623.46L525.411 1623.48L525.397 1623.48L525.327 1623.48L525.28 1623.48C522.112 1623.61 517.205 1623.82 517.205 1626.29C517.205 1626.62 517.208 1627 517.212 1627.41C517.255 1631.94 517.335 1640.55 513.084 1641.94C512.369 1642.17 511.457 1642.41 510.445 1642.69C504.904 1644.18 496.369 1646.48 500.724 1652.03C503.394 1655.43 501.773 1655.99 497.367 1657.49C493.275 1658.88 486.781 1661.1 479.093 1667.17C472.501 1663.94 469.823 1671.21 469.308 1675.25C467.076 1674.58 462.098 1672.42 460.038 1669.19C457.978 1665.96 455.403 1669.53 454.373 1671.72C448.021 1672.89 435.317 1676.86 435.317 1683.33C435.317 1689.79 433.944 1693.08 433.257 1693.92Z" fill="#E5DBDB"/>
<path d="M867.226 1891.58H898.3C902.55 1896.52 909.774 1907.09 904.674 1909.92C899.575 1912.74 881.302 1911.09 872.803 1909.92L867.226 1891.58Z" fill="#FC00F4"/>
<path d="M793.125 1849.26L817.028 1833.74C819.153 1837.03 822.128 1844.74 817.028 1849.26C811.929 1853.77 798.968 1851.14 793.125 1849.26Z" fill="#FC00F4"/>
<path d="M790.19 1656.23C790.896 1644.15 764.457 1627.91 751.022 1621.24C748.103 1620.74 741.854 1620.43 740.206 1623.26C739.162 1625.05 736.925 1624.64 734.503 1624.19C732.15 1623.75 729.623 1623.28 727.846 1624.77C724.962 1627.2 720.121 1625.78 718.061 1624.77L708.275 1626.29C707.074 1628.48 703.125 1633.05 696.945 1633.86C690.765 1634.67 687.846 1629.15 687.16 1626.29V1636.38C680.98 1638 678.748 1651.86 678.404 1658.59C674.971 1658.76 668.825 1659.9 671.709 1663.13C673.979 1665.68 674.411 1665.62 675.448 1665.48C676.059 1665.4 676.878 1665.28 678.404 1665.66C681.701 1666.47 677.031 1670.03 674.284 1671.72V1675.25H668.104C669.134 1677.27 670.576 1681 668.104 1679.79C665.632 1678.58 661.237 1681.64 659.349 1683.33V1694.43C658.319 1695.61 655.435 1697.56 652.139 1695.94C648.843 1694.33 643.898 1694.26 641.838 1694.43L627.933 1675.25C625.53 1675.92 620.002 1677.27 617.118 1677.27C614.234 1677.27 612.482 1671.88 611.967 1669.19C609.392 1669.19 603.418 1669.7 600.122 1671.72C596.826 1673.73 596.689 1669.53 597.032 1667.17C595.487 1666.33 591.367 1664.35 587.247 1663.13C583.127 1661.92 577.29 1665.32 574.886 1667.17H551.196V1663.13H542.955V1667.17L538.32 1669.19C538.481 1670.17 538.738 1671.14 538.979 1672.04C539.768 1675 540.375 1677.27 536.775 1677.27C526.104 1677.27 522.285 1679.73 516.908 1683.18L516.69 1683.33L512.054 1689.89C510.338 1689.38 506.389 1688.98 504.329 1691.4C502.406 1693.66 501.919 1693.95 500.509 1694.8C500.031 1695.08 499.446 1695.43 498.664 1695.94C505.256 1695.14 505.187 1699.98 504.329 1702.51L498.664 1709.07H494.029L486.304 1716.64C484.243 1714.96 480.329 1710.48 481.153 1706.04C481.977 1701.6 476.69 1696.11 473.943 1693.92C472.055 1692.07 466.115 1688.37 457.463 1688.37C452.931 1698.87 439.437 1696.45 433.257 1693.92C433.944 1693.08 435.317 1689.79 435.317 1683.33C435.317 1676.86 448.021 1672.89 454.373 1671.72C455.403 1669.53 457.978 1665.96 460.038 1669.19C462.098 1672.42 467.076 1674.58 469.308 1675.25C469.823 1671.21 472.501 1663.94 479.093 1667.17C486.781 1661.1 493.275 1658.88 497.367 1657.49C501.773 1655.99 503.394 1655.43 500.724 1652.03C496.369 1646.48 504.904 1644.18 510.445 1642.69C511.457 1642.41 512.369 1642.17 513.084 1641.94C517.335 1640.55 517.255 1631.94 517.212 1627.41C517.208 1627 517.205 1626.62 517.205 1626.29C517.205 1623.82 522.112 1623.61 525.28 1623.48M790.19 1656.23C790.184 1656.35 790.175 1656.46 790.163 1656.57C790.172 1656.46 790.181 1656.34 790.19 1656.23ZM790.19 1656.23C791.238 1643.41 793.827 1641.43 800.463 1641.43C802.783 1641.43 808.997 1643.37 816.043 1645.57C829.334 1649.71 845.586 1654.78 844.24 1649.51C844.341 1649.23 844.441 1648.96 844.539 1648.69C846.92 1642.2 847.994 1639.27 839.089 1635.88C836.224 1634.79 834.496 1634.26 833.515 1634.08M833.515 1634.08C831.955 1633.79 832.277 1634.35 832.909 1634.87L833.515 1634.08ZM833.515 1634.08L837.544 1628.81L847.33 1634.87L848.875 1637.9L851.965 1632.34H863.295C872.909 1631.67 891.312 1631.44 888.016 1635.88C884.72 1640.32 890.419 1635.04 893.681 1631.84C899.977 1629.37 912.13 1624.98 914.427 1625.51M914.427 1625.51C914.723 1625.92 914.862 1626.04 914.797 1625.78C914.783 1625.73 914.754 1625.68 914.71 1625.64C914.646 1625.58 914.551 1625.54 914.427 1625.51ZM914.427 1625.51C912.846 1623.34 906.792 1612.92 903.467 1607.11C915.655 1617.37 942.711 1636.69 953.423 1631.84C964.136 1626.99 955.483 1625.78 949.818 1625.78L945.183 1617.71C952.221 1619.39 965.887 1623.66 964.239 1627.3C962.591 1630.93 959.432 1632.18 958.058 1632.34L972.479 1640.93V1634.87C982.436 1632.85 1005.13 1629.52 1016.26 1632.34C1023.31 1634.14 1023.47 1633.2 1023.67 1632.04C1023.86 1630.92 1024.08 1629.58 1030.68 1630.33C1041.39 1631.54 1070.5 1641.26 1083.72 1645.97C1087.84 1643.79 1096.08 1638.5 1096.08 1634.87C1096.08 1632.75 1102.58 1632.28 1109.67 1631.76C1117.79 1631.17 1126.67 1630.53 1127.5 1627.3C1128.73 1622.45 1138.31 1618.21 1142.95 1616.7C1147.76 1619.22 1157.78 1623.86 1159.43 1622.25C1161.08 1620.63 1161.49 1612.83 1161.49 1609.13L1173.33 1596.51C1175.91 1597.18 1181.58 1598.12 1183.64 1596.51C1185.7 1594.89 1194.79 1590.79 1199.09 1588.94C1204.58 1585.07 1213.71 1574 1206.3 1560.67C1206.3 1556.63 1209.73 1556.3 1211.45 1556.63C1213.16 1552.93 1214.85 1545.53 1207.84 1545.53C1200.84 1545.53 1165.44 1547.88 1148.61 1549.06C1158.06 1548.05 1171.89 1544.42 1151.7 1537.96C1131.52 1531.49 1137.46 1541.32 1142.95 1547.04C1139.34 1544.35 1130.38 1539.47 1123.38 1541.49C1122.41 1539.84 1124.49 1539.18 1127.35 1538.27C1130.6 1537.24 1134.85 1535.9 1136.77 1532.4C1139.65 1527.15 1121.83 1526.85 1112.56 1527.36L1105.87 1530.38L1112.56 1522.81C1118.06 1522.98 1129.25 1522.91 1130.07 1521.3C1130.35 1520.77 1132.37 1520.69 1135.3 1520.58C1143.48 1520.27 1158.73 1519.7 1162.52 1508.18C1167.67 1492.53 1166.64 1486.98 1160.46 1486.98C1158.3 1486.98 1156.51 1488.15 1154.62 1489.4C1151.11 1491.71 1147.22 1494.27 1139.86 1490C1130.79 1484.75 1141.92 1485.8 1148.61 1486.98C1152.39 1487.14 1159.33 1486.37 1156.85 1481.93C1154.38 1477.49 1163.03 1474.02 1167.67 1472.84C1171.45 1478.73 1181.58 1487.68 1191.88 1476.38C1202.18 1465.07 1196.17 1464.6 1191.88 1465.78C1195.63 1461.62 1202.01 1453.16 1199.11 1450.93M1199.11 1450.93C1198.96 1450.81 1198.78 1450.71 1198.57 1450.63C1198.72 1450.73 1198.9 1450.83 1199.11 1450.93ZM1199.11 1450.93C1203.13 1452.87 1217.01 1454.78 1215.05 1447.1C1212.99 1439.02 1232.05 1433.98 1232.56 1435.49C1233.08 1437 1244.92 1405.21 1237.71 1404.2C1242.35 1398.64 1251.41 1385.12 1250.59 1375.42C1256.77 1373.81 1253.16 1366.34 1250.59 1362.81C1251.96 1351.03 1251.62 1326.06 1239.26 1320.41C1238.02 1312.73 1229.82 1310.14 1225.87 1309.81C1216.94 1301.56 1194.55 1285.58 1176.43 1287.6C1183.64 1291.64 1166.12 1291.64 1165.09 1287.6C1164.06 1283.56 1125.95 1283.56 1125.95 1290.63C1125.95 1296.28 1118.06 1308.12 1114.11 1313.34C1112.22 1312.33 1107.62 1310.61 1104.32 1311.83C1102.97 1312.32 1101.52 1310.12 1099.57 1307.17C1095.57 1301.11 1089.49 1291.93 1078.06 1296.68C1079.91 1295.13 1081.9 1293.74 1083.8 1292.41L1083.8 1292.41C1089.29 1288.58 1094.01 1285.28 1092.48 1280.03C1091.14 1275.43 1098.94 1272.54 1105.13 1270.25L1105.13 1270.25C1108.46 1269.02 1111.33 1267.96 1112.05 1266.9C1114.11 1263.87 1117.2 1219.96 1100.72 1208.86C1103.6 1199.97 1095.4 1198.42 1090.93 1198.76C1085.95 1190.85 1075.48 1176.75 1073.42 1183.62C1073.42 1174.33 1067.93 1174.03 1065.18 1175.04C1061.92 1169.49 1056.22 1158.58 1059.52 1159.39C1061.32 1159.83 1064.2 1163.45 1067.13 1167.14L1067.13 1167.14C1070.91 1171.89 1074.77 1176.74 1076.51 1175.04C1077.62 1175.04 1078.98 1174.65 1080.5 1174.22C1083.22 1173.45 1086.41 1172.55 1089.39 1173.52C1093.26 1174.79 1097.13 1179.57 1096.5 1184.06M1096.5 1184.06C1096.38 1184.94 1096.08 1185.82 1095.57 1186.65C1095.96 1185.87 1096.28 1185.01 1096.5 1184.06ZM1096.5 1184.06C1098.33 1176.29 1094.22 1162.51 1079.09 1142.73C1065.49 1124.97 1067.24 1110.09 1069.82 1104.88L1080.63 1095.79L1065.18 1086.71C1066.55 1083.51 1066.83 1076.51 1056.94 1074.09C1047.05 1071.66 1048.01 1064.33 1049.73 1060.96C1049.22 1055.41 1046.85 1044.51 1041.49 1045.32C1041.49 1040.27 1012.14 1009.98 993.594 1013.01C978.762 1015.43 981.921 1008.3 985.354 1004.43C985.182 1000.22 982.676 991.408 974.024 989.793C965.372 988.177 965.612 965.228 966.814 953.955C966.985 951.431 966.402 945.475 962.693 941.841C958.985 938.207 958.402 932.587 958.573 930.232C958.917 921.819 958.161 904.792 952.393 903.984C946.625 903.177 949.99 897.591 952.393 894.899C952.565 893.384 952.393 888.842 950.333 882.785C948.273 876.728 950.848 875.55 952.393 875.718C953.423 870.166 954.453 859.263 950.333 860.071C951.535 859.734 953.217 858.355 950.333 855.528C950.333 851.49 948.788 841.9 942.608 842.404C937.664 842.808 936.771 841.563 936.943 840.89C938.144 839.544 939.003 836.953 932.822 837.357C926.642 837.761 927.501 834.497 928.702 832.814C927.157 827.598 922.522 815.551 916.342 809.091M916.342 809.091C915.14 804.884 912.119 796.169 909.647 794.957C906.557 793.443 909.132 789.91 902.951 787.386C896.771 784.862 894.711 783.348 888.531 782.843C883.587 782.439 885.441 780.993 886.986 780.32C884.411 776.955 877.201 770.426 868.96 771.234C868.96 767.196 853.51 749.025 838.059 768.206C825.699 783.55 821.579 780.656 821.064 777.291C817.631 774.262 808.91 768.206 801.493 768.206C794.077 768.206 795.656 767.196 797.373 766.691C790.506 763.494 775.331 757.404 769.562 758.615C762.352 760.129 771.622 751.549 762.867 755.082C758.335 750.236 756.859 745.323 756.687 743.473C761.15 747.847 771.519 756.293 777.288 755.082C783.056 753.87 785.528 756.933 786.043 758.615C789.305 760.466 797.373 763.057 803.553 758.615C809.734 754.173 814.025 755.755 815.399 757.101C817.116 754.577 820.034 749.227 817.974 748.015C815.914 746.804 820.549 747.511 823.124 748.015C828.102 744.482 837.544 737.012 835.484 735.396C833.424 733.781 839.776 734.723 843.21 735.396C846.471 738.761 853.51 743.473 855.57 735.396C861.75 735.396 869.99 732.873 872.566 727.32C874.626 722.879 860.72 716.384 853.51 713.692C855.57 710.495 858.454 702.991 853.51 698.549C848.566 694.108 824.669 702.419 813.339 707.13C816.6 702.587 824.36 693.199 829.304 691.988C834.248 690.776 850.935 692.829 858.66 694.007C863.456 695.014 864.673 693.513 865.87 689.464C868.102 689.969 872.566 689.565 872.566 683.912C877.201 681.893 883.381 680.378 886.986 672.302C889.87 665.841 888.874 664.563 888.016 664.731C889.733 662.712 892.857 657.765 891.621 654.131C890.385 650.497 895.913 648.915 898.831 648.579C900.205 648.074 903.364 646.257 905.012 643.026C906.66 639.796 912.565 635.96 915.312 634.446C914.797 632.763 914.591 629.196 917.887 628.389C921.183 627.581 919.26 620.985 917.887 617.789C923.037 611.9 933.337 599.012 933.337 594.57C933.337 590.128 935.054 580.942 935.913 576.904C939.174 571.688 946.625 560.348 950.333 556.713C954.968 552.171 956.513 554.19 957.543 547.123C958.367 541.47 960.977 541.739 962.178 542.58C963.38 536.019 964.754 521.381 960.633 515.324C956.513 509.266 954.11 508.425 953.423 508.762C953.938 507.752 953.629 505.531 948.273 504.724C942.917 503.916 944.325 502.032 945.698 501.19C941.921 500.349 933.852 499.474 931.792 502.705C929.732 505.935 926.127 504.051 924.582 502.705C923.037 500.686 919.535 497.859 917.887 502.705C916.239 507.55 912.737 504.724 911.192 502.705C909.475 501.022 905.012 498.364 900.891 501.19C896.771 504.017 893.681 500.686 892.651 498.667C889.733 497.825 883.072 496.244 879.776 496.648C876.48 497.051 875.999 495.47 876.171 494.629C871.192 493.114 860.617 491.196 858.145 495.638C855.673 500.08 850.935 498.162 848.875 496.648C844.583 494.629 835.69 489.884 834.454 487.057C833.218 484.231 819.862 485.88 813.339 487.057C813.682 489.581 813.236 494.427 808.704 493.619C803.038 492.61 788.618 493.619 782.438 501.19C776.258 508.762 779.863 497.152 761.322 501.19C761.322 504.219 765.957 506.238 758.747 508.762C751.537 511.286 745.357 509.266 746.387 505.228C747.016 502.761 748.887 503.278 750.348 504.259M916.342 809.091C911.083 806.937 903.768 816.224 898.157 823.347C894.563 827.909 891.669 831.583 890.463 830.795C887.373 828.776 880.162 832.814 885.313 837.357C889.433 840.991 890.463 858.052 890.463 866.128C885.828 866.464 876.557 868.349 876.557 873.194C876.969 883.693 870.205 880.934 866.772 878.242C862.995 881.27 854.721 887.428 851.837 887.832C848.952 888.236 846.858 896.077 846.171 899.946C836.901 906.845 818.052 921.146 816.816 923.165C815.579 925.184 810.12 924.006 807.545 923.165L805.613 933.26M750.348 504.259C750.8 504.562 751.212 504.91 751.537 505.228C751.14 504.985 750.697 504.647 750.348 504.259ZM750.348 504.259C749.488 503.304 749.193 502.052 751.537 501.19C755.657 499.676 759.777 500.686 758.747 496.648C757.717 492.61 770.077 493.619 769.047 489.076C768.017 484.534 765.957 487.057 759.777 488.067C753.597 489.076 754.112 482.515 743.297 487.057C734.644 490.692 731.108 494.965 730.421 496.648C730.936 493.451 734.232 486.351 743.297 483.524C754.627 479.991 756.687 486.048 759.777 478.981C762.249 473.328 766.987 476.626 769.047 478.981C768.532 482.178 768.841 487.259 774.197 482.01C780.893 475.448 794.798 461.315 792.223 459.296C790.163 457.681 783.124 462.661 779.863 465.353C779.348 462.829 776.464 458.69 769.047 462.324C761.631 465.959 759.09 462.829 758.747 460.81C757.374 458.455 752.979 454.046 746.387 455.258C739.794 456.469 740.55 450.042 741.751 446.677C743.296 450.042 748.241 455.964 755.657 452.734C763.073 449.504 762.524 455.763 761.322 459.296C762.18 457.277 764.721 453.441 768.017 454.248C772.137 455.258 774.197 456.267 774.197 448.191C774.197 441.73 770.077 442.471 768.017 443.648V439.106C770.077 440.788 775.021 443.447 778.318 440.62C781.614 437.793 786.215 437.087 788.103 437.087C789.476 435.404 792.223 431.433 792.223 429.011C792.223 425.982 806.643 425.982 819.004 415.382C831.364 404.782 830.334 403.268 829.819 401.754C829.304 400.24 848.36 393.678 850.935 394.182C853.51 394.687 866.9 367.935 861.75 359.354C867.93 351.783 872.566 341.688 872.051 339.164C871.536 336.641 864.84 340.679 863.295 339.164C861.75 337.65 852.48 334.117 848.875 336.641C845.991 338.66 844.583 335.126 844.24 333.107C842.18 332.266 838.883 333.107 842.18 343.202C836.514 341.688 830.849 340.679 827.244 343.202C824.36 345.221 825.356 340.679 826.214 338.155C822.266 337.314 813.133 337.145 808.189 343.202C803.244 349.259 792.051 345.053 787.073 342.193C786.215 339.501 783.88 335.732 781.408 342.193C778.936 348.654 777.288 345.558 776.773 343.202C775.571 342.193 772.652 341.082 770.592 344.717C768.532 348.351 766.301 347.577 765.442 346.736C763.382 343.202 756.481 339.871 745.357 354.812C734.232 369.752 743.468 353.297 749.477 343.202C747.76 337.145 742.163 328.665 733.511 343.202C727.743 344.414 722.524 350.774 720.636 353.802C721.322 350.605 723.314 344.01 725.786 343.202C728.876 342.193 730.936 335.631 722.181 329.574C718.576 336.641 720.121 342.193 717.031 342.193C713.941 342.193 722.696 326.041 709.305 324.022C698.593 322.406 698.318 330.752 699.52 335.126C696.43 335.967 690.353 338.559 690.765 342.193C691.177 345.827 694.713 349.091 696.43 350.269C692.825 350.605 687.16 352.288 693.34 356.326C699.52 360.364 692.825 359.354 688.705 358.345C685.1 358.008 680.053 361.979 688.705 380.554C679.95 383.583 678.404 373.992 669.134 380.554C664.19 373.689 660.551 377.694 659.349 380.554C661.237 384.929 665.838 394.182 669.134 396.202C672.43 398.221 668.791 399.735 666.559 400.24C665.701 401.249 664.499 404.177 666.559 407.811C668.619 411.445 660.894 409.325 656.774 407.811C654.199 405.119 650.594 402.662 656.774 414.373C664.499 429.011 664.499 427.496 665.529 424.468C666.559 421.439 672.739 431.03 669.134 432.544C665.529 434.058 683.555 444.153 678.919 448.696C674.284 453.239 668.619 432.544 661.409 434.563C660.207 432.544 656.98 428.708 653.684 429.515C650.388 430.323 660.207 439.61 665.529 444.153C661.752 442.975 653.169 439.005 649.049 432.544C644.928 426.083 644.928 434.563 645.443 439.61C643.04 438.937 638.233 436.279 638.233 431.03C638.233 424.468 625.358 428.506 628.448 431.03C629.478 435.572 628.448 437.591 632.568 441.629C636.688 445.667 630.508 453.744 629.478 452.734C628.448 451.725 625.873 446.677 625.873 439.61C625.873 432.544 613.512 433.553 614.027 439.61C614.542 445.667 611.967 452.734 612.997 454.248C613.821 455.46 617.461 457.445 619.178 458.286C620.894 460.305 623.813 464.343 621.753 464.343C619.178 464.343 616.088 458.286 612.997 462.324C609.907 466.362 606.302 470.4 610.937 471.915C614.645 473.126 614.542 475.784 614.027 476.962C614.886 480.832 617.118 488.471 619.178 488.067C621.753 487.562 632.568 486.553 632.568 491.6C632.568 495.638 623.641 494.629 619.178 493.619C615.744 489.413 608.568 481 607.332 481C605.787 481 598.062 497.152 600.122 502.2C602.182 507.247 599.607 517.847 605.272 518.857C609.804 519.664 616.431 513.473 619.178 510.276C620.036 512.463 621.753 517.242 621.753 518.857C621.753 520.876 632.568 510.276 634.113 511.286C635.658 512.295 632.568 519.362 625.873 520.371C619.178 521.381 613.512 516.333 609.392 524.914C606.096 531.778 610.422 531.139 612.997 529.961C616.431 532.317 624.534 535.211 629.478 527.942C635.207 519.52 633.412 528.447 633.53 529.394M633.53 529.394C633.539 529.468 633.56 529.493 633.598 529.457C633.672 529.384 633.64 529.364 633.53 529.394ZM633.53 529.394C632.877 529.574 629.478 531.551 629.478 535.009C629.478 538.239 633.255 540.729 635.143 541.571C634.113 542.748 631.538 544.397 629.478 541.571C626.903 538.037 619.693 529.457 614.027 543.085C609.392 545.609 606.817 553.685 612.997 554.19C617.942 554.593 619.178 558.059 619.178 559.742C622.783 559.237 630.508 558.53 632.568 559.742C635.143 561.256 621.238 562.77 619.178 561.761C617.118 560.751 608.877 551.161 601.152 559.742C594.972 566.606 600.294 568.659 603.727 568.827C604.242 572.529 606.508 579.528 611.452 577.913C616.397 576.298 618.663 577.913 619.178 578.922C616.088 580.268 609.289 582.557 606.817 580.942C603.727 578.923 596.002 561.256 588.277 581.951C580.551 602.646 585.702 589.018 595.487 591.541C589.719 595.983 592.397 598.103 594.457 598.608C596.345 597.598 600.637 595.882 602.697 597.094C605.272 598.608 592.912 601.132 588.277 601.132C583.642 601.132 585.187 606.179 589.822 608.198C594.457 610.217 575.401 606.684 582.612 612.236C588.38 616.678 580.208 611.395 575.401 608.198C573.341 608.03 569.221 608.299 569.221 610.722C569.221 613.145 564.758 611.732 562.526 610.722C559.607 609.544 553.462 608.198 552.226 612.236C550.99 616.274 548.62 614.928 547.59 613.751C548.277 616.947 550.784 622.836 555.316 620.817C559.848 618.798 561.324 619.976 561.496 620.817C564.243 622.163 569.942 624.451 570.766 622.836C571.59 621.221 574.2 623.509 575.401 624.855C576.775 625.528 580.139 626.47 582.612 624.855C585.702 622.836 581.067 628.893 579.521 629.398C577.976 629.903 569.736 623.846 566.646 631.417C564.174 637.474 576.946 645.382 583.642 648.579C584.672 650.766 587.35 654.838 589.822 653.626C592.294 652.415 592.569 655.14 592.397 656.655C599.092 653.794 612.894 646.66 614.542 641.007C616.19 635.354 619.006 635.623 620.208 636.464C623.641 634.782 630.611 631.013 631.023 629.398C631.538 627.379 639.263 628.388 640.293 629.398C641.323 630.407 651.109 632.426 639.778 631.922C628.448 631.417 627.933 637.474 629.993 637.979C631.641 638.383 628.62 640.839 626.903 642.017C623.984 643.531 618.56 647.973 620.208 653.626C622.268 660.693 619.178 655.14 633.083 653.626C644.207 652.415 631.195 656.15 623.298 658.169C619.349 658.674 613.512 660.996 621.753 666.245C629.993 671.494 637.203 668.432 639.778 666.245C638.92 668.6 635.967 673.11 631.023 672.302C624.843 671.293 612.997 664.226 609.392 673.816C603.624 678.258 603.212 681.051 603.727 681.892C599.435 686.099 591.779 695.117 595.487 697.54C600.431 695.925 603.727 696.867 604.757 697.54C603.04 699.054 599.195 701.881 597.547 701.073C595.899 700.265 596.174 703.765 596.517 705.616L591.367 715.206C592.569 713.524 595.693 709.957 598.577 709.149C601.461 708.342 599.092 712.851 597.547 715.206C595.83 716.889 593.221 720.96 596.517 723.787C588.792 724.796 574.371 738.425 577.976 744.482C582.097 736.911 588.277 733.377 589.822 733.377C591.367 733.377 581.067 748.52 579.521 749.025C577.976 749.529 576.946 756.596 581.067 754.577C584.363 752.962 586.903 751.885 587.762 751.549C581.238 757.437 570.766 769.821 581.067 772.243C579.521 775.272 587.762 777.796 587.762 773.758C587.762 770.527 591.882 770.393 593.942 770.729C587.075 775.608 574.268 785.771 577.976 787.386C581.685 789.001 576.431 790.078 573.341 790.415L567.676 805.052C565.616 811.109 562.114 823.829 564.586 826.252C567.676 829.281 560.981 828.271 556.346 832.309C552.638 835.54 553.771 845.096 554.801 849.471C557.376 849.639 562.938 849.673 564.586 848.461C566.234 847.25 568.363 848.63 569.221 849.471C573.685 847.62 581.994 842.606 579.521 837.357C577.049 832.107 575.401 830.458 574.886 830.29C577.633 828.776 583.333 824.738 584.157 820.7C584.981 816.662 586.903 814.979 587.762 814.643V809.091C589.135 808.417 591.47 806.264 589.822 803.033C588.174 799.803 589.135 797.313 589.822 796.472C593.77 789.91 602.8 777.493 607.332 780.32C611.864 783.146 607.161 770.393 604.242 763.663C604.757 758.615 604.963 748.217 601.667 747.006C598.371 745.794 600.98 739.098 602.697 735.901C604.414 740.78 608.774 747.107 612.482 733.377C617.118 734.387 633.598 712.682 635.143 718.235C636.379 722.677 633.255 723.787 631.538 723.787C624.328 729.508 610.422 741.151 612.482 741.958C614.542 742.766 612.311 748.688 610.937 751.549C610.422 753.736 610.01 758.514 612.482 760.129C609.907 762.653 618.148 769.215 620.208 770.729C621.856 771.941 620.208 764.84 619.178 761.139L623.298 753.063C622.611 757.606 621.856 767.095 624.328 768.71C627.418 770.729 627.933 785.367 634.113 788.396C639.057 790.818 636.86 776.954 635.143 769.72L629.993 761.139C632.053 761.475 635.864 760.735 634.628 755.082C633.392 749.429 632.74 746.669 632.568 745.996C634.113 747.679 637.1 751.448 636.688 753.063C636.173 755.082 637.203 769.72 641.323 766.691C644.619 764.268 646.473 760.298 646.989 758.615C649.907 756.428 654.302 751.044 648.534 747.006C652.139 749.025 653.684 750.539 653.684 741.958C653.684 735.094 656.087 737.415 657.289 739.434C656.602 744.314 656.671 753.568 662.439 751.549C666.451 750.144 666.709 748.821 665.916 747.919M665.916 747.919C665.57 747.525 665.022 747.211 664.499 747.006C664.583 747.059 664.669 747.113 664.755 747.168C664.961 747.3 665.172 747.436 665.389 747.576C665.561 747.688 665.738 747.802 665.916 747.919ZM665.916 747.919C671.943 751.861 681.203 758.637 678.919 760.129C675.829 762.148 690.765 760.634 689.735 763.663C688.911 766.085 681.495 764.672 677.889 763.663L666.044 757.101C661.237 755.923 651.521 755.284 651.109 762.148C650.697 769.013 650.937 781.834 651.109 787.386C648.534 788.732 643.486 791.929 643.898 793.948C644.31 795.967 649.907 801.519 652.654 804.043C652.31 805.726 652.551 809.091 656.259 809.091C660.894 809.091 665.529 819.186 665.014 819.69C664.499 820.195 659.349 825.747 665.014 826.252C669.546 826.656 664.156 836.516 660.894 841.395C657.632 842.068 651.109 844.928 651.109 850.985C643.383 842.909 636.173 866.128 641.838 864.109C646.371 862.494 638.92 871.848 634.628 876.728C629.135 878.915 618.869 885.006 621.753 891.87C616.088 898.432 616.603 913.575 619.693 916.603C622.783 919.632 614.027 924.174 614.027 916.603C614.027 909.032 612.997 900.451 608.362 902.975C603.727 905.499 601.667 915.594 603.212 926.193C604.448 934.673 611.967 941.504 615.572 943.86L618.663 951.936C616.774 955.469 614.534 967.079 624.328 967.079C628.448 967.079 628.963 964.05 625.358 954.964C624.843 951.936 623.401 945.475 621.753 943.86C619.693 941.841 628.963 926.193 635.658 930.736C635.658 935.784 640.808 940.327 642.353 939.822C643.898 939.317 659.864 950.422 658.319 953.955C657.083 956.782 660.894 961.19 662.954 963.041C665.186 962.872 669.649 963.141 669.649 965.564C669.649 968.593 679.95 966.069 676.859 957.488C674.387 950.624 676.859 950.926 678.404 951.936C678.748 948.739 678.301 942.245 673.769 941.841C669.237 941.437 673.254 933.26 675.829 929.222C678.061 934.101 683.555 943.456 687.675 941.841C691.795 940.226 693.855 938.812 694.37 938.308C692.825 943.523 692.104 953.955 701.58 953.955C701.58 946.687 705.014 946.888 706.73 947.898C705.357 951.6 705.082 958.498 714.971 956.479C727.331 953.955 712.396 954.46 728.361 950.422C724.653 944.768 733.339 944.365 738.146 944.869C737.975 943.86 738.352 941.841 741.236 941.841C744.842 941.841 755.142 948.907 755.657 936.793C756.069 927.102 757.202 925.352 757.717 925.689C771.107 929.39 799.433 936.087 805.613 933.26M805.613 933.26C807.158 934.774 806.643 938.812 803.553 938.812C800.463 938.812 793.253 938.812 791.708 936.793C790.163 934.774 773.167 938.812 782.438 941.841C789.854 944.264 782.781 944.869 778.318 944.869C777.288 942.85 774.404 940.226 771.107 945.879C766.987 952.945 762.352 963.545 764.412 964.555C766.06 965.362 760.635 967.92 757.717 969.098C752.223 978.183 741.649 996.758 743.297 998.373C744.055 999.117 743.277 999.723 742.352 1000.45C740.764 1001.68 738.741 1003.26 743.297 1006.45C749.065 1010.49 756.687 1025.63 759.777 1032.7C758.919 1036.9 757.923 1045.42 760.807 1045.82C761.837 1048.34 766.472 1057.93 770.592 1057.43C773.888 1057.03 776.086 1051.2 776.773 1048.34C777.459 1052.55 778.009 1060.96 774.712 1060.96C771.416 1060.96 772.309 1069.38 773.167 1073.58C776.086 1074.09 781.408 1076 779.348 1079.64C776.773 1084.18 785.013 1076.11 783.983 1073.58C783.586 1072.61 785.022 1071.12 786.849 1069.21C789.768 1066.17 793.688 1062.09 792.738 1057.43C791.502 1051.37 794.626 1054.23 796.343 1056.42C796 1060.29 796.343 1067.83 800.463 1067.02C803.948 1066.34 805.547 1063.8 806.535 1062.24C807.008 1061.49 807.341 1060.96 807.674 1060.96C808.704 1060.96 813.339 1062.48 813.339 1068.03C813.339 1069.89 813.916 1071.24 814.414 1072.4C815.402 1074.71 816.074 1076.28 811.279 1079.64C804.068 1084.69 799.948 1088.22 802.523 1091.75C803.952 1093.71 805.96 1093.52 807.514 1092.83M807.514 1092.83C808.2 1092.52 808.798 1092.11 809.219 1091.75C808.699 1092.06 808.117 1092.42 807.514 1092.83ZM807.514 1092.83C804.132 1095.09 800.076 1098.62 802.523 1100.33C803.697 1101.16 801.596 1101.23 798.495 1101.34C792.069 1101.56 781.347 1101.93 786.558 1109.42C792.738 1118.3 788.446 1123.22 785.528 1124.56C785.871 1128.94 788.824 1137.38 797.888 1136.17C785.116 1142.23 777.803 1156.53 775.743 1162.92L780.893 1181.6C777.803 1183.45 771.107 1186.95 769.047 1186.14C766.472 1185.13 760.807 1188.16 764.927 1193.71C769.047 1199.27 772.137 1209.36 771.622 1211.38M771.622 1211.38L783.983 1223.49C780.893 1226.35 775.64 1232.58 779.348 1234.6C783.983 1237.12 787.073 1252.26 785.528 1255.29C784.292 1257.72 793.253 1258.99 797.888 1259.33C799.348 1266.73 799.614 1278.92 789.005 1268.42C778.395 1257.92 768.532 1264.04 764.927 1268.42C760.078 1272.12 751.511 1281.84 756.044 1291.13C756.543 1291.13 757.047 1291.12 757.552 1291.11M771.622 1211.38C771.331 1212.52 765.27 1206.72 759.781 1201.46C755.568 1197.42 751.693 1193.71 751.022 1193.71C750.937 1193.71 750.813 1193.71 750.654 1193.71C747.917 1193.68 734.717 1193.51 728.876 1198.76C723.932 1203.2 713.769 1200.61 709.305 1198.76C707.76 1197.25 703.743 1193.81 700.035 1192.2C699.46 1191.95 698.933 1191.71 698.458 1191.49C695.104 1189.94 694.366 1189.6 697.975 1196.24C690.559 1193.01 682.181 1199.6 678.919 1203.3C676.001 1204.14 670.164 1205.12 670.164 1202.29C670.164 1199.47 675.314 1194.39 677.889 1192.2C674.113 1191.19 665.838 1189.47 662.954 1190.68C661.175 1191.43 660.775 1188.86 660.332 1186C659.877 1183.07 659.375 1179.84 657.289 1179.58C660.894 1175.04 633.598 1157.37 627.418 1181.09C631.023 1182.1 624.328 1188.67 623.813 1187.66C623.298 1186.65 613.512 1177.06 614.027 1185.13C614.439 1191.59 617.976 1190.52 619.693 1189.17C620.551 1191.53 622.783 1196.24 624.843 1196.24C626.903 1196.24 628.105 1197.92 628.448 1198.76C629.306 1202.46 631.538 1209.76 633.598 1209.36C635.658 1208.96 636.86 1209.19 637.203 1209.36C636.688 1211.88 636.688 1216.83 640.808 1216.43C644.928 1216.02 648.362 1217.6 649.564 1218.45C645.958 1219.29 639.366 1222.38 641.838 1228.04C644.31 1233.69 630.165 1241.16 622.783 1244.19C615.058 1246.71 598.989 1254.18 596.517 1263.87C594.913 1270.16 596.084 1269.51 599.456 1267.65C602.578 1265.92 607.588 1263.15 614.027 1263.87C613.419 1266.26 616.407 1267.59 618.422 1268.49C619.817 1269.11 620.746 1269.52 619.693 1269.93C617.118 1270.94 624.843 1272.45 623.813 1263.87C622.989 1257.01 629.306 1255.29 632.568 1255.29C636.516 1255.29 644.722 1254.89 645.958 1253.27C647.195 1251.66 652.31 1252.6 654.714 1253.27C659.692 1253.27 667.898 1254.49 660.894 1259.33C658.472 1259.33 659.565 1261.4 660.647 1263.44C661.636 1265.31 662.615 1267.17 660.894 1267.41C657.289 1267.91 655.744 1271.45 659.349 1275.99C661.597 1278.82 662.843 1281.65 663.713 1283.63C664.238 1284.82 664.626 1285.7 665.014 1286.08C666.044 1287.09 660.379 1296.18 658.319 1296.18C656.259 1296.18 652.139 1312.84 662.954 1314.35C673.769 1315.86 674.284 1317.88 667.589 1318.39C666.647 1318.46 665.806 1318.49 665.058 1318.52C660.49 1318.69 659.349 1318.73 659.349 1326.97C659.349 1332.85 656.053 1337.03 652.911 1341.01C650.932 1343.51 649.014 1345.94 648.019 1348.67C645.958 1354.33 632.74 1361.46 626.388 1364.32C621.924 1364.99 611.967 1367.95 607.847 1374.42C605.092 1378.74 602.778 1377.28 599.882 1375.45C597.365 1373.86 594.407 1372 590.337 1373.41C589.664 1372.97 589.675 1373.58 589.689 1374.37C589.707 1375.4 589.73 1376.72 588.277 1376.43C585.702 1375.93 581.067 1376.43 578.491 1383C576.431 1388.25 572.14 1386.19 570.251 1384.51C569.393 1385.69 568.191 1388.35 570.251 1389.56C572.311 1390.77 566.303 1388.04 563.041 1386.53C561.668 1386.53 559.333 1387.14 560.981 1389.56C563.041 1392.59 551.196 1386.02 550.681 1384.51C550.166 1383 539.35 1386.53 543.985 1390.57C548.62 1394.61 532.655 1397.13 531.625 1396.62C530.595 1396.12 525.96 1397.13 528.02 1398.64C528.674 1399.12 526.888 1399.91 524.739 1400.86C520.119 1402.89 513.82 1405.66 526.475 1407.73C541.307 1410.15 539.865 1418.83 537.29 1422.87C534.372 1425.06 527.917 1429.43 525.445 1429.43C522.973 1429.43 524.415 1432.13 525.445 1433.47C526.475 1436.67 528.947 1441.55 530.595 1435.49C531.705 1431.41 533.564 1432.31 536.896 1433.94C539.746 1435.32 543.675 1437.24 549.135 1437C558.81 1436.59 558.522 1434.16 558.091 1430.53C557.994 1429.72 557.891 1428.84 557.891 1427.92C557.891 1422.87 564.071 1431.96 560.981 1434.48C558.509 1436.5 561.324 1438.01 563.041 1438.52C558.062 1439.7 547.796 1441.85 546.56 1441.04C545.015 1440.03 541.925 1439.53 540.38 1441.04C539.144 1442.25 536.089 1440.54 534.715 1439.53C535.745 1442.39 538.32 1447.71 540.38 1446.09C540.38 1447.6 543.985 1461.23 556.346 1451.64C554.286 1447.2 567.848 1449.12 574.886 1450.63C577.29 1448.78 581.994 1444.27 581.582 1441.04C581.169 1437.81 595.83 1438.69 603.212 1439.53C604.929 1439.19 608.259 1437.91 607.847 1435.49C607.435 1433.07 611.452 1435.49 613.512 1437V1442.56C611.796 1443.06 609.392 1445.18 613.512 1449.62C617.633 1454.07 625.186 1454.17 628.448 1453.66C631.881 1455.34 639.263 1458.2 641.323 1456.19C643.898 1453.66 639.778 1462.75 635.143 1461.23C631.435 1460.02 621.924 1460.73 617.633 1461.23C616.431 1465.61 615.573 1474.15 621.753 1473.35C623.813 1475.37 630.165 1473.52 633.083 1472.34C634.8 1472 638.233 1471.73 638.233 1473.35C638.233 1475.37 651.109 1476.38 652.139 1473.35C653.169 1470.32 663.469 1463.25 665.529 1467.29C665.974 1468.16 666.707 1469.39 667.558 1470.81L667.559 1470.81C670.646 1475.97 675.273 1483.7 673.254 1486.47C670.679 1490 678.92 1493.03 681.495 1492.02C683.555 1491.22 688.19 1500.44 690.25 1505.15C700.207 1508.68 721.769 1514.54 728.361 1509.69C734.953 1504.84 734.885 1499.59 734.026 1497.58C740.206 1495.39 752.567 1490.31 752.567 1487.48C752.567 1484.65 754.284 1487.31 755.142 1488.99C760.12 1489.5 770.592 1489.9 772.652 1487.48C774.712 1485.06 780.721 1484.45 783.468 1484.45M783.468 1484.45C784.669 1483.61 787.073 1481.63 787.073 1480.41C787.073 1479.74 788.802 1478.57 790.677 1477.3C793.023 1475.71 795.599 1473.96 795.313 1472.84C795.06 1471.85 798.042 1469.88 801.14 1467.84C804.345 1465.72 807.674 1463.53 807.674 1462.24C807.674 1461.04 809.907 1460.98 812.296 1460.93C814.907 1460.86 817.705 1460.8 817.974 1459.21C818.489 1456.19 818.489 1465.27 814.369 1463.76C810.249 1462.24 798.918 1473.85 797.888 1475.37C797.518 1475.91 797.48 1476.39 797.441 1476.9C797.37 1477.8 797.292 1478.8 795.313 1480.41C792.223 1482.94 785.528 1492.53 785.013 1495.56C784.601 1497.98 780.034 1499.26 777.803 1499.59C773.167 1499.93 762.558 1502.72 757.202 1511.2C751.846 1509.18 749.82 1516.42 749.477 1520.29C748.447 1522.64 746.078 1526.65 744.842 1523.82C743.606 1521 743.297 1535.1 743.297 1542.5C732.138 1540.82 708.893 1538.46 705.185 1542.5C703.554 1534.18 694.272 1533.97 685.724 1533.78C680.782 1533.67 676.085 1533.56 673.254 1531.9C665.529 1527.36 661.924 1525.84 657.804 1528.87C656.023 1530.18 648.76 1529.51 640.794 1528.77C630.328 1527.81 618.65 1526.73 616.603 1529.88C613.719 1534.32 616.088 1536.44 617.633 1536.95H611.452C613.856 1540.65 617.942 1548.45 615.057 1550.07C613.627 1550.87 612.277 1552.94 610.88 1555.09C608.757 1558.35 606.523 1561.78 603.727 1561.17C602.931 1561 601.557 1560.6 599.861 1560.11C591.687 1557.75 576.037 1553.23 581.582 1561.17C576.637 1564 575.745 1570.43 575.916 1573.29C575.23 1580.86 573.238 1595.8 570.766 1594.99C567.676 1593.98 562.011 1598.02 562.011 1602.06C562.011 1605.29 554.801 1606.77 551.196 1607.11C551.024 1609.8 549.651 1615.89 545.53 1618.72C541.41 1621.54 533.17 1619.89 529.565 1618.72C529.565 1621.91 530.595 1628.71 534.715 1630.33C538.835 1631.94 530.595 1629.65 525.96 1628.31C525.699 1626.87 525.489 1624.68 525.875 1623.46M783.468 1484.45C773.991 1482.84 783.211 1456.52 789.005 1443.57C783.554 1445.42 773.682 1447.6 777.803 1441.55C781.923 1435.49 773.682 1430.27 769.047 1428.42C765.228 1429.1 756.275 1428.83 751.022 1422.37C744.455 1414.29 748.833 1375.93 757.589 1376.43C764.593 1376.84 762.91 1367.85 761.194 1363.31C757.074 1361.63 747.7 1356.85 743.168 1351.2C738.636 1345.54 745.057 1340.77 748.833 1339.08C754.198 1338.07 764.927 1334.74 764.927 1329.49C764.927 1326.4 762.954 1326.67 760.342 1327.03C757.412 1327.43 753.677 1327.94 751.022 1323.94C747.004 1317.88 753.726 1314.01 757.589 1312.84C761.408 1310.14 769.047 1303.25 769.047 1297.19C769.047 1290.71 764.051 1290.88 758.736 1291.07H758.732H758.727M525.875 1623.46C526.123 1622.67 526.618 1622.28 527.505 1622.75C528.492 1623.28 527.537 1623.38 525.875 1623.46ZM525.875 1623.46L525.714 1623.46M525.875 1623.46C525.822 1623.46 525.768 1623.46 525.714 1623.46M557.213 670.93C555.901 671.658 547.667 672.144 543.47 672.302C541.41 670.283 538.526 666.245 543.47 666.245C549.651 666.245 543.985 660.188 550.166 660.188C560.878 658.977 562.183 654.299 561.496 652.112C558.406 653.626 552.226 656.049 552.226 653.626C552.226 650.598 543.47 644.541 539.865 644.541C536.981 644.541 535.23 640.839 534.715 638.988C538.423 638.988 537.634 634.277 536.775 631.922C539.007 630.407 543.882 628.186 545.53 631.417C558.921 621.827 557.376 629.398 560.466 631.922C567.676 633.941 564.586 646.56 568.191 649.083C582.097 648.074 571.796 656.655 579.006 653.121C586.217 649.588 581.067 658.169 585.187 657.159C589.307 656.15 589.822 660.188 591.367 663.216C592.912 666.245 591.367 666.245 592.397 668.264C593.427 670.283 591.367 672.302 589.822 673.816C588.652 674.963 586.302 670.901 585.899 670.175M557.213 670.93C557.296 670.883 557.351 670.836 557.376 670.788C557.472 670.599 557.424 670.675 557.213 670.93ZM557.213 670.93C556.291 672.037 552.264 676.529 543.47 677.35C534.818 678.157 534.028 676.677 534.715 675.835C532.483 672.639 527.608 669.374 525.96 681.892C525.96 687.546 531.797 687.613 534.715 686.94C537.29 685.762 543.058 683.81 545.53 685.426C548.002 687.041 552.397 685.426 554.286 684.416C556.689 684.248 561.496 683.508 561.496 681.892C561.496 679.873 570.766 680.883 570.766 677.35C570.766 673.816 575.401 682.902 571.796 682.902C568.191 682.902 579.521 686.435 581.067 682.902C582.612 679.369 588.277 678.864 588.277 677.35C588.277 676.138 583.47 675.835 581.067 675.835C583.298 675.162 587.453 673.211 586.217 670.788C586.061 670.483 585.958 670.285 585.899 670.175M585.899 670.175C585.817 670.02 585.823 670.039 585.899 670.175ZM582.612 526.428C582.097 527.606 581.994 529.961 585.702 529.961C590.337 529.961 588.277 529.961 590.337 532.99C592.397 536.018 593.427 531.98 600.122 530.971C606.817 529.961 603.727 531.98 607.332 532.99C610.937 533.999 612.997 538.542 612.997 540.561C612.997 542.58 602.182 549.647 600.122 549.647C600.946 553.281 596.002 556.209 593.427 557.218C588.277 563.275 577.152 573.572 573.856 566.304C569.736 557.218 577.976 567.313 577.976 559.742C577.976 553.685 587.247 547.459 591.882 545.104C587.762 545.609 580.139 545.912 582.612 543.085C585.702 539.552 579.006 535.009 579.521 537.028C580.036 539.047 573.856 551.161 571.281 549.647C569.221 548.435 569.736 543.085 570.251 540.561C563.899 542.244 551.505 544.801 552.741 541.571C554.286 537.533 559.436 539.047 551.196 536.018C542.955 532.99 553.256 529.961 551.196 527.942C549.548 526.327 546.389 527.269 545.015 527.942C542.955 524.914 539.453 517.847 541.925 513.809C545.015 508.762 550.681 516.333 551.196 513.809C551.711 511.285 547.075 511.285 545.015 510.276C542.955 509.266 545.015 500.686 543.47 502.2C541.925 503.714 540.895 502.2 538.835 499.676C537.187 497.657 534.715 505.901 533.685 510.276C530.767 508.593 524.724 505.228 523.9 505.228C523.076 505.228 521.84 498.498 521.325 495.133C520.466 494.124 518.75 491.701 518.75 490.086C518.75 488.471 521.496 488.067 522.87 488.067C522.87 485.711 523.488 481 525.96 481C528.432 481 530.767 487.057 531.625 490.086C532.655 490.086 534.509 489.682 533.685 488.067C532.861 486.452 534.028 484.365 534.715 483.524C537.805 483.524 542.543 482.615 536.775 478.981C531.007 475.347 532.998 472.756 534.715 471.915C534.372 469.391 534.303 464.646 536.775 465.858C539.247 467.069 541.239 473.765 541.925 476.962C543.642 476.962 547.075 478.275 547.075 483.524C552.844 481.101 556.689 486.889 557.891 490.086C559.779 489.413 562.732 487.764 559.436 486.553C556.14 485.341 555.659 478.981 555.831 475.953C558.234 476.289 562.011 475.953 557.891 471.915C553.771 467.877 557.891 462.493 560.466 460.305C561.153 458.286 563.247 454.551 566.131 455.763C569.736 457.277 568.191 464.343 571.281 465.858C574.371 467.372 576.431 476.962 577.976 478.981C579.212 480.596 577.461 491.432 576.431 496.648L570.251 505.228C576.019 503.209 575.745 506.743 574.886 508.762C572.14 509.267 568.088 510.983 573.856 513.809C581.067 517.343 567.676 520.371 571.281 520.371C574.886 520.371 579.521 521.381 577.976 524.914C576.74 527.74 580.551 527.101 582.612 526.428ZM582.612 526.428L584.157 520.371C586.903 520.876 591.985 522.491 590.337 524.914C588.277 527.942 584.672 527.942 582.612 526.428ZM534.039 368.085C532.124 367.411 530.102 367.345 529.565 369.45C528.741 372.68 529.05 380.554 528.535 380.554L525.96 367.431C527.505 365.243 529.668 361.071 525.96 361.878C521.325 362.888 522.87 356.831 517.72 358.345C513.599 359.556 516.003 363.224 517.72 364.907C516.861 365.411 514.423 366.623 511.539 367.431C507.934 368.44 505.874 387.621 515.144 387.621C505.874 392.163 521.84 389.135 517.72 391.659C513.599 394.182 501.239 391.154 505.874 400.24C510.509 409.325 515.144 400.24 517.72 405.792C520.295 411.344 526.475 412.354 524.415 412.354C522.767 412.354 517.548 413.363 515.144 413.868C515.316 415.55 514.835 419.117 511.539 419.925C507.419 420.934 507.934 428.506 504.329 423.458C501.445 419.42 499.007 421.776 498.149 423.458C499.694 425.982 503.093 432.14 504.329 436.582C505.874 442.134 507.419 439.61 517.72 436.582C528.02 433.553 513.599 425.477 524.415 428.506C533.067 430.929 531.453 423.122 529.565 418.915C529.737 417.233 531.419 414.877 536.775 418.915C543.47 423.963 536.775 413.868 539.35 413.868C541.41 413.868 540.209 410.839 539.35 409.325C537.805 407.811 534.715 404.681 536.775 400.24C539.35 394.687 540.38 400.24 539.35 402.259C538.526 403.874 541.067 410.671 542.44 413.868C544.329 415.887 547.693 418.411 546.045 412.354C550.166 420.43 550.681 416.896 551.711 413.868C551.367 414.877 552.02 415.988 557.376 412.354C562.732 408.719 558.234 406.465 555.316 405.792C554.801 402.427 554.492 397.009 557.376 402.259C560.26 407.508 567.848 403.1 571.281 400.24C569.564 400.744 566.44 401.047 567.676 398.221C569.221 394.687 569.221 387.621 566.131 389.135C563.041 390.649 560.466 390.649 553.771 389.135C547.075 387.621 560.466 387.116 563.556 386.106L563.794 386.029C566.975 384.994 573.29 382.939 571.281 377.526C569.221 371.973 574.371 373.488 575.916 374.497C577.461 375.507 584.157 375.507 584.157 377.526C584.157 379.545 588.277 376.516 590.337 377.526C592.397 378.535 594.457 371.973 594.457 369.45C594.457 366.926 593.427 363.392 590.337 369.45C587.865 374.295 579.693 371.469 575.916 369.45C576.431 366.421 577.873 361.273 579.521 364.907C581.17 368.541 586.045 363.392 588.277 360.364C587.59 359.186 587.35 356.528 591.882 355.316C597.547 353.802 593.942 352.793 591.882 350.269C589.822 347.745 596.002 343.707 597.547 338.659C598.783 334.621 596.002 325.031 591.882 325.031C587.762 325.031 586.629 331.795 584.157 332.602C581.685 333.41 569.393 340.342 563.556 343.707C563.556 346.13 553.599 348.082 548.62 348.755L539.35 353.802V361.878C539.007 363.392 537.702 365.512 535.23 361.878C532.14 357.335 531.11 361.878 531.625 364.907C531.848 366.219 532.888 367.295 534.039 368.085ZM534.039 368.085C535.064 368.446 536.057 368.98 536.775 369.45C536.067 369.218 535.013 368.754 534.039 368.085ZM1056.95 77.7386C1058.5 78.2583 1061.6 81.8242 1063.12 83.7585C1060.2 84.095 1055.29 85.4746 1059 88.3013C1062.71 91.1279 1060.55 92.5075 1059 92.844C1055.91 93.3488 1050.4 94.3583 1053.05 94.3583C1055.71 94.3583 1053.66 100.752 1052.31 103.949C1050.25 110.006 1046.85 122.423 1049.73 123.634C1052.62 124.845 1049.22 126.831 1047.16 127.672C1046.47 128.85 1045.82 131.407 1048.7 132.215C1051.59 133.022 1047.5 137.262 1045.1 139.281C1042.52 139.618 1038.3 142.108 1042.01 149.377C1046.64 158.462 1035.31 159.472 1037.37 157.453C1039.43 155.434 1039.43 155.938 1033.77 150.891C1028.1 145.843 1035.31 144.329 1035.31 140.291C1035.31 136.253 1042.01 119.091 1043.04 118.587C1044.07 118.082 1045.1 106.472 1042.01 106.472C1039.53 106.472 1039.95 102.434 1040.46 100.415C1038.92 99.2376 1035.72 97.5887 1035.31 100.415C1034.9 103.242 1033.08 103.949 1032.22 103.949C1031.36 105.126 1028.51 106.977 1023.98 104.958C1019.45 102.939 1024.15 98.7328 1027.07 96.8821C1024.67 96.0408 1019.76 94.6612 1019.35 95.8726C1018.93 97.084 1015.74 95.3678 1014.2 94.3583C1012.48 93.6853 1009.46 91.9355 1011.1 90.3203C1012.34 79.8214 1018.83 81.5712 1021.92 83.7585C1027.07 77.1967 1030.16 88.3013 1032.22 82.2442C1034.28 76.1872 1038.4 83.7585 1037.89 80.7299C1037.47 78.3071 1042.52 76.3554 1045.1 75.6824L1040.46 69.6253C1039.22 68.0101 1041.66 67.6063 1043.04 67.6063C1042.69 66.4286 1041.7 64.4769 1040.46 66.0921C1038.92 68.1111 1035.31 65.0826 1033.77 64.073C1032.53 63.2654 1033.25 58.3525 1033.77 55.997L1027.07 54.4827C1025.35 55.4922 1021.41 56.4008 1019.35 51.9589C1016.77 46.4066 1025.01 50.9494 1026.04 45.3971C1026.86 40.9553 1030.5 43.5464 1032.22 45.3971C1031.88 43.7146 1032.01 39.9458 1035.31 38.3306C1035.31 29.4469 1043.21 34.6291 1047.16 38.3306L1045.1 50.9494C1044.07 54.1462 1043.34 59.6312 1048.7 55.997C1055.4 51.4542 1054.37 57.0065 1057.97 57.5112C1060.86 57.915 1058.14 62.054 1056.43 64.073C1053.85 65.4191 1049.57 68.0101 1053.05 67.6063C1056.54 67.2025 1057.78 69.1206 1057.97 70.1301C1058.31 69.4571 1059.83 68.4139 1063.12 69.6253C1066.42 70.8368 1064.49 74.8411 1063.12 76.6919C1061.27 77.0329 1058.3 77.558 1056.95 77.7386ZM1056.95 77.7386C1056.75 77.6706 1056.57 77.6547 1056.43 77.7014C1056.03 77.8325 1056.3 77.8253 1056.95 77.7386ZM479.093 1036.73C487.334 1041.28 492.484 1055.41 489.394 1055.41C486.304 1055.41 479.093 1053.39 468.278 1047.33C456.742 1053.8 463.471 1064.83 468.278 1069.54C471.883 1071.23 478.166 1076.41 474.458 1083.68C470.75 1090.95 470.51 1102.18 470.853 1106.9C472.055 1109.76 475.385 1115.88 479.093 1117.5C483.728 1119.51 485.789 1133.65 479.093 1136.68C475.499 1138.3 471.163 1138.62 468.713 1138.8C466.601 1138.95 465.893 1139 468.278 1139.7C473.428 1141.22 479.608 1152.32 474.458 1151.31C469.308 1150.3 463.128 1158.89 465.703 1161.91C467.763 1164.34 472.398 1167.3 474.458 1168.48C473.257 1171.67 471.574 1178.57 474.458 1180.59C477.342 1182.61 475.66 1187.15 474.458 1189.17C476.862 1193.88 480.226 1203.4 474.458 1203.81C468.69 1204.21 469.651 1211.04 470.853 1214.41C475.832 1215.25 483.522 1218.35 474.458 1224C468.737 1227.57 468.662 1230.36 468.598 1232.78C468.535 1235.14 468.482 1237.14 463.128 1239.14C454.476 1242.37 454.373 1251.59 455.403 1255.8L445.617 1265.89C445.446 1269.59 445.205 1278.31 445.617 1283.56C445.929 1287.54 440.375 1292.07 434.69 1296.71C430.996 1299.73 427.248 1302.79 425.017 1305.77C420.485 1311.83 421.755 1314.69 422.957 1315.36C421.755 1315.36 418.012 1314.55 412.656 1311.32C404.416 1308.09 411.626 1315.36 416.261 1319.4C420.553 1323.44 427.901 1332.82 422.957 1338.07C419.159 1342.11 418.278 1339.85 417.685 1338.33C417.314 1337.37 417.055 1336.71 416.261 1338.07C414.613 1340.9 410.768 1339.25 409.051 1338.07H395.661C389.652 1331.34 377.017 1320.61 374.545 1331.51C371.455 1345.14 348.279 1337.99 358.065 1338.07C365.893 1338.14 361.326 1326.99 358.065 1321.42C357.378 1326.97 355.077 1338.07 351.369 1338.07C346.734 1338.07 342.099 1338.07 345.189 1331.51C347.661 1326.26 339.009 1331.34 334.374 1334.54C329.395 1333.53 317.069 1332.12 307.593 1334.54C298.117 1336.96 293.344 1333.53 292.142 1331.51C287.336 1332.52 279.988 1335.25 289.052 1338.07C300.383 1341.61 294.718 1345.64 292.142 1345.64C290.082 1345.64 289.224 1349.01 289.052 1350.69C286.477 1351.87 280.606 1353.52 277.722 1350.69C274.838 1347.87 275.147 1353.89 275.662 1357.25C272.743 1358.26 266.186 1358.36 263.302 1350.69C263.302 1355.62 258.876 1357.05 256.092 1357.95C254.033 1358.62 252.872 1358.99 255.061 1360.28C260.211 1363.31 248.881 1366.34 244.246 1363.82C240.538 1361.8 240.984 1367.69 241.671 1370.88L216.435 1368.86C218.838 1368.02 223.645 1364.52 223.645 1357.25C223.645 1348.17 196.349 1354.23 202.015 1354.23C206.919 1354.23 207.964 1358.77 209.827 1366.86C210.116 1368.12 210.424 1369.46 210.77 1370.88C212.83 1379.36 195.834 1383.16 187.079 1384.01C183.646 1389.73 177.5 1399.96 180.384 1395.11C183.989 1389.05 161.843 1384.01 165.448 1388.04C168.332 1391.27 164.247 1395.78 161.843 1397.63C157.895 1394.44 148.865 1389.46 144.333 1395.11C139.801 1400.76 136.951 1397.47 136.093 1395.11C132.144 1392.75 123.732 1389.05 121.672 1393.09C120.355 1395.67 118.094 1395.61 115.58 1395.55C113.179 1395.48 110.546 1395.42 108.282 1397.63C104.574 1401.27 103.303 1397.47 103.132 1395.11C100.556 1396.79 94.7882 1400.36 92.3162 1401.17C90.8729 1401.64 90.7778 1400.35 90.6666 1398.84C90.5397 1397.12 90.3918 1395.11 88.1961 1395.11C84.9 1395.11 86.8227 1390.4 88.1961 1388.04C84.2476 1387.03 76.0417 1385.62 74.8056 1388.04C73.5695 1390.47 68.7971 1389.05 66.5653 1388.04C59.3551 1393.43 44.8317 1402.38 44.4197 1395.11C44.0254 1388.16 50.5728 1386.52 55.7443 1385.24C57.3283 1384.84 58.7833 1384.48 59.8701 1384.01C64.5052 1381.99 74.8056 1376.94 74.8056 1374.42C74.8056 1373.21 68.4718 1374.42 61.8496 1375.69C54.5953 1377.07 46.9948 1378.52 46.9948 1376.94C46.9948 1374.52 72.0589 1368.86 84.5909 1366.34C89.5694 1364.32 98.0844 1360.28 92.3162 1360.28C87.6884 1360.28 87.0917 1357.79 86.4409 1355.07C86.0777 1353.55 85.6977 1351.96 84.5909 1350.69C81.5008 1347.16 79.9558 1354.23 78.9258 1360.28C78.3417 1363.72 66.4953 1363.26 56.2539 1362.86C48.4355 1362.55 41.5526 1362.29 41.3296 1363.82C40.9176 1366.64 31.5443 1366.68 26.9091 1366.34C22.9607 1367.18 15.0638 1367.85 15.0638 1363.82C15.0638 1359.78 22.9607 1359.78 26.9091 1360.28V1354.23C29.8276 1354.73 36.2824 1354.33 38.7545 1348.67C41.2265 1343.02 45.278 1344.3 46.9948 1345.64C49.7415 1345.81 55.235 1345.34 55.235 1342.11C55.235 1338.88 59.6985 1338.07 61.9302 1338.07L84.5909 1331.51C79.2691 1331.51 66.8744 1332.12 59.8701 1334.54C52.8659 1336.96 51.8015 1335.55 52.1449 1334.54C49.7415 1334.54 43.0807 1335.25 35.6644 1338.07C28.2482 1340.9 23.9907 1339.25 22.789 1338.07C18.8406 1336.56 11.7677 1333.73 15.0638 1334.54C18.3599 1335.35 19.5272 1327.14 19.6989 1322.93C16.7805 1322.93 10.0166 1323.94 6.30851 1327.98C3.99818 1330.49 4.24687 1328.5 4.56732 1325.92C4.88978 1323.33 5.28489 1320.15 3.21838 1320.41C-0.0777419 1320.81 -0.21505 1315.86 0.128312 1313.34C3.73342 1311.99 11.7677 1309.5 15.0638 1310.31C18.3599 1311.12 16.4372 1304.59 15.0638 1301.23C22.1023 1298.03 38.3425 1292.24 46.9948 1294.66C49.8789 1288.61 53.69 1292.14 55.235 1294.66L59.8701 1285.58C62.1019 1286.76 67.5954 1288.41 71.7155 1285.58C75.8357 1282.75 60.3852 1281.37 52.1449 1281.04C44.9347 1281.88 29.7932 1282.45 26.9091 1278.01C24.4371 1282.05 15.2354 1279.69 10.9436 1278.01C7.85353 1279.35 1.98234 1279.62 3.21838 1269.93C4.45442 1260.24 10.2569 1264.55 13.0037 1267.91C13.5187 1264.88 15.5788 1258.83 19.6989 1258.83C20.9349 1253.58 32.9176 1253.95 38.7545 1254.79C36.1794 1256.13 32.5743 1259.53 38.7545 1262.36C44.9347 1265.19 50.2565 1257.14 52.1449 1252.77C52.6599 1255.97 54.926 1262.97 59.8701 1265.39C63.6543 1267.24 68.404 1266.26 70.8086 1265.56M479.093 1036.73C470.853 1032.19 494.029 1037.24 493.514 1042.29C492.999 1047.33 496.604 1047.33 501.754 1047.33C506.904 1047.33 522.87 1030.68 520.295 1022.1C518.235 1015.23 532.827 1019.24 540.38 1022.1C545.359 1020.08 555.213 1014.63 554.801 1008.97C554.286 1001.91 562.011 1008.97 562.011 1001.4C562.011 995.345 566.474 990.802 568.706 989.288C568.534 987.269 567.882 982.423 566.646 979.193C565.41 975.962 566.131 970.78 566.646 968.593C565.101 965.228 562.011 957.589 562.011 953.955C562.011 950.321 556.174 951.768 553.256 952.945C548.792 950.758 539.453 946.788 537.805 948.403C535.745 950.422 529.05 960.012 526.475 956.479C523.9 952.945 530.08 944.869 535.23 944.869C540.38 944.869 558.406 934.27 548.105 923.67C542.378 917.776 540.466 916.58 540.12 916.964M479.093 1036.73H470.853C469.995 1038.59 466.836 1041.78 461.068 1039.76C455.299 1037.74 446.991 1040.6 443.557 1042.29C438.579 1040.44 430.476 1035.22 437.892 1029.16C448.192 1013.01 439.094 1014.69 433.257 1017.55C428.278 1012.17 419.248 999.787 422.957 993.326C426.665 986.865 415.918 978.52 410.081 975.155C404.073 978.351 392.571 985.654 394.631 989.288C396.691 992.922 398.236 1001.57 398.751 1005.44C395.146 1002.75 387.935 998.777 387.935 1004.43C387.935 1008.77 385.601 1010.83 383.204 1012.94C381.701 1014.26 380.173 1015.61 379.18 1017.55C377.12 1021.59 367.678 1015.87 363.215 1012.51C357.378 1011.33 346.837 1008.06 351.369 1004.43C356.883 1000.01 339.955 996.066 329.075 993.531L328.194 993.326C321.333 991.725 325.663 985.25 328.169 981.501C329.614 979.34 330.454 978.085 328.194 979.193C323.249 981.616 316.52 972.126 313.773 967.079L299.868 943.86C304.503 945.374 313.773 947.494 313.773 943.86C313.773 939.317 328.194 935.279 331.284 939.822C334.374 944.365 356.004 930.736 351.369 930.736C349.488 930.736 348.624 929.405 347.643 927.892C346.206 925.676 344.516 923.07 339.009 923.67C331.593 924.477 332.829 916.94 334.374 913.07C338.151 909.705 345.704 904.085 345.704 908.527C345.704 912.969 352.571 913.406 356.004 913.07C356.004 909.705 359.301 904.994 372.485 913.07C369.189 906.609 381.412 896.581 387.935 892.375C384.502 886.486 380.519 876.122 392.056 881.775C392.056 869.53 401.613 866.592 407.143 866.604M540.12 916.964C539.968 917.132 540.119 917.604 540.38 918.117C540.352 917.983 540.323 917.846 540.292 917.706C540.239 917.466 540.181 917.218 540.12 916.964ZM540.12 916.964C538.474 910.124 533.867 898.309 526.475 897.927C518.647 897.523 525.273 892.038 529.565 889.346C530.595 888.169 531.419 885.006 526.475 881.775C521.531 878.545 524.415 870.334 526.475 866.633C525.445 862.931 520.398 855.831 508.449 857.042C501.754 849.471 497.634 849.471 493.514 849.471C489.394 849.471 479.093 841.9 479.093 849.471C479.093 857.042 473.428 850.985 453.343 854.014C433.257 857.042 449.737 838.366 437.892 857.042C432.685 865.251 431.075 868.859 431.08 870.108M431.08 870.108C431.084 871.132 432.174 870.571 433.257 869.661C432.617 869.806 431.879 869.959 431.08 870.108ZM431.08 870.108C426.309 870.997 419.38 871.736 418.321 869.661C416.776 866.632 412.656 863.604 408.021 866.633M408.021 866.633C407.159 867.196 406.92 867.113 407.143 866.604M408.021 866.633C407.742 866.615 407.449 866.605 407.143 866.604M407.143 866.604C408.119 864.38 417.926 854.014 422.957 854.014C427.901 854.014 430.167 850.312 430.682 848.461C433.772 848.461 440.673 847.351 443.557 842.909C446.441 838.467 434.802 833.992 428.622 832.309C423.3 824.065 411.729 808.687 408.021 813.129C404.313 817.57 407.849 821.709 410.081 823.224C406.991 822.214 400.914 821.407 401.326 826.252C401.738 831.098 397.034 828.271 394.631 826.252C392.571 826.084 388.347 827.464 387.935 834.328C387.523 841.193 390.511 846.611 392.056 848.461C391.197 850.985 389.995 856.84 392.056 860.071C394.116 863.301 378.494 871.175 370.425 874.709C371.627 873.531 374.751 869.762 377.635 864.109C380.519 858.455 375.403 861.753 372.485 864.109C375.232 859.734 381.446 851.591 384.33 854.014C387.214 856.436 385.532 849.976 384.33 846.442C383.129 844.087 380.416 839.174 379.18 838.366C377.944 837.559 380.382 832.646 381.755 830.29C380.897 827.598 377.841 823.224 372.485 827.262C368.365 820.397 359.781 826.42 356.004 830.29C356.863 834.496 357.653 842.909 353.944 842.909C350.236 842.909 350.683 837.188 351.369 834.328C349.653 836.684 346.116 839.981 345.704 834.328C345.189 827.262 344.159 825.747 339.009 834.328C334.889 841.193 330.082 839.881 328.194 838.366C327.164 837.693 323.97 836.549 319.438 837.357C317.101 837.773 316.692 835.87 316.44 834.696C316.081 833.023 316.039 832.827 311.198 842.909C309.23 840.788 309.668 841.835 310.501 843.826C311.849 847.047 314.23 852.738 309.138 851.49C300.898 849.471 291.627 849.976 296.778 857.042C301.928 864.109 300.898 869.156 296.778 866.633C292.657 864.109 292.142 869.661 296.778 874.709C301.722 870.671 302.958 873.026 302.958 874.709C300.039 875.718 295.336 878.545 299.868 881.775C304.4 885.006 289.739 883.121 281.842 881.775C283.044 885.308 286.271 892.375 289.567 892.375H277.207C272.4 890.188 261.757 888.236 257.636 897.927C253.516 907.619 258.666 909.032 261.756 908.527C262.958 910.546 267.319 914.281 275.147 913.07C282.975 911.858 282.872 915.594 281.842 917.613L286.992 913.07C287.426 915.76 287.276 920.928 284.026 923.221M284.026 923.221C283.413 923.653 282.691 923.983 281.842 924.174C279.266 924.757 280.884 924.219 284.026 923.221ZM284.026 923.221C284.419 923.096 284.835 922.964 285.271 922.826C290.401 921.201 298.115 918.758 299.868 917.613C301.13 916.788 302.736 917.395 304.58 918.092C307.251 919.101 310.422 920.3 313.773 917.613C318.305 913.978 312.571 920.473 309.138 924.174C306.048 926.53 299.868 932.049 299.868 935.279C299.868 938.509 296.091 941 294.202 941.841C289.396 940.663 278.855 939.62 275.147 944.869C271.439 950.119 257.465 953.45 250.941 954.46C258.495 957.657 272.881 964.656 269.997 967.079C268.679 968.185 268.669 970.842 268.658 973.547C268.639 978.244 268.62 983.085 261.756 980.202C253.104 976.568 251.971 970.948 252.486 968.593C248.023 967.583 237.757 965.867 232.401 967.079C229.591 967.714 228.958 966.216 228.18 964.376C227.104 961.83 225.751 958.628 217.98 959.507C209.895 960.422 210.071 962.808 210.233 965C210.339 966.438 210.439 967.793 208.195 968.593C204.902 969.766 203.585 972.432 203.176 974.576M203.176 974.576C203.023 975.383 202.998 976.117 203.045 976.669C203.181 976.134 203.252 975.408 203.176 974.576ZM203.176 974.576C202.965 972.27 201.619 969.156 197.379 967.079C200.985 962.031 198.925 953.45 188.109 950.926C178.627 948.714 160.435 941.457 152.624 938.341C151.526 937.903 150.633 937.547 149.998 937.298C144.848 935.279 141.758 935.279 145.878 944.869C149.174 952.542 141.758 948.066 137.638 944.869C134.891 946.047 128.779 947.09 126.307 941.841C123.217 935.279 112.402 939.317 112.917 946.888C113.329 952.945 109.998 957.825 108.282 959.507C108.11 962.536 108.282 968.593 110.342 968.593C112.402 968.593 112.917 962.536 112.917 959.507C117.38 955.469 126.307 948.1 126.307 950.926C126.307 952.352 127.649 951.23 129.182 949.948C131.448 948.053 134.132 945.808 133.517 950.926C133.055 954.781 131.241 955.274 129.337 955.792C127.002 956.428 124.531 957.1 124.247 964.05C118.067 967.079 120.642 978.183 124.247 976.669C127.131 975.458 131.629 972.126 133.517 970.612C130.427 973.809 125.174 981.717 128.882 987.774C132.59 993.831 128.711 994.672 126.307 994.335C123.732 994.504 118.582 994.133 118.582 991.307C118.582 990.702 118.642 990.082 118.704 989.453C119.001 986.406 119.32 983.131 112.917 980.202C108.801 978.32 106.293 979.446 104.225 980.375C102.411 981.19 100.936 981.853 99.0114 980.202C95.7153 977.376 93.1745 982.39 92.3162 985.25C96.093 986.932 104.574 989.793 108.282 987.774C111.99 985.755 108.453 993.662 106.222 997.869C111.2 999.719 120.642 1003.82 118.582 1005.44C116.007 1007.46 124.247 1014.53 128.882 1009.98C133.517 1005.44 149.998 1008.47 149.998 1013.01C149.998 1016.65 147.251 1021.93 145.878 1024.12C139.526 1025.29 125.174 1026.94 118.582 1024.12C111.99 1021.29 112.058 1037.41 112.917 1045.82C110.513 1047.17 104.368 1049.05 99.0114 1045.82C93.6552 1042.59 96.7796 1050.19 99.0114 1054.4C94.2046 1052.21 84.5909 1049.15 84.5909 1054.4C84.5909 1059.65 89.7411 1066.35 92.3162 1069.04C89.3977 1070.38 82.4279 1072.67 77.8957 1071.06C72.2305 1069.04 76.8657 1081.15 84.5909 1079.64C84.5909 1084.69 105.192 1088.22 103.132 1079.64C101.483 1072.77 108.968 1080.48 112.917 1085.19C106.565 1086.54 96.3333 1090.34 106.222 1094.78C111.783 1097.28 113.278 1098.45 114.46 1098.2C115.905 1097.89 116.881 1095.46 124.247 1090.74C134.96 1083.88 133.517 1093.6 131.457 1099.32C128.882 1101.51 124.247 1106.69 126.307 1109.92C128.367 1113.15 131.972 1112.62 133.517 1111.94C134.547 1114.8 138.462 1120.02 145.878 1118C153.294 1115.98 169.569 1118.84 176.779 1120.52C177.637 1118.67 178.839 1113.96 176.779 1109.92C174.719 1105.89 177.294 1098.15 178.839 1094.78C176.435 1093.44 171.011 1090.74 168.539 1090.74C166.066 1090.74 160.985 1083.34 158.753 1079.64C157.208 1078.63 153.294 1076.71 149.998 1077.12C145.878 1077.62 158.238 1071.06 168.539 1074.09C176.779 1076.51 175.405 1083.85 173.689 1087.21C175.405 1089.73 180.281 1094.78 186.049 1094.78C191.817 1094.78 186.392 1100.17 182.959 1102.86C183.646 1105.72 184.607 1112.35 182.959 1115.98C180.899 1120.52 177.809 1130.62 182.959 1130.62H195.319C193.088 1132.3 188.83 1136.68 189.654 1140.71C190.478 1144.75 177.294 1138.7 170.599 1135.16C172.659 1137.01 176.161 1140.71 173.689 1140.71C173.187 1140.71 172.535 1140.78 171.782 1140.86C167.903 1141.25 161.341 1141.93 158.753 1135.16C156.281 1128.7 137.809 1151.31 128.882 1163.43C132.144 1165.62 139.08 1169.59 140.728 1167.97C142.376 1166.36 130.427 1180.42 124.247 1187.66C123.56 1190.35 121.466 1195.73 118.582 1195.73H106.222L84.5909 1211.38C81.3292 1211.38 74.1876 1211.88 71.7155 1213.9C69.2434 1215.92 86.4793 1216.43 95.4063 1216.43C97.4663 1214.74 102.925 1211.38 108.282 1211.38C111.948 1211.38 111.29 1207.75 110.875 1205.45C110.531 1203.56 110.354 1202.58 112.917 1205.32C114.92 1207.46 116.343 1209.48 117.552 1211.19C119.761 1214.32 121.251 1216.43 124.247 1216.43C127.955 1216.43 136.779 1217.77 140.728 1218.45C135.921 1219.29 127.749 1221.27 133.517 1222.48C139.286 1223.7 146.908 1222.99 149.998 1222.48C161.449 1211.76 167.793 1205.94 176.779 1201.28C176.779 1205.49 176.161 1213.9 173.689 1213.9C173.081 1213.9 173.33 1213.92 174.123 1213.99C177.359 1214.24 189.654 1215.2 189.654 1218.45C189.654 1221.68 176.95 1219.79 170.599 1218.45C170.427 1221.14 169.157 1226.12 165.448 1224.5C161.74 1222.89 147.423 1225.51 140.728 1227.03C135.234 1224.67 123.114 1220.87 118.582 1224.5C116.855 1223.89 115.128 1222.9 113.445 1221.93C109.607 1219.73 105.996 1217.66 103.132 1220.47C101.657 1221.91 99.4577 1222.71 97.3823 1223.46C93.6572 1224.81 90.3317 1226.02 92.3162 1230.56C94.7882 1236.21 76.179 1237.63 66.5653 1237.63C66.9087 1239.48 69.0374 1243.89 74.8056 1246.71C80.5738 1249.54 71.7155 1255.97 66.5653 1258.83C67.1658 1261.18 68.7639 1265.36 70.8086 1265.56M70.8086 1265.56C71.1022 1265.59 71.4051 1265.54 71.7155 1265.39C72.1604 1265.17 72.3598 1265.08 72.3566 1265.07M70.8086 1265.56C71.7657 1265.29 72.3513 1265.06 72.3566 1265.07M70.8086 1265.56C71.7667 1265.29 72.3525 1265.06 72.3566 1265.07M525.28 1623.48C525.295 1623.48 525.311 1623.48 525.327 1623.48M525.28 1623.48L525.327 1623.48M525.327 1623.48L525.397 1623.48M525.327 1623.48C525.355 1623.48 525.383 1623.48 525.411 1623.48M525.327 1623.48C525.35 1623.48 525.374 1623.48 525.397 1623.48M525.397 1623.48C525.402 1623.48 525.406 1623.48 525.411 1623.48M525.397 1623.48L525.411 1623.48M525.411 1623.48L525.714 1623.46M525.411 1623.48C525.514 1623.47 525.615 1623.47 525.714 1623.46M758.727 1291.07H758.723C758.333 1291.08 757.943 1291.1 757.552 1291.11M758.727 1291.07C758.336 1291.08 757.944 1291.1 757.552 1291.11M620.208 1060.96C620.208 1059.45 621.032 1055.92 624.328 1053.9C627.624 1051.88 630.508 1041.61 631.538 1036.73C634.628 1035.89 641.117 1033.2 642.353 1029.16C643.898 1024.12 660.894 1006.45 669.649 1009.48C664.293 1014.32 666.044 1021.93 667.589 1025.13C669.134 1025.97 671.297 1028.56 667.589 1032.19C663.881 1035.83 662.954 1040.77 662.954 1042.79C660.551 1044.98 655.229 1049.25 653.169 1048.85C650.594 1048.34 651.624 1055.92 646.989 1057.43C642.353 1058.94 636.688 1060.46 637.718 1063.99C638.748 1067.52 629.478 1062.98 628.448 1060.96C627.624 1059.35 622.611 1060.29 620.208 1060.96ZM907.072 1635.88C908.102 1631.67 914.488 1626.19 931.792 1637.9C949.097 1649.61 939.003 1649.51 931.792 1647.99C930.076 1650.68 927.157 1656.37 929.217 1657.58C931.792 1659.1 916.857 1662.63 914.797 1660.11C913.149 1658.09 901.063 1649.51 895.226 1645.47C894.025 1644.63 890.9 1643.45 888.016 1645.47C884.411 1647.99 896.256 1635.88 907.072 1635.88ZM601.667 813.129C599.264 806.062 597.341 791.02 608.877 787.386C620.414 783.752 623.298 800.341 623.298 809.091C623.984 812.624 624.74 819.488 622.268 818.681C619.796 817.873 622.611 822.382 624.328 824.738L623.298 833.319C615.573 834.16 600.122 834.126 600.122 827.262C600.122 818.681 599.092 814.643 601.667 813.129ZM581.067 712.178L563.556 723.787C558.577 726.311 549.445 732.671 552.741 737.92C557.273 736.305 559.779 738.257 560.466 739.434C558.406 740.444 553.668 742.16 551.196 740.949C548.723 739.737 543.642 744.482 541.41 747.006C540.037 753.063 538.835 765.177 545.015 765.177C551.196 765.177 552.741 758.447 552.741 755.082C555.316 753.736 560.775 750.034 562.011 745.996C563.247 741.958 573.17 730.854 577.976 725.806C580.552 722.273 584.775 714.601 581.067 712.178ZM581.067 705.616C583.127 704.438 587.041 702.789 586.217 705.616C585.187 709.149 585.702 710.663 579.521 710.663C574.577 710.663 578.491 707.298 581.067 705.616ZM528.535 723.787C531.282 718.403 537.393 708.241 539.865 710.663C542.955 713.692 533.17 721.768 535.745 723.787C538.32 725.806 527.465 725.806 528.535 723.787ZM517.72 756.596C522.355 750.539 532.449 738.93 535.745 740.949C539.041 742.968 538.149 757.942 537.29 765.177C539.522 768.205 543.161 774.262 539.865 774.262C536.569 774.262 538.492 777.291 539.865 778.805C540.895 780.824 542.028 784.862 538.32 784.862C534.612 784.862 535.058 786.881 535.745 787.891C531.968 789.573 524.106 792.434 522.87 790.415C521.325 787.891 520.295 801.014 513.084 794.453C507.316 789.203 513.771 785.872 517.72 784.862C518.921 784.021 520.81 781.632 518.75 778.805C516.174 775.272 511.539 774.262 517.72 769.72C523.9 765.177 523.9 765.682 520.81 763.663C517.72 761.644 512.569 763.663 512.054 766.691C511.642 769.114 508.449 771.402 506.904 772.243C505.187 773.421 501.857 776.181 502.269 777.796C502.784 779.815 494.544 780.824 496.089 774.262C497.325 769.013 501.754 765.009 503.814 763.663C502.612 761.98 501.136 758.413 504.844 757.606C500.209 755.082 506.904 754.577 505.874 751.549C505.05 749.126 514.114 747.51 518.75 747.006C517.72 750.202 516.071 756.596 517.72 756.596ZM503.299 629.903C505.874 628.22 511.024 624.451 511.024 622.836C511.024 620.817 519.265 616.779 521.325 616.274C522.973 615.871 526.475 616.106 528.02 616.274L522.87 624.855C521.668 624.014 518.956 622.836 517.72 624.855C516.174 627.379 514.629 631.417 511.024 631.417C508.14 631.417 504.672 630.407 503.299 629.903ZM473.428 638.988C473.6 641.849 475.076 647.569 479.608 647.569C485.274 647.569 477.548 642.522 483.728 642.522C488.673 642.522 490.939 640.166 491.454 638.988C496.776 637.811 504.432 635.253 492.484 634.445C483.728 631.922 486.819 635.96 483.728 636.464C480.638 636.969 473.428 635.455 473.428 638.988ZM536.775 566.304C539.179 568.659 543.779 573.774 542.955 575.389C541.925 577.408 553.256 576.399 553.256 571.351C553.256 566.304 552.741 553.685 540.895 561.256C531.419 567.313 534.2 567.145 536.775 566.304ZM579.521 518.857L585.702 516.838C586.217 515.324 586.938 512.093 585.702 511.286C584.157 510.276 585.187 501.695 587.247 499.676C588.895 498.061 589.993 495.975 590.337 495.133L589.307 491.6C588.105 491.264 585.702 491.196 585.702 493.619C585.702 496.648 584.672 498.667 582.612 497.657C580.551 496.648 577.976 507.247 577.976 508.762C577.976 510.276 578.491 519.193 579.521 518.857ZM440.467 551.666C439.952 549.142 440.055 544.599 444.587 546.618C449.119 548.637 446.132 542.58 447.677 542.075C449.222 541.571 451.179 545.609 450.767 547.628C450.252 550.152 455.403 555.199 450.767 555.704C446.132 556.209 443.042 558.732 444.587 559.742C446.132 560.751 435.832 559.742 435.832 555.704C435.832 552.473 438.922 551.666 440.467 551.666ZM455.918 517.847C454.888 523.231 453.446 534.201 455.918 535.009C458.39 535.816 461.411 536.018 462.613 536.018C465.36 537.364 470.853 539.653 470.853 538.037C470.853 536.018 469.823 531.476 467.248 530.971C464.673 530.466 472.913 521.885 468.793 519.866C465.497 518.251 468.793 517.174 470.853 516.838L472.913 511.286C474.973 509.603 478.475 506.036 476.003 505.228C473.531 504.421 473.6 502.873 473.943 502.2C475.66 500.517 478.063 496.749 473.943 495.133C469.823 493.518 471.196 490.759 472.398 489.581L480.638 488.067C480.123 488.067 478.784 487.36 477.548 484.534C476.312 481.707 479.093 481 480.638 481C477.72 477.972 470.956 472.318 467.248 473.934C463.54 475.549 463.3 481 463.643 483.524C466.046 485.038 470.132 488.067 467.248 488.067H459.523V502.2C458.664 503.378 456.536 506.642 454.888 510.276C452.828 514.819 453.343 514.819 455.918 517.847ZM463.643 458.791C466.561 459.969 472.295 462.829 471.883 464.848C471.471 466.867 472.741 470.737 473.428 472.419L488.364 472.924C488.707 471.578 489.291 468.583 488.879 467.372C488.364 465.858 490.939 462.829 491.969 463.334C492.793 463.738 490.252 461.82 488.879 460.81C488.364 460.305 487.128 458.69 486.304 456.267C485.48 453.844 488.364 453.575 489.909 453.743C491.969 455.09 495.883 457.983 495.059 458.791C494.029 459.801 502.269 454.753 498.149 451.724C494.029 448.696 489.909 452.229 489.909 449.201C489.909 446.172 492.484 445.667 488.364 445.163C485.068 444.759 482.527 447.686 481.668 449.201C479.952 448.864 476.621 447.787 477.033 446.172C477.548 444.153 476.518 444.153 471.883 446.677C468.175 443.043 463.471 445.163 461.583 446.677C461.068 448.359 459.523 451.926 457.463 452.734C454.888 453.744 453.343 453.744 456.433 456.267C459.523 458.791 462.613 461.315 463.643 458.791ZM884.926 313.927C884.926 317.796 884.308 325.637 881.836 326.041C879.364 326.444 878.059 318.806 877.716 314.936C875.656 313.254 872.154 309.788 874.626 309.384C877.098 308.98 884.926 309.888 888.531 310.393C888.359 312.076 887.398 315.138 884.926 313.927ZM846.815 291.717C844.411 293.4 840.532 297.169 844.24 298.784C848.875 300.803 844.755 308.374 848.875 309.384C852.995 310.393 847.845 314.936 851.965 314.936C856.085 314.936 863.81 318.469 864.84 313.927C865.664 310.292 860.377 311.739 857.63 312.917C857.973 312.076 859.278 310.191 861.75 309.384C864.222 308.576 862.094 306.692 860.72 305.85C859.862 300.803 855.879 290.91 846.815 291.717ZM851.965 269.003C854.025 261.264 860.926 248.914 872.051 261.432C872.051 255.375 876.857 262.61 879.261 266.984C880.806 269.34 882.969 274.051 879.261 274.051C874.626 274.051 876.686 282.127 872.051 279.098C868.342 276.676 870.506 280.781 872.051 283.136C875.312 282.8 881.836 282.632 881.836 284.651C881.836 286.67 887.329 287.174 890.076 287.174C893.509 286.838 900.479 286.367 900.891 287.174C901.406 288.184 908.617 288.184 906.557 291.717C904.497 295.251 900.891 298.784 899.346 298.784C897.801 298.784 893.681 306.86 888.531 300.298C884.411 295.049 878.574 292.39 876.171 291.717C871.707 293.568 862.574 296.563 861.75 293.736C860.72 290.203 859.175 279.098 863.295 279.098C867.415 279.098 860.72 271.022 857.63 279.098C854.54 287.175 857.63 290.203 850.935 285.66C845.579 282.026 849.39 273.041 851.965 269.003ZM884.926 261.432C887.158 258.74 889.664 253.255 881.836 252.851C872.051 252.346 877.201 248.813 874.626 256.889C877.098 258.908 882.523 260.759 884.926 261.432ZM1058.49 34.7973C1057.63 40.8544 1056.94 53.2713 1061.06 54.4827C1066.21 55.997 1069.3 57.5113 1069.3 49.4352C1069.3 41.3591 1073.94 34.7973 1069.3 34.7973C1065.59 34.7973 1067.76 30.0863 1069.3 27.7308L1074.45 31.264C1074.8 26.0482 1074.25 15.9195 1069.3 17.1309C1064.36 18.3423 1063.81 24.0292 1064.15 26.7213C1061.92 26.8895 1057.66 27.6298 1058.49 29.245C1059.31 30.8602 1058.83 33.6196 1058.49 34.7973ZM1079.09 36.8163L1081.66 43.8829C1081.66 42.2004 1081.97 39.1382 1083.21 40.3496C1084.75 41.8639 1091.96 44.8924 1091.96 41.3591C1091.96 37.8259 1090.42 35.3021 1089.39 38.3306C1088.36 41.3591 1090.42 31.264 1081.66 34.7973C1074.66 37.6239 1077.03 37.3211 1079.09 36.8163ZM1077.03 20.1594C1077.03 21.3372 1078.26 23.9956 1083.21 25.207C1089.39 26.7213 1087.33 24.1975 1087.33 21.6737C1087.33 19.1499 1086.81 17.1309 1089.39 17.1309C1091.96 17.1309 1093.51 11.0739 1090.93 10.5691C1088.87 10.1653 1092.13 9.05485 1094.02 8.5501C1094.54 4.51206 1094.33 -2.04974 1089.39 4.00731C1084.44 10.0644 1084.24 7.87707 1084.75 6.0263C1086.3 4.17553 1088.46 0.473999 1084.75 0.473999C1081.04 0.473999 1080.46 5.85806 1080.63 8.5501C1080.12 9.72785 1079.09 12.79 1079.09 15.6166C1079.09 18.4433 1077.71 19.8229 1077.03 20.1594ZM534.715 555.199C534.715 556.872 533.493 558.732 530.08 558.732C526.667 558.732 522.355 556.872 522.355 555.199C522.355 553.526 526.152 551.161 529.565 551.161C532.978 551.161 534.715 553.526 534.715 555.199ZM793.125 1849.26L817.028 1833.74C819.153 1837.03 822.128 1844.74 817.028 1849.26C811.929 1853.77 798.968 1851.14 793.125 1849.26ZM867.226 1891.58H898.3C902.55 1896.52 909.774 1907.09 904.674 1909.92C899.575 1912.74 881.302 1911.09 872.803 1909.92L867.226 1891.58Z" stroke="black"/>
</svg>
