<svg width="1254" height="1911" viewBox="0 0 1254 1911" fill="none" xmlns="http://www.w3.org/2000/svg">
<path fill-rule="evenodd" clip-rule="evenodd" d="M758.727 1290.59H758.723C758.333 1290.61 757.943 1290.62 757.552 1290.63C757.944 1290.62 758.336 1290.61 758.727 1290.59Z" fill="#E5DBDB"/>
<path fill-rule="evenodd" clip-rule="evenodd" d="M914.427 1625.04C914.723 1625.45 914.862 1625.56 914.797 1625.31C914.783 1625.25 914.754 1625.21 914.71 1625.17C914.646 1625.11 914.551 1625.07 914.427 1625.04ZM1095.57 1186.17C1095.96 1185.4 1096.28 1184.54 1096.5 1183.58C1096.38 1184.47 1096.08 1185.34 1095.57 1186.17ZM758.727 1290.59H758.723C758.333 1290.61 757.943 1290.62 757.552 1290.63C757.944 1290.62 758.336 1290.61 758.727 1290.59ZM527.505 1622.28C528.492 1622.81 527.537 1622.91 525.875 1622.98C526.123 1622.19 526.618 1621.81 527.505 1622.28ZM665.916 747.445C665.57 747.051 665.022 746.737 664.499 746.532C664.583 746.585 664.669 746.639 664.755 746.694C664.961 746.826 665.172 746.962 665.389 747.102C665.561 747.214 665.738 747.328 665.916 747.445ZM750.348 503.785C750.8 504.088 751.212 504.436 751.537 504.754C751.14 504.511 750.697 504.173 750.348 503.785ZM633.598 528.983C633.672 528.91 633.64 528.89 633.53 528.92C633.539 528.994 633.56 529.019 633.598 528.983ZM832.909 1634.39L833.515 1633.6C831.955 1633.31 832.277 1633.88 832.909 1634.39ZM1198.57 1450.16C1198.72 1450.26 1198.9 1450.36 1199.11 1450.46C1198.96 1450.34 1198.78 1450.24 1198.57 1450.16ZM809.219 1091.28C808.699 1091.58 808.117 1091.95 807.514 1092.35C808.2 1092.04 808.798 1091.64 809.219 1091.28Z" fill="#E5DBDB"/>
<path d="M728.876 1198.29C723.932 1202.73 713.769 1200.14 709.305 1198.29C707.76 1196.77 703.743 1193.34 700.035 1191.73C699.46 1191.47 698.933 1191.23 698.458 1191.01C695.104 1189.47 694.366 1189.13 697.975 1195.76C690.559 1192.53 682.181 1199.13 678.919 1202.83C676.001 1203.67 670.164 1204.65 670.164 1201.82C670.164 1198.99 675.314 1193.91 677.889 1191.73C674.113 1190.72 665.838 1189 662.954 1190.21C661.175 1190.96 660.775 1188.39 660.332 1185.53C659.877 1182.59 659.375 1179.36 657.289 1179.11C660.894 1174.56 633.598 1156.9 627.418 1180.62C631.023 1181.63 624.328 1188.19 623.813 1187.18C623.298 1186.17 613.512 1176.58 614.027 1184.66C614.439 1191.12 617.976 1190.04 619.693 1188.7C620.551 1191.05 622.783 1195.76 624.843 1195.76C626.903 1195.76 628.105 1197.45 628.448 1198.29C629.306 1201.99 631.538 1209.29 633.598 1208.89C635.658 1208.48 636.86 1208.72 637.203 1208.89C636.688 1211.41 636.688 1216.36 640.808 1215.95C644.928 1215.55 648.362 1217.13 649.564 1217.97C645.958 1218.81 639.366 1221.91 641.838 1227.56C644.31 1233.22 630.165 1240.69 622.783 1243.71C615.058 1246.24 598.989 1253.71 596.517 1263.4C594.913 1269.69 596.084 1269.04 599.456 1267.17C602.578 1265.45 607.588 1262.67 614.027 1263.4C613.419 1265.79 616.407 1267.12 618.422 1268.01C619.817 1268.63 620.746 1269.04 619.693 1269.46C617.118 1270.47 624.843 1271.98 623.813 1263.4C622.989 1256.54 629.306 1254.82 632.568 1254.82C636.516 1254.82 644.722 1254.42 645.958 1252.8C647.195 1251.19 652.31 1252.13 654.714 1252.8C659.692 1252.8 667.898 1254.01 660.894 1258.86C658.472 1258.86 659.565 1260.92 660.647 1262.97C661.636 1264.84 662.615 1266.69 660.894 1266.93C657.289 1267.44 655.744 1270.97 659.349 1275.51C661.597 1278.35 662.843 1281.18 663.713 1283.15C664.238 1284.35 664.626 1285.23 665.014 1285.61C666.044 1286.62 660.379 1295.7 658.319 1295.7C656.259 1295.7 652.139 1312.36 662.954 1313.88C673.769 1315.39 674.284 1317.41 667.589 1317.91C666.647 1317.98 665.806 1318.02 665.058 1318.04C660.49 1318.21 659.349 1318.25 659.349 1326.49C659.349 1332.38 656.053 1336.55 652.911 1340.53C650.932 1343.04 649.014 1345.47 648.019 1348.2C645.958 1353.85 632.74 1360.99 626.388 1363.85C621.924 1364.52 611.967 1367.48 607.847 1373.94C605.092 1378.26 602.778 1376.8 599.882 1374.98C597.365 1373.39 594.407 1371.52 590.337 1372.93C589.664 1372.49 589.675 1373.11 589.689 1373.9C589.707 1374.92 589.73 1376.25 588.277 1375.96C585.702 1375.46 581.067 1375.96 578.491 1382.52C576.431 1387.77 572.14 1385.72 570.251 1384.04C569.393 1385.21 568.191 1387.87 570.251 1389.08C572.311 1390.3 566.303 1387.57 563.041 1386.06C561.668 1386.06 559.333 1386.66 560.981 1389.08C563.041 1392.11 551.196 1385.55 550.681 1384.04C550.166 1382.52 539.35 1386.06 543.985 1390.09C548.62 1394.13 532.655 1396.66 531.625 1396.15C530.595 1395.65 525.96 1396.66 528.02 1398.17C528.674 1398.65 526.888 1399.44 524.739 1400.38C520.119 1402.42 513.82 1405.19 526.475 1407.26C541.307 1409.68 539.865 1418.36 537.29 1422.4C534.372 1424.59 527.917 1428.96 525.445 1428.96C522.973 1428.96 524.415 1431.65 525.445 1433C526.475 1436.19 528.947 1441.07 530.595 1435.02C531.705 1430.94 533.564 1431.84 536.896 1433.46C539.746 1434.85 543.675 1436.76 549.135 1436.53C558.81 1436.12 558.522 1433.69 558.091 1430.06C557.994 1429.24 557.891 1428.37 557.891 1427.45C557.891 1422.4 564.071 1431.48 560.981 1434.01C558.509 1436.03 561.324 1437.54 563.041 1438.05C558.062 1439.22 547.796 1441.38 546.56 1440.57C545.015 1439.56 541.925 1439.05 540.38 1440.57C539.144 1441.78 536.089 1440.06 534.715 1439.05C535.745 1441.92 538.32 1447.23 540.38 1445.62C540.38 1447.13 543.985 1460.76 556.346 1451.17C554.286 1446.73 567.848 1448.65 574.886 1450.16C577.29 1448.31 581.994 1443.8 581.582 1440.57C581.169 1437.34 595.83 1438.21 603.212 1439.05C604.929 1438.72 608.259 1437.44 607.847 1435.02C607.435 1432.59 611.452 1435.02 613.512 1436.53V1442.08C611.796 1442.59 609.392 1444.71 613.512 1449.15C617.633 1453.59 625.186 1453.69 628.448 1453.19C631.881 1454.87 639.263 1457.73 641.323 1455.71C643.898 1453.19 639.778 1462.27 635.143 1460.76C631.435 1459.55 621.924 1460.25 617.633 1460.76C616.431 1465.13 615.573 1473.68 621.753 1472.87C623.813 1474.89 630.165 1473.04 633.083 1471.86C634.8 1471.53 638.233 1471.26 638.233 1472.87C638.233 1474.89 651.109 1475.9 652.139 1472.87C653.169 1469.84 663.469 1462.78 665.529 1466.82C665.974 1467.69 666.707 1468.91 667.558 1470.33L667.559 1470.34C670.646 1475.49 675.273 1483.23 673.254 1486C670.679 1489.53 678.92 1492.56 681.495 1491.55C683.555 1490.74 688.19 1499.96 690.25 1504.67C700.207 1508.21 721.769 1514.06 728.361 1509.22C734.953 1504.37 734.885 1499.12 734.026 1497.1C740.206 1494.91 752.567 1489.83 752.567 1487.01C752.567 1484.18 754.284 1486.84 755.142 1488.52C760.12 1489.03 770.592 1489.43 772.652 1487.01C774.712 1484.58 780.721 1483.98 783.468 1483.98C773.991 1482.36 783.211 1456.05 789.005 1443.09C783.554 1444.94 773.682 1447.13 777.803 1441.07C781.923 1435.02 773.682 1429.8 769.047 1427.95C765.228 1428.62 756.275 1428.35 751.022 1421.89C744.455 1413.82 748.833 1375.46 757.589 1375.96C764.593 1376.36 762.91 1367.38 761.194 1362.84C757.074 1361.15 747.7 1356.38 743.168 1350.72C738.636 1345.07 745.057 1340.29 748.833 1338.61C754.198 1337.6 764.927 1334.27 764.927 1329.02C764.927 1325.93 762.954 1326.2 760.342 1326.55C757.412 1326.96 753.677 1327.47 751.022 1323.47C747.004 1317.41 753.726 1313.54 757.589 1312.36C761.408 1309.67 769.047 1302.77 769.047 1296.71C769.047 1290.24 764.051 1290.41 758.736 1290.59H758.732H758.727C758.336 1290.61 757.944 1290.62 757.552 1290.63C757.047 1290.65 756.543 1290.66 756.044 1290.66C751.511 1281.37 760.078 1271.64 764.927 1267.94C768.532 1263.57 778.395 1257.44 789.005 1267.94C799.614 1278.44 799.348 1266.26 797.888 1258.86C793.253 1258.52 784.292 1257.24 785.528 1254.82C787.073 1251.79 783.983 1236.65 779.348 1234.12C775.64 1232.11 780.893 1225.88 783.983 1223.02L771.622 1210.91C771.331 1212.05 765.27 1206.24 759.781 1200.99C755.568 1196.95 751.693 1193.24 751.022 1193.24C750.937 1193.24 750.813 1193.24 750.654 1193.24C747.917 1193.2 734.717 1193.04 728.876 1198.29Z" fill="#4D908E"/>
<path fill-rule="evenodd" clip-rule="evenodd" d="M557.376 670.314C557.472 670.125 557.424 670.201 557.213 670.456C557.296 670.409 557.351 670.362 557.376 670.314Z" fill="#E5DBDB"/>
<path fill-rule="evenodd" clip-rule="evenodd" d="M408.021 866.159C407.159 866.722 406.92 866.639 407.143 866.13C407.449 866.131 407.742 866.141 408.021 866.159ZM281.842 923.701C279.266 924.283 280.884 923.745 284.026 922.747C283.413 923.179 282.691 923.509 281.842 923.701ZM431.08 869.634C431.084 870.658 432.174 870.097 433.257 869.187C432.617 869.332 431.879 869.485 431.08 869.634ZM540.292 917.232C540.323 917.372 540.352 917.509 540.38 917.643C540.119 917.13 539.968 916.658 540.12 916.49C540.181 916.744 540.239 916.992 540.292 917.232ZM203.045 976.195C203.181 975.66 203.252 974.934 203.176 974.102C203.023 974.909 202.998 975.643 203.045 976.195ZM72.3566 1264.6C72.3513 1264.58 71.7657 1264.81 70.8086 1265.09C71.1022 1265.12 71.4051 1265.07 71.7155 1264.91C72.1604 1264.7 72.3598 1264.6 72.3566 1264.6Z" fill="#E5DBDB"/>
<path fill-rule="evenodd" clip-rule="evenodd" d="M1056.43 77.2274C1056.03 77.3585 1056.3 77.3513 1056.95 77.2646C1056.75 77.1966 1056.57 77.1807 1056.43 77.2274Z" fill="#118AB2"/>
<path fill-rule="evenodd" clip-rule="evenodd" d="M534.039 367.611C535.064 367.972 536.057 368.506 536.775 368.976C536.067 368.744 535.013 368.28 534.039 367.611Z" fill="#118AB2"/>
<path d="M433.257 1693.45C439.437 1695.97 452.931 1698.4 457.463 1687.9C466.115 1687.9 472.055 1691.6 473.943 1693.45C476.69 1695.64 481.977 1701.12 481.153 1705.56C480.329 1710.01 484.243 1714.48 486.304 1716.16L494.029 1708.59H498.664L504.329 1702.03C505.187 1699.51 505.256 1694.66 498.664 1695.47C499.446 1694.96 500.031 1694.61 500.509 1694.32C501.919 1693.48 502.406 1693.19 504.329 1690.93C506.389 1688.5 510.338 1688.91 512.054 1689.41L516.69 1682.85L516.908 1682.71C522.285 1679.25 526.104 1676.79 536.775 1676.79C540.375 1676.79 539.768 1674.52 538.979 1671.57C538.738 1670.67 538.481 1669.7 538.32 1668.72L542.955 1666.7V1662.66H551.196V1666.7H574.886C577.29 1664.85 583.127 1661.45 587.247 1662.66C591.367 1663.87 595.487 1665.86 597.032 1666.7C596.689 1669.05 596.826 1673.26 600.122 1671.24C603.418 1669.22 609.392 1668.72 611.967 1668.72C612.482 1671.41 614.234 1676.79 617.118 1676.79C620.002 1676.79 625.53 1675.45 627.933 1674.78L641.838 1693.96C643.898 1693.79 648.843 1693.85 652.139 1695.47C655.435 1697.09 658.319 1695.13 659.349 1693.96V1682.85C661.237 1681.17 665.632 1678.11 668.104 1679.32C670.576 1680.53 669.134 1676.79 668.104 1674.78H674.284V1671.24C677.031 1669.56 681.701 1665.99 678.404 1665.18C676.878 1664.81 676.059 1664.92 675.448 1665C674.411 1665.14 673.979 1665.2 671.709 1662.66C668.825 1659.43 674.971 1658.29 678.404 1658.12C678.748 1651.39 680.98 1637.52 687.16 1635.91V1625.81C687.846 1628.67 690.765 1634.19 696.945 1633.39C703.125 1632.58 707.074 1628 708.275 1625.81L718.061 1624.3C720.121 1625.31 724.962 1626.72 727.846 1624.3C729.623 1622.81 732.15 1623.28 734.503 1623.71C736.925 1624.16 739.162 1624.58 740.206 1622.79C741.854 1619.96 748.103 1620.26 751.022 1620.77C764.457 1627.43 790.896 1643.68 790.19 1655.76C791.238 1642.94 793.827 1640.96 800.463 1640.96C802.783 1640.96 808.997 1642.9 816.043 1645.09C829.334 1649.24 845.586 1654.31 844.24 1649.03C844.341 1648.75 844.441 1648.48 844.539 1648.22C846.92 1641.73 847.994 1638.8 839.089 1635.4C836.224 1634.31 834.496 1633.79 833.515 1633.6L832.909 1634.39C832.277 1633.88 831.955 1633.31 833.515 1633.6L837.544 1628.34L847.33 1634.39L848.875 1637.42L851.965 1631.87H863.295C872.909 1631.2 891.312 1630.96 888.016 1635.4C884.72 1639.85 890.419 1634.56 893.681 1631.37C899.977 1628.9 912.13 1624.51 914.427 1625.04C912.846 1622.86 906.792 1612.44 903.467 1606.63C915.655 1616.9 942.711 1636.21 953.423 1631.37C964.136 1626.52 955.483 1625.31 949.818 1625.31L945.183 1617.23C952.221 1618.92 965.887 1623.19 964.239 1626.82C962.591 1630.46 959.432 1631.7 958.058 1631.87L972.479 1640.45V1634.39C982.436 1632.38 1005.13 1629.04 1016.26 1631.87C1023.31 1633.66 1023.47 1632.73 1023.67 1631.57C1023.86 1630.44 1024.08 1629.11 1030.68 1629.85C1041.39 1631.06 1070.5 1640.79 1083.72 1645.5C1087.84 1643.31 1096.08 1638.03 1096.08 1634.39C1096.08 1632.28 1102.58 1631.8 1109.67 1631.29C1117.79 1630.7 1126.67 1630.06 1127.5 1626.82C1128.73 1621.98 1138.31 1617.74 1142.95 1616.22C1147.76 1618.75 1157.78 1623.39 1159.43 1621.78C1161.08 1620.16 1161.49 1612.35 1161.49 1608.65L1173.33 1596.03C1175.91 1596.71 1181.58 1597.65 1183.64 1596.03C1185.7 1594.42 1194.79 1590.31 1199.09 1588.46C1204.58 1584.59 1213.71 1573.52 1206.3 1560.2C1206.3 1556.16 1209.73 1555.82 1211.45 1556.16C1213.16 1552.46 1214.85 1545.05 1207.84 1545.05C1200.84 1545.05 1165.44 1547.41 1148.61 1548.59C1158.06 1547.58 1171.89 1543.94 1151.7 1537.48C1131.52 1531.02 1137.46 1540.85 1142.95 1546.57C1139.34 1543.88 1130.38 1539 1123.38 1541.02C1122.41 1539.36 1124.49 1538.7 1127.35 1537.8C1130.6 1536.77 1134.85 1535.42 1136.77 1531.93C1139.65 1526.68 1121.83 1526.38 1112.56 1526.88L1105.87 1529.91L1112.56 1522.34C1118.06 1522.51 1129.25 1522.44 1130.07 1520.82C1130.35 1520.29 1132.37 1520.22 1135.3 1520.11C1143.48 1519.8 1158.73 1519.22 1162.52 1507.7C1167.67 1492.05 1166.64 1486.5 1160.46 1486.5C1158.3 1486.5 1156.51 1487.68 1154.62 1488.92C1151.11 1491.24 1147.22 1493.79 1139.86 1489.53C1130.79 1484.28 1141.92 1485.32 1148.61 1486.5C1152.39 1486.67 1159.33 1485.9 1156.85 1481.45C1154.38 1477.01 1163.03 1473.55 1167.67 1472.37C1171.45 1478.26 1181.58 1487.21 1191.88 1475.9C1202.18 1464.6 1196.17 1464.12 1191.88 1465.3C1195.63 1461.15 1202.01 1452.68 1199.11 1450.46C1198.9 1450.36 1198.72 1450.26 1198.57 1450.16C1198.78 1450.24 1198.96 1450.34 1199.11 1450.46C1203.13 1452.4 1217.01 1454.31 1215.05 1446.63C1212.99 1438.55 1232.05 1433.5 1232.56 1435.02C1233.08 1436.53 1244.92 1404.73 1237.71 1403.72C1242.35 1398.17 1251.41 1384.64 1250.59 1374.95C1256.77 1373.34 1253.16 1365.87 1250.59 1362.33C1251.96 1350.55 1251.62 1325.59 1239.26 1319.93C1238.02 1312.26 1229.82 1309.67 1225.87 1309.33C1216.94 1301.09 1194.55 1285.1 1176.43 1287.12C1183.64 1291.16 1166.12 1291.16 1165.09 1287.12C1164.06 1283.09 1125.95 1283.09 1125.95 1290.15C1125.95 1295.81 1118.06 1307.65 1114.11 1312.87C1112.22 1311.86 1107.62 1310.14 1104.32 1311.35C1102.97 1311.85 1101.52 1309.64 1099.57 1306.7C1095.57 1300.64 1089.49 1291.45 1078.06 1296.21C1079.91 1294.65 1081.9 1293.26 1083.8 1291.94L1083.8 1291.93C1089.29 1288.1 1094.01 1284.8 1092.48 1279.55C1091.14 1274.96 1098.94 1272.07 1105.13 1269.78L1105.13 1269.78C1108.46 1268.55 1111.33 1267.49 1112.05 1266.43C1114.11 1263.4 1117.2 1219.49 1100.72 1208.38C1103.6 1199.5 1095.4 1197.95 1090.93 1198.29C1085.95 1190.38 1075.48 1176.28 1073.42 1183.14C1073.42 1173.86 1067.93 1173.55 1065.18 1174.56C1061.92 1169.01 1056.22 1158.11 1059.52 1158.92C1061.32 1159.36 1064.2 1162.98 1067.13 1166.67L1067.13 1166.67C1070.91 1171.42 1074.77 1176.27 1076.51 1174.56C1077.62 1174.56 1078.98 1174.18 1080.5 1173.75C1083.22 1172.98 1086.41 1172.08 1089.39 1173.05C1093.26 1174.31 1097.13 1179.1 1096.5 1183.58C1098.33 1175.82 1094.22 1162.04 1079.09 1142.26C1065.49 1124.49 1067.24 1109.62 1069.82 1104.4L1080.63 1095.32L1065.18 1086.23C1066.55 1083.03 1066.83 1076.04 1056.94 1073.61C1047.05 1071.19 1048.01 1063.85 1049.73 1060.49C1049.22 1054.94 1046.85 1044.03 1041.49 1044.84C1041.49 1039.79 1012.14 1009.51 993.594 1012.54C978.762 1014.96 981.921 1007.83 985.354 1003.96C985.182 999.75 982.676 990.934 974.024 989.319C965.372 987.703 965.612 964.754 966.814 953.481C966.985 950.957 966.402 945.001 962.693 941.367C958.985 937.733 958.402 932.113 958.573 929.758C958.917 921.345 958.161 904.318 952.393 903.51C946.625 902.703 949.99 897.117 952.393 894.425C952.565 892.91 952.393 888.368 950.333 882.311C948.273 876.254 950.848 875.076 952.393 875.244C953.423 869.692 954.453 858.789 950.333 859.597C951.535 859.26 953.217 857.881 950.333 855.054C950.333 851.016 948.788 841.426 942.608 841.93C937.664 842.334 936.771 841.089 936.943 840.416C938.144 839.07 939.003 836.479 932.822 836.883C926.642 837.287 927.501 834.023 928.702 832.34C927.157 827.124 922.522 815.077 916.342 808.617C911.083 806.463 903.768 815.75 898.157 822.873C894.563 827.435 891.669 831.109 890.463 830.321C887.373 828.302 880.162 832.34 885.313 836.883C889.433 840.517 890.463 857.578 890.463 865.654C885.828 865.99 876.557 867.875 876.557 872.72C876.969 883.219 870.205 880.46 866.772 877.768C862.995 880.796 854.721 886.954 851.837 887.358C848.952 887.762 846.858 895.603 846.171 899.472C836.901 906.371 818.052 920.672 816.816 922.691C815.579 924.71 810.12 923.532 807.545 922.691L805.613 932.786C807.158 934.3 806.643 938.338 803.553 938.338C800.463 938.338 793.253 938.338 791.708 936.319C790.163 934.3 773.167 938.338 782.438 941.367C789.854 943.79 782.781 944.395 778.318 944.395C777.288 942.376 774.404 939.752 771.107 945.405C766.987 952.471 762.352 963.071 764.412 964.081C766.06 964.888 760.635 967.446 757.717 968.624C752.223 977.709 741.649 996.284 743.297 997.899C744.055 998.643 743.277 999.249 742.352 999.971C740.764 1001.21 738.741 1002.79 743.297 1005.98C749.065 1010.01 756.687 1025.16 759.777 1032.22C758.919 1036.43 757.923 1044.94 760.807 1045.35C761.837 1047.87 766.472 1057.46 770.592 1056.96C773.888 1056.55 776.086 1050.73 776.773 1047.87C777.459 1052.08 778.009 1060.49 774.712 1060.49C771.416 1060.49 772.309 1068.9 773.167 1073.11C776.086 1073.61 781.408 1075.53 779.348 1079.16C776.773 1083.71 785.013 1075.63 783.983 1073.11C783.586 1072.14 785.022 1070.64 786.849 1068.74C789.768 1065.7 793.688 1061.61 792.738 1056.96C791.502 1050.9 794.626 1053.76 796.343 1055.95C796 1059.82 796.343 1067.35 800.463 1066.55C803.948 1065.86 805.547 1063.33 806.535 1061.76C807.008 1061.02 807.341 1060.49 807.674 1060.49C808.704 1060.49 813.339 1062 813.339 1067.56C813.339 1069.41 813.916 1070.76 814.414 1071.93C815.402 1074.24 816.074 1075.81 811.279 1079.16C804.068 1084.21 799.948 1087.75 802.523 1091.28C803.952 1093.24 805.96 1093.05 807.514 1092.35C808.117 1091.95 808.699 1091.58 809.219 1091.28C808.798 1091.64 808.2 1092.04 807.514 1092.35C804.132 1094.62 800.076 1098.15 802.523 1099.86C803.697 1100.68 801.596 1100.75 798.495 1100.86C792.069 1101.08 781.347 1101.46 786.558 1108.95C792.738 1117.83 788.446 1122.74 785.528 1124.09C785.871 1128.46 788.824 1136.91 797.888 1135.7C785.116 1141.75 777.803 1156.06 775.743 1162.45L780.893 1181.13C777.803 1182.98 771.107 1186.48 769.047 1185.67C766.472 1184.66 760.807 1187.69 764.927 1193.24C769.047 1198.79 772.137 1208.89 771.622 1210.91L783.983 1223.02C780.893 1225.88 775.64 1232.11 779.348 1234.12C783.983 1236.65 787.073 1251.79 785.528 1254.82C784.292 1257.24 793.253 1258.52 797.888 1258.86C799.348 1266.26 799.614 1278.44 789.005 1267.94C778.395 1257.44 768.532 1263.57 764.927 1267.94C760.078 1271.64 751.511 1281.37 756.044 1290.66C756.543 1290.66 757.047 1290.65 757.552 1290.63C757.943 1290.62 758.333 1290.61 758.723 1290.59H758.727H758.732H758.736C764.051 1290.41 769.047 1290.24 769.047 1296.71C769.047 1302.77 761.408 1309.67 757.589 1312.36C753.726 1313.54 747.004 1317.41 751.022 1323.47C753.677 1327.47 757.412 1326.96 760.342 1326.55C762.954 1326.2 764.927 1325.93 764.927 1329.02C764.927 1334.27 754.198 1337.6 748.833 1338.61C745.057 1340.29 738.636 1345.07 743.168 1350.72C747.7 1356.38 757.074 1361.15 761.194 1362.84C762.91 1367.38 764.593 1376.36 757.589 1375.96C748.833 1375.46 744.455 1413.82 751.022 1421.89C756.275 1428.35 765.228 1428.62 769.047 1427.95C773.682 1429.8 781.923 1435.02 777.803 1441.07C773.682 1447.13 783.554 1444.94 789.005 1443.09C783.211 1456.05 773.991 1482.36 783.468 1483.98C784.669 1483.14 787.073 1481.15 787.073 1479.94C787.073 1479.27 788.802 1478.1 790.677 1476.82C793.023 1475.24 795.599 1473.49 795.313 1472.37C795.06 1471.38 798.042 1469.41 801.14 1467.36C804.345 1465.25 807.674 1463.05 807.674 1461.77C807.674 1460.56 809.907 1460.51 812.296 1460.45C814.907 1460.39 817.705 1460.32 817.974 1458.74C818.489 1455.71 818.489 1464.8 814.369 1463.28C810.249 1461.77 798.918 1473.38 797.888 1474.89C797.518 1475.44 797.48 1475.92 797.441 1476.42C797.37 1477.33 797.292 1478.32 795.313 1479.94C792.223 1482.46 785.528 1492.05 785.013 1495.08C784.601 1497.51 780.034 1498.78 777.803 1499.12C773.167 1499.46 762.558 1502.25 757.202 1510.73C751.846 1508.71 749.82 1515.95 749.477 1519.82C748.447 1522.17 746.078 1526.18 744.842 1523.35C743.606 1520.52 743.297 1534.62 743.297 1542.02C732.138 1540.34 708.893 1537.99 705.185 1542.02C703.554 1533.71 694.272 1533.5 685.724 1533.31C680.782 1533.2 676.085 1533.09 673.254 1531.42C665.529 1526.88 661.924 1525.37 657.804 1528.4C656.023 1529.71 648.76 1529.03 640.794 1528.3C630.328 1527.33 618.65 1526.25 616.603 1529.41C613.719 1533.85 616.088 1535.97 617.633 1536.47H611.452C613.856 1540.17 617.942 1547.98 615.057 1549.6C613.627 1550.4 612.277 1552.47 610.88 1554.62C608.757 1557.88 606.523 1561.31 603.727 1560.7C602.931 1560.53 601.557 1560.13 599.861 1559.64C591.687 1557.28 576.037 1552.76 581.582 1560.7C576.637 1563.53 575.745 1569.95 575.916 1572.81C575.23 1580.39 573.238 1595.33 570.766 1594.52C567.676 1593.51 562.011 1597.55 562.011 1601.59C562.011 1604.82 554.801 1606.3 551.196 1606.63C551.024 1609.33 549.651 1615.42 545.53 1618.24C541.41 1621.07 533.17 1619.42 529.565 1618.24C529.565 1621.44 530.595 1628.24 534.715 1629.85C538.835 1631.47 530.595 1629.18 525.96 1627.83C525.699 1626.4 525.489 1624.21 525.875 1622.98L525.714 1622.99L525.411 1623L525.397 1623L525.327 1623.01L525.28 1623.01C522.112 1623.14 517.205 1623.35 517.205 1625.81C517.205 1626.15 517.208 1626.52 517.212 1626.93C517.255 1631.47 517.335 1640.07 513.084 1641.46C512.369 1641.69 511.457 1641.94 510.445 1642.21C504.904 1643.71 496.369 1646.01 500.724 1651.56C503.394 1654.96 501.773 1655.51 497.367 1657.01C493.275 1658.41 486.781 1660.62 479.093 1666.7C472.501 1663.47 469.823 1670.74 469.308 1674.78C467.076 1674.1 462.098 1671.95 460.038 1668.72C457.978 1665.49 455.403 1669.05 454.373 1671.24C448.021 1672.42 435.317 1676.39 435.317 1682.85C435.317 1689.31 433.944 1692.61 433.257 1693.45Z" fill="#C9434C"/>
</svg>
