<svg width="177" height="286" viewBox="0 0 177 286" fill="none" xmlns="http://www.w3.org/2000/svg">
<rect x="1.00049" y="1" width="175.214" height="285" fill="white"/>
<path fill-rule="evenodd" clip-rule="evenodd" d="M106.745 184.488H106.743C106.688 184.49 106.634 184.492 106.579 184.493C106.634 184.492 106.69 184.49 106.745 184.488Z" fill="#F19832"/>
<path fill-rule="evenodd" clip-rule="evenodd" d="M128.438 232.036C128.48 232.094 128.499 232.111 128.49 232.075C128.488 232.067 128.484 232.061 128.478 232.055C128.469 232.047 128.456 232.041 128.438 232.036ZM153.679 169.642C153.734 169.532 153.777 169.409 153.809 169.274C153.791 169.399 153.75 169.524 153.679 169.642ZM106.745 184.488H106.743C106.688 184.49 106.634 184.492 106.579 184.493C106.634 184.492 106.69 184.49 106.745 184.488ZM74.5247 231.644C74.6623 231.72 74.5292 231.734 74.2975 231.744C74.3321 231.632 74.4011 231.577 74.5247 231.644ZM93.811 107.267C93.7626 107.21 93.6863 107.166 93.6135 107.137C93.6252 107.144 93.6371 107.152 93.6491 107.16C93.6778 107.178 93.7072 107.198 93.7374 107.218C93.7615 107.234 93.786 107.25 93.811 107.267ZM105.576 72.6246C105.639 72.6677 105.696 72.7172 105.741 72.7625C105.686 72.7279 105.624 72.6797 105.576 72.6246ZM89.3077 76.207C89.318 76.1967 89.3135 76.1938 89.2982 76.1981C89.2995 76.2087 89.3025 76.2123 89.3077 76.207ZM117.08 233.367L117.164 233.254C116.947 233.213 116.992 233.293 117.08 233.367ZM168.031 207.173C168.052 207.188 168.077 207.202 168.106 207.216C168.085 207.199 168.06 207.185 168.031 207.173ZM113.779 156.15C113.706 156.194 113.625 156.245 113.541 156.303C113.637 156.259 113.72 156.202 113.779 156.15Z" fill="#F19832"/>
<path d="M61.3921 241.763C62.2533 242.122 64.1335 242.466 64.765 240.974C65.9706 240.974 66.7982 241.5 67.0614 241.763C67.4441 242.074 68.1809 242.854 68.066 243.485C67.9512 244.117 68.4966 244.753 68.7837 244.992L69.8601 243.916H70.506L71.2953 242.983C71.415 242.624 71.4245 241.935 70.506 242.05C70.615 241.977 70.6964 241.928 70.763 241.887C70.9595 241.767 71.0274 241.726 71.2953 241.404C71.5824 241.06 72.1326 241.117 72.3718 241.189L73.0177 240.256L73.048 240.236C73.7973 239.744 74.3294 239.395 75.8164 239.395C76.318 239.395 76.2334 239.072 76.1235 238.652C76.0899 238.523 76.054 238.386 76.0317 238.247L76.6775 237.96V237.385H77.8257V237.96H81.1268C81.4617 237.696 82.275 237.213 82.8491 237.385C83.4232 237.558 83.9973 237.84 84.2126 237.96C84.1647 238.294 84.1839 238.892 84.6432 238.605C85.1024 238.318 85.9349 238.247 86.2937 238.247C86.3654 238.629 86.6094 239.395 87.0113 239.395C87.4132 239.395 88.1834 239.203 88.5183 239.108L90.4559 241.835C90.743 241.811 91.4319 241.82 91.8912 242.05C92.3504 242.28 92.7523 242.002 92.8958 241.835V240.256C93.159 240.017 93.7713 239.581 94.1158 239.754C94.4603 239.926 94.2593 239.395 94.1158 239.108H94.9769V238.605C95.3597 238.366 96.0103 237.859 95.551 237.744C95.3384 237.691 95.2242 237.707 95.1392 237.719C94.9947 237.739 94.9344 237.747 94.6181 237.385C94.2163 236.926 95.0726 236.764 95.551 236.74C95.5989 235.783 95.9099 233.812 96.771 233.582V232.147C96.8667 232.553 97.2733 233.338 98.1345 233.223C98.9956 233.108 99.5458 232.458 99.7133 232.147L101.077 231.932C101.364 232.075 102.038 232.276 102.44 231.932C102.688 231.719 103.04 231.786 103.368 231.848C103.705 231.912 104.017 231.971 104.163 231.716C104.392 231.314 105.263 231.357 105.67 231.429C107.542 232.377 111.226 234.686 111.127 236.404C111.273 234.582 111.634 234.3 112.559 234.3C112.882 234.3 113.748 234.575 114.73 234.888C116.582 235.477 118.846 236.198 118.659 235.448C118.673 235.408 118.687 235.37 118.7 235.332C119.032 234.409 119.182 233.993 117.941 233.51C117.542 233.355 117.301 233.28 117.164 233.254L117.08 233.367C116.992 233.293 116.947 233.213 117.164 233.254L117.726 232.506L119.089 233.367L119.304 233.797L119.735 233.008H121.314C122.653 232.912 125.218 232.879 124.758 233.51C124.299 234.142 125.093 233.391 125.548 232.936C126.425 232.585 128.118 231.961 128.438 232.036C128.218 231.727 127.375 230.246 126.911 229.42C128.61 230.879 132.38 233.625 133.872 232.936C135.365 232.247 134.159 232.075 133.37 232.075L132.724 230.927C133.705 231.166 135.609 231.774 135.379 232.29C135.15 232.807 134.709 232.984 134.518 233.008L136.527 234.228V233.367C137.915 233.08 141.077 232.606 142.627 233.008C143.611 233.263 143.633 233.13 143.66 232.965C143.686 232.805 143.718 232.615 144.637 232.721C146.129 232.893 150.186 234.276 152.028 234.946C152.602 234.635 153.75 233.883 153.75 233.367C153.75 233.066 154.656 232.998 155.644 232.925C156.774 232.842 158.013 232.75 158.128 232.29C158.3 231.601 159.635 230.999 160.281 230.783C160.951 231.142 162.348 231.802 162.577 231.573C162.807 231.343 162.864 230.233 162.864 229.707L164.515 227.913C164.874 228.009 165.663 228.142 165.95 227.913C166.237 227.683 167.505 227.1 168.103 226.836C168.868 226.286 170.141 224.712 169.108 222.818C169.108 222.244 169.586 222.196 169.825 222.244C170.064 221.717 170.299 220.665 169.323 220.665C168.347 220.665 163.414 221 161.07 221.167C162.386 221.024 164.314 220.507 161.501 219.588C158.688 218.67 159.515 220.067 160.281 220.88C159.778 220.497 158.53 219.804 157.554 220.091C157.42 219.856 157.709 219.762 158.107 219.633C158.56 219.487 159.152 219.296 159.42 218.799C159.821 218.053 157.339 218.01 156.047 218.081L155.114 218.512L156.047 217.436C156.812 217.459 158.372 217.45 158.487 217.22C158.525 217.145 158.807 217.134 159.215 217.118C160.355 217.074 162.479 216.993 163.008 215.354C163.725 213.13 163.582 212.34 162.721 212.34C162.419 212.34 162.17 212.508 161.907 212.685C161.417 213.014 160.876 213.377 159.85 212.771C158.587 212.025 160.137 212.173 161.07 212.34C161.596 212.364 162.563 212.254 162.218 211.623C161.874 210.991 163.079 210.498 163.725 210.331C164.252 211.168 165.663 212.441 167.098 210.833C168.533 209.226 167.696 209.159 167.098 209.326C167.621 208.736 168.51 207.532 168.106 207.216C168.077 207.202 168.052 207.188 168.031 207.173C168.06 207.185 168.085 207.199 168.106 207.216C168.667 207.492 170.601 207.763 170.328 206.671C170.04 205.523 172.696 204.805 172.767 205.021C172.839 205.236 174.49 200.715 173.485 200.571C174.131 199.782 175.394 197.859 175.279 196.481C176.14 196.251 175.638 195.189 175.279 194.687C175.471 193.012 175.423 189.463 173.7 188.659C173.528 187.568 172.385 187.2 171.835 187.152C170.591 185.98 167.471 183.707 164.945 183.994C165.95 184.568 163.51 184.568 163.367 183.994C163.223 183.42 157.913 183.42 157.913 184.425C157.913 185.229 156.812 186.913 156.262 187.654C155.999 187.511 155.358 187.267 154.899 187.439C154.711 187.509 154.508 187.196 154.236 186.777C153.678 185.916 152.832 184.61 151.239 185.286C151.497 185.065 151.774 184.867 152.039 184.678C152.803 184.133 153.461 183.664 153.248 182.918C153.061 182.265 154.149 181.854 155.011 181.528C155.476 181.353 155.875 181.203 155.975 181.052C156.262 180.621 156.693 174.378 154.396 172.799C154.798 171.536 153.655 171.316 153.033 171.364C152.339 170.24 150.88 168.235 150.593 169.211C150.593 167.891 149.827 167.848 149.445 167.991C148.99 167.202 148.196 165.652 148.655 165.767C148.906 165.829 149.308 166.345 149.717 166.869C150.243 167.544 150.781 168.234 151.023 167.991C151.177 167.991 151.368 167.936 151.579 167.875C151.958 167.766 152.402 167.638 152.817 167.776C153.357 167.956 153.896 168.636 153.809 169.274C154.064 168.169 153.492 166.211 151.382 163.398C149.488 160.872 149.732 158.758 150.09 158.016L151.598 156.725L149.445 155.433C149.636 154.978 149.674 153.983 148.296 153.639C146.919 153.294 147.053 152.251 147.292 151.773C147.22 150.983 146.89 149.433 146.144 149.548C146.144 148.831 142.053 144.525 139.47 144.955C137.403 145.3 137.843 144.286 138.321 143.735C138.298 143.137 137.948 141.884 136.743 141.654C135.537 141.425 135.571 138.162 135.738 136.559C135.762 136.2 135.681 135.354 135.164 134.837C134.647 134.32 134.566 133.521 134.59 133.186C134.638 131.99 134.532 129.57 133.729 129.455C132.925 129.34 133.394 128.546 133.729 128.163C133.753 127.948 133.729 127.302 133.442 126.441C133.155 125.58 133.513 125.412 133.729 125.436C133.872 124.647 134.016 123.097 133.442 123.211C133.609 123.164 133.843 122.967 133.442 122.566C133.442 121.991 133.226 120.628 132.365 120.7C131.676 120.757 131.552 120.58 131.576 120.484C131.743 120.293 131.863 119.925 131.002 119.982C130.141 120.04 130.26 119.575 130.428 119.336C130.212 118.595 129.566 116.882 128.705 115.963C127.973 115.657 126.953 116.978 126.171 117.99C125.671 118.639 125.267 119.161 125.099 119.049C124.669 118.762 123.664 119.336 124.382 119.982C124.956 120.499 125.099 122.924 125.099 124.073C124.453 124.12 123.162 124.388 123.162 125.077C123.219 126.57 122.277 126.178 121.798 125.795C121.272 126.225 120.119 127.101 119.717 127.158C119.315 127.216 119.023 128.33 118.928 128.881C117.636 129.861 115.009 131.895 114.837 132.182C114.665 132.469 113.904 132.301 113.546 132.182L113.276 133.617C113.492 133.832 113.42 134.406 112.989 134.406C112.559 134.406 111.554 134.406 111.339 134.119C111.123 133.832 108.755 134.406 110.047 134.837C111.08 135.181 110.095 135.268 109.473 135.268C109.329 134.98 108.928 134.607 108.468 135.411C107.894 136.416 107.248 137.923 107.535 138.066C107.765 138.181 107.009 138.545 106.602 138.712C105.837 140.004 104.363 142.645 104.593 142.874C104.699 142.98 104.59 143.066 104.461 143.169C104.24 143.345 103.958 143.569 104.593 144.023C105.397 144.597 106.459 146.75 106.89 147.754C106.77 148.352 106.631 149.563 107.033 149.62C107.177 149.979 107.822 151.342 108.397 151.271C108.856 151.213 109.162 150.385 109.258 149.979C109.353 150.577 109.43 151.773 108.971 151.773C108.511 151.773 108.636 152.969 108.755 153.567C109.162 153.639 109.904 153.911 109.616 154.428C109.258 155.074 110.406 153.926 110.262 153.567C110.207 153.429 110.407 153.216 110.662 152.946C111.068 152.513 111.615 151.933 111.482 151.271C111.31 150.409 111.745 150.816 111.985 151.127C111.937 151.677 111.985 152.749 112.559 152.634C113.044 152.537 113.267 152.177 113.405 151.954C113.471 151.848 113.517 151.773 113.563 151.773C113.707 151.773 114.353 151.988 114.353 152.778C114.353 153.042 114.433 153.234 114.503 153.399C114.64 153.727 114.734 153.951 114.066 154.428C113.061 155.146 112.487 155.648 112.846 156.15C113.045 156.429 113.325 156.402 113.541 156.303C113.625 156.245 113.706 156.194 113.779 156.15C113.72 156.202 113.637 156.259 113.541 156.303C113.07 156.625 112.505 157.127 112.846 157.37C113.009 157.487 112.717 157.497 112.284 157.513C111.389 157.544 109.895 157.597 110.621 158.662C111.482 159.925 110.884 160.624 110.478 160.815C110.525 161.437 110.937 162.638 112.2 162.465C110.42 163.327 109.401 165.36 109.114 166.269L109.832 168.924C109.401 169.187 108.468 169.685 108.181 169.57C107.822 169.426 107.033 169.857 107.607 170.646C108.181 171.436 108.612 172.871 108.54 173.158L110.262 174.88C109.832 175.287 109.1 176.172 109.616 176.459C110.262 176.818 110.693 178.971 110.478 179.401C110.305 179.746 111.554 179.928 112.2 179.976C112.403 181.028 112.44 182.76 110.962 181.267C109.484 179.775 108.109 180.645 107.607 181.267C106.931 181.794 105.738 183.176 106.369 184.497C106.439 184.497 106.509 184.495 106.579 184.493C106.634 184.492 106.688 184.49 106.743 184.488H106.745C107.485 184.461 108.181 184.437 108.181 185.358C108.181 186.219 107.117 187.2 106.585 187.582C106.046 187.75 105.11 188.3 105.67 189.161C106.04 189.73 106.56 189.657 106.968 189.6C107.332 189.549 107.607 189.511 107.607 189.951C107.607 190.697 106.112 191.17 105.365 191.314C104.838 191.553 103.944 192.233 104.575 193.036C105.207 193.84 106.513 194.519 107.087 194.759C107.326 195.404 107.561 196.682 106.585 196.624C105.365 196.553 104.755 202.007 105.67 203.155C106.402 204.073 107.649 204.112 108.181 204.016C108.827 204.279 109.975 205.021 109.401 205.882C108.827 206.743 110.203 206.432 110.962 206.169C110.155 208.011 108.87 211.752 110.191 211.982C110.358 211.862 110.693 211.58 110.693 211.407C110.693 211.312 110.934 211.145 111.195 210.965C111.522 210.739 111.881 210.491 111.841 210.331C111.806 210.19 112.221 209.91 112.653 209.619C113.1 209.319 113.563 209.006 113.563 208.824C113.563 208.653 113.875 208.645 114.207 208.637C114.571 208.628 114.961 208.618 114.999 208.393C115.07 207.963 115.07 209.255 114.496 209.039C113.922 208.824 112.343 210.475 112.2 210.69C112.148 210.767 112.143 210.835 112.138 210.908C112.128 211.036 112.117 211.178 111.841 211.407C111.411 211.766 110.478 213.13 110.406 213.56C110.348 213.905 109.712 214.087 109.401 214.134C108.755 214.182 107.277 214.579 106.531 215.785C105.784 215.498 105.502 216.527 105.454 217.077C105.311 217.412 104.981 217.981 104.808 217.579C104.636 217.177 104.593 219.182 104.593 220.234C103.038 219.995 99.7994 219.66 99.2827 220.234C99.0553 219.052 97.762 219.022 96.571 218.995C95.8823 218.979 95.2278 218.964 94.8334 218.727C93.757 218.081 93.2547 217.866 92.6805 218.297C92.4324 218.483 91.4204 218.387 90.3104 218.283C88.8521 218.145 87.2248 217.992 86.9396 218.44C86.5377 219.072 86.8678 219.373 87.0831 219.445H86.2219C86.5568 219.971 87.1261 221.081 86.7243 221.311C86.5249 221.425 86.3369 221.719 86.1422 222.024C85.8463 222.488 85.5351 222.976 85.1455 222.889C85.0345 222.865 84.8431 222.808 84.6068 222.739C83.4678 222.403 81.2871 221.76 82.0597 222.889C81.3708 223.291 81.2464 224.205 81.2703 224.612C81.1746 225.688 80.8972 227.812 80.5527 227.698C80.1221 227.554 79.3327 228.128 79.3327 228.702C79.3327 229.161 78.3281 229.372 77.8257 229.42C77.8018 229.803 77.6104 230.669 77.0363 231.07C76.4622 231.472 75.314 231.238 74.8117 231.07C74.8117 231.525 74.9552 232.491 75.5293 232.721C76.1034 232.951 74.9552 232.625 74.3094 232.434C74.273 232.23 74.2438 231.918 74.2975 231.744L74.2751 231.745L74.2328 231.747L74.2309 231.747L74.2212 231.748L74.2146 231.748C73.7732 231.767 73.0894 231.796 73.0894 232.147C73.0894 232.194 73.0899 232.248 73.0904 232.306C73.0964 232.95 73.1077 234.174 72.5153 234.371C72.4156 234.405 72.2885 234.44 72.1476 234.478C71.3754 234.691 70.1862 235.018 70.793 235.807C71.1651 236.29 70.9391 236.369 70.3253 236.583C69.7551 236.781 68.8502 237.096 67.779 237.96C66.8604 237.5 66.4873 238.534 66.4155 239.108C66.1045 239.012 65.4108 238.706 65.1238 238.247C64.8367 237.787 64.4779 238.294 64.3344 238.605C63.4493 238.773 61.6792 239.337 61.6792 240.256C61.6792 241.175 61.4878 241.643 61.3921 241.763Z" fill="#BC455A"/>
<path d="M127.414 233.51C127.557 232.912 128.447 232.132 130.858 233.797C133.269 235.462 131.863 235.448 130.858 235.233C130.619 235.615 130.212 236.424 130.499 236.596C130.858 236.811 128.777 237.314 128.49 236.955C128.26 236.668 126.576 235.448 125.763 234.874C125.596 234.754 125.16 234.587 124.758 234.874C124.256 235.233 125.907 233.51 127.414 233.51Z" fill="#BC455A"/>
<path fill-rule="evenodd" clip-rule="evenodd" d="M78.6869 96.3005C78.7003 96.2737 78.6937 96.2845 78.6641 96.3207C78.6757 96.3141 78.6834 96.3074 78.6869 96.3005Z" fill="#F19832"/>
<path fill-rule="evenodd" clip-rule="evenodd" d="M57.8758 124.144C57.7556 124.224 57.7224 124.213 57.7535 124.14C57.7961 124.14 57.8369 124.142 57.8758 124.144ZM40.294 132.325C39.935 132.408 40.1604 132.332 40.5982 132.19C40.5129 132.251 40.4123 132.298 40.294 132.325ZM61.0888 124.638C61.0894 124.784 61.2412 124.704 61.3921 124.575C61.3029 124.595 61.2001 124.617 61.0888 124.638ZM76.3049 131.399C76.3098 131.421 76.3144 131.443 76.3187 131.464C76.2822 131.391 76.2613 131.324 76.2825 131.3C76.2905 131.334 76.2979 131.367 76.3049 131.399ZM29.3143 139.789C29.3333 139.712 29.3433 139.609 29.3327 139.491C29.3112 139.606 29.3078 139.71 29.3143 139.789ZM11.1042 180.791C11.1042 180.791 11.0219 180.822 10.8885 180.862C10.9294 180.866 10.9716 180.858 11.0149 180.837C11.0769 180.806 11.1042 180.791 11.1042 180.791Z" fill="#F19832"/>
<path fill-rule="evenodd" clip-rule="evenodd" d="M75.4351 53.2644C75.5779 53.3156 75.7163 53.3916 75.8164 53.4584C75.7177 53.4255 75.5708 53.3594 75.4351 53.2644Z" fill="#512626"/>
<path fill-rule="evenodd" clip-rule="evenodd" d="M148.225 11.9797C148.169 11.9983 148.207 11.9973 148.297 11.9849C148.269 11.9753 148.245 11.973 148.225 11.9797Z" fill="#512626"/>
<path d="M111.127 236.404C111.226 234.686 107.542 232.377 105.67 231.429C105.263 231.357 104.392 231.314 104.163 231.716C104.017 231.971 103.705 231.912 103.368 231.848C103.04 231.786 102.688 231.719 102.44 231.932C102.038 232.276 101.364 232.075 101.077 231.932L99.7133 232.147C99.5458 232.458 98.9956 233.108 98.1345 233.223C97.2733 233.338 96.8667 232.553 96.771 232.147V233.582C95.9099 233.812 95.5989 235.783 95.551 236.74C95.0726 236.764 94.2163 236.926 94.6181 237.385C94.9344 237.747 94.9947 237.739 95.1391 237.719C95.2242 237.707 95.3384 237.691 95.551 237.744C96.0103 237.859 95.3597 238.366 94.9769 238.605V239.108H94.1158C94.2593 239.395 94.4603 239.926 94.1158 239.754C93.7713 239.581 93.159 240.017 92.8958 240.256V241.835C92.7523 242.002 92.3504 242.28 91.8912 242.05C91.4319 241.82 90.743 241.811 90.4559 241.835L88.5183 239.108C88.1834 239.203 87.4132 239.395 87.0113 239.395C86.6094 239.395 86.3655 238.629 86.2937 238.247C85.9349 238.247 85.1024 238.318 84.6432 238.605C84.1839 238.892 84.1647 238.294 84.2126 237.96C83.9973 237.84 83.4232 237.558 82.8491 237.385C82.275 237.213 81.4617 237.696 81.1268 237.96H77.8257V237.385H76.6775V237.96L76.0317 238.247C76.054 238.386 76.0899 238.523 76.1235 238.652C76.2334 239.072 76.318 239.395 75.8164 239.395C74.3294 239.395 73.7973 239.744 73.048 240.236L73.0177 240.256L72.3718 241.189C72.1326 241.117 71.5824 241.06 71.2954 241.404C71.0274 241.726 70.9595 241.767 70.763 241.887C70.6964 241.928 70.615 241.977 70.506 242.05C71.4245 241.935 71.415 242.624 71.2954 242.983L70.506 243.916H69.8601L68.7837 244.992C68.4966 244.753 67.9512 244.117 68.066 243.485C68.1809 242.854 67.4441 242.074 67.0614 241.763C66.7982 241.5 65.9706 240.974 64.765 240.974C64.1335 242.466 62.2533 242.122 61.3921 241.763C61.4878 241.643 61.6792 241.175 61.6792 240.256C61.6792 239.337 63.4493 238.773 64.3344 238.605C64.4779 238.294 64.8367 237.787 65.1238 238.247C65.4108 238.706 66.1045 239.012 66.4155 239.108C66.4873 238.534 66.8604 237.5 67.779 237.96C68.8502 237.096 69.7551 236.781 70.3253 236.583C70.9392 236.369 71.1651 236.29 70.793 235.807C70.1862 235.018 71.3754 234.691 72.1476 234.478C72.2885 234.44 72.4156 234.405 72.5153 234.371C73.1077 234.174 73.0964 232.95 73.0904 232.306C73.0899 232.248 73.0894 232.194 73.0894 232.147C73.0894 231.796 73.7732 231.767 74.2146 231.748L74.2212 231.748M111.127 236.404C111.126 236.42 111.125 236.436 111.123 236.453M111.127 236.404C111.273 234.582 111.634 234.3 112.559 234.3C112.882 234.3 113.748 234.575 114.73 234.888C116.582 235.477 118.846 236.198 118.659 235.448C118.673 235.408 118.687 235.37 118.7 235.332C119.032 234.409 119.182 233.993 117.941 233.51C117.542 233.355 117.301 233.28 117.164 233.254M117.164 233.254C116.947 233.213 116.992 233.293 117.08 233.367L117.164 233.254ZM117.164 233.254L117.726 232.506L119.089 233.367L119.304 233.797L119.735 233.008H121.314C122.653 232.912 125.218 232.879 124.758 233.51C124.299 234.142 125.093 233.391 125.548 232.936C126.425 232.585 128.118 231.961 128.438 232.036M128.438 232.036C128.48 232.094 128.499 232.111 128.49 232.075C128.488 232.067 128.484 232.061 128.478 232.055C128.469 232.047 128.456 232.041 128.438 232.036ZM128.438 232.036C128.218 231.727 127.375 230.246 126.911 229.42C128.61 230.879 132.38 233.625 133.872 232.936C135.365 232.247 134.159 232.075 133.37 232.075L132.724 230.927C133.705 231.166 135.609 231.774 135.379 232.29C135.15 232.807 134.709 232.984 134.518 233.008L136.527 234.228V233.367C137.915 233.08 141.077 232.606 142.627 233.008C143.611 233.263 143.633 233.13 143.66 232.965C143.686 232.805 143.718 232.615 144.637 232.721C146.129 232.893 150.186 234.276 152.028 234.946C152.602 234.635 153.75 233.883 153.75 233.367C153.75 233.066 154.656 232.998 155.644 232.925C156.774 232.842 158.013 232.75 158.128 232.29C158.3 231.601 159.635 230.999 160.281 230.783C160.951 231.142 162.348 231.802 162.577 231.573C162.807 231.343 162.864 230.233 162.864 229.707L164.515 227.913C164.874 228.009 165.663 228.142 165.95 227.913C166.237 227.683 167.505 227.1 168.103 226.836C168.868 226.286 170.141 224.712 169.108 222.818C169.108 222.244 169.586 222.196 169.825 222.244C170.064 221.717 170.299 220.665 169.323 220.665C168.347 220.665 163.414 221 161.07 221.167C162.386 221.024 164.314 220.507 161.501 219.588C158.688 218.67 159.515 220.067 160.281 220.88C159.778 220.497 158.53 219.804 157.554 220.091C157.42 219.856 157.709 219.762 158.107 219.633C158.56 219.487 159.152 219.296 159.42 218.799C159.821 218.053 157.339 218.01 156.047 218.081L155.114 218.512L156.047 217.436C156.812 217.459 158.372 217.45 158.487 217.22C158.525 217.145 158.807 217.134 159.215 217.118C160.355 217.074 162.479 216.993 163.008 215.354C163.725 213.13 163.582 212.34 162.721 212.34C162.419 212.34 162.17 212.508 161.907 212.685C161.417 213.014 160.876 213.377 159.85 212.771C158.587 212.025 160.137 212.173 161.07 212.34C161.596 212.364 162.563 212.254 162.218 211.623C161.874 210.991 163.079 210.498 163.725 210.331C164.252 211.168 165.663 212.441 167.098 210.833C168.533 209.226 167.696 209.159 167.098 209.326C167.621 208.736 168.51 207.532 168.106 207.216M168.106 207.216C168.085 207.199 168.06 207.185 168.031 207.173C168.052 207.188 168.077 207.202 168.106 207.216ZM168.106 207.216C168.667 207.492 170.601 207.763 170.328 206.671C170.04 205.523 172.696 204.805 172.767 205.021C172.839 205.236 174.49 200.715 173.485 200.571C174.131 199.782 175.394 197.859 175.279 196.481C176.14 196.251 175.638 195.189 175.279 194.687C175.471 193.012 175.423 189.463 173.7 188.659C173.528 187.568 172.385 187.2 171.835 187.152C170.591 185.98 167.471 183.707 164.945 183.994C165.95 184.568 163.51 184.568 163.367 183.994C163.223 183.42 157.913 183.42 157.913 184.425C157.913 185.229 156.812 186.913 156.262 187.654C155.999 187.511 155.358 187.267 154.899 187.439C154.711 187.509 154.508 187.196 154.236 186.777C153.678 185.916 152.832 184.61 151.239 185.286C151.497 185.065 151.774 184.867 152.039 184.678C152.803 184.133 153.461 183.664 153.248 182.918C153.061 182.265 154.149 181.854 155.011 181.528C155.476 181.353 155.875 181.203 155.975 181.052C156.262 180.621 156.693 174.378 154.396 172.799C154.798 171.536 153.655 171.316 153.033 171.364C152.339 170.24 150.88 168.235 150.593 169.211C150.593 167.891 149.827 167.848 149.445 167.991C148.99 167.202 148.196 165.652 148.655 165.767C148.906 165.829 149.308 166.345 149.717 166.869C150.243 167.544 150.781 168.234 151.023 167.991C151.177 167.991 151.368 167.936 151.579 167.875C151.958 167.766 152.402 167.638 152.817 167.776C153.357 167.956 153.896 168.636 153.809 169.274M153.809 169.274C153.791 169.399 153.75 169.524 153.679 169.642C153.734 169.532 153.777 169.409 153.809 169.274ZM153.809 169.274C154.064 168.169 153.492 166.211 151.382 163.398C149.488 160.872 149.732 158.758 150.09 158.016L151.598 156.724L149.445 155.433C149.636 154.978 149.674 153.983 148.296 153.639C146.919 153.294 147.053 152.251 147.292 151.773C147.22 150.983 146.89 149.433 146.144 149.548C146.144 148.831 142.053 144.525 139.47 144.955C137.403 145.3 137.843 144.286 138.321 143.735C138.298 143.137 137.948 141.884 136.743 141.654C135.537 141.425 135.571 138.162 135.738 136.559C135.762 136.2 135.681 135.354 135.164 134.837C134.647 134.32 134.566 133.521 134.59 133.186C134.638 131.99 134.532 129.57 133.729 129.455C132.925 129.34 133.394 128.546 133.729 128.163C133.753 127.948 133.729 127.302 133.442 126.441C133.155 125.58 133.513 125.412 133.729 125.436C133.872 124.647 134.016 123.097 133.442 123.211C133.609 123.164 133.843 122.967 133.442 122.566C133.442 121.991 133.226 120.628 132.365 120.7C131.676 120.757 131.552 120.58 131.576 120.484C131.743 120.293 131.863 119.925 131.002 119.982C130.141 120.04 130.26 119.575 130.428 119.336C130.212 118.595 129.566 116.882 128.705 115.963M128.705 115.963C128.538 115.365 128.117 114.126 127.772 113.954C127.342 113.739 127.701 113.236 126.839 112.878C125.978 112.519 125.691 112.304 124.83 112.232C124.141 112.174 124.4 111.969 124.615 111.873C124.256 111.395 123.251 110.466 122.103 110.581C122.103 110.007 119.95 107.424 117.797 110.151C116.075 112.332 115.501 111.921 115.429 111.442C114.951 111.012 113.736 110.151 112.702 110.151C111.669 110.151 111.889 110.007 112.128 109.935C111.171 109.481 109.057 108.615 108.253 108.787C107.248 109.002 108.54 107.783 107.32 108.285C106.689 107.596 106.483 106.897 106.459 106.634C107.081 107.256 108.526 108.457 109.329 108.285C110.133 108.113 110.478 108.548 110.549 108.787C111.004 109.05 112.128 109.419 112.989 108.787C113.85 108.156 114.448 108.381 114.64 108.572C114.879 108.213 115.286 107.452 114.999 107.28C114.712 107.108 115.357 107.208 115.716 107.28C116.41 106.778 117.726 105.716 117.439 105.486C117.152 105.256 118.037 105.39 118.515 105.486C118.97 105.965 119.95 106.634 120.237 105.486C121.098 105.486 122.247 105.127 122.605 104.338C122.893 103.706 120.955 102.783 119.95 102.4C120.237 101.946 120.639 100.879 119.95 100.247C119.261 99.616 115.932 100.798 114.353 101.467C114.807 100.822 115.889 99.4868 116.577 99.3146C117.266 99.1423 119.591 99.4342 120.668 99.6016C121.336 99.7449 121.506 99.5314 121.673 98.9558C121.984 99.0275 122.605 98.9701 122.605 98.1664C123.251 97.8793 124.112 97.664 124.615 96.5158C125.017 95.5973 124.878 95.4155 124.758 95.4394C124.998 95.1523 125.433 94.4491 125.261 93.9324C125.088 93.4157 125.859 93.1908 126.265 93.143C126.457 93.0712 126.897 92.8129 127.127 92.3536C127.356 91.8943 128.179 91.3489 128.562 91.1336C128.49 90.8944 128.461 90.3873 128.921 90.2725C129.38 90.1577 129.112 89.22 128.921 88.7655C129.638 87.9283 131.073 86.0959 131.073 85.4644C131.073 84.8329 131.313 83.5268 131.432 82.9527C131.887 82.2112 132.925 80.5989 133.442 80.0822C134.087 79.4364 134.303 79.7234 134.446 78.7187C134.561 77.915 134.925 77.9533 135.092 78.0729C135.26 77.14 135.451 75.0589 134.877 74.1977C134.303 73.3366 133.968 73.217 133.872 73.2648C133.944 73.1213 133.901 72.8055 133.155 72.6907C132.408 72.5759 132.604 72.308 132.796 72.1884C132.27 72.0687 131.145 71.9444 130.858 72.4036C130.571 72.8629 130.069 72.595 129.853 72.4036C129.638 72.1166 129.15 71.7147 128.921 72.4036C128.691 73.0926 128.203 72.6907 127.988 72.4036C127.748 72.1644 127.127 71.7865 126.552 72.1884C125.978 72.5902 125.548 72.1166 125.404 71.8295C124.998 71.7099 124.069 71.4851 123.61 71.5425C123.151 71.5999 123.084 71.3751 123.108 71.2554C122.414 71.0402 120.941 70.7675 120.596 71.399C120.252 72.0305 119.591 71.7578 119.304 71.5425C118.706 71.2554 117.467 70.5809 117.295 70.179C117.123 69.7771 115.262 70.0116 114.353 70.179C114.401 70.5378 114.338 71.2267 113.707 71.1119C112.918 70.9684 110.908 71.1119 110.047 72.1884C109.186 73.2648 109.688 71.6143 107.105 72.1884C107.105 72.6189 107.751 72.906 106.746 73.2648C105.741 73.6236 104.88 73.3365 105.024 72.7625C105.111 72.4117 105.372 72.4851 105.576 72.6246M128.705 115.963C127.973 115.657 126.953 116.978 126.171 117.99C125.671 118.639 125.267 119.161 125.099 119.049C124.669 118.762 123.664 119.336 124.382 119.982C124.956 120.499 125.099 122.924 125.099 124.073C124.453 124.12 123.162 124.388 123.162 125.077C123.219 126.57 122.277 126.178 121.798 125.795C121.272 126.225 120.119 127.101 119.717 127.158C119.315 127.216 119.023 128.33 118.928 128.881C117.636 129.861 115.009 131.895 114.837 132.182C114.665 132.469 113.904 132.301 113.546 132.182L113.276 133.617M105.576 72.6246C105.639 72.6678 105.696 72.7172 105.741 72.7625C105.686 72.7279 105.624 72.6797 105.576 72.6246ZM105.576 72.6246C105.456 72.4889 105.415 72.3108 105.741 72.1884C106.315 71.9731 106.89 72.1166 106.746 71.5425C106.602 70.9684 108.325 71.1119 108.181 70.4661C108.038 69.8202 107.751 70.179 106.89 70.3225C106.028 70.4661 106.1 69.5331 104.593 70.179C103.388 70.6957 102.895 71.3033 102.799 71.5425C102.871 71.088 103.33 70.0785 104.593 69.6767C106.172 69.1743 106.459 70.0355 106.89 69.0308C107.234 68.2271 107.894 68.6959 108.181 69.0308C108.109 69.4853 108.153 70.2077 108.899 69.4614C109.832 68.5285 111.769 66.5191 111.411 66.2321C111.123 66.0024 110.143 66.7105 109.688 67.0932C109.616 66.7344 109.215 66.146 108.181 66.6626C107.148 67.1793 106.794 66.7344 106.746 66.4474C106.555 66.1125 105.942 65.4857 105.024 65.658C104.105 65.8302 104.21 64.9164 104.378 64.438C104.593 64.9164 105.282 65.7584 106.315 65.2992C107.349 64.8399 107.272 65.7297 107.105 66.2321C107.224 65.945 107.578 65.3996 108.038 65.5144C108.612 65.658 108.899 65.8015 108.899 64.6533C108.899 63.7347 108.325 63.84 108.038 64.0074V63.3616C108.325 63.6008 109.014 63.9787 109.473 63.5769C109.932 63.175 110.573 63.0745 110.836 63.0745C111.028 62.8353 111.411 62.2708 111.411 61.9263C111.411 61.4958 113.42 61.4958 115.142 59.9887C116.864 58.4817 116.721 58.2664 116.649 58.0512C116.577 57.8359 119.233 56.903 119.591 56.9747C119.95 57.0465 121.816 53.2431 121.098 52.0231C121.96 50.9467 122.605 49.5114 122.534 49.1526C122.462 48.7938 121.529 49.3679 121.314 49.1526C121.098 48.9373 119.807 48.435 119.304 48.7938C118.903 49.0809 118.706 48.5785 118.659 48.2915C118.372 48.1719 117.912 48.2915 118.372 49.7267C117.582 49.5114 116.793 49.3679 116.29 49.7267C115.889 50.0138 116.027 49.3679 116.147 49.0091C115.597 48.8895 114.324 48.8656 113.635 49.7267C112.946 50.5879 111.387 49.9898 110.693 49.5832C110.573 49.2005 110.248 48.6646 109.904 49.5832C109.559 50.5017 109.329 50.0616 109.258 49.7267C109.09 49.5832 108.684 49.4253 108.397 49.942C108.109 50.4587 107.799 50.3487 107.679 50.229C107.392 49.7267 106.43 49.2531 104.88 51.3772C103.33 53.5014 104.617 51.162 105.454 49.7267C105.215 48.8656 104.435 47.66 103.23 49.7267C102.426 49.8989 101.699 50.8031 101.436 51.2337C101.531 50.7792 101.809 49.8415 102.153 49.7267C102.584 49.5832 102.871 48.6503 101.651 47.7891C101.149 48.7938 101.364 49.5832 100.933 49.5832C100.503 49.5832 101.723 47.2868 99.8568 46.9997C98.3641 46.7701 98.3259 47.9566 98.4933 48.5785C98.0627 48.6981 97.2159 49.0665 97.2733 49.5832C97.3308 50.0999 97.8235 50.5639 98.0627 50.7314C97.5604 50.7792 96.771 51.0184 97.6322 51.5925C98.4933 52.1666 97.5604 52.0231 96.9863 51.8796C96.484 51.8317 95.7807 52.3963 96.9863 55.0371C95.7663 55.4677 95.551 54.1042 94.2593 55.0371C93.5704 54.0612 93.0633 54.6305 92.8958 55.0371C93.159 55.6591 93.8 56.9747 94.2593 57.2618C94.7186 57.5488 94.2115 57.7641 93.9005 57.8359C93.7809 57.9794 93.6135 58.3956 93.9005 58.9123C94.1876 59.429 93.1111 59.1276 92.537 58.9123C92.1782 58.5296 91.6759 58.1803 92.537 59.8452C93.6135 61.9263 93.6135 61.711 93.757 61.2805C93.9005 60.8499 94.7617 62.2134 94.2593 62.4287C93.757 62.6439 96.2687 64.0792 95.6228 64.7251C94.9769 65.3709 94.1876 62.4287 93.1829 62.7157C93.0154 62.4287 92.5657 61.8833 92.1064 61.9981C91.6472 62.1129 93.0154 63.4333 93.757 64.0792C93.2307 63.9118 92.0347 63.3472 91.4606 62.4287C90.8865 61.5101 90.8865 62.7157 90.9582 63.4333C90.6234 63.3377 89.9536 62.9597 89.9536 62.2134C89.9536 61.2805 88.1595 61.8546 88.5901 62.2134C88.7336 62.8592 88.5901 63.1463 89.1642 63.7204C89.7383 64.2945 88.8771 65.4427 88.7336 65.2992C88.5901 65.1556 88.2313 64.438 88.2313 63.4333C88.2313 62.4287 86.509 62.5722 86.5807 63.4333C86.6525 64.2945 86.2937 65.2992 86.4372 65.5144C86.552 65.6867 87.0592 65.9689 87.2984 66.0885C87.5376 66.3756 87.9442 66.9497 87.6572 66.9497C87.2984 66.9497 86.8678 66.0885 86.4372 66.6626C86.0066 67.2367 85.5043 67.8108 86.1502 68.0261C86.6669 68.1984 86.6525 68.5763 86.5807 68.7438C86.7003 69.2939 87.0113 70.3799 87.2984 70.3225C87.6572 70.2508 89.1642 70.1072 89.1642 70.8249C89.1642 71.399 87.9203 71.2554 87.2984 71.1119C86.82 70.5139 85.8201 69.3179 85.6478 69.3179C85.4325 69.3179 84.3561 71.6143 84.6432 72.3319C84.9302 73.0495 84.5714 74.5565 85.3608 74.7C85.9923 74.8149 86.9156 73.9346 87.2984 73.4801C87.418 73.791 87.6572 74.4704 87.6572 74.7C87.6572 74.9871 89.1642 73.4801 89.3795 73.6236C89.5948 73.7671 89.1642 74.7718 88.2313 74.9153C87.2984 75.0588 86.509 74.3412 85.9349 75.5612C85.4756 76.5372 86.0784 76.4462 86.4372 76.2788C86.9156 76.6137 88.0447 77.0251 88.7336 75.9917C89.5319 74.7943 89.2818 76.0635 89.2982 76.1981M89.2982 76.1981C89.2995 76.2087 89.3025 76.2123 89.3077 76.207C89.318 76.1967 89.3135 76.1938 89.2982 76.1981ZM89.2982 76.1981C89.2072 76.2237 88.7336 76.5048 88.7336 76.9964C88.7336 77.4557 89.2599 77.8097 89.523 77.9293C89.3795 78.0968 89.0207 78.3312 88.7336 77.9293C88.3748 77.427 87.3701 76.207 86.5807 78.1446C85.9349 78.5034 85.5761 79.6516 86.4372 79.7234C87.1261 79.7808 87.2984 80.2736 87.2984 80.5128C87.8007 80.441 88.8771 80.3406 89.1642 80.5128C89.523 80.7281 87.5854 80.9434 87.2984 80.7998C87.0113 80.6563 85.8631 79.2928 84.7867 80.5128C83.9255 81.4888 84.6671 81.7806 85.1455 81.8045C85.2173 82.3308 85.533 83.3259 86.2219 83.0962C86.9108 82.8666 87.2266 83.0962 87.2984 83.2398C86.8678 83.4311 85.9205 83.7564 85.5761 83.5268C85.1455 83.2398 84.0691 80.7281 82.9926 83.6703C81.9162 86.6126 82.6338 84.675 83.9973 85.0338C83.1936 85.6653 83.5667 85.9667 83.8538 86.0385C84.1169 85.895 84.7149 85.651 85.002 85.8232C85.3608 86.0385 83.6385 86.3973 82.9926 86.3973C82.3468 86.3973 82.5621 87.1149 83.2079 87.402C83.8538 87.689 81.1986 87.1867 82.2032 87.9761C83.007 88.6076 81.8684 87.8565 81.1986 87.402C80.9115 87.3781 80.3374 87.4163 80.3374 87.7608C80.3374 88.1053 79.7155 87.9043 79.4045 87.7608C78.9978 87.5933 78.1415 87.402 77.9693 87.9761C77.797 88.5502 77.4669 88.3588 77.3234 88.1914C77.4191 88.6459 77.7683 89.4831 78.3998 89.196C79.0313 88.909 79.2371 89.0764 79.261 89.196C79.6437 89.3874 80.4379 89.7127 80.5527 89.4831C80.6675 89.2535 81.0311 89.5788 81.1986 89.7701C81.3899 89.8658 81.8588 89.9998 82.2032 89.7701C82.6338 89.4831 81.988 90.3442 81.7727 90.416C81.5574 90.4878 80.4092 89.6266 79.9786 90.703C79.6341 91.5642 81.4139 92.6885 82.3468 93.143C82.4903 93.4539 82.8635 94.0328 83.2079 93.8606C83.5524 93.6884 83.5907 94.0759 83.5667 94.2912C84.4996 93.8845 86.4229 92.8703 86.6525 92.0665C86.8821 91.2628 87.2744 91.3011 87.4419 91.4207C87.9203 91.1815 88.8915 90.6456 88.9489 90.416C89.0207 90.129 90.0971 90.2725 90.2406 90.416C90.3842 90.5595 91.7476 90.8466 90.1689 90.7748C88.5901 90.7031 88.5183 91.5642 88.8054 91.636C89.035 91.6934 88.614 92.0426 88.3748 92.2101C87.9682 92.4253 87.2123 93.0569 87.4419 93.8606C87.7289 94.8653 87.2984 94.0759 89.2359 93.8606C90.786 93.6884 88.9728 94.2194 87.8725 94.5065C87.3223 94.5782 86.509 94.9083 87.6572 95.6547C88.8054 96.401 89.81 95.9656 90.1689 95.6547C90.0493 95.9895 89.6378 96.6306 88.9489 96.5158C88.0878 96.3723 86.4372 95.3676 85.9349 96.7311C85.1311 97.3626 85.0737 97.7597 85.1455 97.8793C84.5475 98.4773 83.4806 99.7595 83.9973 100.104C84.6862 99.8743 85.1455 100.008 85.289 100.104C85.0498 100.319 84.514 100.721 84.2844 100.606C84.0547 100.491 84.093 100.989 84.1408 101.252L83.4232 102.616C83.5907 102.376 84.026 101.869 84.4279 101.754C84.8297 101.64 84.4996 102.281 84.2844 102.616C84.0451 102.855 83.6815 103.434 84.1408 103.836C83.0644 103.979 81.055 105.917 81.5574 106.778C82.1315 105.701 82.9926 105.199 83.2079 105.199C83.4232 105.199 81.988 107.352 81.7727 107.424C81.5574 107.495 81.4139 108.5 81.988 108.213C82.4472 107.983 82.8013 107.83 82.9209 107.783C82.0119 108.62 80.5527 110.38 81.988 110.725C81.7727 111.155 82.9209 111.514 82.9209 110.94C82.9209 110.481 83.495 110.462 83.782 110.509C82.8252 111.203 81.0407 112.648 81.5574 112.878C82.0741 113.107 81.3421 113.26 80.9115 113.308L80.1221 115.389C79.8351 116.25 79.3471 118.059 79.6916 118.403C80.1221 118.834 79.1892 118.69 78.5434 119.264C78.0267 119.724 78.1845 121.082 78.3281 121.704C78.6869 121.728 79.4619 121.733 79.6916 121.561C79.9212 121.389 80.2178 121.585 80.3374 121.704C80.9594 121.441 82.1171 120.728 81.7727 119.982C81.4282 119.236 81.1986 119.001 81.1268 118.977C81.5095 118.762 82.3037 118.188 82.4185 117.614C82.5333 117.04 82.8013 116.801 82.9209 116.753V115.963C83.1122 115.868 83.4376 115.562 83.2079 115.102C82.9783 114.643 83.1122 114.289 83.2079 114.169C83.7581 113.236 85.0163 111.471 85.6478 111.873C86.2793 112.275 85.6239 110.462 85.2173 109.505C85.289 108.787 85.3177 107.309 84.8584 107.137C84.3992 106.964 84.7628 106.012 85.002 105.558C85.2412 106.252 85.8488 107.151 86.3655 105.199C87.0113 105.343 89.3077 102.257 89.523 103.046C89.6952 103.678 89.2599 103.836 89.0207 103.836C88.016 104.649 86.0784 106.304 86.3655 106.419C86.6525 106.534 86.3415 107.376 86.1502 107.783C86.0784 108.093 86.021 108.773 86.3655 109.002C86.0066 109.361 87.1548 110.294 87.4419 110.509C87.6715 110.682 87.4419 109.672 87.2984 109.146L87.8725 107.998C87.7768 108.644 87.6715 109.993 88.016 110.222C88.4466 110.509 88.5183 112.591 89.3795 113.021C90.0684 113.366 89.7622 111.395 89.523 110.366L88.8054 109.146C89.0924 109.194 89.6235 109.089 89.4512 108.285C89.279 107.481 89.1881 107.089 89.1642 106.993C89.3795 107.232 89.7957 107.768 89.7383 107.998C89.6665 108.285 89.8101 110.366 90.3842 109.935C90.8434 109.591 91.1018 109.026 91.1735 108.787C91.5802 108.476 92.1926 107.711 91.3888 107.137C91.8912 107.424 92.1064 107.639 92.1064 106.419C92.1064 105.443 92.4413 105.773 92.6088 106.06C92.5131 106.754 92.5227 108.07 93.3264 107.783C93.8855 107.583 93.9214 107.395 93.811 107.267M93.811 107.267C93.7626 107.21 93.6863 107.166 93.6135 107.137C93.6252 107.144 93.6371 107.152 93.6491 107.16C93.6778 107.178 93.7072 107.198 93.7374 107.218C93.7615 107.234 93.786 107.25 93.811 107.267ZM93.811 107.267C94.6507 107.827 95.941 108.79 95.6228 109.002C95.1922 109.29 97.2733 109.074 97.1298 109.505C97.015 109.849 95.9816 109.648 95.4793 109.505L93.8287 108.572C93.159 108.404 91.8051 108.314 91.7476 109.29C91.6902 110.265 91.7237 112.088 91.7476 112.878C91.3888 113.069 90.6856 113.524 90.743 113.811C90.8004 114.098 91.5802 114.887 91.9629 115.246C91.9151 115.485 91.9486 115.963 92.4653 115.963C93.1111 115.963 93.757 117.399 93.6852 117.47C93.6135 117.542 92.8958 118.332 93.6852 118.403C94.3167 118.461 93.5656 119.863 93.1111 120.556C92.6566 120.652 91.7476 121.059 91.7476 121.92C90.6712 120.772 89.6665 124.073 90.4559 123.786C91.0874 123.556 90.0493 124.886 89.4512 125.58C88.6858 125.891 87.2553 126.757 87.6572 127.732C86.8678 128.665 86.9396 130.818 87.3701 131.249C87.8007 131.679 86.5807 132.325 86.5807 131.249C86.5807 130.172 86.4372 128.952 85.7914 129.311C85.1455 129.67 84.8584 131.105 85.0737 132.612C85.246 133.818 86.2937 134.789 86.796 135.124L87.2266 136.272C86.9635 136.775 86.6514 138.425 88.016 138.425C88.5901 138.425 88.6619 137.995 88.1595 136.703C88.0878 136.272 87.8868 135.354 87.6572 135.124C87.3701 134.837 88.6619 132.612 89.5948 133.258C89.5948 133.976 90.3124 134.622 90.5277 134.55C90.743 134.478 92.9676 136.057 92.7523 136.559C92.5801 136.961 93.1111 137.588 93.3982 137.851C93.7091 137.827 94.3311 137.865 94.3311 138.21C94.3311 138.64 95.7663 138.282 95.3358 137.062C94.9913 136.086 95.3358 136.129 95.551 136.272C95.5989 135.818 95.5367 134.894 94.9052 134.837C94.2737 134.78 94.8334 133.617 95.1922 133.043C95.5032 133.737 96.2687 135.067 96.8428 134.837C97.4169 134.607 97.7039 134.406 97.7757 134.335C97.5604 135.076 97.4599 136.559 98.7804 136.559C98.7804 135.526 99.2588 135.555 99.498 135.698C99.3066 136.224 99.2683 137.205 100.646 136.918C102.368 136.559 100.287 136.631 102.512 136.057C101.995 135.253 103.206 135.196 103.875 135.268C103.852 135.124 103.904 134.837 104.306 134.837C104.808 134.837 106.244 135.842 106.315 134.119C106.373 132.741 106.531 132.493 106.602 132.541C108.468 133.067 112.415 134.019 113.276 133.617M113.276 133.617C113.492 133.832 113.42 134.406 112.989 134.406C112.559 134.406 111.554 134.406 111.339 134.119C111.123 133.832 108.755 134.406 110.047 134.837C111.08 135.181 110.095 135.268 109.473 135.268C109.329 134.98 108.928 134.607 108.468 135.411C107.894 136.416 107.248 137.923 107.535 138.066C107.765 138.181 107.009 138.545 106.602 138.712C105.837 140.004 104.363 142.645 104.593 142.874C104.699 142.98 104.59 143.066 104.461 143.169C104.24 143.345 103.958 143.569 104.593 144.023C105.397 144.597 106.459 146.75 106.89 147.754C106.77 148.352 106.631 149.563 107.033 149.62C107.177 149.979 107.822 151.342 108.397 151.271C108.856 151.213 109.162 150.385 109.258 149.979C109.353 150.577 109.43 151.773 108.971 151.773C108.511 151.773 108.636 152.969 108.755 153.567C109.162 153.639 109.904 153.911 109.616 154.428C109.258 155.074 110.406 153.926 110.262 153.567C110.207 153.429 110.407 153.216 110.662 152.946C111.068 152.513 111.615 151.933 111.482 151.271C111.31 150.409 111.745 150.816 111.985 151.127C111.937 151.677 111.985 152.749 112.559 152.634C113.044 152.537 113.267 152.177 113.405 151.954C113.471 151.848 113.517 151.773 113.563 151.773C113.707 151.773 114.353 151.988 114.353 152.778C114.353 153.042 114.433 153.234 114.503 153.399C114.64 153.727 114.734 153.951 114.066 154.428C113.061 155.146 112.487 155.648 112.846 156.15C113.045 156.429 113.325 156.402 113.541 156.303M113.541 156.303C113.637 156.259 113.72 156.202 113.779 156.15C113.706 156.194 113.625 156.245 113.541 156.303ZM113.541 156.303C113.07 156.625 112.505 157.127 112.846 157.37C113.009 157.487 112.717 157.497 112.284 157.513C111.389 157.544 109.895 157.597 110.621 158.662C111.482 159.925 110.884 160.624 110.478 160.815C110.525 161.437 110.937 162.638 112.2 162.465C110.42 163.327 109.401 165.36 109.114 166.269L109.832 168.924C109.401 169.187 108.468 169.685 108.181 169.57C107.822 169.426 107.033 169.857 107.607 170.646C108.181 171.436 108.612 172.871 108.54 173.158M108.54 173.158L110.262 174.88C109.832 175.287 109.1 176.172 109.616 176.459C110.262 176.818 110.693 178.971 110.478 179.401C110.305 179.746 111.554 179.928 112.2 179.976C112.403 181.028 112.44 182.76 110.962 181.267C109.484 179.775 108.109 180.645 107.607 181.267C106.931 181.794 105.738 183.176 106.369 184.497C106.439 184.497 106.509 184.495 106.579 184.493M108.54 173.158C108.499 173.321 107.655 172.495 106.89 171.748C106.303 171.174 105.763 170.646 105.67 170.646C105.658 170.646 105.64 170.646 105.618 170.646C105.237 170.641 103.398 170.618 102.584 171.364C101.895 171.996 100.479 171.627 99.8568 171.364C99.6415 171.149 99.0818 170.661 98.5651 170.431C98.485 170.396 98.4115 170.361 98.3454 170.33C97.878 170.111 97.7751 170.062 98.278 171.005C97.2446 170.546 96.0773 171.484 95.6228 172.01C95.2162 172.13 94.4029 172.268 94.4029 171.866C94.4029 171.464 95.1205 170.742 95.4793 170.431C94.953 170.288 93.8 170.044 93.3982 170.216C93.1502 170.322 93.0946 169.956 93.0328 169.55C92.9694 169.133 92.8995 168.673 92.6088 168.637C93.1111 167.991 89.3077 165.48 88.4466 168.852C88.9489 168.996 88.016 169.929 87.9442 169.785C87.8725 169.642 86.509 168.278 86.5807 169.426C86.6382 170.345 87.1309 170.192 87.3701 170.001C87.4897 170.335 87.8007 171.005 88.0878 171.005C88.3748 171.005 88.5423 171.244 88.5901 171.364C88.7097 171.89 89.0207 172.928 89.3077 172.871C89.5948 172.814 89.7622 172.847 89.8101 172.871C89.7383 173.23 89.7383 173.933 90.3124 173.876C90.8865 173.818 91.3649 174.043 91.5324 174.163C91.03 174.282 90.1114 174.723 90.4559 175.526C90.8004 176.33 88.8293 177.392 87.8007 177.823C86.7243 178.181 84.4853 179.244 84.1408 180.621C83.9173 181.515 84.0806 181.423 84.5503 181.158C84.9854 180.912 85.6835 180.518 86.5807 180.621C86.4959 180.961 86.9123 181.15 87.1931 181.277C87.3875 181.365 87.5169 181.424 87.3701 181.483C87.0113 181.626 88.0878 181.841 87.9442 180.621C87.8294 179.645 88.7097 179.401 89.1642 179.401C89.7144 179.401 90.8578 179.344 91.03 179.114C91.2022 178.885 91.9151 179.019 92.25 179.114C92.9437 179.114 94.0871 179.287 93.1111 179.976C92.7737 179.976 92.926 180.269 93.0767 180.56C93.2145 180.826 93.351 181.089 93.1111 181.124C92.6088 181.195 92.3935 181.698 92.8958 182.344C93.209 182.746 93.3827 183.149 93.5039 183.43C93.5771 183.6 93.6312 183.725 93.6852 183.779C93.8288 183.922 93.0394 185.214 92.7523 185.214C92.4653 185.214 91.8912 187.582 93.3982 187.798C94.9052 188.013 94.9769 188.3 94.044 188.372C93.9127 188.382 93.7956 188.386 93.6913 188.39C93.0548 188.414 92.8958 188.42 92.8958 189.592C92.8958 190.428 92.4366 191.022 91.9988 191.587C91.723 191.944 91.4557 192.289 91.3171 192.677C91.03 193.481 89.1881 194.495 88.303 194.902C87.6811 194.998 86.2937 195.419 85.7196 196.337C85.3356 196.952 85.0133 196.744 84.6097 196.485C84.259 196.259 83.8469 195.994 83.2797 196.194C83.1859 196.131 83.1874 196.219 83.1894 196.331C83.1919 196.477 83.1952 196.665 82.9926 196.624C82.6338 196.553 81.988 196.624 81.6291 197.557C81.3421 198.304 80.7441 198.012 80.4809 197.773C80.3613 197.94 80.1939 198.318 80.4809 198.49C80.768 198.662 79.9308 198.275 79.4763 198.06C79.2849 198.06 78.9596 198.146 79.1892 198.49C79.4763 198.921 77.8257 197.988 77.754 197.773C77.6822 197.557 76.1752 198.06 76.8211 198.634C77.4669 199.208 75.2423 199.567 75.0988 199.495C74.9552 199.423 74.3094 199.567 74.5964 199.782C74.6876 199.85 74.4387 199.962 74.1393 200.097C73.4956 200.386 72.6179 200.78 74.3811 201.074C76.4479 201.418 76.247 202.652 75.8882 203.227C75.4815 203.538 74.5821 204.159 74.2376 204.159C73.8932 204.159 74.0941 204.542 74.2376 204.734C74.3811 205.188 74.7256 205.882 74.9552 205.021C75.11 204.44 75.3689 204.569 75.8333 204.8C76.2304 204.997 76.7778 205.269 77.5387 205.236C78.8868 205.177 78.8466 204.831 78.7866 204.316C78.7731 204.2 78.7586 204.076 78.7586 203.944C78.7586 203.227 79.6198 204.518 79.1892 204.877C78.8447 205.164 79.2371 205.379 79.4763 205.451C78.7826 205.619 77.3521 205.925 77.1799 205.81C76.9646 205.666 76.534 205.595 76.3187 205.81C76.1465 205.982 75.7207 205.738 75.5293 205.595C75.6729 206.001 76.0317 206.757 76.3187 206.528C76.3187 206.743 76.8211 208.681 78.5434 207.317C78.2563 206.686 80.1461 206.958 81.1268 207.173C81.4617 206.91 82.1171 206.269 82.0597 205.81C82.0023 205.351 84.0451 205.475 85.0737 205.595C85.3129 205.547 85.777 205.365 85.7196 205.021C85.6622 204.676 86.2219 205.021 86.509 205.236V206.025C86.2698 206.097 85.9349 206.398 86.509 207.03C87.0831 207.661 88.1356 207.676 88.5901 207.604C89.0685 207.843 90.0971 208.25 90.3842 207.963C90.743 207.604 90.1689 208.896 89.523 208.68C89.0063 208.508 87.6811 208.609 87.0831 208.68C86.9156 209.302 86.796 210.518 87.6572 210.403C87.9442 210.69 88.8293 210.427 89.2359 210.259C89.4752 210.211 89.9536 210.173 89.9536 210.403C89.9536 210.69 91.7476 210.833 91.8912 210.403C92.0347 209.972 93.4699 208.968 93.757 209.542C93.819 209.666 93.9214 209.84 94.0398 210.042C94.4699 210.776 95.1147 211.875 94.8334 212.269C94.4746 212.771 95.6228 213.202 95.9816 213.058C96.2687 212.943 96.9145 214.254 97.2016 214.924C98.589 215.426 101.593 216.259 102.512 215.57C103.431 214.881 103.421 214.134 103.301 213.847C104.163 213.536 105.885 212.814 105.885 212.412C105.885 212.01 106.124 212.388 106.244 212.627C106.937 212.699 108.397 212.757 108.684 212.412C108.971 212.068 109.808 211.982 110.191 211.982M110.191 211.982C110.358 211.862 110.693 211.58 110.693 211.407C110.693 211.312 110.934 211.145 111.195 210.965C111.522 210.739 111.881 210.491 111.841 210.331C111.806 210.19 112.221 209.91 112.653 209.619C113.1 209.319 113.563 209.006 113.563 208.824C113.563 208.653 113.875 208.645 114.207 208.637C114.571 208.628 114.961 208.618 114.999 208.393C115.07 207.963 115.07 209.255 114.496 209.039C113.922 208.824 112.343 210.475 112.2 210.69C112.148 210.767 112.143 210.835 112.138 210.908C112.128 211.036 112.117 211.178 111.841 211.407C111.411 211.766 110.478 213.13 110.406 213.56C110.348 213.905 109.712 214.087 109.401 214.134C108.755 214.182 107.277 214.579 106.531 215.785C105.784 215.498 105.502 216.527 105.454 217.077C105.311 217.412 104.981 217.981 104.808 217.579C104.636 217.177 104.593 219.182 104.593 220.234C103.038 219.995 99.7994 219.66 99.2827 220.234C99.0553 219.052 97.762 219.022 96.571 218.995C95.8823 218.979 95.2278 218.964 94.8334 218.727C93.757 218.081 93.2547 217.866 92.6806 218.297C92.4324 218.483 91.4204 218.387 90.3104 218.283C88.8521 218.145 87.2248 217.992 86.9396 218.44C86.5377 219.072 86.8678 219.373 87.0831 219.445H86.2219C86.5568 219.971 87.1261 221.081 86.7243 221.311C86.5249 221.425 86.3369 221.719 86.1422 222.024C85.8463 222.488 85.5351 222.976 85.1455 222.889C85.0345 222.865 84.8431 222.808 84.6068 222.739C83.4678 222.403 81.2871 221.76 82.0597 222.889C81.3708 223.291 81.2464 224.205 81.2703 224.612C81.1746 225.688 80.8972 227.812 80.5527 227.698C80.1221 227.554 79.3327 228.128 79.3327 228.702C79.3327 229.162 78.3281 229.372 77.8257 229.42C77.8018 229.803 77.6104 230.668 77.0363 231.07C76.4622 231.472 75.314 231.238 74.8117 231.07C74.8117 231.525 74.9552 232.491 75.5293 232.721C76.1034 232.951 74.9552 232.625 74.3094 232.434C74.273 232.23 74.2438 231.918 74.2975 231.744M110.191 211.982C108.87 211.752 110.155 208.011 110.962 206.169C110.203 206.432 108.827 206.743 109.401 205.882C109.975 205.021 108.827 204.279 108.181 204.016C107.649 204.112 106.402 204.073 105.67 203.155C104.755 202.007 105.365 196.553 106.585 196.624C107.561 196.682 107.326 195.404 107.087 194.759C106.513 194.519 105.207 193.84 104.575 193.036C103.944 192.233 104.838 191.553 105.365 191.314C106.112 191.17 107.607 190.697 107.607 189.951C107.607 189.511 107.332 189.549 106.968 189.6C106.56 189.657 106.04 189.73 105.67 189.161C105.11 188.3 106.046 187.75 106.585 187.582C107.117 187.2 108.181 186.219 108.181 185.358C108.181 184.437 107.485 184.461 106.745 184.488M74.2975 231.744C74.3321 231.632 74.4011 231.577 74.5247 231.644C74.6623 231.72 74.5292 231.734 74.2975 231.744ZM74.2975 231.744L74.2751 231.745M74.2975 231.744C74.2901 231.745 74.2827 231.745 74.2751 231.745M78.6641 96.3207C78.4814 96.4243 77.3341 96.4933 76.7493 96.5158C76.4622 96.2288 76.0604 95.6547 76.7493 95.6547C77.6104 95.6547 76.8211 94.7935 77.6822 94.7935C79.1749 94.6213 79.3567 93.9563 79.261 93.6453C78.8304 93.8606 77.9693 94.2051 77.9693 93.8606C77.9693 93.43 76.7493 92.5689 76.247 92.5689C75.8451 92.5689 75.6011 92.0426 75.5293 91.7795C76.046 91.7795 75.936 91.1097 75.8164 90.7748C76.1274 90.5595 76.8067 90.2438 77.0363 90.703C78.9022 89.3396 78.6869 90.416 79.1174 90.7748C80.1221 91.0619 79.6916 92.8559 80.1939 93.2147C82.1315 93.0712 80.6962 94.2912 81.7009 93.7888C82.7056 93.2865 81.988 94.5065 82.5621 94.3629C83.1362 94.2194 83.2079 94.7935 83.4232 95.2241C83.6385 95.6547 83.4232 95.6547 83.5667 95.9417C83.7103 96.2288 83.4232 96.5158 83.2079 96.7311C83.0449 96.8941 82.7174 96.3167 82.6613 96.2134M78.6641 96.3207C78.6757 96.3141 78.6834 96.3074 78.6869 96.3005C78.7003 96.2737 78.6937 96.2845 78.6641 96.3207ZM78.6641 96.3207C78.5357 96.4782 77.9746 97.1167 76.7493 97.2334C75.5437 97.3483 75.4337 97.1377 75.5293 97.0181C75.2184 96.5636 74.539 96.0996 74.3094 97.8793C74.3094 98.683 75.1227 98.6926 75.5293 98.5969C75.8882 98.4295 76.6919 98.152 77.0363 98.3816C77.3808 98.6113 77.9932 98.3816 78.2563 98.2381C78.5912 98.2142 79.261 98.1089 79.261 97.8793C79.261 97.5922 80.5527 97.7358 80.5527 97.2334C80.5527 96.7311 81.1986 98.0228 80.6962 98.0228C80.1939 98.0228 81.7727 98.5252 81.988 98.0228C82.2032 97.5205 82.9926 97.4487 82.9926 97.2334C82.9926 97.0612 82.3228 97.0181 81.988 97.0181C82.2989 96.9225 82.8778 96.645 82.7056 96.3005C82.6839 96.2571 82.6695 96.229 82.6613 96.2134M82.6613 96.2134C82.6498 96.1913 82.6508 96.194 82.6613 96.2134ZM82.2032 75.7765C82.1315 75.9439 82.1171 76.2788 82.6338 76.2788C83.2797 76.2788 82.9926 76.2788 83.2797 76.7094C83.5667 77.1399 83.7102 76.5658 84.6432 76.4223C85.5761 76.2788 85.1455 76.5658 85.6478 76.7094C86.1502 76.8529 86.4372 77.4988 86.4372 77.7858C86.4372 78.0729 84.9302 79.0775 84.6432 79.0775C84.758 79.5942 84.0691 80.0104 83.7103 80.154C82.9926 81.0151 81.4426 82.4791 80.9833 81.4457C80.4092 80.154 81.5574 81.5892 81.5574 80.5128C81.5574 79.6516 82.8491 78.7666 83.495 78.4317C82.9209 78.5034 81.8588 78.5465 82.2032 78.1446C82.6338 77.6423 81.7009 76.9964 81.7727 77.2835C81.8444 77.5705 80.9833 79.2928 80.6245 79.0775C80.3374 78.9053 80.4092 78.1446 80.4809 77.7858C79.5959 78.025 77.8688 78.3886 78.041 77.9293C78.2563 77.3552 78.9739 77.5705 77.8257 77.1399C76.6775 76.7094 78.1128 76.2788 77.8257 75.9917C77.5961 75.7621 77.1559 75.8961 76.9646 75.9917C76.6775 75.5612 76.1895 74.5565 76.534 73.9824C76.9646 73.2648 77.754 74.3412 77.8257 73.9824C77.8975 73.6236 77.2516 73.6236 76.9646 73.4801C76.6775 73.3365 76.9646 72.1166 76.7493 72.3319C76.534 72.5472 76.3905 72.3319 76.1034 71.9731C75.8738 71.686 75.5293 72.8581 75.3858 73.4801C74.9792 73.2409 74.1371 72.7625 74.0223 72.7625C73.9075 72.7625 73.7353 71.8056 73.6635 71.3272C73.5439 71.1837 73.3047 70.8392 73.3047 70.6096C73.3047 70.3799 73.6874 70.3225 73.8788 70.3225C73.8788 69.9876 73.9649 69.3179 74.3094 69.3179C74.6538 69.3179 74.9792 70.179 75.0988 70.6096C75.2423 70.6096 75.5006 70.5522 75.3858 70.3225C75.271 70.0929 75.4337 69.7963 75.5293 69.6767C75.9599 69.6767 76.6201 69.5475 75.8164 69.0308C75.0127 68.5141 75.2901 68.1457 75.5293 68.0261C75.4815 67.6673 75.4719 66.9927 75.8164 67.165C76.1609 67.3372 76.4383 68.2893 76.534 68.7438C76.7732 68.7438 77.2516 68.9303 77.2516 69.6767C78.0554 69.3322 78.5912 70.1551 78.7586 70.6096C79.0218 70.5139 79.4332 70.2795 78.9739 70.1072C78.5146 69.935 78.4477 69.0308 78.4716 68.6002C78.8065 68.6481 79.3327 68.6002 78.7586 68.0261C78.1845 67.452 78.7586 66.6866 79.1174 66.3756C79.2131 66.0885 79.505 65.5575 79.9068 65.7297C80.4092 65.945 80.1939 66.9497 80.6245 67.165C81.055 67.3803 81.3421 68.7438 81.5574 69.0308C81.7296 69.2604 81.4856 70.8009 81.3421 71.5425L80.4809 72.7625C81.2847 72.4754 81.2464 72.9777 81.1268 73.2648C80.7441 73.3366 80.1795 73.5805 80.9833 73.9824C81.988 74.4848 80.1221 74.9153 80.6245 74.9153C81.1268 74.9153 81.7727 75.0588 81.5574 75.5612C81.3852 75.9631 81.9162 75.8721 82.2032 75.7765ZM82.2032 75.7765L82.4185 74.9153C82.8013 74.9871 83.5093 75.2167 83.2797 75.5612C82.9926 75.9918 82.4903 75.9917 82.2032 75.7765ZM75.4351 53.2644C75.1684 53.1686 74.8865 53.1592 74.8117 53.4584C74.6969 53.9176 74.7399 55.0371 74.6682 55.0371L74.3094 53.1713C74.5247 52.8603 74.8261 52.2671 74.3094 52.3819C73.6635 52.5254 73.8788 51.6643 73.1612 51.8796C72.5871 52.0518 72.922 52.5733 73.1612 52.8125C73.0416 52.8843 72.7019 53.0565 72.3 53.1713C71.7977 53.3148 71.5106 56.0418 72.8024 56.0418C71.5106 56.6877 73.7353 56.2571 73.1612 56.6159C72.5871 56.9747 70.8648 56.5441 71.5106 57.8359C72.1565 59.1276 72.8024 57.8359 73.1612 58.6253C73.52 59.4146 74.3811 59.5582 74.0941 59.5582C73.8644 59.5582 73.1373 59.7017 72.8024 59.7735C72.8263 60.0127 72.7593 60.5198 72.3 60.6346C71.7259 60.7781 71.7977 61.8546 71.2954 61.1369C70.8935 60.5628 70.5538 60.8977 70.4342 61.1369C70.6495 61.4957 71.1231 62.3713 71.2954 63.0028C71.5106 63.7921 71.7259 63.4333 73.1612 63.0028C74.5964 62.5722 72.5871 61.424 74.0941 61.8546C75.2997 62.199 75.0748 61.0891 74.8117 60.4911C74.8356 60.2519 75.0701 59.917 75.8164 60.4911C76.7493 61.2087 75.8164 59.7735 76.1752 59.7735C76.4622 59.7735 76.2948 59.3429 76.1752 59.1276C75.9599 58.9123 75.5293 58.4674 75.8164 57.8359C76.1752 57.0465 76.3187 57.8359 76.1752 58.1229C76.0604 58.3526 76.4144 59.319 76.6058 59.7735C76.8689 60.0605 77.3377 60.4193 77.1081 59.5582C77.6822 60.7064 77.754 60.204 77.8975 59.7735C77.8497 59.917 77.9406 60.0749 78.6869 59.5582C79.4332 59.0415 78.8065 58.7209 78.3998 58.6253C78.3281 58.1468 78.285 57.3766 78.6869 58.1229C79.0888 58.8692 80.1461 58.2425 80.6245 57.8359C80.3853 57.9076 79.9499 57.9507 80.1221 57.5488C80.3374 57.0465 80.3374 56.0418 79.9068 56.2571C79.4763 56.4724 79.1175 56.4724 78.1845 56.2571C77.2516 56.0418 79.1175 55.97 79.548 55.8265L79.5812 55.8155C80.0244 55.6683 80.9044 55.3762 80.6245 54.6066C80.3374 53.8172 81.055 54.0325 81.2703 54.176C81.4856 54.3195 82.4185 54.3195 82.4185 54.6066C82.4185 54.8936 82.9926 54.463 83.2797 54.6066C83.5667 54.7501 83.8538 53.8172 83.8538 53.4584C83.8538 53.0995 83.7103 52.5972 83.2797 53.4584C82.9352 54.1473 81.7966 53.7454 81.2703 53.4584C81.3421 53.0278 81.543 52.2958 81.7727 52.8125C82.0023 53.3292 82.6817 52.5972 82.9926 52.1666C82.8969 51.9992 82.8634 51.6212 83.495 51.449C84.2843 51.2337 83.782 51.0902 83.495 50.7314C83.2079 50.3726 84.0691 49.7985 84.2844 49.0808C84.4566 48.5067 84.0691 47.1432 83.495 47.1432C82.9209 47.1433 82.763 48.1049 82.4185 48.2197C82.0741 48.3345 80.3613 49.32 79.548 49.7985C79.548 50.1429 78.1606 50.4204 77.4669 50.5161L76.1752 51.2337V52.3819C76.1274 52.5972 75.9456 52.8986 75.6011 52.3819C75.1705 51.7361 75.027 52.3819 75.0988 52.8125C75.1299 52.9991 75.2747 53.152 75.4351 53.2644ZM75.4351 53.2644C75.5779 53.3156 75.7163 53.3916 75.8164 53.4584C75.7177 53.4255 75.5708 53.3594 75.4351 53.2644ZM148.297 11.9849C148.514 12.0588 148.946 12.5658 149.158 12.8408C148.751 12.8886 148.067 13.0848 148.583 13.4867C149.1 13.8885 148.799 14.0847 148.583 14.1325C148.153 14.2043 147.384 14.3478 147.755 14.3478C148.125 14.3478 147.84 15.2568 147.651 15.7113C147.364 16.5724 146.89 18.3378 147.292 18.51C147.694 18.6823 147.22 18.9645 146.933 19.0841C146.837 19.2516 146.746 19.6152 147.148 19.73C147.55 19.8448 146.981 20.4476 146.646 20.7347C146.287 20.7825 145.699 21.1365 146.215 22.1699C146.861 23.4616 145.282 23.6052 145.569 23.3181C145.857 23.0311 145.857 23.1028 145.067 22.3852C144.278 21.6676 145.282 21.4523 145.282 20.8782C145.282 20.3041 146.215 17.8642 146.359 17.7924C146.502 17.7206 146.646 16.0701 146.215 16.0701C145.871 16.0701 145.928 15.496 146 15.209C145.785 15.0415 145.34 14.8071 145.282 15.209C145.225 15.6108 144.971 15.7113 144.852 15.7113C144.732 15.8787 144.335 16.1419 143.704 15.8548C143.072 15.5678 143.728 14.9698 144.134 14.7066C143.799 14.587 143.115 14.3909 143.058 14.5631C143 14.7353 142.555 14.4913 142.34 14.3478C142.101 14.2521 141.68 14.0034 141.91 13.7737C142.082 12.2811 142.986 12.5298 143.417 12.8408C144.134 11.9079 144.565 13.4867 144.852 12.6255C145.139 11.7644 145.713 12.8408 145.641 12.4102C145.584 12.0658 146.287 11.7883 146.646 11.6926L146 10.8315C145.828 10.6018 146.168 10.5444 146.359 10.5444C146.311 10.377 146.172 10.0995 146 10.3291C145.785 10.6162 145.282 10.1856 145.067 10.0421C144.895 9.92725 144.995 9.22876 145.067 8.89387L144.134 8.67858C143.895 8.82211 143.345 8.95128 143.058 8.31977C142.699 7.53038 143.847 8.17624 143.991 7.38686C144.106 6.75535 144.613 7.12373 144.852 7.38686C144.804 7.14765 144.823 6.61183 145.282 6.38219C145.282 5.11917 146.383 5.85593 146.933 6.38219L146.646 8.17624C146.502 8.63074 146.402 9.41056 147.148 8.89387C148.081 8.24801 147.938 9.03739 148.44 9.10916C148.842 9.16657 148.464 9.75502 148.225 10.0421C147.866 10.2334 147.27 10.6018 147.755 10.5444C148.24 10.487 148.414 10.7597 148.44 10.9032C148.488 10.8075 148.698 10.6592 149.158 10.8315C149.617 11.0037 149.349 11.573 149.158 11.8361C148.899 11.8846 148.486 11.9593 148.297 11.9849ZM148.297 11.9849C148.269 11.9753 148.245 11.973 148.225 11.9797C148.169 11.9983 148.207 11.9973 148.297 11.9849ZM67.779 148.328C68.9272 148.974 69.6448 150.983 69.2142 150.983C68.7837 150.983 67.779 150.696 66.272 149.835C64.6645 150.754 65.6022 152.323 66.272 152.993C66.7743 153.232 67.6498 153.969 67.1331 155.002C66.6164 156.036 66.5829 157.633 66.6308 158.303C66.7982 158.71 67.2623 159.581 67.779 159.81C68.4249 160.097 68.7119 162.107 67.779 162.537C67.2782 162.768 66.6739 162.813 66.3327 162.839C66.0383 162.861 65.9396 162.868 66.272 162.968C66.9896 163.183 67.8508 164.762 67.1331 164.618C66.4155 164.475 65.5544 165.695 65.9132 166.125C66.2002 166.47 66.8461 166.891 67.1331 167.058C66.9657 167.513 66.7313 168.494 67.1331 168.781C67.535 169.068 67.3006 169.713 67.1331 170.001C67.468 170.67 67.9369 172.024 67.1331 172.082C66.3294 172.139 66.4633 173.11 66.6308 173.589C67.3245 173.708 68.3961 174.148 67.1331 174.952C66.3359 175.459 66.3255 175.857 66.3166 176.2C66.3078 176.537 66.3004 176.821 65.5543 177.105C64.3487 177.564 64.3344 178.875 64.4779 179.473L63.1144 180.908C63.0905 181.435 63.057 182.674 63.1144 183.42C63.1579 183.986 62.384 184.63 61.5918 185.29C61.0771 185.719 60.5548 186.154 60.2439 186.578C59.6124 187.439 59.7894 187.845 59.9569 187.941C59.7894 187.941 59.268 187.826 58.5216 187.367C57.3734 186.908 58.3781 187.941 59.024 188.515C59.622 189.089 60.6458 190.424 59.9569 191.17C59.4277 191.744 59.305 191.423 59.2224 191.207C59.1706 191.071 59.1346 190.977 59.024 191.17C58.7943 191.572 58.2585 191.338 58.0193 191.17H56.1535C55.3162 190.214 53.5557 188.687 53.2112 190.238C52.7806 192.175 49.5513 191.159 50.9148 191.17C52.0056 191.179 51.3693 189.595 50.9148 188.802C50.8191 189.592 50.4986 191.17 49.9819 191.17C49.336 191.17 48.6902 191.17 49.1207 190.238C49.4652 189.491 48.2596 190.214 47.6137 190.668C46.92 190.525 45.2025 190.324 43.8821 190.668C42.5617 191.013 41.8967 190.525 41.7292 190.238C41.0594 190.381 40.0356 190.769 41.2986 191.17C42.8774 191.673 42.088 192.247 41.7292 192.247C41.4422 192.247 41.3226 192.725 41.2986 192.965C40.9398 193.132 40.1217 193.366 39.7199 192.965C39.318 192.563 39.3611 193.419 39.4328 193.897C39.0262 194.041 38.1124 194.055 37.7105 192.965C37.7105 193.666 37.0939 193.869 36.706 193.997C36.4191 194.092 36.2572 194.145 36.5623 194.328C37.2799 194.759 35.7012 195.189 35.0553 194.83C34.5386 194.543 34.6008 195.381 34.6965 195.835L31.1801 195.548C31.515 195.428 32.1848 194.931 32.1848 193.897C32.1848 192.606 28.3814 193.467 29.1708 193.467C29.8542 193.467 29.9997 194.112 30.2593 195.263C30.2996 195.442 30.3426 195.633 30.3907 195.835C30.6778 197.041 28.3096 197.581 27.0897 197.701C26.6113 198.514 25.7549 199.969 26.1568 199.28C26.6591 198.418 23.5733 197.701 24.0757 198.275C24.4775 198.734 23.9082 199.375 23.5733 199.638C23.0231 199.184 21.7649 198.476 21.1334 199.28C20.5019 200.083 20.1048 199.615 19.9852 199.28C19.435 198.945 18.2629 198.418 17.9758 198.993C17.7923 199.36 17.4773 199.351 17.127 199.342C16.7924 199.333 16.4255 199.323 16.11 199.638C15.5933 200.155 15.4163 199.615 15.3924 199.28C15.0336 199.519 14.2298 200.026 13.8854 200.141C13.6843 200.208 13.671 200.024 13.6555 199.81C13.6379 199.565 13.6172 199.28 13.3113 199.28C12.852 199.28 13.1199 198.61 13.3113 198.275C12.7611 198.131 11.6177 197.93 11.4455 198.275C11.2732 198.619 10.6082 198.418 10.2973 198.275C9.29259 199.04 7.26889 200.313 7.21148 199.28C7.15655 198.291 8.06886 198.059 8.78945 197.876C9.01017 197.82 9.21291 197.768 9.36435 197.701C10.0102 197.414 11.4455 196.696 11.4455 196.337C11.4455 196.166 10.5629 196.338 9.64017 196.518C8.62935 196.715 7.57029 196.921 7.57029 196.696C7.57029 196.352 11.0627 195.548 12.8089 195.189C13.5027 194.902 14.6891 194.328 13.8854 194.328C13.2405 194.328 13.1574 193.973 13.0667 193.586C13.0161 193.37 12.9632 193.144 12.8089 192.965C12.3784 192.462 12.1631 193.467 12.0196 194.328C11.9382 194.816 10.2875 194.751 8.86046 194.694C7.77105 194.651 6.81198 194.613 6.78091 194.83C6.7235 195.232 5.41742 195.237 4.77156 195.189C4.22138 195.309 3.12102 195.404 3.12102 194.83C3.12102 194.256 4.22138 194.256 4.77156 194.328V193.467C5.17821 193.539 6.07763 193.481 6.42209 192.677C6.76654 191.874 7.33108 192.056 7.57029 192.247C7.95303 192.271 8.71849 192.204 8.71849 191.745C8.71849 191.285 9.34043 191.17 9.65141 191.17L12.8089 190.238C12.0674 190.238 10.3403 190.324 9.36435 190.668C8.38838 191.013 8.24007 190.812 8.28791 190.668C7.95302 190.668 7.0249 190.769 5.99152 191.17C4.95814 191.572 4.36491 191.338 4.19746 191.17C3.64728 190.955 2.66174 190.553 3.12102 190.668C3.58031 190.783 3.74296 189.616 3.76688 189.018C3.36023 189.018 2.41775 189.161 1.90106 189.735C1.57914 190.093 1.61379 189.809 1.65845 189.443C1.70338 189.074 1.75843 188.623 1.47048 188.659C1.0112 188.716 0.992069 188.013 1.03991 187.654C1.54225 187.463 2.66174 187.109 3.12102 187.224C3.58031 187.338 3.31239 186.41 3.12102 185.932C4.10178 185.477 6.36469 184.654 7.57029 184.999C7.97216 184.138 8.50321 184.64 8.71849 184.999L9.36435 183.707C9.67532 183.875 10.4408 184.109 11.0149 183.707C11.589 183.305 9.43611 183.109 8.28791 183.061C7.28324 183.181 5.17343 183.262 4.77156 182.631C4.4271 183.205 3.14494 182.87 2.54692 182.631C2.11635 182.822 1.29825 182.86 1.47048 181.483C1.64271 180.105 2.45124 180.717 2.83397 181.195C2.90573 180.765 3.19278 179.904 3.76688 179.904C3.93911 179.157 5.60878 179.21 6.42209 179.33C6.06328 179.521 5.56094 180.004 6.42209 180.406C7.28324 180.808 8.02478 179.665 8.28791 179.043C8.35968 179.497 8.67543 180.492 9.36435 180.837C9.89164 181.1 10.5535 180.96 10.8885 180.862M67.779 148.328C66.6308 147.682 69.8601 148.4 69.7883 149.118C69.7166 149.835 70.2189 149.835 70.9365 149.835C71.6542 149.835 73.8788 147.467 73.52 146.247C73.2329 145.271 75.2662 145.841 76.3187 146.247C77.0124 145.96 78.3855 145.185 78.3281 144.381C78.2563 143.377 79.3327 144.381 79.3327 143.305C79.3327 142.444 79.9547 141.798 80.2657 141.583C80.2417 141.296 80.1508 140.607 79.9786 140.147C79.8064 139.688 79.9068 138.951 79.9786 138.64C79.7633 138.162 79.3327 137.076 79.3327 136.559C79.3327 136.043 78.5194 136.248 78.1128 136.416C77.4908 136.105 76.1896 135.54 75.9599 135.77C75.6729 136.057 74.7399 137.42 74.3811 136.918C74.0223 136.416 74.8835 135.268 75.6011 135.268C76.3187 135.268 78.8304 133.761 77.3952 132.253C76.5971 131.416 76.3306 131.246 76.2825 131.3M67.779 148.328H66.6308C66.5112 148.591 66.071 149.046 65.2673 148.759C64.4636 148.472 63.3058 148.878 62.8274 149.118C62.1337 148.855 61.0046 148.113 62.038 147.252C63.4732 144.955 62.2054 145.195 61.3921 145.601C60.6984 144.836 59.4402 143.075 59.9569 142.157C60.4736 141.238 58.9761 140.052 58.1628 139.573C57.3256 140.028 55.7229 141.066 56.0099 141.583C56.297 142.099 56.5123 143.329 56.584 143.879C56.0817 143.496 55.077 142.932 55.077 143.735C55.077 144.353 54.7518 144.645 54.4178 144.945C54.2083 145.133 53.9954 145.325 53.8571 145.601C53.57 146.175 52.2544 145.362 51.6324 144.884C50.8191 144.716 49.3504 144.252 49.9819 143.735C50.7502 143.107 48.3914 142.546 46.8754 142.186L46.7526 142.157C45.7966 141.929 46.4 141.009 46.7492 140.476C46.9506 140.168 47.0675 139.99 46.7526 140.147C46.0637 140.492 45.126 139.143 44.7432 138.425L42.8057 135.124C43.4515 135.339 44.7432 135.641 44.7432 135.124C44.7432 134.478 46.7526 133.904 47.1832 134.55C47.6137 135.196 50.6278 133.258 49.9819 133.258C49.7197 133.258 49.5994 133.069 49.4626 132.854C49.2625 132.539 49.0269 132.168 48.2596 132.253C47.2262 132.368 47.3985 131.297 47.6137 130.746C48.14 130.268 49.1925 129.469 49.1925 130.101C49.1925 130.732 50.1493 130.794 50.6278 130.746C50.6278 130.268 51.087 129.598 52.9242 130.746C52.4649 129.828 54.168 128.402 55.077 127.804C54.5986 126.967 54.0437 125.493 55.6511 126.297C55.6511 124.556 56.9829 124.139 57.7535 124.14M76.2825 131.3C76.2613 131.324 76.2823 131.391 76.3187 131.464C76.3144 131.443 76.3098 131.421 76.3049 131.399C76.2979 131.367 76.2905 131.334 76.2825 131.3ZM76.2825 131.3C76.0531 130.328 75.4112 128.648 74.3811 128.594C73.2903 128.536 74.2137 127.756 74.8117 127.374C74.9552 127.206 75.0701 126.757 74.3811 126.297C73.6922 125.838 74.0941 124.671 74.3811 124.144C74.2376 123.618 73.5343 122.609 71.8695 122.781C70.9365 121.704 70.3624 121.704 69.7883 121.704C69.2142 121.704 67.779 120.628 67.779 121.704C67.779 122.781 66.9896 121.92 64.1909 122.35C61.3921 122.781 63.6885 120.126 62.038 122.781C61.3125 123.948 61.0882 124.461 61.0888 124.638M61.0888 124.638C61.0894 124.784 61.2412 124.704 61.3921 124.575C61.3029 124.595 61.2001 124.617 61.0888 124.638ZM61.0888 124.638C60.4241 124.765 59.4586 124.87 59.311 124.575C59.0957 124.144 58.5216 123.714 57.8758 124.144M57.8758 124.144C57.7556 124.224 57.7224 124.213 57.7535 124.14M57.8758 124.144C57.8369 124.142 57.7961 124.14 57.7535 124.14M57.7535 124.14C57.8894 123.824 59.256 122.35 59.9569 122.35C60.6458 122.35 60.9616 121.824 61.0333 121.561C61.4639 121.561 62.4255 121.403 62.8274 120.772C63.2292 120.14 61.6074 119.504 60.7463 119.264C60.0047 118.092 58.3925 115.906 57.8758 116.538C57.3591 117.169 57.8519 117.757 58.1628 117.973C57.7322 117.829 56.8854 117.714 56.9429 118.403C57.0003 119.092 56.3448 118.69 56.0099 118.403C55.7229 118.379 55.1344 118.576 55.077 119.552C55.0196 120.528 55.4358 121.298 55.6511 121.561C55.5315 121.92 55.3641 122.752 55.6511 123.211C55.9382 123.671 53.7614 124.79 52.6371 125.293C52.8046 125.125 53.2399 124.589 53.6418 123.786C54.0437 122.982 53.3308 123.451 52.9242 123.786C53.3069 123.164 54.1728 122.006 54.5747 122.35C54.9766 122.695 54.7421 121.776 54.5747 121.274C54.4073 120.939 54.0293 120.24 53.8571 120.126C53.6848 120.011 54.0245 119.312 54.2159 118.977C54.0963 118.595 53.6705 117.973 52.9242 118.547C52.3501 117.571 51.154 118.427 50.6278 118.977C50.7474 119.575 50.8574 120.772 50.3407 120.772C49.824 120.772 49.8862 119.958 49.9819 119.552C49.7427 119.886 49.2499 120.355 49.1925 119.552C49.1208 118.547 48.9772 118.332 48.2596 119.552C47.6855 120.528 47.0157 120.341 46.7526 120.126C46.6091 120.03 46.1641 119.867 45.5326 119.982C45.207 120.041 45.15 119.771 45.1148 119.604C45.0648 119.366 45.0589 119.338 44.3844 120.772C44.1103 120.47 44.1713 120.619 44.2874 120.902C44.4751 121.36 44.8069 122.169 44.0974 121.991C42.9492 121.704 41.6575 121.776 42.3751 122.781C43.0927 123.786 42.9492 124.503 42.3751 124.144C41.801 123.786 41.7292 124.575 42.3751 125.293C43.064 124.718 43.2362 125.053 43.2362 125.293C42.8296 125.436 42.1741 125.838 42.8057 126.297C43.4372 126.757 41.3943 126.489 40.294 126.297C40.4614 126.8 40.9111 127.804 41.3704 127.804H39.6481C38.9783 127.493 37.4952 127.216 36.9211 128.594C36.347 129.971 37.0647 130.172 37.4952 130.101C37.6627 130.388 38.2703 130.919 39.3611 130.746C40.4519 130.574 40.4375 131.105 40.294 131.392L41.0116 130.746C41.072 131.129 41.0511 131.864 40.5982 132.19M40.5982 132.19C40.5129 132.251 40.4123 132.298 40.294 132.325C39.935 132.408 40.1604 132.332 40.5982 132.19ZM40.5982 132.19C40.653 132.172 40.7111 132.153 40.7717 132.134C41.4866 131.903 42.5615 131.555 42.8057 131.392C42.9815 131.275 43.2053 131.361 43.4623 131.46C43.8344 131.604 44.2763 131.774 44.7432 131.392C45.3748 130.876 44.5758 131.799 44.0974 132.325C43.6668 132.66 42.8057 133.445 42.8057 133.904C42.8057 134.363 42.2794 134.717 42.0163 134.837C41.3465 134.67 39.8778 134.521 39.3611 135.268C38.8444 136.014 36.8972 136.487 35.9882 136.631C37.0407 137.086 39.0453 138.081 38.6434 138.425C38.4599 138.582 38.4584 138.96 38.4569 139.345C38.4542 140.013 38.4515 140.701 37.4952 140.291C36.2896 139.774 36.1317 138.975 36.2035 138.64C35.5816 138.497 34.1511 138.253 33.4048 138.425C33.0133 138.515 32.9251 138.302 32.8167 138.041C32.6668 137.679 32.4783 137.224 31.3954 137.349C30.2689 137.479 30.2934 137.818 30.316 138.13C30.3308 138.334 30.3447 138.527 30.0319 138.64C29.5731 138.807 29.3896 139.186 29.3327 139.491M29.3327 139.491C29.3112 139.606 29.3078 139.71 29.3143 139.789C29.3333 139.712 29.3433 139.609 29.3327 139.491ZM29.3327 139.491C29.3032 139.163 29.1157 138.72 28.5249 138.425C29.0273 137.707 28.7402 136.487 27.2332 136.129C25.9119 135.814 23.377 134.782 22.2886 134.339C22.1356 134.277 22.0112 134.226 21.9228 134.191C21.2052 133.904 20.7746 133.904 21.3487 135.268C21.808 136.358 20.7746 135.722 20.2005 135.268C19.8177 135.435 18.9662 135.583 18.6217 134.837C18.1911 133.904 16.6841 134.478 16.7559 135.555C16.8133 136.416 16.3492 137.109 16.11 137.349C16.0861 137.779 16.11 138.64 16.3971 138.64C16.6841 138.64 16.7559 137.779 16.7559 137.349C17.3778 136.775 18.6217 135.727 18.6217 136.129C18.6217 136.331 18.8087 136.172 19.0223 135.99C19.338 135.72 19.712 135.401 19.6264 136.129C19.5619 136.677 19.3092 136.747 19.0438 136.82C18.7185 136.911 18.3742 137.006 18.3347 137.994C17.4735 138.425 17.8323 140.004 18.3347 139.789C18.7365 139.616 19.3633 139.143 19.6264 138.927C19.1958 139.382 18.4638 140.506 18.9805 141.367C19.4972 142.228 18.9566 142.348 18.6217 142.3C18.2629 142.324 17.5453 142.272 17.5453 141.87C17.5453 141.784 17.5537 141.696 17.5622 141.606C17.6036 141.173 17.6481 140.707 16.7559 140.291C16.1823 140.023 15.8329 140.183 15.5447 140.316C15.2921 140.431 15.0865 140.526 14.8183 140.291C14.359 139.889 14.005 140.602 13.8854 141.009C14.4116 141.248 15.5933 141.654 16.11 141.367C16.6267 141.08 16.1339 142.205 15.823 142.803C16.5167 143.066 17.8323 143.649 17.5453 143.879C17.1865 144.166 18.3347 145.171 18.9805 144.525C19.6264 143.879 21.9228 144.31 21.9228 144.955C21.9228 145.472 21.54 146.223 21.3487 146.534C20.4636 146.702 18.4638 146.936 17.5453 146.534C16.6267 146.132 16.6363 148.424 16.7559 149.62C16.421 149.811 15.5646 150.079 14.8183 149.62C14.072 149.161 14.5073 150.242 14.8183 150.84C14.1485 150.529 12.8089 150.094 12.8089 150.84C12.8089 151.586 13.5266 152.538 13.8854 152.921C13.4787 153.112 12.5075 153.438 11.876 153.208C11.0867 152.921 11.7325 154.643 12.8089 154.428C12.8089 155.146 15.6794 155.648 15.3924 154.428C15.1628 153.452 16.2057 154.548 16.7559 155.217C15.8708 155.409 14.4451 155.949 15.823 156.581C16.5979 156.936 16.8062 157.102 16.9709 157.067C17.1722 157.023 17.3083 156.678 18.3347 156.007C19.8273 155.031 19.6264 156.414 19.3393 157.227C18.9805 157.538 18.3347 158.275 18.6217 158.734C18.9088 159.193 19.4111 159.117 19.6264 159.021C19.7699 159.428 20.3153 160.169 21.3487 159.882C22.3821 159.595 24.6498 160.002 25.6544 160.241C25.774 159.978 25.9415 159.308 25.6544 158.734C25.3674 158.16 25.7262 157.059 25.9415 156.581C25.6066 156.39 24.8507 156.007 24.5062 156.007C24.1618 156.007 23.4537 154.954 23.1427 154.428C22.9275 154.285 22.3821 154.012 21.9228 154.069C21.3487 154.141 23.071 153.208 24.5062 153.639C25.6544 153.983 25.4631 155.026 25.2239 155.505C25.4631 155.863 26.1424 156.581 26.9461 156.581C27.7499 156.581 26.994 157.346 26.5156 157.729C26.6113 158.136 26.7452 159.078 26.5156 159.595C26.2285 160.241 25.798 161.676 26.5156 161.676H28.2379C27.9269 161.915 27.3337 162.537 27.4485 163.111C27.5633 163.685 25.7262 162.824 24.7933 162.322C25.0803 162.585 25.5683 163.111 25.2239 163.111C25.1539 163.111 25.0631 163.121 24.9582 163.132C24.4176 163.188 23.5033 163.284 23.1427 162.322C22.7983 161.403 20.2244 164.618 18.9805 166.341C19.435 166.652 20.4014 167.216 20.6311 166.987C20.8607 166.757 19.1958 168.757 18.3347 169.785C18.239 170.168 17.9471 170.933 17.5453 170.933H15.823L12.8089 173.158C12.3545 173.158 11.3593 173.23 11.0149 173.517C10.6704 173.804 13.0721 173.876 14.316 173.876C14.603 173.637 15.3637 173.158 16.11 173.158C16.6209 173.158 16.5292 172.642 16.4713 172.316C16.4235 172.046 16.3988 171.907 16.7559 172.297C17.035 172.601 17.2334 172.888 17.4017 173.131C17.7096 173.576 17.9172 173.876 18.3347 173.876C18.8513 173.876 20.0809 174.067 20.6311 174.163C19.9613 174.282 18.8226 174.565 19.6264 174.737C20.4301 174.909 21.4922 174.809 21.9228 174.737C23.5184 173.213 24.4023 172.385 25.6544 171.723C25.6544 172.321 25.5683 173.517 25.2239 173.517C25.1391 173.517 25.1739 173.52 25.2843 173.529C25.7353 173.565 27.4485 173.702 27.4485 174.163C27.4485 174.622 25.6783 174.354 24.7933 174.163C24.7694 174.545 24.5923 175.254 24.0757 175.024C23.559 174.794 21.564 175.167 20.6311 175.383C19.8656 175.048 18.1768 174.507 17.5453 175.024C17.3046 174.936 17.064 174.796 16.8295 174.658C16.2946 174.345 15.7915 174.051 15.3924 174.45C15.187 174.655 14.8805 174.769 14.5913 174.876C14.0722 175.068 13.6089 175.24 13.8854 175.885C14.2298 176.689 11.6368 176.89 10.2973 176.89C10.3451 177.153 10.6417 177.78 11.4455 178.181C12.2492 178.583 11.0149 179.497 10.2973 179.904C10.3809 180.238 10.6036 180.833 10.8885 180.862M10.8885 180.862C10.9294 180.866 10.9716 180.858 11.0149 180.837C11.0769 180.806 11.1042 180.791 11.1042 180.791C11.1042 180.791 11.0219 180.822 10.8885 180.862ZM74.2212 231.748L74.2309 231.747M74.2212 231.748C74.2251 231.747 74.229 231.747 74.2329 231.747M74.2212 231.748C74.2244 231.748 74.2277 231.747 74.2309 231.747M74.2309 231.747L74.2329 231.747M74.2329 231.747L74.2751 231.745M74.2329 231.747C74.2472 231.747 74.2613 231.746 74.2751 231.745M106.745 184.488H106.743C106.688 184.49 106.634 184.492 106.579 184.493M106.745 184.488C106.69 184.49 106.634 184.492 106.579 184.493M87.4419 151.773C87.4419 151.558 87.5567 151.055 88.016 150.768C88.4753 150.481 88.8771 149.022 89.0207 148.328C89.4512 148.209 90.3554 147.826 90.5277 147.252C90.743 146.534 93.1111 144.023 94.3311 144.453C93.5848 145.142 93.8287 146.223 94.044 146.678C94.2593 146.797 94.5607 147.166 94.044 147.682C93.5273 148.199 93.3982 148.902 93.3982 149.189C93.0633 149.5 92.3217 150.108 92.0347 150.051C91.6759 149.979 91.8194 151.055 91.1735 151.271C90.5277 151.486 89.7383 151.701 89.8818 152.203C90.0253 152.706 88.7336 152.06 88.5901 151.773C88.4753 151.543 87.7768 151.677 87.4419 151.773ZM127.414 233.51C127.557 232.912 128.447 232.132 130.858 233.797C133.269 235.462 131.863 235.448 130.858 235.233C130.619 235.615 130.212 236.424 130.499 236.596C130.858 236.811 128.777 237.314 128.49 236.955C128.26 236.668 126.576 235.448 125.763 234.874C125.596 234.754 125.16 234.587 124.758 234.874C124.256 235.233 125.907 233.51 127.414 233.51ZM84.8584 116.538C84.5236 115.533 84.2556 113.394 85.8631 112.878C87.4706 112.361 87.8725 114.72 87.8725 115.963C87.9682 116.466 88.0734 117.442 87.7289 117.327C87.3845 117.212 87.7768 117.853 88.016 118.188L87.8725 119.408C86.796 119.528 84.6432 119.523 84.6432 118.547C84.6432 117.327 84.4996 116.753 84.8584 116.538ZM81.988 102.185L79.548 103.836C78.8543 104.194 77.5817 105.099 78.041 105.845C78.6725 105.615 79.0218 105.893 79.1174 106.06C78.8304 106.204 78.1702 106.448 77.8257 106.275C77.4813 106.103 76.7732 106.778 76.4622 107.137C76.2709 107.998 76.1034 109.72 76.9646 109.72C77.8257 109.72 78.041 108.763 78.041 108.285C78.3998 108.093 79.1605 107.567 79.3327 106.993C79.505 106.419 80.8876 104.84 81.5574 104.123C81.9162 103.62 82.5046 102.53 81.988 102.185ZM81.988 101.252C82.275 101.085 82.8204 100.85 82.7056 101.252C82.5621 101.754 82.6338 101.97 81.7727 101.97C81.0837 101.97 81.6291 101.491 81.988 101.252ZM74.6682 103.836C75.0509 103.07 75.9025 101.625 76.247 101.97C76.6775 102.4 75.3141 103.549 75.6729 103.836C76.0317 104.123 74.5191 104.123 74.6682 103.836ZM73.1612 108.5C73.807 107.639 75.2136 105.988 75.6729 106.275C76.1322 106.563 76.0078 108.691 75.8882 109.72C76.1991 110.151 76.7062 111.012 76.247 111.012C75.7877 111.012 76.0556 111.442 76.247 111.658C76.3905 111.945 76.5484 112.519 76.0317 112.519C75.515 112.519 75.5772 112.806 75.6729 112.949C75.1466 113.189 74.051 113.595 73.8788 113.308C73.6635 112.949 73.52 114.815 72.5153 113.882C71.7116 113.136 72.611 112.662 73.1612 112.519C73.3286 112.399 73.5917 112.06 73.3047 111.658C72.9459 111.155 72.3 111.012 73.1612 110.366C74.0223 109.72 74.0223 109.792 73.5917 109.505C73.1612 109.218 72.4435 109.505 72.3718 109.935C72.3144 110.28 71.8694 110.605 71.6542 110.725C71.415 110.892 70.9509 111.285 71.0083 111.514C71.0801 111.801 69.9319 111.945 70.1472 111.012C70.3194 110.265 70.9365 109.696 71.2236 109.505C71.0561 109.266 70.8504 108.758 71.3671 108.644C70.7213 108.285 71.6542 108.213 71.5106 107.783C71.3958 107.438 72.6588 107.208 73.3047 107.137C73.1612 107.591 72.9315 108.5 73.1612 108.5ZM71.1518 90.4878C71.5106 90.2485 72.2283 89.7127 72.2283 89.4831C72.2283 89.196 73.3765 88.6219 73.6635 88.5502C73.8931 88.4928 74.3811 88.5263 74.5964 88.5502L73.8788 89.7701C73.7114 89.6505 73.3334 89.4831 73.1612 89.7701C72.9459 90.1289 72.7306 90.703 72.2283 90.703C71.8264 90.703 71.3432 90.5595 71.1518 90.4878ZM66.9896 91.7795C67.0135 92.1861 67.2192 92.9995 67.8508 92.9995C68.6401 92.9995 67.5637 92.2818 68.4249 92.2818C69.1138 92.2818 69.4295 91.9469 69.5013 91.7795C70.2428 91.612 71.3097 91.2484 69.6448 91.1336C68.4249 90.7748 68.8554 91.3489 68.4249 91.4207C67.9943 91.4924 66.9896 91.2772 66.9896 91.7795ZM75.8164 81.4457C76.1513 81.7806 76.7924 82.5078 76.6775 82.7374C76.534 83.0245 78.1128 82.8809 78.1128 82.1633C78.1128 81.4457 78.041 79.6516 76.3905 80.7281C75.0701 81.5892 75.4576 81.5653 75.8164 81.4457ZM81.7727 74.7L82.6338 74.413C82.7056 74.1977 82.806 73.7384 82.6338 73.6236C82.4185 73.4801 82.5621 72.2601 82.8491 71.9731C83.0787 71.7434 83.2318 71.4468 83.2797 71.3272L83.1362 70.8249C82.9687 70.777 82.6338 70.7675 82.6338 71.1119C82.6338 71.5425 82.4903 71.8295 82.2032 71.686C81.9162 71.5425 81.5574 73.0495 81.5574 73.2648C81.5574 73.4801 81.6291 74.7479 81.7727 74.7ZM62.3968 79.3646C62.325 79.0058 62.3394 78.3599 62.9709 78.647C63.6024 78.934 63.1862 78.0729 63.4015 78.0011C63.6168 77.9293 63.8895 78.5034 63.832 78.7905C63.7603 79.1493 64.4779 79.8669 63.832 79.9387C63.1862 80.0104 62.7556 80.3693 62.9709 80.5128C63.1862 80.6563 61.7509 80.5128 61.7509 79.9387C61.7509 79.4794 62.1815 79.3646 62.3968 79.3646ZM64.5497 74.5565C64.4062 75.322 64.2052 76.8816 64.5497 76.9964C64.8941 77.1112 65.3151 77.1399 65.4826 77.1399C65.8653 77.3313 66.6308 77.6566 66.6308 77.427C66.6308 77.1399 66.4873 76.4941 66.1285 76.4223C65.7696 76.3506 66.9178 75.1306 66.3437 74.8436C65.8845 74.6139 66.3437 74.4608 66.6308 74.413L66.9178 73.6236C67.2049 73.3844 67.6929 72.8773 67.3484 72.7625C67.004 72.6476 67.0135 72.4276 67.0614 72.3319C67.3006 72.0927 67.6355 71.5568 67.0614 71.3272C66.4873 71.0976 66.6786 70.7053 66.8461 70.5378L67.9943 70.3225C67.9225 70.3225 67.7359 70.2221 67.5637 69.8202C67.3915 69.4183 67.779 69.3179 67.9943 69.3179C67.5876 68.8873 66.6451 68.0835 66.1285 68.3132C65.6118 68.5428 65.5783 69.3179 65.6261 69.6767C65.961 69.892 66.5303 70.3225 66.1285 70.3225H65.052V72.3319C64.9324 72.4993 64.6358 72.9634 64.4062 73.4801C64.1191 74.1259 64.1909 74.1259 64.5497 74.5565ZM65.6261 66.1603C66.0328 66.3278 66.8317 66.7344 66.7743 67.0215C66.7169 67.3085 66.8939 67.8587 66.9896 68.0979L69.0707 68.1697C69.1186 67.9783 69.1999 67.5525 69.1425 67.3803C69.0707 67.165 69.4295 66.7344 69.5731 66.8062C69.6879 66.8636 69.3338 66.5909 69.1425 66.4474C69.0707 66.3756 68.8985 66.146 68.7837 65.8015C68.6688 65.457 69.0707 65.4188 69.286 65.4427C69.573 65.6341 70.1184 66.0455 70.0036 66.1603C69.8601 66.3038 71.0083 65.5862 70.4342 65.1556C69.8601 64.7251 69.286 65.2274 69.286 64.7968C69.286 64.3663 69.6448 64.2945 69.0707 64.2227C68.6114 64.1653 68.2574 64.5815 68.1378 64.7968C67.8986 64.749 67.4345 64.5959 67.4919 64.3662C67.5637 64.0792 67.4202 64.0792 66.7743 64.438C66.2576 63.9213 65.6022 64.2227 65.3391 64.438C65.2673 64.6772 65.052 65.1843 64.765 65.2992C64.4062 65.4427 64.1909 65.4427 64.6214 65.8015C65.052 66.1603 65.4826 66.5191 65.6261 66.1603ZM124.328 45.5645C124.328 46.1147 124.242 47.2294 123.897 47.2868C123.553 47.3442 123.371 46.2582 123.323 45.708C123.036 45.4688 122.548 44.976 122.893 44.9186C123.237 44.8612 124.328 44.9904 124.83 45.0621C124.806 45.3014 124.672 45.7367 124.328 45.5645ZM119.017 42.4069C118.682 42.6461 118.142 43.182 118.659 43.4116C119.304 43.6987 118.73 44.7751 119.304 44.9186C119.879 45.0621 119.161 45.708 119.735 45.708C120.309 45.708 121.386 46.2103 121.529 45.5645C121.644 45.0478 120.907 45.2535 120.524 45.421C120.572 45.3014 120.754 45.0334 121.098 44.9186C121.443 44.8038 121.146 44.5359 120.955 44.4163C120.835 43.6987 120.28 42.2921 119.017 42.4069ZM119.735 39.1776C120.022 38.0773 120.984 36.3215 122.534 38.1012C122.534 37.24 123.204 38.2686 123.538 38.8906C123.754 39.2255 124.055 39.8952 123.538 39.8952C122.893 39.8952 123.18 41.0434 122.534 40.6129C122.017 40.2684 122.318 40.8521 122.534 41.187C122.988 41.1391 123.897 41.1152 123.897 41.4023C123.897 41.6893 124.663 41.7611 125.045 41.7611C125.524 41.7132 126.495 41.6463 126.552 41.7611C126.624 41.9046 127.629 41.9046 127.342 42.4069C127.055 42.9093 126.552 43.4116 126.337 43.4116C126.122 43.4116 125.548 44.5598 124.83 43.6269C124.256 42.8806 123.443 42.5026 123.108 42.4069C122.486 42.6701 121.213 43.0959 121.098 42.694C120.955 42.1916 120.74 40.6129 121.314 40.6129C121.888 40.6129 120.955 39.4647 120.524 40.6129C120.094 41.7611 120.524 42.1916 119.591 41.5458C118.845 41.0291 119.376 39.7517 119.735 39.1776ZM124.328 38.1012C124.639 37.7185 124.988 36.9386 123.897 36.8812C122.534 36.8095 123.251 36.3071 122.893 37.4553C123.237 37.7424 123.993 38.0055 124.328 38.1012ZM148.512 5.87985C148.392 6.741 148.296 8.50635 148.871 8.67858C149.588 8.89387 150.019 9.10916 150.019 7.96096C150.019 6.81276 150.665 5.87985 150.019 5.87985C149.502 5.87985 149.803 5.21007 150.019 4.87517L150.736 5.37751C150.784 4.63597 150.708 3.19593 150.019 3.36816C149.33 3.54039 149.253 4.34892 149.301 4.73165C148.99 4.75557 148.397 4.86082 148.512 5.09046C148.627 5.3201 148.56 5.7124 148.512 5.87985ZM151.382 6.1669L151.741 7.17157C151.741 6.93237 151.784 6.49701 151.956 6.66924C152.172 6.88452 153.176 7.3151 153.176 6.81276C153.176 6.31042 152.961 5.95161 152.817 6.38219C152.674 6.81276 152.961 5.37751 151.741 5.87985C150.765 6.28172 151.095 6.23866 151.382 6.1669ZM151.095 3.79874C151.095 3.96618 151.267 4.34413 151.956 4.51636C152.817 4.73165 152.53 4.37284 152.53 4.01403C152.53 3.65521 152.459 3.36816 152.817 3.36816C153.176 3.36816 153.392 2.50702 153.033 2.43525C152.746 2.37784 153.2 2.21997 153.463 2.1482C153.535 1.5741 153.506 0.641192 152.817 1.50234C152.129 2.36349 152.1 2.05252 152.172 1.78939C152.387 1.52626 152.688 1 152.172 1C151.655 1 151.574 1.76547 151.598 2.1482C151.526 2.31565 151.382 2.751 151.382 3.15287C151.382 3.55474 151.191 3.7509 151.095 3.79874ZM75.5293 79.8669C75.5293 80.1047 75.3591 80.3693 74.8835 80.3693C74.4079 80.3693 73.807 80.1047 73.807 79.8669C73.807 79.6291 74.3361 79.2928 74.8117 79.2928C75.2873 79.2928 75.5293 79.6291 75.5293 79.8669ZM111.536 263.847L114.867 261.641C115.163 262.109 115.577 263.206 114.867 263.847C114.156 264.489 112.35 264.115 111.536 263.847ZM121.861 269.864H126.191C126.783 270.566 127.79 272.07 127.08 272.471C126.369 272.872 123.823 272.638 122.639 272.471L121.861 269.864Z" stroke="black" stroke-opacity="0.2"/>
</svg>
