<svg width="1254" height="1911" viewBox="0 0 1254 1911" fill="none" xmlns="http://www.w3.org/2000/svg">
<g clip-path="url(#clip0_1_99)">
<path fill-rule="evenodd" clip-rule="evenodd" d="M758.727 1290.59H758.723C758.333 1290.61 757.943 1290.62 757.552 1290.63C757.944 1290.62 758.336 1290.61 758.727 1290.59Z" fill="#BC455A"/>
<path fill-rule="evenodd" clip-rule="evenodd" d="M914.427 1625.04C914.723 1625.45 914.862 1625.56 914.797 1625.31C914.783 1625.25 914.754 1625.21 914.71 1625.17C914.646 1625.11 914.551 1625.07 914.427 1625.04ZM1095.57 1186.17C1095.96 1185.4 1096.28 1184.54 1096.5 1183.58C1096.38 1184.47 1096.08 1185.34 1095.57 1186.17ZM758.727 1290.59H758.723C758.333 1290.61 757.943 1290.62 757.552 1290.63C757.944 1290.62 758.336 1290.61 758.727 1290.59ZM527.505 1622.28C528.492 1622.81 527.537 1622.91 525.875 1622.98C526.123 1622.19 526.618 1621.81 527.505 1622.28ZM665.916 747.445C665.57 747.051 665.022 746.737 664.499 746.532C664.583 746.585 664.669 746.639 664.755 746.694C664.961 746.826 665.172 746.962 665.389 747.102C665.561 747.214 665.738 747.328 665.916 747.445ZM750.348 503.785C750.8 504.088 751.212 504.436 751.537 504.754C751.14 504.511 750.697 504.173 750.348 503.785ZM633.598 528.983C633.672 528.91 633.64 528.89 633.53 528.92C633.539 528.994 633.56 529.019 633.598 528.983ZM832.909 1634.39L833.515 1633.6C831.955 1633.31 832.277 1633.88 832.909 1634.39ZM1198.57 1450.16C1198.72 1450.26 1198.9 1450.36 1199.11 1450.46C1198.96 1450.34 1198.78 1450.24 1198.57 1450.16ZM809.219 1091.28C808.699 1091.58 808.117 1091.95 807.514 1092.35C808.2 1092.04 808.798 1091.64 809.219 1091.28Z" fill="#BC455A"/>
<path d="M433.257 1693.45C439.437 1695.97 452.931 1698.4 457.463 1687.9C466.115 1687.9 472.055 1691.6 473.943 1693.45C476.69 1695.64 481.977 1701.12 481.153 1705.56C480.329 1710.01 484.243 1714.48 486.304 1716.16L494.029 1708.59H498.664L504.329 1702.03C505.187 1699.51 505.256 1694.66 498.664 1695.47C499.446 1694.96 500.031 1694.61 500.509 1694.32C501.919 1693.48 502.406 1693.19 504.329 1690.93C506.389 1688.5 510.338 1688.91 512.054 1689.41L516.69 1682.85L516.908 1682.71C522.285 1679.25 526.104 1676.79 536.775 1676.79C540.375 1676.79 539.768 1674.52 538.979 1671.57C538.738 1670.67 538.481 1669.7 538.32 1668.72L542.955 1666.7V1662.66H551.196V1666.7H574.886C577.29 1664.85 583.127 1661.45 587.247 1662.66C591.367 1663.87 595.487 1665.86 597.032 1666.7C596.689 1669.05 596.826 1673.26 600.122 1671.24C603.418 1669.22 609.392 1668.72 611.967 1668.72C612.482 1671.41 614.234 1676.79 617.118 1676.79C620.002 1676.79 625.53 1675.45 627.933 1674.78L641.838 1693.96C643.898 1693.79 648.843 1693.85 652.139 1695.47C655.435 1697.09 658.319 1695.13 659.349 1693.96V1682.85C661.237 1681.17 665.632 1678.11 668.104 1679.32C670.576 1680.53 669.134 1676.79 668.104 1674.78H674.284V1671.24C677.031 1669.56 681.701 1665.99 678.404 1665.18C676.878 1664.81 676.059 1664.92 675.448 1665C674.411 1665.14 673.979 1665.2 671.709 1662.66C668.825 1659.43 674.971 1658.29 678.404 1658.12C678.748 1651.39 680.98 1637.52 687.16 1635.91V1625.81C687.846 1628.67 690.765 1634.19 696.945 1633.39C703.125 1632.58 707.074 1628 708.275 1625.81L718.061 1624.3C720.121 1625.31 724.962 1626.72 727.846 1624.3C729.623 1622.81 732.15 1623.28 734.503 1623.71C736.925 1624.16 739.162 1624.58 740.206 1622.79C741.854 1619.96 748.103 1620.26 751.022 1620.77C764.457 1627.43 790.896 1643.68 790.19 1655.76C791.238 1642.94 793.827 1640.96 800.463 1640.96C802.783 1640.96 808.997 1642.9 816.043 1645.09C829.334 1649.24 845.586 1654.31 844.24 1649.03C844.341 1648.75 844.441 1648.48 844.539 1648.22C846.92 1641.73 847.994 1638.8 839.089 1635.4C836.224 1634.31 834.496 1633.79 833.515 1633.6L832.909 1634.39C832.277 1633.88 831.955 1633.31 833.515 1633.6L837.544 1628.34L847.33 1634.39L848.875 1637.42L851.965 1631.87H863.295C872.909 1631.2 891.312 1630.96 888.016 1635.4C884.72 1639.85 890.419 1634.56 893.681 1631.37C899.977 1628.9 912.13 1624.51 914.427 1625.04C912.846 1622.86 906.792 1612.44 903.467 1606.63C915.655 1616.9 942.711 1636.21 953.423 1631.37C964.136 1626.52 955.483 1625.31 949.818 1625.31L945.183 1617.23C952.221 1618.92 965.887 1623.19 964.239 1626.82C962.591 1630.46 959.432 1631.7 958.058 1631.87L972.479 1640.45V1634.39C982.436 1632.38 1005.13 1629.04 1016.26 1631.87C1023.31 1633.66 1023.47 1632.73 1023.67 1631.57C1023.86 1630.44 1024.08 1629.11 1030.68 1629.85C1041.39 1631.06 1070.5 1640.79 1083.72 1645.5C1087.84 1643.31 1096.08 1638.03 1096.08 1634.39C1096.08 1632.28 1102.58 1631.8 1109.67 1631.29C1117.79 1630.7 1126.67 1630.06 1127.5 1626.82C1128.73 1621.98 1138.31 1617.74 1142.95 1616.22C1147.76 1618.75 1157.78 1623.39 1159.43 1621.78C1161.08 1620.16 1161.49 1612.35 1161.49 1608.65L1173.33 1596.03C1175.91 1596.71 1181.58 1597.65 1183.64 1596.03C1185.7 1594.42 1194.79 1590.31 1199.09 1588.46C1204.58 1584.59 1213.71 1573.52 1206.3 1560.2C1206.3 1556.16 1209.73 1555.82 1211.45 1556.16C1213.16 1552.46 1214.85 1545.05 1207.84 1545.05C1200.84 1545.05 1165.44 1547.41 1148.61 1548.59C1158.06 1547.58 1171.89 1543.94 1151.7 1537.48C1131.52 1531.02 1137.46 1540.85 1142.95 1546.57C1139.34 1543.88 1130.38 1539 1123.38 1541.02C1122.41 1539.36 1124.49 1538.7 1127.35 1537.8C1130.6 1536.77 1134.85 1535.42 1136.77 1531.93C1139.65 1526.68 1121.83 1526.38 1112.56 1526.88L1105.87 1529.91L1112.56 1522.34C1118.06 1522.51 1129.25 1522.44 1130.07 1520.82C1130.35 1520.29 1132.37 1520.22 1135.3 1520.11C1143.48 1519.8 1158.73 1519.22 1162.52 1507.7C1167.67 1492.05 1166.64 1486.5 1160.46 1486.5C1158.3 1486.5 1156.51 1487.68 1154.62 1488.92C1151.11 1491.24 1147.22 1493.79 1139.86 1489.53C1130.79 1484.28 1141.92 1485.32 1148.61 1486.5C1152.39 1486.67 1159.33 1485.9 1156.85 1481.45C1154.38 1477.01 1163.03 1473.55 1167.67 1472.37C1171.45 1478.26 1181.58 1487.21 1191.88 1475.9C1202.18 1464.6 1196.17 1464.12 1191.88 1465.3C1195.63 1461.15 1202.01 1452.68 1199.11 1450.46C1198.9 1450.36 1198.72 1450.26 1198.57 1450.16C1198.78 1450.24 1198.96 1450.34 1199.11 1450.46C1203.13 1452.4 1217.01 1454.31 1215.05 1446.63C1212.99 1438.55 1232.05 1433.5 1232.56 1435.02C1233.08 1436.53 1244.92 1404.73 1237.71 1403.72C1242.35 1398.17 1251.41 1384.64 1250.59 1374.95C1256.77 1373.34 1253.16 1365.87 1250.59 1362.33C1251.96 1350.55 1251.62 1325.59 1239.26 1319.93C1238.02 1312.26 1229.82 1309.67 1225.87 1309.33C1216.94 1301.09 1194.55 1285.1 1176.43 1287.12C1183.64 1291.16 1166.12 1291.16 1165.09 1287.12C1164.06 1283.09 1125.95 1283.09 1125.95 1290.15C1125.95 1295.81 1118.06 1307.65 1114.11 1312.87C1112.22 1311.86 1107.62 1310.14 1104.32 1311.35C1102.97 1311.85 1101.52 1309.64 1099.57 1306.7C1095.57 1300.64 1089.49 1291.45 1078.06 1296.21C1079.91 1294.65 1081.9 1293.26 1083.8 1291.94L1083.8 1291.93C1089.29 1288.1 1094.01 1284.8 1092.48 1279.55C1091.14 1274.96 1098.94 1272.07 1105.13 1269.78C1108.46 1268.55 1111.33 1267.49 1112.05 1266.43C1114.11 1263.4 1117.2 1219.49 1100.72 1208.38C1103.6 1199.5 1095.4 1197.95 1090.93 1198.29C1085.95 1190.38 1075.48 1176.28 1073.42 1183.14C1073.42 1173.86 1067.93 1173.55 1065.18 1174.56C1061.92 1169.01 1056.22 1158.11 1059.52 1158.92C1061.32 1159.36 1064.2 1162.98 1067.13 1166.67C1070.91 1171.42 1074.77 1176.27 1076.51 1174.56C1077.62 1174.56 1078.98 1174.18 1080.5 1173.75C1083.22 1172.98 1086.41 1172.08 1089.39 1173.05C1093.26 1174.31 1097.13 1179.1 1096.5 1183.58C1098.33 1175.82 1094.22 1162.04 1079.09 1142.26C1065.49 1124.49 1067.24 1109.62 1069.82 1104.4L1080.63 1095.32L1065.18 1086.23C1066.55 1083.03 1066.83 1076.04 1056.94 1073.61C1047.05 1071.19 1048.01 1063.85 1049.73 1060.49C1049.22 1054.94 1046.85 1044.03 1041.49 1044.84C1041.49 1039.79 1012.14 1009.51 993.594 1012.54C978.762 1014.96 981.921 1007.83 985.354 1003.96C985.182 999.75 982.676 990.934 974.024 989.319C965.372 987.703 965.612 964.754 966.814 953.481C966.985 950.957 966.402 945.001 962.693 941.367C958.985 937.733 958.402 932.113 958.573 929.758C958.917 921.345 958.161 904.318 952.393 903.51C946.625 902.703 949.99 897.117 952.393 894.425C952.565 892.91 952.393 888.368 950.333 882.311C948.273 876.254 950.848 875.076 952.393 875.244C953.423 869.692 954.453 858.789 950.333 859.597C951.535 859.26 953.217 857.881 950.333 855.054C950.333 851.016 948.788 841.426 942.608 841.93C937.664 842.334 936.771 841.089 936.943 840.416C938.144 839.07 939.003 836.479 932.822 836.883C926.642 837.287 927.501 834.023 928.702 832.34C927.157 827.124 922.522 815.077 916.342 808.617C911.083 806.463 903.768 815.75 898.157 822.873C894.563 827.435 891.669 831.109 890.463 830.321C887.373 828.302 880.162 832.34 885.313 836.883C889.433 840.517 890.463 857.578 890.463 865.654C885.828 865.99 876.557 867.875 876.557 872.72C876.969 883.219 870.205 880.46 866.772 877.768C862.995 880.796 854.721 886.954 851.837 887.358C848.952 887.762 846.858 895.603 846.171 899.472C836.901 906.371 818.052 920.672 816.816 922.691C815.579 924.71 810.12 923.532 807.545 922.691L805.613 932.786C807.158 934.3 806.643 938.338 803.553 938.338C800.463 938.338 793.253 938.338 791.708 936.319C790.163 934.3 773.167 938.338 782.438 941.367C789.854 943.79 782.781 944.395 778.318 944.395C777.288 942.376 774.404 939.752 771.107 945.405C766.987 952.471 762.352 963.071 764.412 964.081C766.06 964.888 760.635 967.446 757.717 968.624C752.223 977.709 741.649 996.284 743.297 997.899C744.055 998.643 743.277 999.249 742.352 999.971C740.764 1001.21 738.741 1002.79 743.297 1005.98C749.065 1010.01 756.687 1025.16 759.777 1032.22C758.919 1036.43 757.923 1044.94 760.807 1045.35C761.837 1047.87 766.472 1057.46 770.592 1056.96C773.888 1056.55 776.086 1050.73 776.773 1047.87C777.459 1052.08 778.009 1060.49 774.712 1060.49C771.416 1060.49 772.309 1068.9 773.167 1073.11C776.086 1073.61 781.408 1075.53 779.348 1079.16C776.773 1083.71 785.013 1075.63 783.983 1073.11C783.586 1072.14 785.022 1070.64 786.849 1068.74C789.768 1065.7 793.688 1061.61 792.738 1056.96C791.502 1050.9 794.626 1053.76 796.343 1055.95C796 1059.82 796.343 1067.35 800.463 1066.55C803.948 1065.86 805.547 1063.33 806.535 1061.76C807.008 1061.02 807.341 1060.49 807.674 1060.49C808.704 1060.49 813.339 1062 813.339 1067.56C813.339 1069.41 813.916 1070.76 814.414 1071.93C815.402 1074.24 816.074 1075.81 811.279 1079.16C804.068 1084.21 799.948 1087.75 802.523 1091.28C803.952 1093.24 805.96 1093.05 807.514 1092.35C808.117 1091.95 808.699 1091.58 809.219 1091.28C808.798 1091.64 808.2 1092.04 807.514 1092.35C804.132 1094.62 800.076 1098.15 802.523 1099.86C803.697 1100.68 801.596 1100.75 798.495 1100.86C792.069 1101.08 781.347 1101.46 786.558 1108.95C792.738 1117.83 788.446 1122.74 785.528 1124.09C785.871 1128.46 788.824 1136.91 797.888 1135.7C785.116 1141.75 777.803 1156.06 775.743 1162.45L780.893 1181.13C777.803 1182.98 771.107 1186.48 769.047 1185.67C766.472 1184.66 760.807 1187.69 764.927 1193.24C769.047 1198.79 772.137 1208.89 771.622 1210.91L783.983 1223.02C780.893 1225.88 775.64 1232.11 779.348 1234.12C783.983 1236.65 787.073 1251.79 785.528 1254.82C784.292 1257.24 793.253 1258.52 797.888 1258.86C799.348 1266.26 799.614 1278.44 789.005 1267.94C778.395 1257.44 768.532 1263.57 764.927 1267.94C760.078 1271.64 751.511 1281.37 756.044 1290.66C756.543 1290.66 757.047 1290.65 757.552 1290.63C757.943 1290.62 758.333 1290.61 758.723 1290.59H758.727H758.732H758.736C764.051 1290.41 769.047 1290.24 769.047 1296.71C769.047 1302.77 761.408 1309.67 757.589 1312.36C753.726 1313.54 747.004 1317.41 751.022 1323.47C753.677 1327.47 757.412 1326.96 760.342 1326.55C762.954 1326.2 764.927 1325.93 764.927 1329.02C764.927 1334.27 754.198 1337.6 748.833 1338.61C745.057 1340.29 738.636 1345.07 743.168 1350.72C747.7 1356.38 757.074 1361.15 761.194 1362.84C762.91 1367.38 764.593 1376.36 757.589 1375.96C748.833 1375.46 744.455 1413.82 751.022 1421.89C756.275 1428.35 765.228 1428.62 769.047 1427.95C773.682 1429.8 781.923 1435.02 777.803 1441.07C773.682 1447.13 783.554 1444.94 789.005 1443.09C783.211 1456.05 773.991 1482.36 783.468 1483.98C784.669 1483.14 787.073 1481.15 787.073 1479.94C787.073 1479.27 788.802 1478.1 790.677 1476.82C793.023 1475.24 795.599 1473.49 795.313 1472.37C795.06 1471.38 798.042 1469.41 801.14 1467.36C804.345 1465.25 807.674 1463.05 807.674 1461.77C807.674 1460.56 809.907 1460.51 812.296 1460.45C814.907 1460.39 817.705 1460.32 817.974 1458.74C818.489 1455.71 818.489 1464.8 814.369 1463.28C810.249 1461.77 798.918 1473.38 797.888 1474.89C797.518 1475.44 797.48 1475.92 797.441 1476.42C797.37 1477.33 797.292 1478.32 795.313 1479.94C792.223 1482.46 785.528 1492.05 785.013 1495.08C784.601 1497.51 780.034 1498.78 777.803 1499.12C773.167 1499.46 762.558 1502.25 757.202 1510.73C751.846 1508.71 749.82 1515.95 749.477 1519.82C748.447 1522.17 746.078 1526.18 744.842 1523.35C743.606 1520.52 743.297 1534.62 743.297 1542.02C732.138 1540.34 708.893 1537.99 705.185 1542.02C703.554 1533.71 694.272 1533.5 685.724 1533.31C680.782 1533.2 676.085 1533.09 673.254 1531.42C665.529 1526.88 661.924 1525.37 657.804 1528.4C656.023 1529.71 648.76 1529.03 640.794 1528.3C630.328 1527.33 618.65 1526.25 616.603 1529.41C613.719 1533.85 616.088 1535.97 617.633 1536.47H611.452C613.856 1540.17 617.942 1547.98 615.057 1549.6C613.627 1550.4 612.277 1552.47 610.88 1554.62C608.757 1557.88 606.523 1561.31 603.727 1560.7C602.931 1560.53 601.557 1560.13 599.861 1559.64C591.687 1557.28 576.037 1552.76 581.582 1560.7C576.637 1563.53 575.745 1569.95 575.916 1572.81C575.23 1580.39 573.238 1595.33 570.766 1594.52C567.676 1593.51 562.011 1597.55 562.011 1601.59C562.011 1604.82 554.801 1606.3 551.196 1606.63C551.024 1609.33 549.651 1615.42 545.53 1618.24C541.41 1621.07 533.17 1619.42 529.565 1618.24C529.565 1621.44 530.595 1628.24 534.715 1629.85C538.835 1631.47 530.595 1629.18 525.96 1627.83C525.699 1626.4 525.489 1624.21 525.875 1622.98L525.714 1622.99L525.411 1623L525.397 1623L525.327 1623.01L525.28 1623.01C522.112 1623.14 517.205 1623.35 517.205 1625.81C517.205 1626.15 517.208 1626.52 517.212 1626.93C517.255 1631.47 517.335 1640.07 513.084 1641.46C512.369 1641.69 511.457 1641.94 510.445 1642.21C504.904 1643.71 496.369 1646.01 500.724 1651.56C503.394 1654.96 501.773 1655.51 497.367 1657.01C493.275 1658.41 486.781 1660.62 479.093 1666.7C472.501 1663.47 469.823 1670.74 469.308 1674.78C467.076 1674.1 462.098 1671.95 460.038 1668.72C457.978 1665.49 455.403 1669.05 454.373 1671.24C448.021 1672.42 435.317 1676.39 435.317 1682.85C435.317 1689.31 433.944 1692.61 433.257 1693.45Z" fill="#BC455A"/>
<path d="M907.072 1635.4C908.102 1631.2 914.488 1625.71 931.792 1637.42C949.097 1649.13 939.003 1649.03 931.792 1647.52C930.076 1650.21 927.157 1655.9 929.217 1657.11C931.792 1658.62 916.857 1662.16 914.797 1659.63C913.149 1657.61 901.063 1649.03 895.226 1644.99C894.025 1644.15 890.9 1642.98 888.016 1644.99C884.411 1647.52 896.256 1635.4 907.072 1635.4Z" fill="#BC455A"/>
<path fill-rule="evenodd" clip-rule="evenodd" d="M557.376 670.314C557.472 670.125 557.424 670.201 557.213 670.456C557.296 670.409 557.351 670.362 557.376 670.314Z" fill="#BC455A"/>
<path fill-rule="evenodd" clip-rule="evenodd" d="M408.021 866.159C407.159 866.722 406.92 866.639 407.143 866.13C407.449 866.131 407.742 866.141 408.021 866.159ZM281.842 923.701C279.266 924.283 280.884 923.745 284.026 922.747C283.413 923.179 282.691 923.509 281.842 923.701ZM431.08 869.634C431.084 870.658 432.174 870.097 433.257 869.187C432.617 869.332 431.879 869.485 431.08 869.634ZM540.292 917.232C540.323 917.372 540.352 917.509 540.38 917.643C540.119 917.13 539.968 916.658 540.12 916.49C540.181 916.744 540.239 916.992 540.292 917.232ZM203.045 976.195C203.181 975.66 203.252 974.934 203.176 974.102C203.023 974.909 202.998 975.643 203.045 976.195ZM72.3566 1264.6C72.3548 1264.59 72.2849 1264.62 72.1553 1264.66C71.9066 1264.75 71.4379 1264.91 70.8086 1265.09C71.1022 1265.12 71.4051 1265.07 71.7155 1264.91C72.1604 1264.7 72.3598 1264.6 72.3566 1264.6Z" fill="#BC455A"/>
<path fill-rule="evenodd" clip-rule="evenodd" d="M174.127 1213.51L174.126 1213.51H174.125L174.127 1213.51Z" fill="#BC455A"/>
<path fill-rule="evenodd" clip-rule="evenodd" d="M1056.43 77.2274C1056.03 77.3585 1056.3 77.3513 1056.95 77.2646C1056.75 77.1966 1056.57 77.1807 1056.43 77.2274Z" fill="#BC455A"/>
<path fill-rule="evenodd" clip-rule="evenodd" d="M534.039 367.611C535.064 367.972 536.057 368.506 536.775 368.976C536.067 368.744 535.013 368.28 534.039 367.611Z" fill="#BC455A"/>
<path d="M790.19 1655.76C790.896 1643.68 764.457 1627.43 751.022 1620.77C748.103 1620.26 741.854 1619.96 740.206 1622.79C739.162 1624.58 736.925 1624.16 734.503 1623.71C732.15 1623.28 729.623 1622.81 727.846 1624.3C724.962 1626.72 720.121 1625.31 718.061 1624.3L708.275 1625.81C707.074 1628 703.125 1632.58 696.945 1633.39C690.765 1634.19 687.846 1628.67 687.16 1625.81V1635.91C680.98 1637.52 678.748 1651.39 678.404 1658.12C674.971 1658.29 668.825 1659.43 671.709 1662.66C673.979 1665.2 674.411 1665.14 675.448 1665C676.059 1664.92 676.878 1664.81 678.404 1665.18C681.701 1665.99 677.031 1669.56 674.284 1671.24V1674.78H668.104C669.134 1676.79 670.576 1680.53 668.104 1679.32C665.632 1678.11 661.237 1681.17 659.349 1682.85V1693.96C658.319 1695.13 655.435 1697.09 652.139 1695.47C648.843 1693.85 643.898 1693.79 641.838 1693.96L627.933 1674.78C625.53 1675.45 620.002 1676.79 617.118 1676.79C614.234 1676.79 612.482 1671.41 611.967 1668.72C609.392 1668.72 603.418 1669.22 600.122 1671.24C596.826 1673.26 596.689 1669.05 597.032 1666.7C595.487 1665.86 591.367 1663.87 587.247 1662.66C583.127 1661.45 577.29 1664.85 574.886 1666.7H551.196V1662.66H542.955V1666.7L538.32 1668.72C538.481 1669.7 538.738 1670.67 538.979 1671.57C539.768 1674.52 540.375 1676.79 536.775 1676.79C526.104 1676.79 522.285 1679.25 516.908 1682.71L516.69 1682.85L512.054 1689.41C510.338 1688.91 506.389 1688.5 504.329 1690.93C502.406 1693.19 501.919 1693.48 500.509 1694.32C500.031 1694.61 499.446 1694.96 498.664 1695.47C505.256 1694.66 505.187 1699.51 504.329 1702.03L498.664 1708.59H494.029L486.304 1716.16C484.243 1714.48 480.329 1710.01 481.153 1705.56C481.977 1701.12 476.69 1695.64 473.943 1693.45C472.055 1691.6 466.115 1687.9 457.463 1687.9C452.931 1698.4 439.437 1695.97 433.257 1693.45C433.944 1692.61 435.317 1689.31 435.317 1682.85C435.317 1676.39 448.021 1672.42 454.373 1671.24C455.403 1669.05 457.978 1665.49 460.038 1668.72C462.098 1671.95 467.076 1674.1 469.308 1674.78C469.823 1670.74 472.501 1663.47 479.093 1666.7C486.781 1660.62 493.275 1658.41 497.367 1657.01C501.773 1655.51 503.394 1654.96 500.724 1651.56C496.369 1646.01 504.904 1643.71 510.445 1642.21C511.457 1641.94 512.369 1641.69 513.084 1641.46C517.335 1640.07 517.255 1631.47 517.212 1626.93C517.208 1626.52 517.205 1626.15 517.205 1625.81C517.205 1623.35 522.112 1623.14 525.28 1623.01M790.19 1655.76C790.184 1655.87 790.175 1655.99 790.163 1656.1C790.172 1655.98 790.181 1655.87 790.19 1655.76ZM790.19 1655.76C791.238 1642.94 793.827 1640.96 800.463 1640.96C802.783 1640.96 808.997 1642.9 816.043 1645.09C829.334 1649.24 845.586 1654.31 844.24 1649.03C844.341 1648.75 844.441 1648.48 844.539 1648.22C846.92 1641.73 847.994 1638.8 839.089 1635.4C836.224 1634.31 834.496 1633.79 833.515 1633.6M833.515 1633.6C831.955 1633.31 832.277 1633.88 832.909 1634.39L833.515 1633.6ZM833.515 1633.6L837.544 1628.34L847.33 1634.39L848.875 1637.42L851.965 1631.87H863.295C872.909 1631.2 891.312 1630.96 888.016 1635.4C884.72 1639.85 890.419 1634.56 893.681 1631.37C899.977 1628.9 912.13 1624.51 914.427 1625.04M914.427 1625.04C914.723 1625.45 914.862 1625.56 914.797 1625.31C914.783 1625.25 914.754 1625.21 914.71 1625.17C914.646 1625.11 914.551 1625.07 914.427 1625.04ZM914.427 1625.04C912.846 1622.86 906.792 1612.44 903.467 1606.63C915.655 1616.9 942.711 1636.21 953.423 1631.37C964.136 1626.52 955.483 1625.31 949.818 1625.31L945.183 1617.23C952.221 1618.92 965.887 1623.19 964.239 1626.82C962.591 1630.46 959.432 1631.7 958.058 1631.87L972.479 1640.45V1634.39C982.436 1632.38 1005.13 1629.04 1016.26 1631.87C1023.31 1633.66 1023.47 1632.73 1023.67 1631.57C1023.86 1630.44 1024.08 1629.11 1030.68 1629.85C1041.39 1631.06 1070.5 1640.79 1083.72 1645.5C1087.84 1643.31 1096.08 1638.03 1096.08 1634.39C1096.08 1632.28 1102.58 1631.8 1109.67 1631.29C1117.79 1630.7 1126.67 1630.06 1127.5 1626.82C1128.73 1621.98 1138.31 1617.74 1142.95 1616.22C1147.76 1618.75 1157.78 1623.39 1159.43 1621.78C1161.08 1620.16 1161.49 1612.35 1161.49 1608.65L1173.33 1596.03C1175.91 1596.71 1181.58 1597.65 1183.64 1596.03C1185.7 1594.42 1194.79 1590.31 1199.09 1588.46C1204.58 1584.59 1213.71 1573.52 1206.3 1560.2C1206.3 1556.16 1209.73 1555.82 1211.45 1556.16C1213.16 1552.46 1214.85 1545.05 1207.84 1545.05C1200.84 1545.05 1165.44 1547.41 1148.61 1548.59C1158.06 1547.58 1171.89 1543.94 1151.7 1537.48C1131.52 1531.02 1137.46 1540.85 1142.95 1546.57C1139.34 1543.88 1130.38 1539 1123.38 1541.02C1122.41 1539.36 1124.49 1538.7 1127.35 1537.8C1130.6 1536.77 1134.85 1535.42 1136.77 1531.93C1139.65 1526.68 1121.83 1526.38 1112.56 1526.88L1105.87 1529.91L1112.56 1522.34C1118.06 1522.51 1129.25 1522.44 1130.07 1520.82C1130.35 1520.29 1132.37 1520.22 1135.3 1520.11C1143.48 1519.8 1158.73 1519.22 1162.52 1507.7C1167.67 1492.05 1166.64 1486.5 1160.46 1486.5C1158.3 1486.5 1156.51 1487.68 1154.62 1488.92C1151.11 1491.24 1147.22 1493.79 1139.86 1489.53C1130.79 1484.28 1141.92 1485.32 1148.61 1486.5C1152.39 1486.67 1159.33 1485.9 1156.85 1481.45C1154.38 1477.01 1163.03 1473.55 1167.67 1472.37C1171.45 1478.26 1181.58 1487.21 1191.88 1475.9C1202.18 1464.6 1196.17 1464.12 1191.88 1465.3C1195.63 1461.15 1202.01 1452.68 1199.11 1450.46M1199.11 1450.46C1198.96 1450.34 1198.78 1450.24 1198.57 1450.16C1198.72 1450.26 1198.9 1450.36 1199.11 1450.46ZM1199.11 1450.46C1203.13 1452.4 1217.01 1454.31 1215.05 1446.63C1212.99 1438.55 1232.05 1433.5 1232.56 1435.02C1233.08 1436.53 1244.92 1404.73 1237.71 1403.72C1242.35 1398.17 1251.41 1384.64 1250.59 1374.95C1256.77 1373.34 1253.16 1365.87 1250.59 1362.33C1251.96 1350.55 1251.62 1325.59 1239.26 1319.93C1238.02 1312.26 1229.82 1309.67 1225.87 1309.33C1216.94 1301.09 1194.55 1285.1 1176.43 1287.12C1183.64 1291.16 1166.12 1291.16 1165.09 1287.12C1164.06 1283.09 1125.95 1283.09 1125.95 1290.15C1125.95 1295.81 1118.06 1307.65 1114.11 1312.87C1112.22 1311.86 1107.62 1310.14 1104.32 1311.35C1102.97 1311.85 1101.52 1309.64 1099.57 1306.7C1095.57 1300.64 1089.49 1291.45 1078.06 1296.21C1079.91 1294.65 1081.9 1293.26 1083.8 1291.94L1083.8 1291.93C1089.29 1288.1 1094.01 1284.8 1092.48 1279.55C1091.14 1274.96 1098.94 1272.07 1105.13 1269.78C1108.46 1268.55 1111.33 1267.49 1112.05 1266.43C1114.11 1263.4 1117.2 1219.49 1100.72 1208.38C1103.6 1199.5 1095.4 1197.95 1090.93 1198.29C1085.95 1190.38 1075.48 1176.28 1073.42 1183.14C1073.42 1173.86 1067.93 1173.55 1065.18 1174.56C1061.92 1169.01 1056.22 1158.11 1059.52 1158.92C1061.32 1159.36 1064.2 1162.98 1067.13 1166.67C1070.91 1171.42 1074.77 1176.27 1076.51 1174.56C1077.62 1174.56 1078.98 1174.18 1080.5 1173.75C1083.22 1172.98 1086.41 1172.08 1089.39 1173.05C1093.26 1174.31 1097.13 1179.1 1096.5 1183.58M1096.5 1183.58C1096.38 1184.47 1096.08 1185.34 1095.57 1186.17C1095.96 1185.4 1096.28 1184.54 1096.5 1183.58ZM1096.5 1183.58C1098.33 1175.82 1094.22 1162.04 1079.09 1142.26C1065.49 1124.49 1067.24 1109.62 1069.82 1104.4L1080.63 1095.32L1065.18 1086.23C1066.55 1083.03 1066.83 1076.04 1056.94 1073.61C1047.05 1071.19 1048.01 1063.85 1049.73 1060.49C1049.22 1054.94 1046.85 1044.03 1041.49 1044.84C1041.49 1039.79 1012.14 1009.51 993.594 1012.54C978.762 1014.96 981.921 1007.83 985.354 1003.96C985.182 999.75 982.676 990.934 974.024 989.319C965.372 987.703 965.612 964.754 966.814 953.481C966.985 950.957 966.402 945.001 962.693 941.367C958.985 937.733 958.402 932.113 958.573 929.758C958.917 921.345 958.161 904.318 952.393 903.51C946.625 902.703 949.99 897.117 952.393 894.425C952.565 892.91 952.393 888.368 950.333 882.311C948.273 876.254 950.848 875.076 952.393 875.244C953.423 869.692 954.453 858.789 950.333 859.597C951.535 859.26 953.217 857.881 950.333 855.054C950.333 851.016 948.788 841.426 942.608 841.93C937.664 842.334 936.771 841.089 936.943 840.416C938.144 839.07 939.003 836.479 932.822 836.883C926.642 837.287 927.501 834.023 928.702 832.34C927.157 827.124 922.522 815.077 916.342 808.617M916.342 808.617C915.14 804.41 912.119 795.695 909.647 794.483C906.557 792.969 909.132 789.436 902.951 786.912C896.771 784.388 894.711 782.874 888.531 782.369C883.587 781.965 885.441 780.519 886.986 779.846C884.411 776.481 877.201 769.952 868.96 770.76C868.96 766.722 853.51 748.551 838.059 767.732C825.699 783.076 821.579 780.182 821.064 776.817C817.631 773.788 808.91 767.732 801.493 767.732C794.077 767.732 795.656 766.722 797.373 766.217C790.506 763.02 775.331 756.93 769.562 758.141C762.352 759.655 771.622 751.075 762.867 754.608C758.335 749.762 756.859 744.849 756.687 742.999C761.15 747.373 771.519 755.819 777.288 754.608C783.056 753.396 785.528 756.459 786.043 758.141C789.305 759.992 797.373 762.583 803.553 758.141C809.734 753.699 814.025 755.281 815.399 756.627C817.116 754.103 820.034 748.753 817.974 747.541C815.914 746.33 820.549 747.037 823.124 747.541C828.102 744.008 837.544 736.538 835.484 734.922C833.424 733.307 839.776 734.249 843.21 734.922C846.471 738.287 853.51 742.999 855.57 734.922C861.75 734.922 869.99 732.399 872.566 726.846C874.626 722.405 860.72 715.91 853.51 713.218C855.57 710.021 858.454 702.517 853.51 698.076C848.566 693.634 824.669 701.945 813.339 706.656C816.6 702.113 824.36 692.725 829.304 691.514C834.248 690.302 850.935 692.355 858.66 693.533C863.456 694.54 864.673 693.039 865.87 688.99C868.102 689.495 872.566 689.091 872.566 683.438C877.201 681.419 883.381 679.904 886.986 671.828C889.87 665.367 888.874 664.089 888.016 664.257C889.733 662.238 892.857 657.291 891.621 653.657C890.385 650.023 895.913 648.441 898.831 648.105C900.205 647.6 903.364 645.783 905.012 642.552C906.66 639.322 912.565 635.486 915.312 633.972C914.797 632.289 914.591 628.722 917.887 627.915C921.183 627.107 919.26 620.511 917.887 617.315C923.037 611.426 933.337 598.538 933.337 594.096C933.337 589.654 935.054 580.468 935.913 576.43C939.174 571.214 946.625 559.874 950.333 556.239C954.968 551.697 956.513 553.716 957.543 546.649C958.367 540.996 960.977 541.265 962.178 542.106C963.38 535.545 964.754 520.907 960.633 514.85C956.513 508.792 954.11 507.951 953.423 508.288C953.938 507.278 953.629 505.057 948.273 504.25C942.917 503.442 944.325 501.558 945.698 500.716C941.921 499.875 933.852 499 931.792 502.231C929.732 505.461 926.127 503.577 924.582 502.231C923.037 500.212 919.535 497.385 917.887 502.231C916.239 507.076 912.737 504.25 911.192 502.231C909.475 500.548 905.012 497.89 900.891 500.716C896.771 503.543 893.681 500.212 892.651 498.193C889.733 497.351 883.072 495.77 879.776 496.174C876.48 496.577 875.999 494.996 876.171 494.155C871.192 492.64 860.617 490.722 858.145 495.164C855.673 499.606 850.935 497.688 848.875 496.174C844.583 494.155 835.69 489.41 834.454 486.583C833.218 483.757 819.862 485.406 813.339 486.583C813.682 489.107 813.236 493.953 808.704 493.145C803.038 492.136 788.618 493.145 782.438 500.716C776.258 508.288 779.863 496.678 761.322 500.716C761.322 503.745 765.957 505.764 758.747 508.288C751.537 510.812 745.357 508.792 746.387 504.754C747.016 502.287 748.887 502.804 750.348 503.785M916.342 808.617C911.083 806.463 903.768 815.75 898.157 822.873C894.563 827.435 891.669 831.109 890.463 830.321C887.373 828.302 880.162 832.34 885.313 836.883C889.433 840.517 890.463 857.578 890.463 865.654C885.828 865.99 876.557 867.875 876.557 872.72C876.969 883.219 870.205 880.46 866.772 877.768C862.995 880.796 854.721 886.954 851.837 887.358C848.952 887.762 846.858 895.603 846.171 899.472C836.901 906.371 818.052 920.672 816.816 922.691C815.579 924.71 810.12 923.532 807.545 922.691L805.613 932.786M750.348 503.785C750.8 504.088 751.212 504.436 751.537 504.754C751.14 504.511 750.697 504.173 750.348 503.785ZM750.348 503.785C749.488 502.83 749.193 501.578 751.537 500.716C755.657 499.202 759.777 500.212 758.747 496.174C757.717 492.136 770.077 493.145 769.047 488.602C768.017 484.06 765.957 486.583 759.777 487.593C753.597 488.602 754.112 482.041 743.297 486.583C734.644 490.218 731.108 494.491 730.421 496.174C730.936 492.977 734.232 485.877 743.297 483.05C754.627 479.517 756.687 485.574 759.777 478.507C762.249 472.854 766.987 476.152 769.047 478.507C768.532 481.704 768.841 486.785 774.197 481.536C780.893 474.974 794.798 460.841 792.223 458.822C790.163 457.207 783.124 462.187 779.863 464.879C779.348 462.355 776.464 458.216 769.047 461.85C761.631 465.485 759.09 462.355 758.747 460.336C757.374 457.981 752.979 453.572 746.387 454.784C739.794 455.995 740.55 449.568 741.751 446.203C743.296 449.568 748.241 455.49 755.657 452.26C763.073 449.03 762.524 455.289 761.322 458.822C762.18 456.803 764.721 452.967 768.017 453.774C772.137 454.784 774.197 455.793 774.197 447.717C774.197 441.256 770.077 441.997 768.017 443.174V438.632C770.077 440.314 775.021 442.973 778.318 440.146C781.614 437.319 786.215 436.613 788.103 436.613C789.476 434.93 792.223 430.959 792.223 428.537C792.223 425.508 806.643 425.508 819.004 414.908C831.364 404.308 830.334 402.794 829.819 401.28C829.304 399.766 848.36 393.204 850.935 393.708C853.51 394.213 866.9 367.461 861.75 358.88C867.93 351.309 872.566 341.214 872.051 338.69C871.536 336.167 864.84 340.205 863.295 338.69C861.75 337.176 852.48 333.643 848.875 336.167C845.991 338.186 844.583 334.652 844.24 332.633C842.18 331.792 838.883 332.633 842.18 342.728C836.514 341.214 830.849 340.205 827.244 342.728C824.36 344.747 825.356 340.205 826.214 337.681C822.266 336.84 813.133 336.671 808.189 342.728C803.244 348.785 792.051 344.579 787.073 341.719C786.215 339.027 783.88 335.258 781.408 341.719C778.936 348.18 777.288 345.084 776.773 342.728C775.571 341.719 772.652 340.608 770.592 344.243C768.532 347.877 766.301 347.103 765.442 346.262C763.382 342.728 756.481 339.397 745.357 354.338C734.232 369.278 743.468 352.823 749.477 342.728C747.76 336.671 742.163 328.191 733.511 342.728C727.743 343.94 722.524 350.3 720.636 353.328C721.322 350.131 723.314 343.536 725.786 342.728C728.876 341.719 730.936 335.157 722.181 329.1C718.576 336.167 720.121 341.719 717.031 341.719C713.941 341.719 722.696 325.567 709.305 323.548C698.593 321.932 698.318 330.278 699.52 334.652C696.43 335.493 690.353 338.085 690.765 341.719C691.177 345.353 694.713 348.617 696.43 349.795C692.825 350.131 687.16 351.814 693.34 355.852C699.52 359.89 692.825 358.88 688.705 357.871C685.1 357.534 680.053 361.505 688.705 380.08C679.95 383.109 678.404 373.518 669.134 380.08C664.19 373.215 660.551 377.22 659.349 380.08C661.237 384.455 665.838 393.708 669.134 395.728C672.43 397.747 668.791 399.261 666.559 399.766C665.701 400.775 664.499 403.703 666.559 407.337C668.619 410.971 660.894 408.851 656.774 407.337C654.199 404.645 650.594 402.188 656.774 413.899C664.499 428.537 664.499 427.022 665.529 423.994C666.559 420.965 672.739 430.556 669.134 432.07C665.529 433.584 683.555 443.679 678.919 448.222C674.284 452.765 668.619 432.07 661.409 434.089C660.207 432.07 656.98 428.234 653.684 429.041C650.388 429.849 660.207 439.136 665.529 443.679C661.752 442.501 653.169 438.531 649.049 432.07C644.928 425.609 644.928 434.089 645.443 439.136C643.04 438.463 638.233 435.805 638.233 430.556C638.233 423.994 625.358 428.032 628.448 430.556C629.478 435.098 628.448 437.117 632.568 441.155C636.688 445.193 630.508 453.27 629.478 452.26C628.448 451.251 625.873 446.203 625.873 439.136C625.873 432.07 613.512 433.079 614.027 439.136C614.542 445.193 611.967 452.26 612.997 453.774C613.821 454.986 617.461 456.971 619.178 457.812C620.894 459.831 623.813 463.869 621.753 463.869C619.178 463.869 616.088 457.812 612.997 461.85C609.907 465.888 606.302 469.926 610.937 471.441C614.645 472.652 614.542 475.31 614.027 476.488C614.886 480.358 617.118 487.997 619.178 487.593C621.753 487.088 632.568 486.079 632.568 491.126C632.568 495.164 623.641 494.155 619.178 493.145C615.744 488.939 608.568 480.526 607.332 480.526C605.787 480.526 598.062 496.678 600.122 501.726C602.182 506.773 599.607 517.373 605.272 518.383C609.804 519.19 616.431 512.999 619.178 509.802C620.036 511.989 621.753 516.768 621.753 518.383C621.753 520.402 632.568 509.802 634.113 510.812C635.658 511.821 632.568 518.888 625.873 519.897C619.178 520.907 613.512 515.859 609.392 524.44C606.096 531.304 610.422 530.665 612.997 529.487C616.431 531.843 624.534 534.737 629.478 527.468C635.207 519.046 633.412 527.973 633.53 528.92M633.53 528.92C633.539 528.994 633.56 529.019 633.598 528.983C633.672 528.91 633.64 528.89 633.53 528.92ZM633.53 528.92C632.877 529.1 629.478 531.077 629.478 534.535C629.478 537.765 633.255 540.255 635.143 541.097C634.113 542.274 631.538 543.923 629.478 541.097C626.903 537.563 619.693 528.983 614.027 542.611C609.392 545.135 606.817 553.211 612.997 553.716C617.942 554.119 619.178 557.585 619.178 559.268C622.783 558.763 630.508 558.056 632.568 559.268C635.143 560.782 621.238 562.296 619.178 561.287C617.118 560.277 608.877 550.687 601.152 559.268C594.972 566.132 600.294 568.185 603.727 568.353C604.242 572.055 606.508 579.054 611.452 577.439C616.397 575.824 618.663 577.439 619.178 578.448C616.088 579.794 609.289 582.083 606.817 580.468C603.727 578.449 596.002 560.782 588.277 581.477C580.551 602.172 585.702 588.544 595.487 591.067C589.719 595.509 592.397 597.629 594.457 598.134C596.345 597.124 600.637 595.408 602.697 596.62C605.272 598.134 592.912 600.658 588.277 600.658C583.642 600.658 585.187 605.705 589.822 607.724C594.457 609.743 575.401 606.21 582.612 611.762C588.38 616.204 580.208 610.921 575.401 607.724C573.341 607.556 569.221 607.825 569.221 610.248C569.221 612.671 564.758 611.258 562.526 610.248C559.607 609.07 553.462 607.724 552.226 611.762C550.99 615.8 548.62 614.454 547.59 613.277C548.277 616.473 550.784 622.362 555.316 620.343C559.848 618.324 561.324 619.502 561.496 620.343C564.243 621.689 569.942 623.977 570.766 622.362C571.59 620.747 574.2 623.035 575.401 624.381C576.775 625.054 580.139 625.996 582.612 624.381C585.702 622.362 581.067 628.419 579.521 628.924C577.976 629.429 569.736 623.372 566.646 630.943C564.174 637 576.946 644.908 583.642 648.105C584.672 650.292 587.35 654.364 589.822 653.152C592.294 651.941 592.569 654.666 592.397 656.181C599.092 653.32 612.894 646.186 614.542 640.533C616.19 634.88 619.006 635.149 620.208 635.99C623.641 634.308 630.611 630.539 631.023 628.924C631.538 626.905 639.263 627.914 640.293 628.924C641.323 629.933 651.109 631.952 639.778 631.448C628.448 630.943 627.933 637 629.993 637.505C631.641 637.909 628.62 640.365 626.903 641.543C623.984 643.057 618.56 647.499 620.208 653.152C622.268 660.219 619.178 654.666 633.083 653.152C644.207 651.941 631.195 655.676 623.298 657.695C619.349 658.2 613.512 660.522 621.753 665.771C629.993 671.02 637.203 667.958 639.778 665.771C638.92 668.126 635.967 672.636 631.023 671.828C624.843 670.819 612.997 663.752 609.392 673.342C603.624 677.784 603.212 680.577 603.727 681.418C599.435 685.625 591.779 694.643 595.487 697.066C600.431 695.451 603.727 696.393 604.757 697.066C603.04 698.58 599.195 701.407 597.547 700.599C595.899 699.791 596.174 703.291 596.517 705.142L591.367 714.732C592.569 713.05 595.693 709.483 598.577 708.675C601.461 707.868 599.092 712.377 597.547 714.732C595.83 716.415 593.221 720.486 596.517 723.313C588.792 724.322 574.371 737.951 577.976 744.008C582.097 736.437 588.277 732.903 589.822 732.903C591.367 732.903 581.067 748.046 579.521 748.551C577.976 749.055 576.946 756.122 581.067 754.103C584.363 752.488 586.903 751.411 587.762 751.075C581.238 756.963 570.766 769.347 581.067 771.769C579.521 774.798 587.762 777.322 587.762 773.284C587.762 770.053 591.882 769.919 593.942 770.255C587.075 775.134 574.268 785.297 577.976 786.912C581.685 788.527 576.431 789.604 573.341 789.941L567.676 804.578C565.616 810.635 562.114 823.355 564.586 825.778C567.676 828.807 560.981 827.797 556.346 831.835C552.638 835.066 553.771 844.622 554.801 848.997C557.376 849.165 562.938 849.199 564.586 847.987C566.234 846.776 568.363 848.156 569.221 848.997C573.685 847.146 581.994 842.132 579.521 836.883C577.049 831.633 575.401 829.984 574.886 829.816C577.633 828.302 583.333 824.264 584.157 820.226C584.981 816.188 586.903 814.505 587.762 814.169V808.617C589.135 807.943 591.47 805.79 589.822 802.559C588.174 799.329 589.135 796.839 589.822 795.998C593.77 789.436 602.8 777.019 607.332 779.846C611.864 782.672 607.161 769.919 604.242 763.189C604.757 758.141 604.963 747.743 601.667 746.532C598.371 745.32 600.98 738.624 602.697 735.427C604.414 740.306 608.774 746.633 612.482 732.903C617.118 733.913 633.598 712.208 635.143 717.761C636.379 722.203 633.255 723.313 631.538 723.313C624.328 729.034 610.422 740.677 612.482 741.484C614.542 742.292 612.311 748.214 610.937 751.075C610.422 753.262 610.01 758.04 612.482 759.655C609.907 762.179 618.148 768.741 620.208 770.255C621.856 771.467 620.208 764.366 619.178 760.665L623.298 752.589C622.611 757.132 621.856 766.621 624.328 768.236C627.418 770.255 627.933 784.893 634.113 787.922C639.057 790.344 636.86 776.48 635.143 769.246L629.993 760.665C632.053 761.001 635.864 760.261 634.628 754.608C633.392 748.955 632.74 746.195 632.568 745.522C634.113 747.205 637.1 750.974 636.688 752.589C636.173 754.608 637.203 769.246 641.323 766.217C644.619 763.794 646.473 759.824 646.989 758.141C649.907 755.954 654.302 750.57 648.534 746.532C652.139 748.551 653.684 750.065 653.684 741.484C653.684 734.62 656.087 736.941 657.289 738.96C656.602 743.84 656.671 753.094 662.439 751.075C666.451 749.67 666.709 748.347 665.916 747.445M665.916 747.445C665.57 747.051 665.022 746.737 664.499 746.532C664.583 746.585 664.669 746.639 664.755 746.694C664.961 746.826 665.172 746.962 665.389 747.102C665.561 747.214 665.738 747.328 665.916 747.445ZM665.916 747.445C671.943 751.387 681.203 758.163 678.919 759.655C675.829 761.674 690.765 760.16 689.735 763.189C688.911 765.611 681.495 764.198 677.889 763.189L666.044 756.627C661.237 755.449 651.521 754.81 651.109 761.674C650.697 768.539 650.937 781.36 651.109 786.912C648.534 788.258 643.486 791.455 643.898 793.474C644.31 795.493 649.907 801.045 652.654 803.569C652.31 805.252 652.551 808.617 656.259 808.617C660.894 808.617 665.529 818.712 665.014 819.216C664.499 819.721 659.349 825.273 665.014 825.778C669.546 826.182 664.156 836.042 660.894 840.921C657.632 841.594 651.109 844.454 651.109 850.511C643.383 842.435 636.173 865.654 641.838 863.635C646.371 862.02 638.92 871.374 634.628 876.254C629.135 878.441 618.869 884.532 621.753 891.396C616.088 897.958 616.603 913.101 619.693 916.129C622.783 919.158 614.027 923.7 614.027 916.129C614.027 908.558 612.997 899.977 608.362 902.501C603.727 905.025 601.667 915.12 603.212 925.719C604.448 934.199 611.967 941.03 615.572 943.386L618.663 951.462C616.774 954.995 614.534 966.605 624.328 966.605C628.448 966.605 628.963 963.576 625.358 954.49C624.843 951.462 623.401 945.001 621.753 943.386C619.693 941.367 628.963 925.719 635.658 930.262C635.658 935.31 640.808 939.853 642.353 939.348C643.898 938.843 659.864 949.948 658.319 953.481C657.083 956.308 660.894 960.716 662.954 962.567C665.186 962.398 669.649 962.667 669.649 965.09C669.649 968.119 679.95 965.595 676.859 957.014C674.387 950.15 676.859 950.452 678.404 951.462C678.748 948.265 678.301 941.771 673.769 941.367C669.237 940.963 673.254 932.786 675.829 928.748C678.061 933.627 683.555 942.982 687.675 941.367C691.795 939.752 693.855 938.338 694.37 937.834C692.825 943.049 692.104 953.481 701.58 953.481C701.58 946.213 705.014 946.414 706.73 947.424C705.357 951.126 705.082 958.024 714.971 956.005C727.331 953.481 712.396 953.986 728.361 949.948C724.653 944.294 733.339 943.891 738.146 944.395C737.975 943.386 738.352 941.367 741.236 941.367C744.842 941.367 755.142 948.433 755.657 936.319C756.069 926.628 757.202 924.878 757.717 925.215C771.107 928.916 799.433 935.613 805.613 932.786M805.613 932.786C807.158 934.3 806.643 938.338 803.553 938.338C800.463 938.338 793.253 938.338 791.708 936.319C790.163 934.3 773.167 938.338 782.438 941.367C789.854 943.79 782.781 944.395 778.318 944.395C777.288 942.376 774.404 939.752 771.107 945.405C766.987 952.471 762.352 963.071 764.412 964.081C766.06 964.888 760.635 967.446 757.717 968.624C752.223 977.709 741.649 996.284 743.297 997.899C744.055 998.643 743.277 999.249 742.352 999.971C740.764 1001.21 738.741 1002.79 743.297 1005.98C749.065 1010.01 756.687 1025.16 759.777 1032.22C758.919 1036.43 757.923 1044.94 760.807 1045.35C761.837 1047.87 766.472 1057.46 770.592 1056.96C773.888 1056.55 776.086 1050.73 776.773 1047.87C777.459 1052.08 778.009 1060.49 774.712 1060.49C771.416 1060.49 772.309 1068.9 773.167 1073.11C776.086 1073.61 781.408 1075.53 779.348 1079.16C776.773 1083.71 785.013 1075.63 783.983 1073.11C783.586 1072.14 785.022 1070.64 786.849 1068.74C789.768 1065.7 793.688 1061.61 792.738 1056.96C791.502 1050.9 794.626 1053.76 796.343 1055.95C796 1059.82 796.343 1067.35 800.463 1066.55C803.948 1065.86 805.547 1063.33 806.535 1061.76C807.008 1061.02 807.341 1060.49 807.674 1060.49C808.704 1060.49 813.339 1062 813.339 1067.56C813.339 1069.41 813.916 1070.76 814.414 1071.93C815.402 1074.24 816.074 1075.81 811.279 1079.16C804.068 1084.21 799.948 1087.75 802.523 1091.28C803.952 1093.24 805.96 1093.05 807.514 1092.35M807.514 1092.35C808.2 1092.04 808.798 1091.64 809.219 1091.28C808.699 1091.58 808.117 1091.95 807.514 1092.35ZM807.514 1092.35C804.132 1094.62 800.076 1098.15 802.523 1099.86C803.697 1100.68 801.596 1100.75 798.495 1100.86C792.069 1101.08 781.347 1101.46 786.558 1108.95C792.738 1117.83 788.446 1122.74 785.528 1124.09C785.871 1128.46 788.824 1136.91 797.888 1135.7C785.116 1141.75 777.803 1156.06 775.743 1162.45L780.893 1181.13C777.803 1182.98 771.107 1186.48 769.047 1185.67C766.472 1184.66 760.807 1187.69 764.927 1193.24C769.047 1198.79 772.137 1208.89 771.622 1210.91M771.622 1210.91L783.983 1223.02C780.893 1225.88 775.64 1232.11 779.348 1234.12C783.983 1236.65 787.073 1251.79 785.528 1254.82C784.292 1257.24 793.253 1258.52 797.888 1258.86C799.348 1266.26 799.614 1278.44 789.005 1267.94C778.395 1257.44 768.532 1263.57 764.927 1267.94C760.078 1271.64 751.511 1281.37 756.044 1290.66C756.543 1290.66 757.047 1290.65 757.552 1290.63M771.622 1210.91C771.331 1212.05 765.27 1206.24 759.781 1200.99C755.568 1196.95 751.693 1193.24 751.022 1193.24C750.937 1193.24 750.813 1193.24 750.654 1193.24C747.917 1193.2 734.717 1193.04 728.876 1198.29C723.932 1202.73 713.769 1200.14 709.305 1198.29C707.76 1196.77 703.743 1193.34 700.035 1191.73C699.46 1191.47 698.933 1191.23 698.458 1191.01C695.104 1189.47 694.366 1189.13 697.975 1195.76C690.559 1192.53 682.181 1199.13 678.919 1202.83C676.001 1203.67 670.164 1204.65 670.164 1201.82C670.164 1198.99 675.314 1193.91 677.889 1191.73C674.113 1190.72 665.838 1189 662.954 1190.21C661.175 1190.96 660.775 1188.39 660.332 1185.53C659.877 1182.59 659.375 1179.36 657.289 1179.11C660.894 1174.56 633.598 1156.9 627.418 1180.62C631.023 1181.63 624.328 1188.19 623.813 1187.18C623.298 1186.17 613.512 1176.58 614.027 1184.66C614.439 1191.12 617.976 1190.04 619.693 1188.7C620.551 1191.05 622.783 1195.76 624.843 1195.76C626.903 1195.76 628.105 1197.45 628.448 1198.29C629.306 1201.99 631.538 1209.29 633.598 1208.89C635.658 1208.48 636.86 1208.72 637.203 1208.89C636.688 1211.41 636.688 1216.36 640.808 1215.95C644.928 1215.55 648.362 1217.13 649.564 1217.97C645.958 1218.81 639.366 1221.91 641.838 1227.56C644.31 1233.22 630.165 1240.69 622.783 1243.71C615.058 1246.24 598.989 1253.71 596.517 1263.4C594.913 1269.69 596.084 1269.04 599.456 1267.17C602.578 1265.45 607.588 1262.67 614.027 1263.4C613.419 1265.79 616.407 1267.12 618.422 1268.01C619.817 1268.63 620.746 1269.04 619.693 1269.46C617.118 1270.47 624.843 1271.98 623.813 1263.4C622.989 1256.54 629.306 1254.82 632.568 1254.82C636.516 1254.82 644.722 1254.42 645.958 1252.8C647.195 1251.19 652.31 1252.13 654.714 1252.8C659.692 1252.8 667.898 1254.01 660.894 1258.86C658.472 1258.86 659.565 1260.92 660.647 1262.97C661.636 1264.84 662.615 1266.69 660.894 1266.93C657.289 1267.44 655.744 1270.97 659.349 1275.51C661.597 1278.35 662.843 1281.18 663.713 1283.15C664.238 1284.35 664.626 1285.23 665.014 1285.61C666.044 1286.62 660.379 1295.7 658.319 1295.7C656.259 1295.7 652.139 1312.36 662.954 1313.88C673.769 1315.39 674.284 1317.41 667.589 1317.91C666.647 1317.98 665.806 1318.02 665.058 1318.04C660.49 1318.21 659.349 1318.25 659.349 1326.49C659.349 1332.38 656.053 1336.55 652.911 1340.53C650.932 1343.04 649.014 1345.47 648.019 1348.2C645.958 1353.85 632.74 1360.99 626.388 1363.85C621.924 1364.52 611.967 1367.48 607.847 1373.94C605.092 1378.26 602.778 1376.8 599.882 1374.98C597.365 1373.39 594.407 1371.52 590.337 1372.93C589.664 1372.49 589.675 1373.11 589.689 1373.9C589.707 1374.92 589.73 1376.25 588.277 1375.96C585.702 1375.46 581.067 1375.96 578.491 1382.52C576.431 1387.77 572.14 1385.72 570.251 1384.04C569.393 1385.21 568.191 1387.87 570.251 1389.08C572.311 1390.3 566.303 1387.57 563.041 1386.06C561.668 1386.06 559.333 1386.66 560.981 1389.08C563.041 1392.11 551.196 1385.55 550.681 1384.04C550.166 1382.52 539.35 1386.06 543.985 1390.09C548.62 1394.13 532.655 1396.66 531.625 1396.15C530.595 1395.65 525.96 1396.66 528.02 1398.17C528.674 1398.65 526.888 1399.44 524.739 1400.38C520.119 1402.42 513.82 1405.19 526.475 1407.26C541.307 1409.68 539.865 1418.36 537.29 1422.4C534.372 1424.59 527.917 1428.96 525.445 1428.96C522.973 1428.96 524.415 1431.65 525.445 1433C526.475 1436.19 528.947 1441.07 530.595 1435.02C531.705 1430.94 533.564 1431.84 536.896 1433.46C539.746 1434.85 543.675 1436.76 549.135 1436.53C558.81 1436.12 558.522 1433.69 558.091 1430.06C557.994 1429.24 557.891 1428.37 557.891 1427.45C557.891 1422.4 564.071 1431.48 560.981 1434.01C558.509 1436.03 561.324 1437.54 563.041 1438.05C558.062 1439.22 547.796 1441.38 546.56 1440.57C545.015 1439.56 541.925 1439.05 540.38 1440.57C539.144 1441.78 536.089 1440.06 534.715 1439.05C535.745 1441.92 538.32 1447.23 540.38 1445.62C540.38 1447.13 543.985 1460.76 556.346 1451.17C554.286 1446.73 567.848 1448.65 574.886 1450.16C577.29 1448.31 581.994 1443.8 581.582 1440.57C581.169 1437.34 595.83 1438.21 603.212 1439.05C604.929 1438.72 608.259 1437.44 607.847 1435.02C607.435 1432.59 611.452 1435.02 613.512 1436.53V1442.08C611.796 1442.59 609.392 1444.71 613.512 1449.15C617.633 1453.59 625.186 1453.69 628.448 1453.19C631.881 1454.87 639.263 1457.73 641.323 1455.71C643.898 1453.19 639.778 1462.27 635.143 1460.76C631.435 1459.55 621.924 1460.25 617.633 1460.76C616.431 1465.13 615.573 1473.68 621.753 1472.87C623.813 1474.89 630.165 1473.04 633.083 1471.86C634.8 1471.53 638.233 1471.26 638.233 1472.87C638.233 1474.89 651.109 1475.9 652.139 1472.87C653.169 1469.84 663.469 1462.78 665.529 1466.82C665.974 1467.69 666.707 1468.91 667.558 1470.33L667.559 1470.34C670.646 1475.49 675.273 1483.23 673.254 1486C670.679 1489.53 678.92 1492.56 681.495 1491.55C683.555 1490.74 688.19 1499.96 690.25 1504.67C700.207 1508.21 721.769 1514.06 728.361 1509.22C734.953 1504.37 734.885 1499.12 734.026 1497.1C740.206 1494.91 752.567 1489.83 752.567 1487.01C752.567 1484.18 754.284 1486.84 755.142 1488.52C760.12 1489.03 770.592 1489.43 772.652 1487.01C774.712 1484.58 780.721 1483.98 783.468 1483.98M783.468 1483.98C784.669 1483.14 787.073 1481.15 787.073 1479.94C787.073 1479.27 788.802 1478.1 790.677 1476.82C793.023 1475.24 795.599 1473.49 795.313 1472.37C795.06 1471.38 798.042 1469.41 801.14 1467.36C804.345 1465.25 807.674 1463.05 807.674 1461.77C807.674 1460.56 809.907 1460.51 812.296 1460.45C814.907 1460.39 817.705 1460.32 817.974 1458.74C818.489 1455.71 818.489 1464.8 814.369 1463.28C810.249 1461.77 798.918 1473.38 797.888 1474.89C797.518 1475.44 797.48 1475.92 797.441 1476.42C797.37 1477.33 797.292 1478.32 795.313 1479.94C792.223 1482.46 785.528 1492.05 785.013 1495.08C784.601 1497.51 780.034 1498.78 777.803 1499.12C773.167 1499.46 762.558 1502.25 757.202 1510.73C751.846 1508.71 749.82 1515.95 749.477 1519.82C748.447 1522.17 746.078 1526.18 744.842 1523.35C743.606 1520.52 743.297 1534.62 743.297 1542.02C732.138 1540.34 708.893 1537.99 705.185 1542.02C703.554 1533.71 694.272 1533.5 685.724 1533.31C680.782 1533.2 676.085 1533.09 673.254 1531.42C665.529 1526.88 661.924 1525.37 657.804 1528.4C656.023 1529.71 648.76 1529.03 640.794 1528.3C630.328 1527.33 618.65 1526.25 616.603 1529.41C613.719 1533.85 616.088 1535.97 617.633 1536.47H611.452C613.856 1540.17 617.942 1547.98 615.057 1549.6C613.627 1550.4 612.277 1552.47 610.88 1554.62C608.757 1557.88 606.523 1561.31 603.727 1560.7C602.931 1560.53 601.557 1560.13 599.861 1559.64C591.687 1557.28 576.037 1552.76 581.582 1560.7C576.637 1563.53 575.745 1569.95 575.916 1572.81C575.23 1580.39 573.238 1595.33 570.766 1594.52C567.676 1593.51 562.011 1597.55 562.011 1601.59C562.011 1604.82 554.801 1606.3 551.196 1606.63C551.024 1609.33 549.651 1615.42 545.53 1618.24C541.41 1621.07 533.17 1619.42 529.565 1618.24C529.565 1621.44 530.595 1628.24 534.715 1629.85C538.835 1631.47 530.595 1629.18 525.96 1627.83C525.699 1626.4 525.489 1624.21 525.875 1622.98M783.468 1483.98C773.991 1482.36 783.211 1456.05 789.005 1443.09C783.554 1444.94 773.682 1447.13 777.803 1441.07C781.923 1435.02 773.682 1429.8 769.047 1427.95C765.228 1428.62 756.275 1428.35 751.022 1421.89C744.455 1413.82 748.833 1375.46 757.589 1375.96C764.593 1376.36 762.91 1367.38 761.194 1362.84C757.074 1361.15 747.7 1356.38 743.168 1350.72C738.636 1345.07 745.057 1340.29 748.833 1338.61C754.198 1337.6 764.927 1334.27 764.927 1329.02C764.927 1325.93 762.954 1326.2 760.342 1326.55C757.412 1326.96 753.677 1327.47 751.022 1323.47C747.004 1317.41 753.726 1313.54 757.589 1312.36C761.408 1309.67 769.047 1302.77 769.047 1296.71C769.047 1290.24 764.051 1290.41 758.736 1290.59H758.732H758.727M525.875 1622.98C526.123 1622.19 526.618 1621.81 527.505 1622.28C528.492 1622.81 527.537 1622.91 525.875 1622.98ZM525.875 1622.98L525.714 1622.99M525.875 1622.98C525.822 1622.98 525.768 1622.99 525.714 1622.99M557.213 670.456C555.901 671.184 547.667 671.67 543.47 671.828C541.41 669.809 538.526 665.771 543.47 665.771C549.651 665.771 543.985 659.714 550.166 659.714C560.878 658.503 562.183 653.825 561.496 651.638C558.406 653.152 552.226 655.575 552.226 653.152C552.226 650.124 543.47 644.067 539.865 644.067C536.981 644.067 535.23 640.365 534.715 638.514C538.423 638.514 537.634 633.803 536.775 631.448C539.007 629.933 543.882 627.712 545.53 630.943C558.921 621.353 557.376 628.924 560.466 631.448C567.676 633.467 564.586 646.086 568.191 648.609C582.097 647.6 571.796 656.181 579.006 652.647C586.217 649.114 581.067 657.695 585.187 656.685C589.307 655.676 589.822 659.714 591.367 662.742C592.912 665.771 591.367 665.771 592.397 667.79C593.427 669.809 591.367 671.828 589.822 673.342C588.652 674.489 586.302 670.427 585.899 669.701M557.213 670.456C557.296 670.409 557.351 670.362 557.376 670.314C557.472 670.125 557.424 670.201 557.213 670.456ZM557.213 670.456C556.291 671.563 552.264 676.055 543.47 676.876C534.818 677.683 534.028 676.203 534.715 675.361C532.483 672.165 527.608 668.9 525.96 681.418C525.96 687.072 531.797 687.139 534.715 686.466C537.29 685.288 543.058 683.336 545.53 684.952C548.002 686.567 552.397 684.952 554.286 683.942C556.689 683.774 561.496 683.034 561.496 681.418C561.496 679.399 570.766 680.409 570.766 676.876C570.766 673.342 575.401 682.428 571.796 682.428C568.191 682.428 579.521 685.961 581.067 682.428C582.612 678.895 588.277 678.39 588.277 676.876C588.277 675.664 583.47 675.361 581.067 675.361C583.298 674.688 587.453 672.737 586.217 670.314C586.061 670.009 585.958 669.811 585.899 669.701M585.899 669.701C585.817 669.546 585.823 669.565 585.899 669.701ZM582.612 525.954C582.097 527.132 581.994 529.487 585.702 529.487C590.337 529.487 588.277 529.487 590.337 532.516C592.397 535.544 593.427 531.506 600.122 530.497C606.817 529.487 603.727 531.506 607.332 532.516C610.937 533.525 612.997 538.068 612.997 540.087C612.997 542.106 602.182 549.173 600.122 549.173C600.946 552.807 596.002 555.735 593.427 556.744C588.277 562.801 577.152 573.098 573.856 565.83C569.736 556.744 577.976 566.839 577.976 559.268C577.976 553.211 587.247 546.985 591.882 544.63C587.762 545.135 580.139 545.438 582.612 542.611C585.702 539.078 579.006 534.535 579.521 536.554C580.036 538.573 573.856 550.687 571.281 549.173C569.221 547.961 569.736 542.611 570.251 540.087C563.899 541.77 551.505 544.327 552.741 541.097C554.286 537.059 559.436 538.573 551.196 535.544C542.955 532.516 553.256 529.487 551.196 527.468C549.548 525.853 546.389 526.795 545.015 527.468C542.955 524.44 539.453 517.373 541.925 513.335C545.015 508.288 550.681 515.859 551.196 513.335C551.711 510.811 547.075 510.811 545.015 509.802C542.955 508.792 545.015 500.212 543.47 501.726C541.925 503.24 540.895 501.726 538.835 499.202C537.187 497.183 534.715 505.427 533.685 509.802C530.767 508.119 524.724 504.754 523.9 504.754C523.076 504.754 521.84 498.024 521.325 494.659C520.466 493.65 518.75 491.227 518.75 489.612C518.75 487.997 521.496 487.593 522.87 487.593C522.87 485.237 523.488 480.526 525.96 480.526C528.432 480.526 530.767 486.583 531.625 489.612C532.655 489.612 534.509 489.208 533.685 487.593C532.861 485.978 534.028 483.891 534.715 483.05C537.805 483.05 542.543 482.141 536.775 478.507C531.007 474.873 532.998 472.282 534.715 471.441C534.372 468.917 534.303 464.172 536.775 465.384C539.247 466.595 541.239 473.291 541.925 476.488C543.642 476.488 547.075 477.801 547.075 483.05C552.844 480.627 556.689 486.415 557.891 489.612C559.779 488.939 562.732 487.29 559.436 486.079C556.14 484.867 555.659 478.507 555.831 475.479C558.234 475.815 562.011 475.479 557.891 471.441C553.771 467.403 557.891 462.019 560.466 459.831C561.153 457.812 563.247 454.077 566.131 455.289C569.736 456.803 568.191 463.869 571.281 465.384C574.371 466.898 576.431 476.488 577.976 478.507C579.212 480.122 577.461 490.958 576.431 496.174L570.251 504.754C576.019 502.735 575.745 506.269 574.886 508.288C572.14 508.793 568.088 510.509 573.856 513.335C581.067 516.869 567.676 519.897 571.281 519.897C574.886 519.897 579.521 520.907 577.976 524.44C576.74 527.266 580.551 526.627 582.612 525.954ZM582.612 525.954L584.157 519.897C586.903 520.402 591.985 522.017 590.337 524.44C588.277 527.468 584.672 527.468 582.612 525.954ZM534.039 367.611C532.124 366.937 530.102 366.871 529.565 368.976C528.741 372.206 529.05 380.08 528.535 380.08L525.96 366.957C527.505 364.769 529.668 360.597 525.96 361.404C521.325 362.414 522.87 356.357 517.72 357.871C513.599 359.082 516.003 362.75 517.72 364.433C516.861 364.937 514.423 366.149 511.539 366.957C507.934 367.966 505.874 387.147 515.144 387.147C505.874 391.689 521.84 388.661 517.72 391.185C513.599 393.708 501.239 390.68 505.874 399.766C510.509 408.851 515.144 399.766 517.72 405.318C520.295 410.87 526.475 411.88 524.415 411.88C522.767 411.88 517.548 412.889 515.144 413.394C515.316 415.076 514.835 418.643 511.539 419.451C507.419 420.46 507.934 428.032 504.329 422.984C501.445 418.946 499.007 421.302 498.149 422.984C499.694 425.508 503.093 431.666 504.329 436.108C505.874 441.66 507.419 439.136 517.72 436.108C528.02 433.079 513.599 425.003 524.415 428.032C533.067 430.455 531.453 422.648 529.565 418.441C529.737 416.759 531.419 414.403 536.775 418.441C543.47 423.489 536.775 413.394 539.35 413.394C541.41 413.394 540.209 410.365 539.35 408.851C537.805 407.337 534.715 404.207 536.775 399.766C539.35 394.213 540.38 399.766 539.35 401.785C538.526 403.4 541.067 410.197 542.44 413.394C544.329 415.413 547.693 417.937 546.045 411.88C550.166 419.956 550.681 416.422 551.711 413.394C551.367 414.403 552.02 415.514 557.376 411.88C562.732 408.245 558.234 405.991 555.316 405.318C554.801 401.953 554.492 396.535 557.376 401.785C560.26 407.034 567.848 402.626 571.281 399.766C569.564 400.27 566.44 400.573 567.676 397.747C569.221 394.213 569.221 387.147 566.131 388.661C563.041 390.175 560.466 390.175 553.771 388.661C547.075 387.147 560.466 386.642 563.556 385.632L563.794 385.555C566.975 384.52 573.29 382.465 571.281 377.052C569.221 371.499 574.371 373.014 575.916 374.023C577.461 375.033 584.157 375.033 584.157 377.052C584.157 379.071 588.277 376.042 590.337 377.052C592.397 378.061 594.457 371.499 594.457 368.976C594.457 366.452 593.427 362.918 590.337 368.976C587.865 373.821 579.693 370.995 575.916 368.976C576.431 365.947 577.873 360.799 579.521 364.433C581.17 368.067 586.045 362.918 588.277 359.89C587.59 358.712 587.35 356.054 591.882 354.842C597.547 353.328 593.942 352.319 591.882 349.795C589.822 347.271 596.002 343.233 597.547 338.185C598.783 334.147 596.002 324.557 591.882 324.557C587.762 324.557 586.629 331.321 584.157 332.128C581.685 332.936 569.393 339.868 563.556 343.233C563.556 345.656 553.599 347.608 548.62 348.281L539.35 353.328V361.404C539.007 362.918 537.702 365.038 535.23 361.404C532.14 356.861 531.11 361.404 531.625 364.433C531.848 365.745 532.888 366.821 534.039 367.611ZM534.039 367.611C535.064 367.972 536.057 368.506 536.775 368.976C536.067 368.744 535.013 368.28 534.039 367.611ZM1056.95 77.2646C1058.5 77.7843 1061.6 81.3502 1063.12 83.2845C1060.2 83.621 1055.29 85.0006 1059 87.8273C1062.71 90.6539 1060.55 92.0335 1059 92.37C1055.91 92.8748 1050.4 93.8843 1053.05 93.8843C1055.71 93.8843 1053.66 100.278 1052.31 103.475C1050.25 109.532 1046.85 121.949 1049.73 123.16C1052.62 124.371 1049.22 126.357 1047.16 127.198C1046.47 128.376 1045.82 130.933 1048.7 131.741C1051.59 132.549 1047.5 136.788 1045.1 138.807C1042.52 139.144 1038.3 141.634 1042.01 148.903C1046.64 157.988 1035.31 158.998 1037.37 156.979C1039.43 154.96 1039.43 155.464 1033.77 150.417C1028.1 145.369 1035.31 143.855 1035.31 139.817C1035.31 135.779 1042.01 118.617 1043.04 118.113C1044.07 117.608 1045.1 105.998 1042.01 105.998C1039.53 105.998 1039.95 101.96 1040.46 99.9414C1038.92 98.7636 1035.72 97.1147 1035.31 99.9414C1034.9 102.768 1033.08 103.475 1032.22 103.475C1031.36 104.652 1028.51 106.503 1023.98 104.484C1019.45 102.465 1024.15 98.2588 1027.07 96.4081C1024.67 95.5668 1019.76 94.1872 1019.35 95.3986C1018.93 96.61 1015.74 94.8938 1014.2 93.8843C1012.48 93.2113 1009.46 91.4615 1011.1 89.8463C1012.34 79.3474 1018.83 81.0972 1021.92 83.2845C1027.07 76.7227 1030.16 87.8273 1032.22 81.7702C1034.28 75.7132 1038.4 83.2845 1037.89 80.2559C1037.47 77.8331 1042.52 75.8814 1045.1 75.2084L1040.46 69.1513C1039.22 67.5361 1041.66 67.1323 1043.04 67.1323C1042.69 65.9546 1041.7 64.0029 1040.46 65.6181C1038.92 67.6371 1035.31 64.6086 1033.77 63.599C1032.53 62.7914 1033.25 57.8785 1033.77 55.523L1027.07 54.0087C1025.35 55.0182 1021.41 55.9268 1019.35 51.4849C1016.77 45.9326 1025.01 50.4754 1026.04 44.9231C1026.86 40.4813 1030.5 43.0724 1032.22 44.9231C1031.88 43.2406 1032.01 39.4718 1035.31 37.8566C1035.31 28.9729 1043.21 34.1551 1047.16 37.8566L1045.1 50.4754C1044.07 53.6722 1043.34 59.1572 1048.7 55.523C1055.4 50.9802 1054.37 56.5325 1057.97 57.0372C1060.86 57.441 1058.14 61.58 1056.43 63.599C1053.85 64.9451 1049.57 67.5361 1053.05 67.1323C1056.54 66.7285 1057.78 68.6466 1057.97 69.6561C1058.31 68.9831 1059.83 67.9399 1063.12 69.1513C1066.42 70.3628 1064.49 74.3671 1063.12 76.2179C1061.27 76.5589 1058.3 77.084 1056.95 77.2646ZM1056.95 77.2646C1056.75 77.1966 1056.57 77.1807 1056.43 77.2274C1056.03 77.3585 1056.3 77.3513 1056.95 77.2646ZM479.093 1036.26C487.334 1040.8 492.484 1054.94 489.394 1054.94C486.304 1054.94 479.093 1052.92 468.278 1046.86C456.742 1053.32 463.471 1064.36 468.278 1069.07C471.883 1070.75 478.166 1075.93 474.458 1083.2C470.75 1090.47 470.51 1101.71 470.853 1106.42C472.055 1109.28 475.385 1115.41 479.093 1117.02C483.728 1119.04 485.789 1133.17 479.093 1136.2C475.499 1137.83 471.163 1138.14 468.713 1138.32C466.601 1138.48 465.893 1138.53 468.278 1139.23C473.428 1140.74 479.608 1151.85 474.458 1150.84C469.308 1149.83 463.128 1158.41 465.703 1161.44C467.763 1163.86 472.398 1166.82 474.458 1168C473.257 1171.2 471.574 1178.1 474.458 1180.12C477.342 1182.13 475.66 1186.68 474.458 1188.7C476.862 1193.41 480.226 1202.93 474.458 1203.33C468.69 1203.74 469.651 1210.57 470.853 1213.93C475.832 1214.78 483.522 1217.87 474.458 1223.52C468.737 1227.09 468.662 1229.89 468.598 1232.3C468.535 1234.67 468.482 1236.67 463.128 1238.67C454.476 1241.9 454.373 1251.12 455.403 1255.32L445.617 1265.42C445.446 1269.12 445.205 1277.84 445.617 1283.09C445.929 1287.06 440.375 1291.6 434.69 1296.24L434.689 1296.24C430.996 1299.25 427.248 1302.31 425.017 1305.29C420.485 1311.35 421.755 1314.21 422.957 1314.89C421.755 1314.89 418.012 1314.08 412.656 1310.85C404.416 1307.62 411.626 1314.89 416.261 1318.92C420.553 1322.96 427.901 1332.35 422.957 1337.6C419.159 1341.63 418.278 1339.37 417.685 1337.85C417.314 1336.9 417.055 1336.24 416.261 1337.6C414.613 1340.43 410.768 1338.78 409.051 1337.6H395.661C389.652 1330.87 377.017 1320.13 374.545 1331.04C371.455 1344.67 348.279 1337.52 358.065 1337.6C365.893 1337.66 361.326 1326.52 358.065 1320.94C357.378 1326.49 355.077 1337.6 351.369 1337.6C346.734 1337.6 342.099 1337.6 345.189 1331.04C347.661 1325.79 339.009 1330.87 334.374 1334.07C329.395 1333.06 317.069 1331.64 307.593 1334.07C298.117 1336.49 293.344 1333.06 292.142 1331.04C287.336 1332.05 279.988 1334.77 289.052 1337.6C300.383 1341.13 294.718 1345.17 292.142 1345.17C290.082 1345.17 289.224 1348.54 289.052 1350.22C286.477 1351.4 280.606 1353.04 277.722 1350.22C274.838 1347.39 275.147 1353.41 275.662 1356.78C272.743 1357.79 266.186 1357.89 263.302 1350.22C263.302 1355.15 258.876 1356.58 256.092 1357.48C254.033 1358.15 252.872 1358.52 255.061 1359.81C260.211 1362.84 248.881 1365.87 244.246 1363.34C240.538 1361.32 240.984 1367.21 241.671 1370.41L216.435 1368.39C218.838 1367.55 223.645 1364.05 223.645 1356.78C223.645 1347.69 196.349 1353.75 202.015 1353.75C206.919 1353.75 207.964 1358.29 209.827 1366.39C210.116 1367.64 210.424 1368.98 210.77 1370.41C212.83 1378.89 195.834 1382.69 187.079 1383.53C183.646 1389.25 177.5 1399.48 180.384 1394.64C183.989 1388.58 161.843 1383.53 165.448 1387.57C168.332 1390.8 164.247 1395.31 161.843 1397.16C157.895 1393.96 148.865 1388.98 144.333 1394.64C139.801 1400.29 136.951 1396.99 136.093 1394.64C132.144 1392.28 123.732 1388.58 121.672 1392.62C120.355 1395.2 118.094 1395.14 115.58 1395.07C113.179 1395.01 110.546 1394.94 108.282 1397.16C104.574 1400.79 103.303 1396.99 103.132 1394.64C100.556 1396.32 94.7882 1399.89 92.3162 1400.69C90.8729 1401.16 90.7778 1399.87 90.6666 1398.37C90.5397 1396.64 90.3918 1394.64 88.1961 1394.64C84.9 1394.64 86.8227 1389.93 88.1961 1387.57C84.2476 1386.56 76.0417 1385.15 74.8056 1387.57C73.5695 1389.99 68.7971 1388.58 66.5653 1387.57C59.3551 1392.95 44.8317 1401.9 44.4197 1394.64C44.0254 1387.68 50.5728 1386.05 55.7443 1384.76C57.3283 1384.37 58.7833 1384.01 59.8701 1383.53C64.5052 1381.51 74.8056 1376.47 74.8056 1373.94C74.8056 1372.74 68.4718 1373.95 61.8496 1375.21C54.5953 1376.6 46.9948 1378.05 46.9948 1376.47C46.9948 1374.04 72.0589 1368.39 84.5909 1365.87C89.5694 1363.85 98.0844 1359.81 92.3162 1359.81C87.6884 1359.81 87.0917 1357.31 86.4409 1354.59C86.0777 1353.07 85.6977 1351.48 84.5909 1350.22C81.5008 1346.68 79.9558 1353.75 78.9258 1359.81C78.3417 1363.24 66.4953 1362.78 56.2539 1362.38H56.252C48.4344 1362.08 41.5525 1361.81 41.3296 1363.34C40.9176 1366.17 31.5443 1366.2 26.9091 1365.87C22.9607 1366.71 15.0638 1367.38 15.0638 1363.34C15.0638 1359.3 22.9607 1359.3 26.9091 1359.81V1353.75C29.8276 1354.26 36.2824 1353.85 38.7545 1348.2C41.2265 1342.55 45.278 1343.82 46.9948 1345.17C49.7415 1345.34 55.235 1344.87 55.235 1341.64C55.235 1338.41 59.6985 1337.6 61.9302 1337.6L84.5909 1331.04C79.2691 1331.04 66.8744 1331.64 59.8701 1334.07C52.8659 1336.49 51.8015 1335.08 52.1449 1334.07C49.7415 1334.07 43.0807 1334.77 35.6644 1337.6C28.2482 1340.43 23.9907 1338.78 22.789 1337.6C18.8406 1336.08 11.7677 1333.26 15.0638 1334.07C18.3599 1334.87 19.5272 1326.66 19.6989 1322.46C16.7805 1322.46 10.0166 1323.47 6.30851 1327.5C3.99818 1330.02 4.24687 1328.02 4.56732 1325.45C4.88978 1322.85 5.28489 1319.68 3.21838 1319.93C-0.0777419 1320.34 -0.21505 1315.39 0.128312 1312.87C3.73342 1311.52 11.7677 1309.03 15.0638 1309.84C18.3599 1310.65 16.4372 1304.12 15.0638 1300.75C22.1023 1297.56 38.3425 1291.77 46.9948 1294.19C49.8789 1288.13 53.69 1291.67 55.235 1294.19L59.8701 1285.1C62.1019 1286.28 67.5954 1287.93 71.7155 1285.1C75.8357 1282.28 60.3852 1280.9 52.1449 1280.56C44.9347 1281.4 29.7932 1281.98 26.9091 1277.53C24.4371 1281.57 15.2354 1279.22 10.9436 1277.53C7.85353 1278.88 1.98234 1279.15 3.21838 1269.46C4.45442 1259.77 10.2569 1264.07 13.0037 1267.44C13.5187 1264.41 15.5788 1258.35 19.6989 1258.35C20.9349 1253.1 32.9176 1253.47 38.7545 1254.31C36.1794 1255.66 32.5743 1259.06 38.7545 1261.89C44.9347 1264.71 50.2565 1256.67 52.1449 1252.3C52.6599 1255.49 54.926 1262.49 59.8701 1264.91C63.6543 1266.77 68.404 1265.78 70.8086 1265.09M479.093 1036.26C470.853 1031.72 494.029 1036.77 493.514 1041.81C492.999 1046.86 496.604 1046.86 501.754 1046.86C506.904 1046.86 522.87 1030.2 520.295 1021.62C518.235 1014.76 532.827 1018.76 540.38 1021.62C545.359 1019.6 555.213 1014.15 554.801 1008.5C554.286 1001.43 562.011 1008.5 562.011 1000.93C562.011 994.871 566.474 990.328 568.706 988.814C568.534 986.795 567.882 981.949 566.646 978.719C565.41 975.488 566.131 970.306 566.646 968.119C565.101 964.754 562.011 957.115 562.011 953.481C562.011 949.847 556.174 951.294 553.256 952.471C548.792 950.284 539.453 946.314 537.805 947.929C535.745 949.948 529.05 959.538 526.475 956.005C523.9 952.471 530.08 944.395 535.23 944.395C540.38 944.395 558.406 933.796 548.105 923.196C542.378 917.302 540.466 916.106 540.12 916.49M479.093 1036.26H470.853C469.995 1038.11 466.836 1041.31 461.068 1039.29C455.299 1037.27 446.991 1040.13 443.557 1041.81C438.579 1039.96 430.476 1034.75 437.892 1028.69C448.192 1012.54 439.094 1014.22 433.257 1017.08C428.278 1011.7 419.248 999.313 422.957 992.852C426.665 986.391 415.918 978.046 410.081 974.681C404.073 977.877 392.571 985.18 394.631 988.814C396.691 992.448 398.236 1001.1 398.751 1004.97C395.146 1002.27 387.935 998.303 387.935 1003.96C387.935 1008.3 385.601 1010.35 383.204 1012.46C381.701 1013.79 380.173 1015.13 379.18 1017.08C377.12 1021.12 367.678 1015.4 363.215 1012.03C357.378 1010.85 346.837 1007.59 351.369 1003.96C356.883 999.535 339.955 995.592 329.075 993.057L328.194 992.852C321.333 991.251 325.663 984.776 328.169 981.027C329.614 978.866 330.454 977.611 328.194 978.719C323.249 981.142 316.52 971.652 313.773 966.605L299.868 943.386C304.503 944.9 313.773 947.02 313.773 943.386C313.773 938.843 328.194 934.805 331.284 939.348C334.374 943.891 356.004 930.262 351.369 930.262C349.488 930.262 348.624 928.931 347.643 927.418C346.206 925.202 344.516 922.596 339.009 923.196C331.593 924.003 332.829 916.466 334.374 912.596C338.151 909.231 345.704 903.611 345.704 908.053C345.704 912.495 352.571 912.932 356.004 912.596C356.004 909.231 359.301 904.52 372.485 912.596C369.189 906.135 381.412 896.107 387.935 891.901C384.502 886.012 380.519 875.648 392.056 881.301C392.056 869.056 401.613 866.118 407.143 866.13M540.12 916.49C539.968 916.658 540.119 917.13 540.38 917.643C540.352 917.509 540.323 917.372 540.292 917.232C540.239 916.992 540.181 916.744 540.12 916.49ZM540.12 916.49C538.474 909.65 533.867 897.835 526.475 897.453C518.647 897.049 525.273 891.564 529.565 888.872C530.595 887.695 531.419 884.532 526.475 881.301C521.531 878.071 524.415 869.86 526.475 866.159C525.445 862.457 520.398 855.357 508.449 856.568C501.754 848.997 497.634 848.997 493.514 848.997C489.394 848.997 479.093 841.426 479.093 848.997C479.093 856.568 473.428 850.511 453.343 853.54C433.257 856.568 449.737 837.892 437.892 856.568C432.685 864.777 431.075 868.385 431.08 869.634M431.08 869.634C431.084 870.658 432.174 870.097 433.257 869.187C432.617 869.332 431.879 869.485 431.08 869.634ZM431.08 869.634C426.309 870.523 419.38 871.262 418.321 869.187C416.776 866.158 412.656 863.13 408.021 866.159M408.021 866.159C407.159 866.722 406.92 866.639 407.143 866.13M408.021 866.159C407.742 866.141 407.449 866.131 407.143 866.13M407.143 866.13C408.119 863.906 417.926 853.54 422.957 853.54C427.901 853.54 430.167 849.838 430.682 847.987C433.772 847.987 440.673 846.877 443.557 842.435C446.441 837.993 434.802 833.518 428.622 831.835C423.3 823.591 411.729 808.213 408.021 812.655C404.313 817.096 407.849 821.235 410.081 822.75C406.991 821.74 400.914 820.933 401.326 825.778C401.738 830.624 397.034 827.797 394.631 825.778C392.571 825.61 388.347 826.99 387.935 833.854C387.523 840.719 390.511 846.137 392.056 847.987C391.197 850.511 389.995 856.366 392.056 859.597C394.116 862.827 378.494 870.701 370.425 874.235C371.627 873.057 374.751 869.288 377.635 863.635C380.519 857.981 375.403 861.279 372.485 863.635C375.232 859.26 381.446 851.117 384.33 853.54C387.214 855.962 385.532 849.502 384.33 845.968C383.129 843.613 380.416 838.7 379.18 837.892C377.944 837.085 380.382 832.172 381.755 829.816C380.897 827.124 377.841 822.75 372.485 826.788C368.365 819.923 359.781 825.946 356.004 829.816C356.863 834.022 357.653 842.435 353.944 842.435C350.236 842.435 350.683 836.714 351.369 833.854C349.653 836.21 346.116 839.507 345.704 833.854C345.189 826.788 344.159 825.273 339.009 833.854C334.889 840.719 330.082 839.407 328.194 837.892C327.164 837.219 323.97 836.075 319.438 836.883C317.101 837.299 316.692 835.396 316.44 834.222C316.081 832.549 316.039 832.353 311.198 842.435C309.23 840.314 309.668 841.361 310.501 843.352C311.849 846.573 314.23 852.264 309.138 851.016C300.898 848.997 291.627 849.502 296.778 856.568C301.928 863.635 300.898 868.682 296.778 866.159C292.657 863.635 292.142 869.187 296.778 874.235C301.722 870.197 302.958 872.552 302.958 874.235C300.039 875.244 295.336 878.071 299.868 881.301C304.4 884.532 289.739 882.647 281.842 881.301C283.044 884.834 286.271 891.901 289.567 891.901H277.207C272.4 889.714 261.757 887.762 257.636 897.453C253.516 907.145 258.666 908.558 261.756 908.053C262.958 910.072 267.319 913.807 275.147 912.596C282.975 911.384 282.872 915.12 281.842 917.139L286.992 912.596C287.426 915.286 287.276 920.454 284.026 922.747M284.026 922.747C283.413 923.179 282.691 923.509 281.842 923.701C279.266 924.283 280.884 923.745 284.026 922.747ZM284.026 922.747C284.419 922.622 284.835 922.49 285.271 922.352L285.273 922.351C290.404 920.726 298.116 918.283 299.868 917.139C301.13 916.314 302.736 916.921 304.58 917.618C307.251 918.627 310.422 919.826 313.773 917.139C318.305 913.504 312.571 919.999 309.138 923.701C306.048 926.056 299.868 931.575 299.868 934.805C299.868 938.035 296.091 940.526 294.202 941.367C289.396 940.189 278.855 939.146 275.147 944.395C271.439 949.645 257.465 952.976 250.941 953.986C258.495 957.183 272.881 964.182 269.997 966.605C268.679 967.711 268.669 970.368 268.658 973.073C268.639 977.77 268.62 982.611 261.756 979.728C253.104 976.094 251.971 970.474 252.486 968.119C248.023 967.109 237.757 965.393 232.401 966.605C229.591 967.24 228.958 965.742 228.18 963.902C227.104 961.356 225.751 958.154 217.98 959.033C209.895 959.948 210.071 962.334 210.233 964.526C210.339 965.964 210.439 967.319 208.195 968.119C204.902 969.292 203.585 971.958 203.176 974.102M203.176 974.102C203.023 974.909 202.998 975.643 203.045 976.195C203.181 975.66 203.252 974.934 203.176 974.102ZM203.176 974.102C202.965 971.796 201.619 968.682 197.379 966.605C200.985 961.557 198.925 952.976 188.109 950.452C178.627 948.24 160.435 940.983 152.624 937.867M70.8086 1265.09C68.7639 1264.89 67.1658 1260.71 66.5653 1258.35C71.7155 1255.49 80.5738 1249.07 74.8056 1246.24C69.0374 1243.41 66.9087 1239 66.5653 1237.15C76.179 1237.15 94.7882 1235.74 92.3162 1230.09C90.3317 1225.55 93.6572 1224.34 97.3823 1222.99C99.4577 1222.23 101.657 1221.44 103.132 1219.99C105.996 1217.18 109.607 1219.26 113.445 1221.46C115.128 1222.42 116.855 1223.41 118.582 1224.03C123.114 1220.4 135.234 1224.2 140.728 1226.55C147.423 1225.04 161.74 1222.41 165.448 1224.03C169.157 1225.64 170.427 1220.66 170.599 1217.97C176.95 1219.32 189.654 1221.2 189.654 1217.97C189.654 1214.73 177.371 1213.77 174.127 1213.51M70.8086 1265.09C71.1022 1265.12 71.4051 1265.07 71.7155 1264.91C72.1604 1264.7 72.3598 1264.6 72.3566 1264.6C72.3548 1264.59 72.2849 1264.62 72.1553 1264.66C71.9066 1264.75 71.4379 1264.91 70.8086 1265.09ZM525.28 1623.01C525.295 1623.01 525.311 1623.01 525.327 1623.01M525.28 1623.01L525.327 1623.01M525.327 1623.01L525.397 1623M525.327 1623.01C525.355 1623 525.383 1623 525.411 1623M525.327 1623.01C525.35 1623.01 525.374 1623 525.397 1623M525.397 1623C525.402 1623 525.406 1623 525.411 1623M525.397 1623L525.411 1623M525.411 1623L525.714 1622.99M525.411 1623C525.514 1623 525.615 1622.99 525.714 1622.99M152.624 937.867L152.597 937.856M152.624 937.867C152.615 937.863 152.606 937.86 152.597 937.856M758.727 1290.59H758.723C758.333 1290.61 757.943 1290.62 757.552 1290.63M758.727 1290.59C758.336 1290.61 757.944 1290.62 757.552 1290.63M152.597 937.856C151.511 937.423 150.628 937.071 149.998 936.824C144.848 934.805 141.758 934.805 145.878 944.395C149.174 952.068 141.758 947.592 137.638 944.395C134.891 945.573 128.779 946.616 126.307 941.367C123.217 934.805 112.402 938.843 112.917 946.414C113.329 952.471 109.998 957.351 108.282 959.033C108.11 962.062 108.282 968.119 110.342 968.119C112.402 968.119 112.917 962.062 112.917 959.033C117.38 954.995 126.307 947.626 126.307 950.452C126.307 951.878 127.649 950.756 129.182 949.474C131.448 947.579 134.132 945.334 133.517 950.452C133.055 954.307 131.241 954.8 129.337 955.318C127.002 955.954 124.531 956.626 124.247 963.576C118.067 966.605 120.642 977.709 124.247 976.195C127.131 974.984 131.629 971.652 133.517 970.138C130.427 973.335 125.174 981.243 128.882 987.3C132.59 993.357 128.711 994.198 126.307 993.861C123.732 994.03 118.582 993.659 118.582 990.833C118.582 990.228 118.642 989.608 118.704 988.979C119.001 985.932 119.32 982.657 112.917 979.728C108.801 977.846 106.293 978.972 104.225 979.901C102.411 980.716 100.936 981.379 99.0114 979.728C95.7153 976.902 93.1745 981.916 92.3162 984.776C96.093 986.458 104.574 989.319 108.282 987.3C111.99 985.281 108.453 993.188 106.222 997.395C111.2 999.245 120.642 1003.35 118.582 1004.97C116.007 1006.98 124.247 1014.05 128.882 1009.51C133.517 1004.97 149.998 1007.99 149.998 1012.54C149.998 1016.17 147.251 1021.45 145.878 1023.64C139.526 1024.82 125.174 1026.47 118.582 1023.64C111.99 1020.82 112.058 1036.93 112.917 1045.35C110.513 1046.69 104.368 1048.58 99.0114 1045.35C93.6552 1042.12 96.7796 1049.72 99.0114 1053.93C94.2046 1051.74 84.5909 1048.68 84.5909 1053.93C84.5909 1059.18 89.7411 1065.87 92.3162 1068.56C89.3977 1069.91 82.4279 1072.2 77.8957 1070.58C72.2305 1068.56 76.8657 1080.68 84.5909 1079.16C84.5909 1084.21 105.192 1087.75 103.132 1079.16C101.483 1072.3 108.968 1080.01 112.917 1084.72C106.565 1086.06 96.3333 1089.87 106.222 1094.31C111.783 1096.81 113.278 1097.98 114.46 1097.72C115.905 1097.42 116.881 1094.99 124.247 1090.27C134.96 1083.4 133.517 1093.13 131.457 1098.85C128.882 1101.04 124.247 1106.22 126.307 1109.45C128.367 1112.68 131.972 1112.14 133.517 1111.47C134.547 1114.33 138.462 1119.55 145.878 1117.53C153.294 1115.51 169.569 1118.37 176.779 1120.05C177.637 1118.2 178.839 1113.49 176.779 1109.45C174.719 1105.41 177.294 1097.67 178.839 1094.31C176.435 1092.96 171.011 1090.27 168.539 1090.27C166.066 1090.27 160.985 1082.87 158.753 1079.16C157.208 1078.16 153.294 1076.24 149.998 1076.64C145.878 1077.15 158.238 1070.58 168.539 1073.61C176.779 1076.04 175.405 1083.37 173.689 1086.74C175.405 1089.26 180.281 1094.31 186.049 1094.31C191.817 1094.31 186.392 1099.69 182.959 1102.38C183.646 1105.24 184.607 1111.87 182.959 1115.51C180.899 1120.05 177.809 1130.15 182.959 1130.15H195.319C193.088 1131.83 188.83 1136.2 189.654 1140.24C190.478 1144.28 177.294 1138.22 170.599 1134.69C172.659 1136.54 176.161 1140.24 173.689 1140.24C173.187 1140.24 172.535 1140.31 171.782 1140.38C167.903 1140.78 161.341 1141.45 158.753 1134.69C156.281 1128.23 137.809 1150.84 128.882 1162.95C132.144 1165.14 139.08 1169.11 140.728 1167.5C142.376 1165.88 130.427 1179.95 124.247 1187.18C123.56 1189.87 121.466 1195.26 118.582 1195.26H106.222L84.5909 1210.91C81.3292 1210.91 74.1876 1211.41 71.7155 1213.43C69.2434 1215.45 86.4793 1215.95 95.4063 1215.95C97.4663 1214.27 102.925 1210.91 108.282 1210.91C111.948 1210.91 111.29 1207.27 110.875 1204.98C110.531 1203.09 110.354 1202.11 112.917 1204.85C114.92 1206.99 116.343 1209.01 117.552 1210.72C119.761 1213.84 121.251 1215.95 124.247 1215.95C127.955 1215.95 136.779 1217.3 140.728 1217.97C135.921 1218.81 127.749 1220.8 133.517 1222.01C139.286 1223.22 146.908 1222.52 149.998 1222.01C161.449 1211.29 167.793 1205.47 176.779 1200.81C176.779 1205.02 176.161 1213.43 173.689 1213.43C173.081 1213.43 173.33 1213.45 174.123 1213.51H174.124H174.125M174.127 1213.51L174.126 1213.51H174.125M174.127 1213.51L174.125 1213.51M620.208 1060.49C620.208 1058.97 621.032 1055.44 624.328 1053.42C627.624 1051.4 630.508 1041.14 631.538 1036.26C634.628 1035.42 641.117 1032.73 642.353 1028.69C643.898 1023.64 660.894 1005.98 669.649 1009C664.293 1013.85 666.044 1021.45 667.589 1024.65C669.134 1025.49 671.297 1028.08 667.589 1031.72C663.881 1035.35 662.954 1040.3 662.954 1042.32C660.551 1044.5 655.229 1048.78 653.169 1048.37C650.594 1047.87 651.624 1055.44 646.989 1056.96C642.353 1058.47 636.688 1059.98 637.718 1063.52C638.748 1067.05 629.478 1062.51 628.448 1060.49C627.624 1058.87 622.611 1059.82 620.208 1060.49ZM907.072 1635.4C908.102 1631.2 914.488 1625.71 931.792 1637.42C949.097 1649.13 939.003 1649.03 931.792 1647.52C930.076 1650.21 927.157 1655.9 929.217 1657.11C931.792 1658.62 916.857 1662.16 914.797 1659.63C913.149 1657.61 901.063 1649.03 895.226 1644.99C894.025 1644.15 890.9 1642.98 888.016 1644.99C884.411 1647.52 896.256 1635.4 907.072 1635.4ZM601.667 812.655C599.264 805.588 597.341 790.546 608.877 786.912C620.414 783.278 623.298 799.867 623.298 808.617C623.984 812.15 624.74 819.014 622.268 818.207C619.796 817.399 622.611 821.908 624.328 824.264L623.298 832.845C615.573 833.686 600.122 833.652 600.122 826.788C600.122 818.207 599.092 814.169 601.667 812.655ZM581.067 711.704L563.556 723.313C558.577 725.837 549.445 732.197 552.741 737.446C557.273 735.831 559.779 737.783 560.466 738.96C558.406 739.97 553.668 741.686 551.196 740.475C548.723 739.263 543.642 744.008 541.41 746.532C540.037 752.589 538.835 764.703 545.015 764.703C551.196 764.703 552.741 757.973 552.741 754.608C555.316 753.262 560.775 749.56 562.011 745.522C563.247 741.484 573.17 730.38 577.976 725.332C580.552 721.799 584.775 714.127 581.067 711.704ZM581.067 705.142C583.127 703.964 587.041 702.315 586.217 705.142C585.187 708.675 585.702 710.189 579.521 710.189C574.577 710.189 578.491 706.824 581.067 705.142ZM528.535 723.313C531.282 717.929 537.393 707.767 539.865 710.189C542.955 713.218 533.17 721.294 535.745 723.313C538.32 725.332 527.465 725.332 528.535 723.313ZM517.72 756.122C522.355 750.065 532.449 738.456 535.745 740.475C539.041 742.494 538.149 757.468 537.29 764.703C539.522 767.731 543.161 773.788 539.865 773.788C536.569 773.788 538.492 776.817 539.865 778.331C540.895 780.35 542.028 784.388 538.32 784.388C534.612 784.388 535.058 786.407 535.745 787.417C531.968 789.099 524.106 791.96 522.87 789.941C521.325 787.417 520.295 800.54 513.084 793.979C507.316 788.729 513.771 785.398 517.72 784.388C518.921 783.547 520.81 781.158 518.75 778.331C516.174 774.798 511.539 773.788 517.72 769.246C523.9 764.703 523.9 765.208 520.81 763.189C517.72 761.17 512.569 763.189 512.054 766.217C511.642 768.64 508.449 770.928 506.904 771.769C505.187 772.947 501.857 775.707 502.269 777.322C502.784 779.341 494.544 780.35 496.089 773.788C497.325 768.539 501.754 764.535 503.814 763.189C502.612 761.506 501.136 757.939 504.844 757.132C500.209 754.608 506.904 754.103 505.874 751.075C505.05 748.652 514.114 747.036 518.75 746.532C517.72 749.728 516.071 756.122 517.72 756.122ZM503.299 629.429C505.874 627.746 511.024 623.977 511.024 622.362C511.024 620.343 519.265 616.305 521.325 615.8C522.973 615.397 526.475 615.632 528.02 615.8L522.87 624.381C521.668 623.54 518.956 622.362 517.72 624.381C516.174 626.905 514.629 630.943 511.024 630.943C508.14 630.943 504.672 629.933 503.299 629.429ZM473.428 638.514C473.6 641.375 475.076 647.095 479.608 647.095C485.274 647.095 477.548 642.048 483.728 642.048C488.673 642.048 490.939 639.692 491.454 638.514C496.776 637.337 504.432 634.779 492.484 633.971C483.728 631.448 486.819 635.486 483.728 635.99C480.638 636.495 473.428 634.981 473.428 638.514ZM536.775 565.83C539.179 568.185 543.779 573.3 542.955 574.915C541.925 576.934 553.256 575.925 553.256 570.877C553.256 565.83 552.741 553.211 540.895 560.782C531.419 566.839 534.2 566.671 536.775 565.83ZM579.521 518.383L585.702 516.364C586.217 514.85 586.938 511.619 585.702 510.812C584.157 509.802 585.187 501.221 587.247 499.202C588.895 497.587 589.993 495.501 590.337 494.659L589.307 491.126C588.105 490.79 585.702 490.722 585.702 493.145C585.702 496.174 584.672 498.193 582.612 497.183C580.551 496.174 577.976 506.773 577.976 508.288C577.976 509.802 578.491 518.719 579.521 518.383ZM440.467 551.192C439.952 548.668 440.055 544.125 444.587 546.144C449.119 548.163 446.132 542.106 447.677 541.601C449.222 541.097 451.179 545.135 450.767 547.154C450.252 549.678 455.403 554.725 450.767 555.23C446.132 555.735 443.042 558.258 444.587 559.268C446.132 560.277 435.832 559.268 435.832 555.23C435.832 551.999 438.922 551.192 440.467 551.192ZM455.918 517.373C454.888 522.757 453.446 533.727 455.918 534.535C458.39 535.342 461.411 535.544 462.613 535.544C465.36 536.89 470.853 539.179 470.853 537.563C470.853 535.544 469.823 531.002 467.248 530.497C464.673 529.992 472.913 521.411 468.793 519.392C465.497 517.777 468.793 516.7 470.853 516.364L472.913 510.812C474.973 509.129 478.475 505.562 476.003 504.754C473.531 503.947 473.6 502.399 473.943 501.726C475.66 500.043 478.063 496.275 473.943 494.659C469.823 493.044 471.196 490.285 472.398 489.107L480.638 487.593C480.123 487.593 478.784 486.886 477.548 484.06C476.312 481.233 479.093 480.526 480.638 480.526C477.72 477.498 470.956 471.844 467.248 473.46C463.54 475.075 463.3 480.526 463.643 483.05C466.046 484.564 470.132 487.593 467.248 487.593H459.523V501.726C458.664 502.904 456.536 506.168 454.888 509.802C452.828 514.345 453.343 514.345 455.918 517.373ZM463.643 458.317C466.561 459.495 472.295 462.355 471.883 464.374C471.471 466.393 472.741 470.263 473.428 471.945L488.364 472.45C488.707 471.104 489.291 468.109 488.879 466.898C488.364 465.384 490.939 462.355 491.969 462.86C492.793 463.264 490.252 461.346 488.879 460.336C488.364 459.831 487.128 458.216 486.304 455.793C485.48 453.37 488.364 453.101 489.909 453.27C491.969 454.616 495.883 457.509 495.059 458.317C494.029 459.327 502.269 454.279 498.149 451.25C494.029 448.222 489.909 451.755 489.909 448.727C489.909 445.698 492.484 445.193 488.364 444.689C485.068 444.285 482.527 447.212 481.668 448.727C479.952 448.39 476.621 447.313 477.033 445.698C477.548 443.679 476.518 443.679 471.883 446.203C468.175 442.569 463.471 444.689 461.583 446.203C461.068 447.885 459.523 451.452 457.463 452.26C454.888 453.27 453.343 453.27 456.433 455.793C459.523 458.317 462.613 460.841 463.643 458.317ZM884.926 313.453C884.926 317.322 884.308 325.163 881.836 325.567C879.364 325.97 878.059 318.332 877.716 314.462C875.656 312.78 872.154 309.314 874.626 308.91C877.098 308.506 884.926 309.414 888.531 309.919C888.359 311.602 887.398 314.664 884.926 313.453ZM846.815 291.243C844.411 292.926 840.532 296.695 844.24 298.31C848.875 300.329 844.755 307.9 848.875 308.91C852.995 309.919 847.845 314.462 851.965 314.462C856.085 314.462 863.81 317.995 864.84 313.453C865.664 309.818 860.377 311.265 857.63 312.443C857.973 311.602 859.278 309.717 861.75 308.91C864.222 308.102 862.094 306.218 860.72 305.376C859.862 300.329 855.879 290.436 846.815 291.243ZM851.965 268.529C854.025 260.79 860.926 248.44 872.051 260.958C872.051 254.901 876.857 262.136 879.261 266.51C880.806 268.866 882.969 273.577 879.261 273.577C874.626 273.577 876.686 281.653 872.051 278.624C868.342 276.202 870.506 280.307 872.051 282.662C875.312 282.326 881.836 282.158 881.836 284.177C881.836 286.196 887.329 286.701 890.076 286.701C893.509 286.364 900.479 285.893 900.891 286.701C901.406 287.71 908.617 287.71 906.557 291.243C904.497 294.777 900.891 298.31 899.346 298.31C897.801 298.31 893.681 306.386 888.531 299.824C884.411 294.575 878.574 291.916 876.171 291.243C871.707 293.094 862.574 296.089 861.75 293.262C860.72 289.729 859.175 278.624 863.295 278.624C867.415 278.624 860.72 270.548 857.63 278.624C854.54 286.701 857.63 289.729 850.935 285.186C845.579 281.552 849.39 272.567 851.965 268.529ZM884.926 260.958C887.158 258.266 889.664 252.781 881.836 252.377C872.051 251.872 877.201 248.339 874.626 256.415C877.098 258.434 882.523 260.285 884.926 260.958ZM1058.49 34.3233C1057.63 40.3804 1056.94 52.7973 1061.06 54.0087C1066.21 55.523 1069.3 57.0373 1069.3 48.9612C1069.3 40.8851 1073.94 34.3233 1069.3 34.3233C1065.59 34.3233 1067.76 29.6123 1069.3 27.2568L1074.45 30.79C1074.8 25.5742 1074.25 15.4455 1069.3 16.6569C1064.36 17.8683 1063.81 23.5552 1064.15 26.2473C1061.92 26.4155 1057.66 27.1558 1058.49 28.771C1059.31 30.3862 1058.83 33.1456 1058.49 34.3233ZM1079.09 36.3423L1081.66 43.4089C1081.66 41.7264 1081.97 38.6642 1083.21 39.8756C1084.75 41.3899 1091.96 44.4184 1091.96 40.8851C1091.96 37.3519 1090.42 34.8281 1089.39 37.8566C1088.36 40.8851 1090.42 30.79 1081.66 34.3233C1074.66 37.1499 1077.03 36.8471 1079.09 36.3423ZM1077.03 19.6854C1077.03 20.8632 1078.26 23.5216 1083.21 24.733C1089.39 26.2473 1087.33 23.7235 1087.33 21.1997C1087.33 18.6759 1086.81 16.6569 1089.39 16.6569C1091.96 16.6569 1093.51 10.5999 1090.93 10.0951C1088.87 9.69131 1092.13 8.58085 1094.02 8.0761C1094.54 4.03806 1094.33 -2.52374 1089.39 3.53331C1084.44 9.59036 1084.24 7.40307 1084.75 5.5523C1086.3 3.70153 1088.46 0 1084.75 0C1081.04 0 1080.46 5.38407 1080.63 8.0761C1080.12 9.25385 1079.09 12.316 1079.09 15.1426C1079.09 17.9693 1077.71 19.3489 1077.03 19.6854ZM534.715 554.725C534.715 556.398 533.493 558.258 530.08 558.258C526.667 558.258 522.355 556.398 522.355 554.725C522.355 553.052 526.152 550.687 529.565 550.687C532.978 550.687 534.715 553.052 534.715 554.725ZM793.125 1848.78L817.028 1833.27C819.153 1836.56 822.128 1844.27 817.028 1848.78C811.929 1853.3 798.968 1850.67 793.125 1848.78ZM867.226 1891.1H898.3C902.55 1896.04 909.774 1906.62 904.674 1909.44C899.575 1912.26 881.302 1910.62 872.803 1909.44L867.226 1891.1Z" stroke="black"/>
</g>
<defs>
<clipPath id="clip0_1_99">
<rect width="1254" height="1911" fill="white"/>
</clipPath>
</defs>
</svg>
