<svg width="177" height="283" viewBox="0 0 177 283" fill="none" xmlns="http://www.w3.org/2000/svg">
<path fill-rule="evenodd" clip-rule="evenodd" d="M106.937 184.488H106.935C106.881 184.49 106.826 184.492 106.772 184.493C106.827 184.492 106.883 184.49 106.937 184.488Z" fill="#F19832"/>
<path fill-rule="evenodd" clip-rule="evenodd" d="M128.631 232.036C128.672 232.094 128.692 232.111 128.682 232.075C128.681 232.067 128.676 232.061 128.67 232.055C128.661 232.047 128.648 232.041 128.631 232.036ZM153.871 169.642C153.926 169.532 153.97 169.409 154.001 169.274C153.984 169.399 153.942 169.524 153.871 169.642ZM106.937 184.488H106.935C106.881 184.49 106.826 184.492 106.772 184.493C106.827 184.492 106.883 184.49 106.937 184.488ZM74.7171 231.644C74.8547 231.72 74.7216 231.734 74.49 231.744C74.5245 231.632 74.5935 231.577 74.7171 231.644ZM94.0034 107.267C93.9551 107.21 93.8787 107.166 93.8059 107.137C93.8176 107.144 93.8295 107.152 93.8416 107.16C93.8702 107.178 93.8997 107.198 93.9298 107.218C93.9539 107.234 93.9785 107.25 94.0034 107.267ZM105.768 72.6246C105.831 72.6677 105.889 72.7172 105.934 72.7625C105.878 72.7279 105.817 72.6797 105.768 72.6246ZM89.5002 76.207C89.5105 76.1967 89.506 76.1938 89.4907 76.1981C89.492 76.2087 89.4949 76.2123 89.5002 76.207ZM117.272 233.367L117.357 233.254C117.139 233.213 117.184 233.293 117.272 233.367ZM168.224 207.173C168.245 207.188 168.27 207.202 168.299 207.216C168.277 207.199 168.252 207.185 168.224 207.173ZM113.971 156.15C113.899 156.194 113.818 156.245 113.734 156.303C113.829 156.259 113.913 156.202 113.971 156.15Z" fill="#F19832"/>
<path d="M61.5846 241.763C62.4457 242.122 64.3259 242.466 64.9574 240.974C66.163 240.974 66.9907 241.5 67.2538 241.763C67.6365 242.074 68.3733 242.854 68.2585 243.485C68.1437 244.117 68.6891 244.753 68.9761 244.992L70.0525 243.916H70.6984L71.4878 242.983C71.6074 242.624 71.617 241.935 70.6984 242.05C70.8074 241.977 70.8889 241.928 70.9555 241.887C71.152 241.767 71.2198 241.726 71.4878 241.404C71.7748 241.06 72.325 241.117 72.5642 241.189L73.2101 240.256L73.2405 240.236C73.9897 239.744 74.5219 239.395 76.0088 239.395C76.5105 239.395 76.4259 239.072 76.3159 238.652C76.2824 238.523 76.2465 238.386 76.2241 238.247L76.87 237.96V237.385H78.0182V237.96H81.3193C81.6541 237.696 82.4675 237.213 83.0415 237.385C83.6156 237.558 84.1897 237.84 84.405 237.96C84.3572 238.294 84.3763 238.892 84.8356 238.605C85.2949 238.318 86.1273 238.247 86.4861 238.247C86.5579 238.629 86.8019 239.395 87.2038 239.395C87.6056 239.395 88.3759 239.203 88.7108 239.108L90.6484 241.835C90.9354 241.811 91.6243 241.82 92.0836 242.05C92.5429 242.28 92.9448 242.002 93.0883 241.835V240.256C93.3514 240.017 93.9638 239.581 94.3082 239.754C94.6527 239.926 94.4518 239.395 94.3082 239.108H95.1694V238.605C95.5521 238.366 96.2028 237.859 95.7435 237.744C95.5308 237.691 95.4166 237.707 95.3316 237.719C95.1871 237.739 95.1268 237.747 94.8106 237.385C94.4087 236.926 95.2651 236.764 95.7435 236.74C95.7913 235.783 96.1023 233.812 96.9634 233.582V232.147C97.0591 232.553 97.4658 233.338 98.3269 233.223C99.1881 233.108 99.7383 232.458 99.9057 232.147L101.269 231.932C101.556 232.075 102.231 232.276 102.633 231.932C102.88 231.719 103.232 231.786 103.56 231.848C103.898 231.912 104.209 231.971 104.355 231.716C104.585 231.314 105.455 231.357 105.862 231.429C107.734 232.377 111.418 234.686 111.32 236.404C111.466 234.582 111.826 234.3 112.751 234.3C113.074 234.3 113.94 234.575 114.922 234.888C116.774 235.477 119.039 236.198 118.851 235.448C118.865 235.408 118.879 235.37 118.893 235.332C119.224 234.409 119.374 233.993 118.133 233.51C117.734 233.355 117.493 233.28 117.357 233.254L117.272 233.367C117.184 233.293 117.139 233.213 117.357 233.254L117.918 232.506L119.282 233.367L119.497 233.797L119.927 233.008H121.506C122.846 232.912 125.41 232.879 124.951 233.51C124.492 234.142 125.286 233.391 125.74 232.936C126.617 232.585 128.311 231.961 128.631 232.036C128.411 231.727 127.567 230.246 127.104 229.42C128.802 230.879 132.572 233.625 134.065 232.936C135.557 232.247 134.352 232.075 133.562 232.075L132.916 230.927C133.897 231.166 135.801 231.774 135.572 232.29C135.342 232.807 134.902 232.984 134.711 233.008L136.72 234.228V233.367C138.107 233.08 141.27 232.606 142.82 233.008C143.803 233.263 143.825 233.13 143.852 232.965C143.879 232.805 143.91 232.615 144.829 232.721C146.322 232.893 150.379 234.276 152.221 234.946C152.795 234.635 153.943 233.883 153.943 233.367C153.943 233.066 154.848 232.998 155.837 232.925C156.967 232.842 158.205 232.75 158.32 232.29C158.493 231.601 159.827 230.999 160.473 230.783C161.143 231.142 162.54 231.802 162.77 231.573C162.999 231.343 163.057 230.233 163.057 229.707L164.707 227.913C165.066 228.008 165.855 228.142 166.142 227.913C166.429 227.683 167.697 227.1 168.295 226.836C169.061 226.286 170.333 224.712 169.3 222.818C169.3 222.244 169.778 222.196 170.018 222.244C170.257 221.717 170.491 220.665 169.515 220.665C168.539 220.665 163.607 221 161.263 221.167C162.578 221.024 164.506 220.507 161.693 219.588C158.88 218.67 159.708 220.067 160.473 220.88C159.971 220.497 158.722 219.804 157.746 220.091C157.612 219.856 157.902 219.762 158.299 219.633C158.752 219.487 159.345 219.296 159.612 218.799C160.014 218.053 157.531 218.01 156.239 218.081L155.306 218.512L156.239 217.436C157.005 217.459 158.564 217.45 158.679 217.22C158.717 217.145 158.999 217.134 159.407 217.118C160.548 217.074 162.672 216.993 163.2 215.354C163.918 213.13 163.774 212.34 162.913 212.34C162.612 212.34 162.363 212.508 162.099 212.685C161.61 213.014 161.069 213.377 160.043 212.771C158.78 212.025 160.33 212.173 161.263 212.34C161.789 212.364 162.755 212.254 162.411 211.623C162.066 210.991 163.272 210.498 163.918 210.331C164.444 211.168 165.855 212.441 167.291 210.833C168.726 209.226 167.889 209.159 167.291 209.326C167.813 208.736 168.702 207.532 168.299 207.216C168.27 207.202 168.245 207.188 168.224 207.173C168.252 207.185 168.277 207.199 168.299 207.216C168.859 207.492 170.793 207.763 170.52 206.671C170.233 205.523 172.888 204.805 172.96 205.021C173.032 205.236 174.682 200.715 173.678 200.571C174.323 199.782 175.586 197.859 175.472 196.481C176.333 196.251 175.83 195.189 175.472 194.687C175.663 193.012 175.615 189.463 173.893 188.659C173.721 187.568 172.577 187.2 172.027 187.152C170.783 185.98 167.664 183.707 165.138 183.994C166.142 184.568 163.703 184.568 163.559 183.994C163.415 183.42 158.105 183.42 158.105 184.425C158.105 185.229 157.005 186.913 156.455 187.654C156.191 187.511 155.55 187.267 155.091 187.439C154.903 187.509 154.7 187.196 154.429 186.777C153.871 185.916 153.025 184.61 151.431 185.286C151.689 185.065 151.967 184.867 152.231 184.678C152.996 184.133 153.654 183.664 153.44 182.918C153.254 182.265 154.341 181.854 155.204 181.528C155.668 181.353 156.067 181.203 156.167 181.052C156.454 180.621 156.885 174.378 154.589 172.799C154.991 171.536 153.847 171.316 153.225 171.364C152.531 170.24 151.072 168.235 150.785 169.211C150.785 167.891 150.02 167.848 149.637 167.991C149.183 167.202 148.388 165.652 148.848 165.767C149.099 165.829 149.5 166.345 149.909 166.869C150.436 167.544 150.973 168.234 151.216 167.991C151.37 167.991 151.56 167.936 151.771 167.875C152.15 167.766 152.595 167.638 153.01 167.776C153.549 167.956 154.089 168.636 154.001 169.274C154.256 168.169 153.684 166.211 151.575 163.398C149.68 160.872 149.924 158.758 150.283 158.016L151.79 156.725L149.637 155.433C149.828 154.978 149.867 153.983 148.489 153.639C147.111 153.294 147.245 152.251 147.484 151.773C147.412 150.984 147.082 149.433 146.336 149.548C146.336 148.831 142.246 144.525 139.662 144.955C137.595 145.3 138.036 144.286 138.514 143.735C138.49 143.137 138.141 141.884 136.935 141.654C135.73 141.425 135.763 138.162 135.93 136.559C135.954 136.2 135.873 135.354 135.356 134.837C134.84 134.32 134.758 133.521 134.782 133.186C134.83 131.99 134.725 129.57 133.921 129.455C133.117 129.34 133.586 128.546 133.921 128.163C133.945 127.948 133.921 127.302 133.634 126.441C133.347 125.58 133.706 125.412 133.921 125.436C134.065 124.647 134.208 123.097 133.634 123.211C133.802 123.164 134.036 122.967 133.634 122.566C133.634 121.991 133.419 120.628 132.558 120.7C131.869 120.757 131.744 120.58 131.768 120.484C131.936 120.293 132.055 119.925 131.194 119.982C130.333 120.04 130.453 119.575 130.62 119.336C130.405 118.595 129.759 116.882 128.898 115.963C128.165 115.657 127.146 116.978 126.364 117.99C125.863 118.639 125.46 119.161 125.292 119.049C124.861 118.762 123.856 119.336 124.574 119.982C125.148 120.499 125.292 122.924 125.292 124.073C124.646 124.12 123.354 124.388 123.354 125.077C123.412 126.57 122.469 126.178 121.991 125.795C121.464 126.225 120.311 127.101 119.91 127.158C119.508 127.216 119.216 128.33 119.12 128.881C117.828 129.861 115.202 131.895 115.03 132.182C114.857 132.469 114.097 132.301 113.738 132.182L113.469 133.617C113.684 133.832 113.612 134.406 113.182 134.406C112.751 134.406 111.747 134.406 111.531 134.119C111.316 133.832 108.948 134.406 110.24 134.837C111.273 135.181 110.287 135.268 109.665 135.268C109.522 134.98 109.12 134.607 108.661 135.411C108.087 136.416 107.441 137.923 107.728 138.066C107.957 138.181 107.202 138.545 106.795 138.712C106.029 140.004 104.556 142.645 104.786 142.874C104.891 142.98 104.783 143.066 104.654 143.169C104.433 143.345 104.151 143.569 104.786 144.023C105.589 144.597 106.651 146.75 107.082 147.754C106.962 148.352 106.824 149.563 107.225 149.62C107.369 149.979 108.015 151.342 108.589 151.271C109.048 151.213 109.354 150.385 109.45 149.979C109.546 150.577 109.622 151.773 109.163 151.773C108.704 151.773 108.828 152.969 108.948 153.567C109.354 153.639 110.096 153.911 109.809 154.428C109.45 155.074 110.598 153.926 110.455 153.567C110.4 153.429 110.6 153.216 110.854 152.946C111.261 152.513 111.807 151.933 111.675 151.271C111.503 150.409 111.938 150.816 112.177 151.127C112.129 151.677 112.177 152.749 112.751 152.634C113.237 152.537 113.46 152.177 113.597 151.954C113.663 151.848 113.709 151.773 113.756 151.773C113.899 151.773 114.545 151.988 114.545 152.778C114.545 153.042 114.626 153.234 114.695 153.399C114.833 153.727 114.926 153.951 114.258 154.428C113.254 155.146 112.679 155.648 113.038 156.15C113.237 156.429 113.517 156.402 113.734 156.303C113.818 156.245 113.899 156.194 113.971 156.15C113.913 156.202 113.829 156.259 113.734 156.303C113.262 156.625 112.697 157.127 113.038 157.37C113.202 157.487 112.909 157.497 112.477 157.513C111.582 157.544 110.088 157.597 110.814 158.662C111.675 159.925 111.077 160.624 110.67 160.815C110.718 161.437 111.129 162.638 112.392 162.465C110.613 163.327 109.594 165.36 109.307 166.269L110.024 168.924C109.594 169.187 108.661 169.685 108.374 169.57C108.015 169.426 107.225 169.857 107.8 170.646C108.374 171.436 108.804 172.871 108.732 173.158L110.455 174.88C110.024 175.287 109.292 176.172 109.809 176.459C110.455 176.818 110.885 178.971 110.67 179.401C110.498 179.746 111.747 179.928 112.392 179.976C112.596 181.028 112.633 182.76 111.155 181.267C109.676 179.775 108.302 180.645 107.8 181.267C107.124 181.794 105.93 183.176 106.562 184.497C106.631 184.497 106.702 184.495 106.772 184.493C106.826 184.492 106.881 184.49 106.935 184.488H106.937C107.677 184.461 108.374 184.437 108.374 185.358C108.374 186.219 107.309 187.2 106.777 187.582C106.239 187.75 105.302 188.3 105.862 189.161C106.232 189.73 106.752 189.657 107.161 189.6C107.525 189.549 107.8 189.511 107.8 189.951C107.8 190.697 106.305 191.17 105.557 191.314C105.031 191.553 104.136 192.233 104.768 193.036C105.399 193.84 106.705 194.519 107.279 194.759C107.519 195.404 107.753 196.682 106.777 196.624C105.557 196.553 104.947 202.007 105.862 203.155C106.594 204.073 107.841 204.112 108.374 204.016C109.02 204.279 110.168 205.021 109.594 205.882C109.02 206.743 110.395 206.432 111.155 206.169C110.347 208.011 109.063 211.752 110.383 211.982C110.55 211.862 110.885 211.58 110.885 211.407C110.885 211.312 111.126 211.145 111.388 210.965C111.714 210.739 112.073 210.491 112.034 210.331C111.998 210.19 112.414 209.91 112.846 209.619C113.292 209.319 113.756 209.006 113.756 208.824C113.756 208.653 114.067 208.645 114.4 208.637C114.764 208.628 115.154 208.618 115.191 208.393C115.263 207.963 115.263 209.255 114.689 209.039C114.115 208.824 112.536 210.475 112.392 210.69C112.341 210.767 112.336 210.835 112.33 210.908C112.32 211.036 112.309 211.178 112.034 211.407C111.603 211.766 110.67 213.13 110.598 213.56C110.541 213.905 109.905 214.087 109.594 214.134C108.948 214.182 107.469 214.579 106.723 215.785C105.977 215.498 105.695 216.527 105.647 217.077C105.503 217.412 105.173 217.981 105.001 217.579C104.829 217.177 104.786 219.182 104.786 220.234C103.231 219.995 99.9918 219.66 99.4751 220.234C99.2478 219.052 97.9544 219.022 96.7634 218.995C96.0747 218.979 95.4202 218.964 95.0259 218.727C93.9494 218.081 93.4471 217.866 92.873 218.297C92.6249 218.483 91.6128 218.387 90.5029 218.283C89.0445 218.145 87.4172 217.992 87.132 218.44C86.7301 219.072 87.0602 219.373 87.2755 219.445H86.4144C86.7493 219.971 87.3186 221.081 86.9167 221.311C86.7174 221.425 86.5293 221.719 86.3346 222.024C86.0387 222.488 85.7275 222.976 85.3379 222.889C85.227 222.865 85.0355 222.808 84.7992 222.739C83.6602 222.403 81.4795 221.76 82.2522 222.889C81.5632 223.291 81.4388 224.205 81.4628 224.612C81.3671 225.688 81.0896 227.812 80.7451 227.698C80.3146 227.554 79.5252 228.128 79.5252 228.702C79.5252 229.161 78.5205 229.372 78.0182 229.42C77.9942 229.803 77.8029 230.669 77.2288 231.07C76.6547 231.472 75.5065 231.238 75.0042 231.07C75.0042 231.525 75.1477 232.491 75.7218 232.721C76.2959 232.951 75.1477 232.625 74.5018 232.434C74.4655 232.23 74.4363 231.918 74.49 231.744L74.4676 231.745L74.4253 231.747L74.4234 231.747L74.4136 231.748L74.4071 231.748C73.9656 231.767 73.2819 231.796 73.2819 232.147C73.2819 232.194 73.2824 232.248 73.2829 232.306C73.2888 232.95 73.3001 234.174 72.7078 234.371C72.6081 234.405 72.481 234.44 72.34 234.478C71.5678 234.691 70.3786 235.018 70.9855 235.807C71.3575 236.29 71.1316 236.369 70.5177 236.583C69.9475 236.781 69.0427 237.096 67.9714 237.96C67.0529 237.5 66.6797 238.534 66.6079 239.108C66.297 239.012 65.6033 238.706 65.3162 238.247C65.0292 237.787 64.6704 238.294 64.5268 238.605C63.6418 238.773 61.8716 239.337 61.8716 240.256C61.8716 241.175 61.6803 241.643 61.5846 241.763Z" fill="#EAEAEA"/>
<path d="M127.606 233.51C127.75 232.912 128.639 232.132 131.051 233.797C133.462 235.462 132.055 235.448 131.051 235.233C130.811 235.615 130.405 236.424 130.692 236.596C131.051 236.811 128.969 237.314 128.682 236.955C128.453 236.668 126.769 235.448 125.955 234.874C125.788 234.754 125.353 234.587 124.951 234.874C124.448 235.233 126.099 233.51 127.606 233.51Z" fill="#EAEAEA"/>
<path fill-rule="evenodd" clip-rule="evenodd" d="M78.8793 96.3005C78.8927 96.2737 78.8861 96.2845 78.8566 96.3207C78.8682 96.3141 78.8759 96.3074 78.8793 96.3005Z" fill="#F19832"/>
<path fill-rule="evenodd" clip-rule="evenodd" d="M58.0682 124.144C57.948 124.224 57.9148 124.213 57.9459 124.14C57.9885 124.14 58.0294 124.142 58.0682 124.144ZM40.4864 132.325C40.1274 132.408 40.3529 132.332 40.7906 132.19C40.7053 132.251 40.6047 132.298 40.4864 132.325ZM61.2813 124.638C61.2818 124.784 61.4337 124.704 61.5846 124.575C61.4954 124.595 61.3926 124.617 61.2813 124.638ZM76.4974 131.399C76.5022 131.421 76.5068 131.443 76.5112 131.464C76.4747 131.391 76.4538 131.324 76.4749 131.3C76.4829 131.334 76.4904 131.367 76.4974 131.399ZM29.5068 139.789C29.5258 139.712 29.5357 139.609 29.5251 139.491C29.5037 139.606 29.5002 139.71 29.5068 139.789ZM11.2967 180.791C11.2967 180.791 11.2143 180.822 11.081 180.862C11.1219 180.866 11.1641 180.858 11.2073 180.837C11.2693 180.806 11.2967 180.791 11.2967 180.791Z" fill="#F19832"/>
<path fill-rule="evenodd" clip-rule="evenodd" d="M75.6276 53.2644C75.7703 53.3156 75.9088 53.3916 76.0088 53.4584C75.9102 53.4255 75.7633 53.3594 75.6276 53.2644Z" fill="#E65052"/>
<path fill-rule="evenodd" clip-rule="evenodd" d="M148.417 11.9797C148.361 11.9983 148.4 11.9973 148.49 11.9849C148.462 11.9753 148.437 11.973 148.417 11.9797Z" fill="#E65052"/>
<path d="M127.606 266.5H132.5L153 256C153.299 256.354 148.783 260.218 148.5 265C148.221 269.69 147.851 271.301 147.5 271.5C147.149 271.698 139.333 272.918 134.065 274C131.953 274.434 129.933 278.643 127.606 280C123.962 282.124 120.294 281.552 119.927 281.5L121.5 272.5L127.606 266.5Z" fill="#750788"/>
<path d="M103 262L115 250.5L118.851 252L125 247.5C125.296 247.968 114.71 269.358 114 270C113.625 270.339 110.195 273.667 107.5 271.5C105.087 269.561 103.384 262.126 103 262Z" fill="#C389CE"/>
<path d="M111.32 236.404C111.418 234.686 107.734 232.377 105.862 231.429C105.455 231.357 104.585 231.314 104.355 231.716C104.209 231.971 103.898 231.912 103.56 231.848C103.232 231.786 102.88 231.719 102.633 231.932C102.231 232.276 101.556 232.075 101.269 231.932L99.9057 232.147C99.7383 232.458 99.1881 233.108 98.3269 233.223C97.4658 233.338 97.0591 232.553 96.9634 232.147V233.582C96.1023 233.812 95.7913 235.783 95.7435 236.74C95.2651 236.764 94.4087 236.926 94.8106 237.385C95.1268 237.747 95.1871 237.739 95.3316 237.719C95.4166 237.707 95.5308 237.691 95.7435 237.744C96.2028 237.859 95.5521 238.366 95.1694 238.605V239.108H94.3082C94.4518 239.395 94.6527 239.926 94.3082 239.754C93.9638 239.581 93.3514 240.017 93.0883 240.256V241.835C92.9448 242.002 92.5429 242.28 92.0836 242.05C91.6243 241.82 90.9354 241.811 90.6484 241.835L88.7108 239.108C88.3759 239.203 87.6056 239.395 87.2038 239.395C86.8019 239.395 86.5579 238.629 86.4861 238.247C86.1273 238.247 85.2949 238.318 84.8356 238.605C84.3763 238.892 84.3572 238.294 84.405 237.96C84.1897 237.84 83.6156 237.558 83.0415 237.385C82.4675 237.213 81.6541 237.696 81.3193 237.96H78.0182V237.385H76.87V237.96L76.2241 238.247C76.2465 238.386 76.2824 238.523 76.3159 238.652C76.4259 239.072 76.5105 239.395 76.0088 239.395C74.5219 239.395 73.9897 239.744 73.2405 240.236L73.2101 240.256L72.5642 241.189C72.325 241.117 71.7748 241.06 71.4878 241.404C71.2198 241.726 71.152 241.767 70.9555 241.887C70.8889 241.928 70.8074 241.977 70.6984 242.05C71.617 241.935 71.6074 242.624 71.4878 242.983L70.6984 243.916H70.0525L68.9761 244.992C68.6891 244.753 68.1437 244.117 68.2585 243.485C68.3733 242.854 67.6365 242.074 67.2538 241.763C66.9907 241.5 66.163 240.974 64.9574 240.974C64.3259 242.466 62.4457 242.122 61.5846 241.763C61.6803 241.643 61.8716 241.175 61.8716 240.256C61.8716 239.337 63.6418 238.773 64.5268 238.605C64.6704 238.294 65.0292 237.787 65.3162 238.247C65.6033 238.706 66.297 239.012 66.6079 239.108C66.6797 238.534 67.0529 237.5 67.9714 237.96C69.0427 237.096 69.9475 236.781 70.5177 236.583C71.1316 236.369 71.3575 236.29 70.9855 235.807C70.3786 235.018 71.5678 234.691 72.34 234.478C72.481 234.44 72.6081 234.405 72.7078 234.371C73.3001 234.174 73.2888 232.95 73.2829 232.306C73.2824 232.248 73.2819 232.194 73.2819 232.147C73.2819 231.796 73.9656 231.767 74.4071 231.748L74.4136 231.748M111.32 236.404C111.319 236.42 111.318 236.436 111.316 236.453M111.32 236.404C111.466 234.582 111.826 234.3 112.751 234.3C113.074 234.3 113.94 234.575 114.922 234.888C116.774 235.477 119.039 236.198 118.851 235.448C118.865 235.408 118.879 235.37 118.893 235.332C119.224 234.409 119.374 233.993 118.133 233.51C117.734 233.355 117.493 233.28 117.357 233.254M117.357 233.254C117.139 233.213 117.184 233.293 117.272 233.367L117.357 233.254ZM117.357 233.254L117.918 232.506L119.282 233.367L119.497 233.797L119.927 233.008H121.506C122.846 232.912 125.41 232.879 124.951 233.51C124.492 234.142 125.286 233.391 125.74 232.936C126.617 232.585 128.311 231.961 128.631 232.036M128.631 232.036C128.672 232.094 128.692 232.111 128.682 232.075C128.681 232.067 128.676 232.061 128.67 232.055C128.661 232.047 128.648 232.041 128.631 232.036ZM128.631 232.036C128.411 231.727 127.567 230.246 127.104 229.42C128.802 230.879 132.572 233.625 134.065 232.936C135.557 232.247 134.352 232.075 133.562 232.075L132.916 230.927C133.897 231.166 135.801 231.774 135.572 232.29C135.342 232.807 134.902 232.984 134.711 233.008L136.72 234.228V233.367C138.107 233.08 141.27 232.606 142.82 233.008C143.803 233.263 143.825 233.13 143.852 232.965C143.879 232.805 143.91 232.615 144.829 232.721C146.322 232.893 150.379 234.276 152.221 234.946C152.795 234.635 153.943 233.883 153.943 233.367C153.943 233.066 154.848 232.998 155.837 232.925C156.967 232.842 158.205 232.75 158.32 232.29C158.493 231.601 159.827 230.999 160.473 230.783C161.143 231.142 162.54 231.802 162.77 231.573C162.999 231.343 163.057 230.233 163.057 229.707L164.707 227.913C165.066 228.009 165.855 228.142 166.142 227.913C166.429 227.683 167.697 227.1 168.295 226.836C169.061 226.286 170.333 224.712 169.3 222.818C169.3 222.244 169.778 222.196 170.018 222.244C170.257 221.717 170.491 220.665 169.515 220.665C168.539 220.665 163.607 221 161.263 221.167C162.578 221.024 164.506 220.507 161.693 219.588C158.88 218.67 159.708 220.067 160.473 220.88C159.971 220.497 158.722 219.804 157.746 220.091C157.612 219.856 157.902 219.762 158.299 219.633C158.752 219.487 159.345 219.296 159.612 218.799C160.014 218.053 157.531 218.01 156.239 218.081L155.306 218.512L156.239 217.436C157.005 217.459 158.564 217.45 158.679 217.22C158.717 217.145 158.999 217.134 159.407 217.118C160.548 217.074 162.672 216.993 163.2 215.354C163.918 213.13 163.774 212.34 162.913 212.34C162.612 212.34 162.363 212.508 162.099 212.685C161.61 213.014 161.069 213.377 160.043 212.771C158.78 212.025 160.33 212.173 161.263 212.34C161.789 212.364 162.755 212.254 162.411 211.623C162.066 210.991 163.272 210.498 163.918 210.331C164.444 211.168 165.855 212.441 167.291 210.833C168.726 209.226 167.889 209.159 167.291 209.326C167.813 208.736 168.702 207.532 168.299 207.216M168.299 207.216C168.277 207.199 168.252 207.185 168.224 207.173C168.245 207.188 168.27 207.202 168.299 207.216ZM168.299 207.216C168.859 207.492 170.793 207.763 170.52 206.671C170.233 205.523 172.888 204.805 172.96 205.021C173.032 205.236 174.682 200.715 173.678 200.571C174.323 199.782 175.586 197.859 175.472 196.481C176.333 196.251 175.83 195.189 175.472 194.687C175.663 193.012 175.615 189.463 173.893 188.659C173.721 187.568 172.577 187.2 172.027 187.152C170.783 185.98 167.664 183.707 165.138 183.994C166.142 184.568 163.703 184.568 163.559 183.994C163.415 183.42 158.105 183.42 158.105 184.425C158.105 185.229 157.005 186.913 156.455 187.654C156.191 187.511 155.55 187.267 155.091 187.439C154.903 187.509 154.7 187.196 154.429 186.777C153.871 185.916 153.025 184.61 151.431 185.286C151.689 185.065 151.967 184.867 152.231 184.678C152.996 184.133 153.654 183.664 153.44 182.918C153.254 182.265 154.341 181.854 155.204 181.528C155.668 181.353 156.067 181.203 156.167 181.052C156.454 180.621 156.885 174.378 154.589 172.799C154.991 171.536 153.847 171.316 153.225 171.364C152.531 170.24 151.072 168.235 150.785 169.211C150.785 167.891 150.02 167.848 149.637 167.991C149.183 167.202 148.388 165.652 148.848 165.767C149.099 165.829 149.5 166.345 149.909 166.869C150.436 167.544 150.973 168.234 151.216 167.991C151.37 167.991 151.56 167.936 151.771 167.875C152.15 167.766 152.595 167.638 153.01 167.776C153.549 167.956 154.089 168.636 154.001 169.274M154.001 169.274C153.984 169.399 153.942 169.524 153.871 169.642C153.926 169.532 153.97 169.409 154.001 169.274ZM154.001 169.274C154.256 168.169 153.684 166.211 151.575 163.398C149.68 160.872 149.924 158.758 150.283 158.016L151.79 156.725L149.637 155.433C149.828 154.978 149.867 153.983 148.489 153.639C147.111 153.294 147.245 152.251 147.484 151.773C147.412 150.984 147.082 149.433 146.336 149.548C146.336 148.831 142.246 144.525 139.662 144.955C137.595 145.3 138.036 144.286 138.514 143.735C138.49 143.137 138.141 141.884 136.935 141.654C135.73 141.425 135.763 138.162 135.93 136.559C135.954 136.2 135.873 135.354 135.356 134.837C134.84 134.32 134.758 133.521 134.782 133.186C134.83 131.99 134.725 129.57 133.921 129.455C133.117 129.34 133.586 128.546 133.921 128.163C133.945 127.948 133.921 127.302 133.634 126.441C133.347 125.58 133.706 125.412 133.921 125.436C134.065 124.647 134.208 123.097 133.634 123.211C133.802 123.164 134.036 122.967 133.634 122.566C133.634 121.991 133.419 120.628 132.558 120.7C131.869 120.757 131.744 120.58 131.768 120.484C131.936 120.293 132.055 119.925 131.194 119.982C130.333 120.04 130.453 119.575 130.62 119.336C130.405 118.595 129.759 116.882 128.898 115.963M128.898 115.963C128.73 115.365 128.309 114.126 127.965 113.954C127.534 113.739 127.893 113.236 127.032 112.878C126.171 112.519 125.884 112.304 125.023 112.232C124.334 112.174 124.592 111.969 124.807 111.873C124.448 111.395 123.444 110.466 122.296 110.581C122.296 110.007 120.143 107.424 117.99 110.151C116.268 112.332 115.693 111.921 115.622 111.442C115.143 111.012 113.928 110.151 112.895 110.151C111.861 110.151 112.081 110.007 112.321 109.935C111.364 109.481 109.249 108.615 108.445 108.787C107.441 109.002 108.732 107.783 107.513 108.285C106.881 107.596 106.675 106.897 106.651 106.634C107.273 107.256 108.718 108.457 109.522 108.285C110.326 108.113 110.67 108.548 110.742 108.787C111.196 109.05 112.321 109.419 113.182 108.787C114.043 108.156 114.641 108.381 114.832 108.572C115.072 108.213 115.478 107.452 115.191 107.28C114.904 107.108 115.55 107.208 115.909 107.28C116.602 106.778 117.918 105.716 117.631 105.486C117.344 105.257 118.229 105.39 118.707 105.486C119.162 105.965 120.143 106.634 120.43 105.486C121.291 105.486 122.439 105.127 122.798 104.338C123.085 103.706 121.147 102.783 120.143 102.4C120.43 101.946 120.832 100.879 120.143 100.247C119.454 99.616 116.124 100.798 114.545 101.467C115 100.822 116.081 99.4868 116.77 99.3146C117.459 99.1423 119.784 99.4342 120.86 99.6016C121.529 99.7449 121.698 99.5314 121.865 98.9558C122.176 99.0275 122.798 98.9701 122.798 98.1664C123.444 97.8793 124.305 97.664 124.807 96.5158C125.209 95.5973 125.07 95.4155 124.951 95.4394C125.19 95.1523 125.625 94.4491 125.453 93.9324C125.281 93.4157 126.051 93.1908 126.458 93.143C126.649 93.0712 127.089 92.8129 127.319 92.3536C127.549 91.8943 128.371 91.3489 128.754 91.1336C128.682 90.8944 128.654 90.3873 129.113 90.2725C129.572 90.1577 129.304 89.22 129.113 88.7655C129.831 87.9283 131.266 86.0959 131.266 85.4644C131.266 84.8329 131.505 83.5268 131.625 82.9527C132.079 82.2112 133.117 80.5989 133.634 80.0822C134.28 79.4364 134.495 79.7234 134.639 78.7187C134.754 77.915 135.117 77.9533 135.285 78.0729C135.452 77.14 135.643 75.0589 135.069 74.1977C134.495 73.3366 134.16 73.217 134.065 73.2648C134.136 73.1213 134.093 72.8055 133.347 72.6907C132.601 72.5759 132.797 72.308 132.988 72.1884C132.462 72.0687 131.338 71.9444 131.051 72.4036C130.764 72.8629 130.261 72.595 130.046 72.4036C129.831 72.1166 129.343 71.7147 129.113 72.4036C128.883 73.0926 128.395 72.6907 128.18 72.4036C127.941 72.1644 127.319 71.7865 126.745 72.1884C126.171 72.5902 125.74 72.1166 125.597 71.8295C125.19 71.7099 124.262 71.4851 123.803 71.5425C123.343 71.5999 123.276 71.3751 123.3 71.2554C122.607 71.0402 121.133 70.7675 120.789 71.399C120.444 72.0305 119.784 71.7578 119.497 71.5425C118.899 71.2554 117.66 70.5809 117.488 70.179C117.315 69.7771 115.454 70.0116 114.545 70.179C114.593 70.5378 114.531 71.2267 113.899 71.1119C113.11 70.9684 111.101 71.1119 110.24 72.1884C109.378 73.2648 109.881 71.6143 107.297 72.1884C107.297 72.6189 107.943 72.906 106.938 73.2648C105.934 73.6236 105.073 73.3365 105.216 72.7625C105.304 72.4117 105.565 72.4851 105.768 72.6246M128.898 115.963C128.165 115.657 127.146 116.978 126.364 117.99C125.863 118.639 125.46 119.161 125.292 119.049C124.861 118.762 123.856 119.336 124.574 119.982C125.148 120.499 125.292 122.924 125.292 124.073C124.646 124.12 123.354 124.388 123.354 125.077C123.412 126.57 122.469 126.178 121.991 125.795C121.464 126.225 120.311 127.101 119.91 127.158C119.508 127.216 119.216 128.33 119.12 128.881C117.828 129.861 115.202 131.895 115.03 132.182C114.857 132.469 114.097 132.301 113.738 132.182L113.469 133.617M105.768 72.6246C105.831 72.6677 105.889 72.7172 105.934 72.7625C105.878 72.7279 105.817 72.6797 105.768 72.6246ZM105.768 72.6246C105.648 72.4889 105.607 72.3108 105.934 72.1884C106.508 71.9731 107.082 72.1166 106.938 71.5425C106.795 70.9684 108.517 71.1119 108.374 70.4661C108.23 69.8202 107.943 70.179 107.082 70.3225C106.221 70.4661 106.293 69.5331 104.786 70.179C103.58 70.6957 103.087 71.3033 102.992 71.5425C103.063 71.088 103.523 70.0785 104.786 69.6767C106.364 69.1743 106.651 70.0355 107.082 69.0308C107.426 68.2271 108.087 68.6959 108.374 69.0308C108.302 69.4853 108.345 70.2077 109.091 69.4614C110.024 68.5285 111.962 66.5191 111.603 66.2321C111.316 66.0024 110.335 66.7105 109.881 67.0932C109.809 66.7344 109.407 66.146 108.374 66.6626C107.34 67.1793 106.986 66.7344 106.938 66.4474C106.747 66.1125 106.135 65.4857 105.216 65.658C104.298 65.8302 104.403 64.9164 104.57 64.438C104.786 64.9164 105.474 65.7584 106.508 65.2992C107.541 64.8399 107.465 65.7297 107.297 66.2321C107.417 65.945 107.771 65.3996 108.23 65.5145C108.804 65.658 109.091 65.8015 109.091 64.6533C109.091 63.7347 108.517 63.84 108.23 64.0074V63.3616C108.517 63.6008 109.206 63.9787 109.665 63.5769C110.125 63.175 110.766 63.0745 111.029 63.0745C111.22 62.8353 111.603 62.2708 111.603 61.9263C111.603 61.4958 113.612 61.4958 115.335 59.9887C117.057 58.4817 116.913 58.2664 116.842 58.0512C116.77 57.8359 119.425 56.903 119.784 56.9747C120.143 57.0465 122.009 53.2431 121.291 52.0231C122.152 50.9467 122.798 49.5114 122.726 49.1526C122.654 48.7938 121.721 49.3679 121.506 49.1526C121.291 48.9373 119.999 48.435 119.497 48.7938C119.095 49.0809 118.899 48.5785 118.851 48.2915C118.564 48.1719 118.105 48.2915 118.564 49.7267C117.775 49.5114 116.985 49.3679 116.483 49.7267C116.081 50.0138 116.22 49.3679 116.339 49.0091C115.789 48.8895 114.517 48.8656 113.828 49.7267C113.139 50.5879 111.579 49.9898 110.885 49.5832C110.766 49.2005 110.44 48.6646 110.096 49.5832C109.752 50.5017 109.522 50.0616 109.45 49.7267C109.283 49.5832 108.876 49.4253 108.589 49.942C108.302 50.4587 107.991 50.3487 107.871 50.229C107.584 49.7267 106.623 49.2531 105.073 51.3772C103.523 53.5014 104.809 51.162 105.647 49.7267C105.407 48.8656 104.628 47.66 103.422 49.7267C102.618 49.8989 101.891 50.8031 101.628 51.2337C101.724 50.7792 102.001 49.8415 102.346 49.7267C102.776 49.5832 103.063 48.6503 101.843 47.7891C101.341 48.7938 101.556 49.5832 101.126 49.5832C100.695 49.5832 101.915 47.2868 100.049 46.9997C98.5566 46.7701 98.5183 47.9566 98.6857 48.5785C98.2552 48.6981 97.4084 49.0665 97.4658 49.5832C97.5232 50.0999 98.016 50.5639 98.2552 50.7314C97.7528 50.7792 96.9635 51.0184 97.8246 51.5925C98.6857 52.1666 97.7528 52.0231 97.1787 51.8796C96.6764 51.8317 95.9731 52.3963 97.1787 55.0371C95.9588 55.4677 95.7435 54.1042 94.4518 55.0371C93.7628 54.0612 93.2557 54.6305 93.0883 55.0371C93.3514 55.6591 93.9925 56.9747 94.4518 57.2618C94.911 57.5488 94.4039 57.7641 94.0929 57.8359C93.9733 57.9794 93.8059 58.3956 94.0929 58.9123C94.38 59.429 93.3036 59.1276 92.7295 58.9123C92.3707 58.5296 91.8683 58.1803 92.7295 59.8452C93.8059 61.9263 93.8059 61.711 93.9494 61.2805C94.093 60.8499 94.9541 62.2134 94.4518 62.4287C93.9494 62.6439 96.4611 64.0792 95.8153 64.7251C95.1694 65.3709 94.38 62.4287 93.3753 62.7157C93.2079 62.4287 92.7582 61.8833 92.2989 61.9981C91.8396 62.1129 93.2079 63.4333 93.9494 64.0792C93.4232 63.9118 92.2271 63.3472 91.653 62.4287C91.0789 61.5101 91.0789 62.7157 91.1507 63.4333C90.8158 63.3377 90.146 62.9597 90.146 62.2134C90.146 61.2805 88.352 61.8546 88.7825 62.2134C88.9261 62.8592 88.7825 63.1463 89.3566 63.7204C89.9307 64.2945 89.0696 65.4427 88.9261 65.2992C88.7825 65.1556 88.4237 64.438 88.4237 63.4333C88.4237 62.4287 86.7014 62.5722 86.7732 63.4333C86.8449 64.2945 86.4861 65.2992 86.6297 65.5145C86.7445 65.6867 87.2516 65.9689 87.4908 66.0885C87.73 66.3756 88.1367 66.9497 87.8496 66.9497C87.4908 66.9497 87.0602 66.0885 86.6297 66.6626C86.1991 67.2367 85.6968 67.8108 86.3426 68.0261C86.8593 68.1984 86.8449 68.5763 86.7732 68.7438C86.8928 69.2939 87.2038 70.3799 87.4908 70.3225C87.8496 70.2508 89.3566 70.1072 89.3566 70.8249C89.3566 71.399 88.1128 71.2554 87.4908 71.1119C87.0124 70.5139 86.0125 69.3179 85.8403 69.3179C85.625 69.3179 84.5486 71.6143 84.8356 72.3319C85.1227 73.0495 84.7638 74.5565 85.5532 74.7C86.1847 74.8149 87.1081 73.9346 87.4908 73.4801C87.6104 73.791 87.8496 74.4704 87.8496 74.7C87.8496 74.9871 89.3566 73.4801 89.5719 73.6236C89.7872 73.7671 89.3566 74.7718 88.4237 74.9153C87.4908 75.0588 86.7014 74.3412 86.1273 75.5612C85.668 76.5372 86.2708 76.4462 86.6297 76.2788C87.1081 76.6137 88.2371 77.0251 88.9261 75.9918C89.7243 74.7943 89.4743 76.0635 89.4907 76.1981M89.4907 76.1981C89.492 76.2087 89.4949 76.2123 89.5002 76.207C89.5105 76.1967 89.506 76.1938 89.4907 76.1981ZM89.4907 76.1981C89.3996 76.2237 88.9261 76.5048 88.9261 76.9964C88.9261 77.4557 89.4523 77.8097 89.7154 77.9293C89.5719 78.0968 89.2131 78.3312 88.9261 77.9293C88.5672 77.427 87.5626 76.207 86.7732 78.1446C86.1273 78.5034 85.7685 79.6516 86.6297 79.7234C87.3186 79.7808 87.4908 80.2736 87.4908 80.5128C87.9932 80.441 89.0696 80.3406 89.3566 80.5128C89.7154 80.7281 87.7779 80.9434 87.4908 80.7998C87.2038 80.6563 86.0556 79.2928 84.9791 80.5128C84.118 81.4888 84.8595 81.7806 85.3379 81.8045C85.4097 82.3308 85.7255 83.3259 86.4144 83.0962C87.1033 82.8666 87.4191 83.0962 87.4908 83.2398C87.0602 83.4311 86.113 83.7564 85.7685 83.5268C85.3379 83.2398 84.2615 80.7281 83.1851 83.6703C82.1086 86.6126 82.8263 84.675 84.1897 85.0338C83.386 85.6653 83.7592 85.9667 84.0462 86.0385C84.3093 85.895 84.9074 85.651 85.1944 85.8232C85.5532 86.0385 83.8309 86.3973 83.1851 86.3973C82.5392 86.3973 82.7545 87.1149 83.4004 87.402C84.0462 87.689 81.391 87.1867 82.3957 87.9761C83.1994 88.6076 82.0608 87.8565 81.391 87.402C81.104 87.3781 80.5299 87.4163 80.5299 87.7608C80.5299 88.1053 79.9079 87.9043 79.5969 87.7608C79.1903 87.5933 78.3339 87.402 78.1617 87.9761C77.9895 88.5502 77.6594 88.3588 77.5158 88.1914C77.6115 88.6459 77.9608 89.4831 78.5923 89.196C79.2238 88.909 79.4295 89.0764 79.4534 89.196C79.8362 89.3874 80.6303 89.7127 80.7451 89.4831C80.86 89.2534 81.2236 89.5788 81.391 89.7701C81.5824 89.8658 82.0512 89.9998 82.3957 89.7701C82.8263 89.4831 82.1804 90.3442 81.9651 90.416C81.7498 90.4878 80.6016 89.6266 80.1711 90.703C79.8266 91.5642 81.6063 92.6885 82.5392 93.143C82.6827 93.4539 83.0559 94.0328 83.4004 93.8606C83.7448 93.6884 83.7831 94.0759 83.7592 94.2912C84.6921 93.8845 86.6153 92.8703 86.8449 92.0665C87.0746 91.2628 87.4669 91.3011 87.6343 91.4207C88.1127 91.1815 89.0839 90.6456 89.1413 90.416C89.2131 90.129 90.2896 90.2725 90.4331 90.416C90.5766 90.5595 91.9401 90.8466 90.3613 90.7748C88.7825 90.7031 88.7108 91.5642 88.9978 91.636C89.2275 91.6934 88.8065 92.0426 88.5672 92.2101C88.1606 92.4253 87.4047 93.0569 87.6343 93.8606C87.9214 94.8653 87.4908 94.0759 89.4284 93.8606C90.9785 93.6884 89.1653 94.2194 88.0649 94.5065C87.5147 94.5782 86.7014 94.9083 87.8496 95.6547C88.9978 96.401 90.0025 95.9656 90.3613 95.6547C90.2417 95.9895 89.8303 96.6306 89.1413 96.5158C88.2802 96.3723 86.6297 95.3676 86.1273 96.7311C85.3236 97.3626 85.2662 97.7597 85.3379 97.8793C84.7399 98.4773 83.6731 99.7595 84.1897 100.104C84.8787 99.8743 85.3379 100.008 85.4815 100.104C85.2422 100.319 84.7064 100.721 84.4768 100.606C84.2472 100.491 84.2854 100.989 84.3333 101.252L83.6156 102.616C83.7831 102.376 84.2185 101.869 84.6203 101.754C85.0222 101.64 84.6921 102.281 84.4768 102.616C84.2376 102.855 83.874 103.434 84.3333 103.836C83.2568 103.979 81.2475 105.917 81.7498 106.778C82.3239 105.701 83.1851 105.199 83.4004 105.199C83.6156 105.199 82.1804 107.352 81.9651 107.424C81.7498 107.495 81.6063 108.5 82.1804 108.213C82.6397 107.983 82.9937 107.83 83.1133 107.783C82.2043 108.62 80.7451 110.38 82.1804 110.725C81.9651 111.155 83.1133 111.514 83.1133 110.94C83.1133 110.481 83.6874 110.462 83.9745 110.509C83.0176 111.203 81.2331 112.648 81.7498 112.878C82.2665 113.107 81.5345 113.26 81.104 113.308L80.3146 115.389C80.0275 116.25 79.5395 118.059 79.884 118.403C80.3146 118.834 79.3817 118.69 78.7358 119.264C78.2191 119.724 78.377 121.082 78.5205 121.704C78.8793 121.728 79.6544 121.733 79.884 121.561C80.1136 121.389 80.4103 121.585 80.5299 121.704C81.1518 121.441 82.3096 120.728 81.9651 119.982C81.6206 119.236 81.391 119.001 81.3193 118.977C81.702 118.762 82.4962 118.188 82.611 117.614C82.7258 117.04 82.9937 116.801 83.1133 116.753V115.963C83.3047 115.868 83.63 115.562 83.4004 115.102C83.1707 114.643 83.3047 114.289 83.4004 114.169C83.9505 113.236 85.2088 111.471 85.8403 111.873C86.4718 112.275 85.8163 110.462 85.4097 109.505C85.4815 108.787 85.5102 107.309 85.0509 107.137C84.5916 106.964 84.9552 106.012 85.1944 105.558C85.4336 106.252 86.0412 107.151 86.5579 105.199C87.2038 105.343 89.5002 102.257 89.7154 103.046C89.8877 103.678 89.4523 103.836 89.2131 103.836C88.2084 104.649 86.2708 106.304 86.5579 106.419C86.8449 106.534 86.534 107.376 86.3426 107.783C86.2709 108.093 86.2134 108.773 86.5579 109.002C86.1991 109.361 87.3473 110.294 87.6343 110.509C87.864 110.682 87.6343 109.672 87.4908 109.146L88.0649 107.998C87.9692 108.644 87.864 109.993 88.2084 110.222C88.639 110.509 88.7108 112.591 89.5719 113.021C90.2608 113.366 89.9547 111.395 89.7154 110.366L88.9978 109.146C89.2849 109.194 89.8159 109.089 89.6437 108.285C89.4715 107.481 89.3806 107.089 89.3566 106.993C89.5719 107.232 89.9881 107.768 89.9307 107.998C89.859 108.285 90.0025 110.366 90.5766 109.935C91.0359 109.591 91.2942 109.026 91.366 108.787C91.7726 108.476 92.385 107.711 91.5813 107.137C92.0836 107.424 92.2989 107.639 92.2989 106.419C92.2989 105.443 92.6338 105.773 92.8012 106.06C92.7055 106.754 92.7151 108.07 93.5189 107.783C94.0779 107.583 94.1139 107.395 94.0034 107.267M94.0034 107.267C93.9551 107.21 93.8787 107.166 93.8059 107.137C93.8176 107.144 93.8295 107.152 93.8416 107.16C93.8702 107.178 93.8997 107.198 93.9298 107.218C93.9539 107.234 93.9785 107.25 94.0034 107.267ZM94.0034 107.267C94.8431 107.827 96.1335 108.79 95.8153 109.002C95.3847 109.29 97.4658 109.074 97.3223 109.505C97.2074 109.849 96.1741 109.648 95.6717 109.505L94.0212 108.572C93.3514 108.404 91.9975 108.314 91.9401 109.29C91.8827 110.265 91.9162 112.088 91.9401 112.878C91.5813 113.069 90.878 113.524 90.9354 113.811C90.9928 114.098 91.7726 114.887 92.1554 115.246C92.1075 115.485 92.141 115.963 92.6577 115.963C93.3036 115.963 93.9494 117.399 93.8777 117.47C93.8059 117.542 93.0883 118.332 93.8777 118.403C94.5092 118.461 93.7581 119.863 93.3036 120.556C92.8491 120.652 91.9401 121.059 91.9401 121.92C90.8636 120.772 89.859 124.073 90.6484 123.786C91.2799 123.556 90.2417 124.886 89.6437 125.58C88.8782 125.891 87.4478 126.757 87.8496 127.732C87.0602 128.665 87.132 130.818 87.5626 131.249C87.9932 131.679 86.7732 132.325 86.7732 131.249C86.7732 130.172 86.6297 128.952 85.9838 129.311C85.3379 129.67 85.0509 131.105 85.2662 132.612C85.4384 133.818 86.4861 134.789 86.9885 135.124L87.419 136.272C87.1559 136.775 86.8438 138.425 88.2084 138.425C88.7825 138.425 88.8543 137.994 88.352 136.703C88.2802 136.272 88.0793 135.354 87.8496 135.124C87.5626 134.837 88.8543 132.612 89.7872 133.258C89.7872 133.976 90.5048 134.622 90.7201 134.55C90.9354 134.478 93.16 136.057 92.9448 136.559C92.7725 136.961 93.3036 137.588 93.5906 137.851C93.9016 137.827 94.5235 137.865 94.5235 138.21C94.5235 138.64 95.9588 138.282 95.5282 137.062C95.1837 136.086 95.5282 136.129 95.7435 136.272C95.7913 135.818 95.7291 134.894 95.0976 134.837C94.4661 134.78 95.0259 133.617 95.3847 133.043C95.6957 133.737 96.4611 135.067 97.0352 134.837C97.6093 134.607 97.8964 134.406 97.9681 134.335C97.7528 135.076 97.6524 136.559 98.9728 136.559C98.9728 135.526 99.4512 135.555 99.6904 135.698C99.4991 136.224 99.4608 137.205 100.839 136.918C102.561 136.559 100.48 136.631 102.704 136.057C102.188 135.253 103.398 135.196 104.068 135.268C104.044 135.124 104.097 134.837 104.499 134.837C105.001 134.837 106.436 135.842 106.508 134.119C106.565 132.741 106.723 132.493 106.795 132.541C108.661 133.067 112.608 134.019 113.469 133.617M113.469 133.617C113.684 133.832 113.612 134.406 113.182 134.406C112.751 134.406 111.747 134.406 111.531 134.119C111.316 133.832 108.948 134.406 110.24 134.837C111.273 135.181 110.287 135.268 109.665 135.268C109.522 134.98 109.12 134.607 108.661 135.411C108.087 136.416 107.441 137.923 107.728 138.066C107.957 138.181 107.202 138.545 106.795 138.712C106.029 140.004 104.556 142.645 104.786 142.874C104.891 142.98 104.783 143.066 104.654 143.169C104.433 143.345 104.151 143.569 104.786 144.023C105.589 144.597 106.651 146.75 107.082 147.754C106.962 148.352 106.824 149.563 107.225 149.62C107.369 149.979 108.015 151.342 108.589 151.271C109.048 151.213 109.354 150.385 109.45 149.979C109.546 150.577 109.622 151.773 109.163 151.773C108.704 151.773 108.828 152.969 108.948 153.567C109.354 153.639 110.096 153.911 109.809 154.428C109.45 155.074 110.598 153.926 110.455 153.567C110.4 153.429 110.6 153.216 110.854 152.946C111.261 152.513 111.807 151.933 111.675 151.271C111.503 150.409 111.938 150.816 112.177 151.127C112.129 151.677 112.177 152.749 112.751 152.634C113.237 152.537 113.46 152.177 113.597 151.954C113.663 151.848 113.709 151.773 113.756 151.773C113.899 151.773 114.545 151.988 114.545 152.778C114.545 153.042 114.626 153.234 114.695 153.399C114.833 153.727 114.926 153.951 114.258 154.428C113.254 155.146 112.679 155.648 113.038 156.15C113.237 156.429 113.517 156.402 113.734 156.303M113.734 156.303C113.829 156.259 113.913 156.202 113.971 156.15C113.899 156.194 113.818 156.245 113.734 156.303ZM113.734 156.303C113.262 156.625 112.697 157.127 113.038 157.37C113.202 157.487 112.909 157.497 112.477 157.513C111.582 157.544 110.088 157.597 110.814 158.662C111.675 159.925 111.077 160.624 110.67 160.815C110.718 161.437 111.129 162.638 112.392 162.465C110.613 163.327 109.594 165.36 109.307 166.269L110.024 168.924C109.594 169.187 108.661 169.685 108.374 169.57C108.015 169.426 107.225 169.857 107.8 170.646C108.374 171.436 108.804 172.871 108.732 173.158M108.732 173.158L110.455 174.88C110.024 175.287 109.292 176.172 109.809 176.459C110.455 176.818 110.885 178.971 110.67 179.401C110.498 179.746 111.747 179.928 112.392 179.976C112.596 181.028 112.633 182.76 111.155 181.267C109.676 179.775 108.302 180.645 107.8 181.267C107.124 181.794 105.93 183.176 106.562 184.497C106.631 184.497 106.702 184.495 106.772 184.493M108.732 173.158C108.692 173.321 107.847 172.495 107.082 171.748C106.495 171.174 105.955 170.646 105.862 170.646C105.85 170.646 105.833 170.646 105.811 170.646C105.429 170.641 103.59 170.618 102.776 171.364C102.087 171.996 100.671 171.627 100.049 171.364C99.834 171.149 99.2742 170.661 98.7575 170.431C98.6774 170.396 98.604 170.361 98.5378 170.33C98.0704 170.111 97.9675 170.062 98.4705 171.005C97.4371 170.546 96.2698 171.484 95.8153 172.01C95.4086 172.13 94.5953 172.268 94.5953 171.866C94.5953 171.464 95.3129 170.742 95.6717 170.431C95.1455 170.288 93.9925 170.044 93.5906 170.216C93.3427 170.322 93.287 169.956 93.2252 169.55C93.1618 169.133 93.092 168.673 92.8012 168.637C93.3036 167.991 89.5002 165.48 88.639 168.852C89.1413 168.996 88.2084 169.929 88.1367 169.785C88.0649 169.642 86.7014 168.278 86.7732 169.426C86.8306 170.345 87.3234 170.192 87.5626 170.001C87.6822 170.335 87.9931 171.005 88.2802 171.005C88.5672 171.005 88.7347 171.244 88.7825 171.364C88.9021 171.89 89.2131 172.928 89.5002 172.871C89.7872 172.814 89.9547 172.847 90.0025 172.871C89.9307 173.23 89.9307 173.933 90.5048 173.876C91.0789 173.818 91.5573 174.043 91.7248 174.163C91.2225 174.282 90.3039 174.723 90.6484 175.526C90.9928 176.33 89.0217 177.392 87.9931 177.823C86.9167 178.181 84.6777 179.244 84.3333 180.621C84.1097 181.515 84.273 181.423 84.7427 181.158C85.1779 180.912 85.876 180.518 86.7732 180.621C86.6884 180.961 87.1048 181.15 87.3856 181.277C87.5799 181.365 87.7094 181.424 87.5626 181.483C87.2038 181.626 88.2802 181.841 88.1367 180.621C88.0219 179.645 88.9021 179.401 89.3566 179.401C89.9068 179.401 91.0502 179.344 91.2225 179.114C91.3947 178.885 92.1075 179.019 92.4424 179.114C93.1361 179.114 94.2795 179.287 93.3036 179.976C92.9661 179.976 93.1184 180.269 93.2692 180.56C93.4069 180.826 93.5434 181.089 93.3036 181.124C92.8012 181.195 92.5859 181.698 93.0883 182.344C93.4015 182.746 93.5752 183.149 93.6964 183.43C93.7696 183.6 93.8236 183.725 93.8777 183.779C94.0212 183.922 93.2318 185.214 92.9448 185.214C92.6577 185.214 92.0836 187.582 93.5906 187.798C95.0976 188.013 95.1694 188.3 94.2365 188.372C94.1051 188.382 93.988 188.386 93.8838 188.39C93.2472 188.414 93.0883 188.42 93.0883 189.592C93.0883 190.428 92.6291 191.022 92.1912 191.587C91.9155 191.944 91.6482 192.289 91.5095 192.677C91.2225 193.481 89.3806 194.495 88.4955 194.902C87.8735 194.998 86.4861 195.419 85.912 196.337C85.5281 196.952 85.2057 196.744 84.8021 196.485C84.4514 196.259 84.0393 195.994 83.4721 196.194C83.3784 196.131 83.3799 196.219 83.3818 196.331C83.3844 196.477 83.3876 196.665 83.1851 196.624C82.8263 196.553 82.1804 196.624 81.8216 197.557C81.5345 198.304 80.9365 198.012 80.6734 197.773C80.5538 197.94 80.3863 198.318 80.6734 198.49C80.9604 198.662 80.1232 198.275 79.6687 198.06C79.4773 198.06 79.152 198.146 79.3817 198.49C79.6687 198.921 78.0182 197.988 77.9464 197.773C77.8746 197.557 76.3676 198.06 77.0135 198.634C77.6594 199.208 75.4347 199.567 75.2912 199.495C75.1477 199.423 74.5018 199.567 74.7889 199.782C74.88 199.85 74.6312 199.962 74.3317 200.097C73.688 200.386 72.8103 200.78 74.5736 201.074C76.6403 201.418 76.4394 202.652 76.0806 203.227C75.6739 203.538 74.7745 204.159 74.4301 204.159C74.0856 204.159 74.2865 204.542 74.4301 204.734C74.5736 205.188 74.9181 205.882 75.1477 205.021C75.3024 204.44 75.5614 204.569 76.0257 204.8C76.4228 204.997 76.9702 205.269 77.7311 205.236C79.0792 205.177 79.039 204.831 78.979 204.316C78.9655 204.2 78.9511 204.076 78.9511 203.944C78.9511 203.227 79.8122 204.518 79.3817 204.877C79.0372 205.164 79.4295 205.379 79.6687 205.451C78.975 205.619 77.5445 205.925 77.3723 205.81C77.157 205.666 76.7264 205.595 76.5112 205.81C76.3389 205.982 75.9132 205.738 75.7218 205.595C75.8653 206.001 76.2241 206.757 76.5112 206.528C76.5112 206.743 77.0135 208.681 78.7358 207.317C78.4488 206.686 80.3385 206.958 81.3193 207.173C81.6541 206.91 82.3096 206.269 82.2522 205.81C82.1948 205.351 84.2376 205.475 85.2662 205.595C85.5054 205.547 85.9694 205.365 85.912 205.021C85.8546 204.676 86.4144 205.021 86.7014 205.236V206.025C86.4622 206.097 86.1273 206.398 86.7014 207.03C87.2755 207.661 88.328 207.676 88.7825 207.604C89.2609 207.843 90.2895 208.25 90.5766 207.963C90.9354 207.604 90.3613 208.896 89.7154 208.68C89.1988 208.508 87.8736 208.609 87.2755 208.68C87.1081 209.302 86.9885 210.518 87.8496 210.403C88.1367 210.69 89.0217 210.427 89.4284 210.259C89.6676 210.211 90.146 210.173 90.146 210.403C90.146 210.69 91.9401 210.833 92.0836 210.403C92.2271 209.972 93.6624 208.968 93.9494 209.542C94.0114 209.666 94.1138 209.84 94.2323 210.042C94.6624 210.776 95.3071 211.875 95.0259 212.269C94.6671 212.771 95.8153 213.202 96.1741 213.058C96.4611 212.943 97.107 214.254 97.394 214.924C98.7814 215.426 101.786 216.259 102.704 215.57C103.623 214.881 103.613 214.134 103.494 213.847C104.355 213.536 106.077 212.814 106.077 212.412C106.077 212.01 106.316 212.388 106.436 212.627C107.13 212.699 108.589 212.757 108.876 212.412C109.163 212.068 110 211.982 110.383 211.982M110.383 211.982C110.55 211.862 110.885 211.58 110.885 211.407C110.885 211.312 111.126 211.145 111.388 210.965C111.714 210.739 112.073 210.491 112.034 210.331C111.998 210.19 112.414 209.91 112.846 209.619C113.292 209.319 113.756 209.006 113.756 208.824C113.756 208.653 114.067 208.645 114.4 208.637C114.764 208.628 115.154 208.618 115.191 208.393C115.263 207.963 115.263 209.255 114.689 209.039C114.115 208.824 112.536 210.475 112.392 210.69C112.341 210.767 112.336 210.835 112.33 210.908C112.32 211.036 112.309 211.178 112.034 211.407C111.603 211.766 110.67 213.13 110.598 213.56C110.541 213.905 109.905 214.087 109.594 214.134C108.948 214.182 107.469 214.579 106.723 215.785C105.977 215.498 105.695 216.527 105.647 217.077C105.503 217.412 105.173 217.981 105.001 217.579C104.829 217.177 104.786 219.182 104.786 220.234C103.231 219.995 99.9918 219.66 99.4751 220.234C99.2478 219.052 97.9544 219.022 96.7634 218.995C96.0747 218.979 95.4203 218.964 95.0259 218.727C93.9494 218.081 93.4471 217.866 92.873 218.297C92.6249 218.483 91.6128 218.387 90.5029 218.283C89.0445 218.145 87.4172 217.992 87.132 218.44C86.7301 219.072 87.0602 219.373 87.2755 219.445H86.4144C86.7493 219.971 87.3186 221.081 86.9167 221.311C86.7174 221.425 86.5293 221.719 86.3346 222.024C86.0387 222.488 85.7275 222.976 85.3379 222.889C85.227 222.865 85.0355 222.808 84.7992 222.739C83.6602 222.403 81.4795 221.76 82.2522 222.889C81.5632 223.291 81.4388 224.205 81.4628 224.612C81.3671 225.688 81.0896 227.812 80.7451 227.698C80.3146 227.554 79.5252 228.128 79.5252 228.702C79.5252 229.161 78.5205 229.372 78.0182 229.42C77.9942 229.803 77.8029 230.668 77.2288 231.07C76.6547 231.472 75.5065 231.238 75.0042 231.07C75.0042 231.525 75.1477 232.491 75.7218 232.721C76.2959 232.951 75.1477 232.625 74.5018 232.434C74.4655 232.23 74.4363 231.918 74.49 231.744M110.383 211.982C109.063 211.752 110.347 208.011 111.155 206.169C110.395 206.432 109.02 206.743 109.594 205.882C110.168 205.021 109.02 204.279 108.374 204.016C107.841 204.112 106.594 204.073 105.862 203.155C104.947 202.007 105.557 196.553 106.777 196.624C107.753 196.682 107.519 195.404 107.279 194.759C106.705 194.519 105.399 193.84 104.768 193.036C104.136 192.233 105.031 191.553 105.557 191.314C106.305 191.17 107.8 190.697 107.8 189.951C107.8 189.511 107.525 189.549 107.161 189.6C106.752 189.657 106.232 189.73 105.862 189.161C105.302 188.3 106.239 187.75 106.777 187.582C107.309 187.2 108.374 186.219 108.374 185.358C108.374 184.437 107.677 184.461 106.937 184.488M74.49 231.744C74.5245 231.632 74.5935 231.577 74.7171 231.644C74.8547 231.72 74.7216 231.734 74.49 231.744ZM74.49 231.744L74.4676 231.745M74.49 231.744C74.4826 231.745 74.4751 231.745 74.4676 231.745M78.8566 96.3207C78.6739 96.4243 77.5265 96.4933 76.9417 96.5158C76.6547 96.2288 76.2528 95.6547 76.9417 95.6547C77.8029 95.6547 77.0135 94.7935 77.8747 94.7935C79.3673 94.6213 79.5491 93.9563 79.4534 93.6453C79.0228 93.8606 78.1617 94.2051 78.1617 93.8606C78.1617 93.43 76.9417 92.5689 76.4394 92.5689C76.0375 92.5689 75.7935 92.0426 75.7218 91.7795C76.2385 91.7795 76.1284 91.1097 76.0088 90.7748C76.3198 90.5595 76.9992 90.2438 77.2288 90.703C79.0946 89.3396 78.8793 90.416 79.3099 90.7748C80.3146 91.0619 79.884 92.8559 80.3863 93.2147C82.3239 93.0712 80.8887 94.2912 81.8933 93.7888C82.898 93.2865 82.1804 94.5065 82.7545 94.3629C83.3286 94.2194 83.4004 94.7935 83.6156 95.2241C83.8309 95.6547 83.6156 95.6547 83.7592 95.9417C83.9027 96.2288 83.6156 96.5158 83.4004 96.7311C83.2374 96.8941 82.9099 96.3167 82.8538 96.2134M78.8566 96.3207C78.8682 96.3141 78.8759 96.3074 78.8793 96.3005C78.8927 96.2737 78.8861 96.2845 78.8566 96.3207ZM78.8566 96.3207C78.7282 96.4782 78.167 97.1167 76.9417 97.2334C75.7361 97.3483 75.6261 97.1377 75.7218 97.0181C75.4108 96.5636 74.7315 96.0996 74.5018 97.8793C74.5018 98.683 75.3151 98.6926 75.7218 98.5969C76.0806 98.4295 76.8843 98.152 77.2288 98.3816C77.5733 98.6113 78.1856 98.3816 78.4488 98.2381C78.7836 98.2142 79.4534 98.1089 79.4534 97.8793C79.4534 97.5922 80.7451 97.7358 80.7451 97.2334C80.7451 96.7311 81.391 98.0228 80.8887 98.0228C80.3863 98.0228 81.9651 98.5252 82.1804 98.0228C82.3957 97.5205 83.1851 97.4487 83.1851 97.2334C83.1851 97.0612 82.5153 97.0181 82.1804 97.0181C82.4914 96.9225 83.0702 96.645 82.898 96.3005C82.8763 96.2571 82.8619 96.229 82.8538 96.2134M82.8538 96.2134C82.8423 96.1913 82.8432 96.194 82.8538 96.2134ZM82.3957 75.7765C82.3239 75.9439 82.3096 76.2788 82.8263 76.2788C83.4721 76.2788 83.1851 76.2788 83.4721 76.7094C83.7592 77.1399 83.9027 76.5659 84.8356 76.4223C85.7685 76.2788 85.3379 76.5658 85.8403 76.7094C86.3426 76.8529 86.6297 77.4988 86.6297 77.7858C86.6297 78.0729 85.1227 79.0775 84.8356 79.0775C84.9504 79.5942 84.2615 80.0104 83.9027 80.154C83.1851 81.0151 81.635 82.4791 81.1757 81.4457C80.6016 80.154 81.7498 81.5892 81.7498 80.5128C81.7498 79.6516 83.0415 78.7666 83.6874 78.4317C83.1133 78.5034 82.0512 78.5465 82.3957 78.1446C82.8263 77.6423 81.8933 76.9964 81.9651 77.2835C82.0369 77.5705 81.1757 79.2928 80.8169 79.0775C80.5299 78.9053 80.6016 78.1446 80.6734 77.7858C79.7883 78.025 78.0612 78.3886 78.2335 77.9293C78.4487 77.3552 79.1664 77.5705 78.0182 77.14C76.87 76.7094 78.3052 76.2788 78.0182 75.9918C77.7885 75.7621 77.3484 75.8961 77.157 75.9918C76.87 75.5612 76.382 74.5565 76.7265 73.9824C77.157 73.2648 77.9464 74.3412 78.0182 73.9824C78.0899 73.6236 77.4441 73.6236 77.157 73.4801C76.87 73.3365 77.157 72.1166 76.9417 72.3319C76.7265 72.5472 76.5829 72.3319 76.2959 71.9731C76.0663 71.686 75.7218 72.8581 75.5783 73.4801C75.1716 73.2409 74.3296 72.7625 74.2148 72.7625C74.0999 72.7625 73.9277 71.8056 73.8559 71.3272C73.7363 71.1837 73.4971 70.8392 73.4971 70.6096C73.4971 70.3799 73.8799 70.3225 74.0712 70.3225C74.0712 69.9876 74.1574 69.3179 74.5018 69.3179C74.8463 69.3179 75.1716 70.179 75.2912 70.6096C75.4347 70.6096 75.6931 70.5522 75.5783 70.3225C75.4634 70.0929 75.6261 69.7963 75.7218 69.6767C76.1524 69.6767 76.8126 69.5475 76.0088 69.0308C75.2051 68.5141 75.4826 68.1457 75.7218 68.0261C75.6739 67.6673 75.6644 66.9927 76.0088 67.165C76.3533 67.3372 76.6308 68.2893 76.7265 68.7438C76.9657 68.7438 77.4441 68.9303 77.4441 69.6767C78.2478 69.3322 78.7836 70.1551 78.9511 70.6096C79.2142 70.5139 79.6256 70.2795 79.1664 70.1072C78.7071 69.935 78.6401 69.0308 78.664 68.6002C78.9989 68.6481 79.5252 68.6002 78.9511 68.0261C78.377 67.452 78.9511 66.6866 79.3099 66.3756C79.4056 66.0885 79.6974 65.5575 80.0993 65.7297C80.6016 65.945 80.3863 66.9497 80.8169 67.165C81.2475 67.3803 81.5345 68.7438 81.7498 69.0308C81.9221 69.2604 81.6781 70.8009 81.5345 71.5425L80.6734 72.7625C81.4771 72.4754 81.4389 72.9777 81.3193 73.2648C80.9365 73.3365 80.372 73.5805 81.1757 73.9824C82.1804 74.4848 80.3146 74.9153 80.8169 74.9153C81.3192 74.9153 81.9651 75.0589 81.7498 75.5612C81.5776 75.9631 82.1086 75.8721 82.3957 75.7765ZM82.3957 75.7765L82.611 74.9153C82.9937 74.9871 83.7018 75.2167 83.4721 75.5612C83.1851 75.9918 82.6827 75.9917 82.3957 75.7765ZM75.6276 53.2644C75.3608 53.1686 75.0789 53.1592 75.0042 53.4584C74.8893 53.9176 74.9324 55.0371 74.8606 55.0371L74.5018 53.1713C74.7171 52.8603 75.0185 52.2671 74.5018 52.3819C73.856 52.5254 74.0712 51.6643 73.3536 51.8796C72.7795 52.0518 73.1144 52.5733 73.3536 52.8125C73.234 52.8843 72.8943 53.0565 72.4925 53.1713C71.9901 53.3148 71.7031 56.0418 72.9948 56.0418C71.7031 56.6877 73.9277 56.2571 73.3536 56.6159C72.7795 56.9747 71.0572 56.5441 71.7031 57.8359C72.3489 59.1276 72.9948 57.8359 73.3536 58.6253C73.7124 59.4146 74.5736 59.5582 74.2865 59.5582C74.0569 59.5582 73.3297 59.7017 72.9948 59.7735C73.0187 60.0127 72.9518 60.5198 72.4925 60.6346C71.9184 60.7781 71.9901 61.8546 71.4878 61.1369C71.0859 60.5628 70.7463 60.8977 70.6266 61.1369C70.8419 61.4957 71.3156 62.3712 71.4878 63.0028C71.7031 63.7921 71.9184 63.4333 73.3536 63.0028C74.7889 62.5722 72.7795 61.424 74.2865 61.8546C75.4921 62.199 75.2673 61.0891 75.0042 60.4911C75.0281 60.2519 75.2625 59.917 76.0088 60.4911C76.9418 61.2087 76.0088 59.7735 76.3676 59.7735C76.6547 59.7735 76.4872 59.3429 76.3676 59.1276C76.1523 58.9123 75.7218 58.4674 76.0088 57.8359C76.3677 57.0465 76.5112 57.8359 76.3676 58.1229C76.2528 58.3526 76.6068 59.319 76.7982 59.7735C77.0613 60.0605 77.5302 60.4193 77.3006 59.5582C77.8747 60.7064 77.9464 60.204 78.0899 59.7735C78.0421 59.917 78.133 60.0749 78.8793 59.5582C79.6257 59.0415 78.9989 58.7209 78.5923 58.6253C78.5205 58.1468 78.4775 57.3766 78.8793 58.1229C79.2812 58.8692 80.3385 58.2425 80.8169 57.8359C80.5777 57.9076 80.1423 57.9507 80.3146 57.5488C80.5299 57.0465 80.5299 56.0418 80.0993 56.2571C79.6687 56.4724 79.3099 56.4724 78.377 56.2571C77.4441 56.0418 79.3099 55.97 79.7405 55.8265L79.7737 55.8155C80.2169 55.6683 81.0968 55.3762 80.8169 54.6066C80.5299 53.8172 81.2475 54.0325 81.4628 54.176C81.6781 54.3195 82.611 54.3195 82.611 54.6066C82.611 54.8936 83.1851 54.463 83.4721 54.6066C83.7592 54.7501 84.0462 53.8172 84.0462 53.4584C84.0462 53.0995 83.9027 52.5972 83.4721 53.4584C83.1277 54.1473 81.989 53.7454 81.4628 53.4584C81.5345 53.0278 81.7355 52.2958 81.9651 52.8125C82.1947 53.3292 82.8741 52.5972 83.1851 52.1666C83.0894 51.9992 83.0559 51.6212 83.6874 51.449C84.4768 51.2337 83.9745 51.0902 83.6874 50.7314C83.4004 50.3726 84.2615 49.7985 84.4768 49.0808C84.649 48.5067 84.2615 47.1432 83.6874 47.1432C83.1133 47.1433 82.9554 48.1049 82.611 48.2197C82.2665 48.3345 80.5538 49.32 79.7405 49.7985C79.7405 50.1429 78.3531 50.4204 77.6594 50.5161L76.3676 51.2337V52.3819C76.3198 52.5972 76.138 52.8986 75.7935 52.3819C75.363 51.7361 75.2195 52.3819 75.2912 52.8125C75.3223 52.9991 75.4671 53.152 75.6276 53.2644ZM75.6276 53.2644C75.7703 53.3156 75.9088 53.3916 76.0088 53.4584C75.9102 53.4255 75.7633 53.3594 75.6276 53.2644ZM148.49 11.9849C148.706 12.0588 149.138 12.5658 149.35 12.8408C148.943 12.8886 148.259 13.0848 148.776 13.4867C149.293 13.8885 148.991 14.0847 148.776 14.1325C148.345 14.2043 147.577 14.3478 147.947 14.3478C148.318 14.3478 148.032 15.2568 147.843 15.7113C147.556 16.5724 147.082 18.3378 147.484 18.51C147.886 18.6823 147.412 18.9645 147.125 19.0841C147.03 19.2516 146.939 19.6152 147.341 19.73C147.743 19.8448 147.173 20.4476 146.838 20.7347C146.48 20.7825 145.891 21.1365 146.408 22.1699C147.054 23.4616 145.475 23.6052 145.762 23.3181C146.049 23.0311 146.049 23.1028 145.26 22.3852C144.47 21.6676 145.475 21.4523 145.475 20.8782C145.475 20.3041 146.408 17.8642 146.551 17.7924C146.695 17.7206 146.838 16.0701 146.408 16.0701C146.063 16.0701 146.121 15.496 146.193 15.209C145.977 15.0415 145.532 14.8071 145.475 15.209C145.417 15.6108 145.164 15.7113 145.044 15.7113C144.925 15.8787 144.528 16.1419 143.896 15.8548C143.265 15.5678 143.92 14.9698 144.327 14.7066C143.992 14.587 143.308 14.3909 143.25 14.5631C143.193 14.7353 142.748 14.4913 142.533 14.3478C142.293 14.2521 141.872 14.0034 142.102 13.7737C142.274 12.2811 143.178 12.5298 143.609 12.8408C144.327 11.9079 144.757 13.4867 145.044 12.6255C145.331 11.7644 145.905 12.8408 145.834 12.4102C145.776 12.0658 146.48 11.7883 146.838 11.6926L146.193 10.8315C146.02 10.6018 146.36 10.5444 146.551 10.5444C146.503 10.377 146.365 10.0995 146.193 10.3291C145.977 10.6162 145.475 10.1856 145.26 10.0421C145.087 9.92725 145.188 9.22876 145.26 8.89387L144.327 8.67858C144.087 8.82211 143.537 8.95128 143.25 8.31977C142.891 7.53038 144.04 8.17624 144.183 7.38686C144.298 6.75535 144.805 7.12373 145.044 7.38686C144.996 7.14765 145.016 6.61183 145.475 6.38219C145.475 5.11917 146.575 5.85593 147.125 6.38219L146.838 8.17624C146.695 8.63074 146.594 9.41056 147.341 8.89387C148.274 8.24801 148.13 9.03739 148.632 9.10916C149.034 9.16657 148.656 9.75502 148.417 10.0421C148.058 10.2334 147.462 10.6018 147.947 10.5444C148.433 10.487 148.606 10.7597 148.632 10.9032C148.68 10.8075 148.891 10.6592 149.35 10.8315C149.809 11.0037 149.541 11.573 149.35 11.8361C149.091 11.8846 148.678 11.9593 148.49 11.9849ZM148.49 11.9849C148.462 11.9753 148.437 11.973 148.417 11.9797C148.361 11.9983 148.4 11.9973 148.49 11.9849ZM67.9714 148.328C69.1196 148.974 69.8373 150.984 69.4067 150.984C68.9761 150.984 67.9714 150.696 66.4644 149.835C64.8569 150.754 65.7946 152.323 66.4644 152.993C66.9668 153.232 67.8423 153.969 67.3256 155.002C66.8089 156.036 66.7754 157.633 66.8232 158.303C66.9907 158.71 67.4547 159.581 67.9714 159.81C68.6173 160.097 68.9043 162.107 67.9714 162.537C67.4706 162.768 66.8663 162.813 66.5251 162.839C66.2307 162.861 66.1321 162.868 66.4644 162.968C67.182 163.183 68.0432 164.762 67.3256 164.618C66.608 164.475 65.7468 165.695 66.1056 166.125C66.3927 166.47 67.0385 166.891 67.3256 167.058C67.1581 167.513 66.9237 168.494 67.3256 168.781C67.7274 169.068 67.493 169.713 67.3256 170.001C67.6605 170.67 68.1293 172.024 67.3256 172.082C66.5218 172.139 66.6558 173.11 66.8232 173.589C67.5169 173.708 68.5886 174.148 67.3256 174.952C66.5283 175.459 66.518 175.857 66.509 176.2C66.5002 176.537 66.4928 176.821 65.7468 177.105C64.5412 177.564 64.5268 178.875 64.6704 179.473L63.3069 180.908C63.283 181.435 63.2495 182.674 63.3069 183.42C63.3504 183.986 62.5764 184.63 61.7842 185.29C61.2696 185.719 60.7473 186.154 60.4364 186.578C59.8049 187.439 59.9819 187.845 60.1493 187.941C59.9819 187.941 59.4604 187.826 58.7141 187.367C57.5659 186.908 58.5705 187.941 59.2164 188.515C59.8144 189.089 60.8382 190.424 60.1493 191.17C59.6201 191.744 59.4974 191.423 59.4149 191.207C59.3631 191.071 59.3271 190.977 59.2164 191.17C58.9868 191.572 58.4509 191.338 58.2117 191.17H56.3459C55.5087 190.214 53.7481 188.687 53.4036 190.238C52.9731 192.175 49.7438 191.159 51.1073 191.17C52.198 191.179 51.5617 189.595 51.1073 188.802C51.0116 189.592 50.691 191.17 50.1743 191.17C49.5285 191.17 48.8826 191.17 49.3132 190.238C49.6576 189.491 48.452 190.214 47.8062 190.668C47.1125 190.525 45.395 190.324 44.0745 190.668C42.7541 191.013 42.0891 190.525 41.9217 190.238C41.2519 190.381 40.2281 190.769 41.4911 191.17C43.0699 191.673 42.2805 192.247 41.9217 192.247C41.6346 192.247 41.515 192.725 41.4911 192.965C41.1323 193.132 40.3142 193.366 39.9123 192.965C39.5104 192.563 39.5535 193.419 39.6253 193.897C39.2186 194.041 38.3048 194.055 37.903 192.965C37.903 193.666 37.2863 193.869 36.8984 193.997C36.6115 194.092 36.4497 194.145 36.7548 194.328C37.4724 194.759 35.8936 195.189 35.2478 194.83C34.7311 194.543 34.7933 195.381 34.8889 195.835L31.3726 195.548C31.7075 195.428 32.3773 194.931 32.3773 193.897C32.3773 192.606 28.5738 193.467 29.3632 193.467C30.0466 193.467 30.1922 194.112 30.4518 195.263C30.492 195.442 30.535 195.633 30.5832 195.835C30.8702 197.041 28.5021 197.581 27.2821 197.701C26.8037 198.514 25.9473 199.969 26.3492 199.28C26.8516 198.418 23.7658 197.701 24.2681 198.275C24.67 198.734 24.1007 199.375 23.7658 199.638C23.2156 199.184 21.9573 198.476 21.3258 199.28C20.6943 200.083 20.2972 199.615 20.1776 199.28C19.6275 198.945 18.4553 198.418 18.1683 198.993C17.9848 199.36 17.6698 199.351 17.3194 199.342C16.9848 199.333 16.618 199.323 16.3025 199.638C15.7858 200.155 15.6088 199.615 15.5848 199.28C15.226 199.519 14.4223 200.026 14.0778 200.141C13.8767 200.208 13.8635 200.024 13.848 199.81C13.8303 199.565 13.8097 199.28 13.5037 199.28C13.0445 199.28 13.3124 198.61 13.5037 198.275C12.9536 198.131 11.8101 197.93 11.6379 198.275C11.4657 198.619 10.8007 198.418 10.4897 198.275C9.48503 199.04 7.46134 200.313 7.40393 199.28C7.34899 198.291 8.2613 198.059 8.98189 197.876C9.20262 197.82 9.40535 197.768 9.55679 197.701C10.2026 197.414 11.6379 196.696 11.6379 196.337C11.6379 196.166 10.7554 196.338 9.83261 196.518C8.8218 196.715 7.76274 196.921 7.76274 196.696C7.76274 196.352 11.2552 195.548 13.0014 195.189C13.6951 194.902 14.8816 194.328 14.0778 194.328C13.433 194.328 13.3498 193.973 13.2592 193.586C13.2086 193.37 13.1556 193.144 13.0014 192.965C12.5708 192.462 12.3555 193.467 12.212 194.328C12.1306 194.816 10.4799 194.751 9.0529 194.694C7.96349 194.651 7.00442 194.613 6.97335 194.83C6.91594 195.232 5.60987 195.237 4.964 195.189C4.41382 195.309 3.31347 195.404 3.31347 194.83C3.31347 194.256 4.41382 194.256 4.964 194.328V193.467C5.37066 193.539 6.27008 193.481 6.61453 192.677C6.95899 191.874 7.52353 192.056 7.76274 192.247C8.14547 192.271 8.91094 192.204 8.91094 191.745C8.91094 191.285 9.53288 191.17 9.84385 191.17L13.0014 190.238C12.2598 190.238 10.5328 190.324 9.55679 190.668C8.58082 191.013 8.43251 190.812 8.48036 190.668C8.14547 190.668 7.21734 190.769 6.18397 191.17C5.15059 191.572 4.55735 191.338 4.3899 191.17C3.83972 190.955 2.85418 190.553 3.31347 190.668C3.77275 190.783 3.93541 189.616 3.95933 189.018C3.55267 189.018 2.61019 189.161 2.09351 189.735C1.77158 190.093 1.80624 189.809 1.85089 189.443C1.89582 189.074 1.95087 188.623 1.66293 188.659C1.20364 188.716 1.18451 188.013 1.23236 187.654C1.73469 187.463 2.85418 187.109 3.31347 187.224C3.77275 187.338 3.50483 186.41 3.31347 185.932C4.29422 185.477 6.55713 184.654 7.76274 184.999C8.16461 184.138 8.69565 184.64 8.91094 184.999L9.55679 183.707C9.86776 183.875 10.6332 184.109 11.2073 183.707C11.7814 183.305 9.62856 183.109 8.48036 183.061C7.47569 183.181 5.36587 183.262 4.964 182.631C4.61954 183.205 3.33739 182.87 2.73936 182.631C2.30879 182.822 1.4907 182.86 1.66293 181.483C1.83516 180.105 2.64368 180.717 3.02641 181.195C3.09818 180.765 3.38523 179.904 3.95933 179.904C4.13156 179.157 5.80123 179.21 6.61453 179.33C6.25572 179.521 5.75338 180.004 6.61453 180.406C7.47568 180.808 8.21723 179.665 8.48036 179.043C8.55212 179.497 8.86787 180.492 9.55679 180.837C10.0841 181.1 10.7459 180.96 11.081 180.862M67.9714 148.328C66.8232 147.682 70.0525 148.4 69.9808 149.118C69.909 149.835 70.4114 149.835 71.129 149.835C71.8466 149.835 74.0712 147.467 73.7124 146.247C73.4254 145.271 75.4586 145.841 76.5112 146.247C77.2049 145.96 78.5779 145.185 78.5205 144.381C78.4487 143.377 79.5252 144.381 79.5252 143.305C79.5252 142.444 80.1471 141.798 80.4581 141.583C80.4342 141.296 80.3433 140.607 80.1711 140.147C79.9988 139.688 80.0993 138.951 80.1711 138.64C79.9558 138.162 79.5252 137.076 79.5252 136.559C79.5252 136.043 78.7119 136.248 78.3052 136.416C77.6833 136.105 76.382 135.54 76.1524 135.77C75.8653 136.057 74.9324 137.42 74.5736 136.918C74.2148 136.416 75.0759 135.268 75.7935 135.268C76.5112 135.268 79.0229 133.761 77.5876 132.253C76.7895 131.416 76.5231 131.246 76.4749 131.3M67.9714 148.328H66.8232C66.7036 148.591 66.2635 149.046 65.4597 148.759C64.656 148.472 63.4982 148.878 63.0198 149.118C62.3261 148.855 61.1971 148.113 62.2304 147.252C63.6657 144.955 62.3979 145.195 61.5846 145.601C60.8909 144.836 59.6326 143.075 60.1493 142.157C60.666 141.238 59.1686 140.052 58.3553 139.573C57.518 140.028 55.9153 141.066 56.2024 141.583C56.4894 142.099 56.7047 143.329 56.7765 143.879C56.2741 143.496 55.2695 142.932 55.2695 143.735C55.2695 144.353 54.9443 144.645 54.6103 144.945C54.4008 145.133 54.1878 145.325 54.0495 145.601C53.7625 146.175 52.4468 145.362 51.8249 144.884C51.0116 144.716 49.5428 144.252 50.1743 143.735C50.9426 143.107 48.5839 142.546 47.0679 142.186L46.945 142.157C45.9891 141.929 46.5924 141.009 46.9417 140.476C47.143 140.168 47.2599 139.99 46.945 140.147C46.2561 140.492 45.3184 139.143 44.9357 138.425L42.9981 135.124C43.644 135.339 44.9357 135.641 44.9357 135.124C44.9357 134.478 46.945 133.904 47.3756 134.55C47.8062 135.196 50.8202 133.258 50.1743 133.258C49.9122 133.258 49.7919 133.069 49.6551 132.854C49.4549 132.539 49.2194 132.168 48.452 132.253C47.4187 132.368 47.5909 131.297 47.8062 130.746C48.3324 130.268 49.385 129.469 49.385 130.101C49.385 130.732 50.3418 130.794 50.8202 130.746C50.8202 130.268 51.2795 129.598 53.1166 130.746C52.6573 129.828 54.3605 128.402 55.2695 127.804C54.7911 126.967 54.2361 125.493 55.8436 126.297C55.8436 124.556 57.1754 124.139 57.9459 124.14M76.4749 131.3C76.4538 131.324 76.4747 131.391 76.5112 131.464C76.5068 131.443 76.5022 131.421 76.4974 131.399C76.4904 131.367 76.4829 131.334 76.4749 131.3ZM76.4749 131.3C76.2455 130.328 75.6037 128.648 74.5736 128.594C73.4828 128.536 74.4061 127.756 75.0042 127.374C75.1477 127.206 75.2625 126.757 74.5736 126.297C73.8847 125.838 74.2865 124.671 74.5736 124.144C74.4301 123.618 73.7268 122.609 72.0619 122.781C71.129 121.704 70.5549 121.704 69.9808 121.704C69.4067 121.704 67.9714 120.628 67.9714 121.704C67.9714 122.781 67.182 121.92 64.3833 122.35C61.5846 122.781 63.881 120.126 62.2304 122.781C61.5049 123.948 61.2806 124.461 61.2813 124.638M61.2813 124.638C61.2818 124.784 61.4337 124.704 61.5846 124.575C61.4954 124.595 61.3926 124.617 61.2813 124.638ZM61.2813 124.638C60.6165 124.765 59.651 124.87 59.5035 124.575C59.2882 124.144 58.7141 123.714 58.0682 124.144M58.0682 124.144C57.948 124.224 57.9148 124.213 57.9459 124.14M58.0682 124.144C58.0294 124.142 57.9885 124.14 57.9459 124.14M57.9459 124.14C58.0819 123.824 59.4484 122.35 60.1493 122.35C60.8382 122.35 61.154 121.824 61.2258 121.561C61.6563 121.561 62.618 121.403 63.0198 120.772C63.4217 120.14 61.7999 119.504 60.9387 119.264C60.1972 118.092 58.5849 115.906 58.0682 116.538C57.5515 117.169 58.0443 117.757 58.3553 117.973C57.9247 117.829 57.0779 117.714 57.1353 118.403C57.1927 119.092 56.5373 118.69 56.2024 118.403C55.9153 118.379 55.3269 118.576 55.2695 119.552C55.2121 120.528 55.6283 121.298 55.8436 121.561C55.724 121.92 55.5565 122.752 55.8436 123.211C56.1306 123.671 53.9538 124.79 52.8296 125.293C52.997 125.125 53.4324 124.589 53.8342 123.786C54.2361 122.982 53.5233 123.451 53.1166 123.786C53.4993 123.164 54.3653 122.006 54.7671 122.35C55.169 122.695 54.9346 121.776 54.7671 121.274C54.5997 120.939 54.2218 120.24 54.0495 120.126C53.8773 120.011 54.217 119.312 54.4083 118.977C54.2887 118.595 53.8629 117.973 53.1166 118.547C52.5425 117.571 51.3465 118.427 50.8202 118.977C50.9398 119.575 51.0498 120.772 50.5332 120.772C50.0165 120.772 50.0787 119.958 50.1743 119.552C49.9351 119.886 49.4424 120.355 49.385 119.552C49.3132 118.547 49.1697 118.332 48.452 119.552C47.8779 120.528 47.2082 120.341 46.945 120.126C46.8015 120.03 46.3566 119.867 45.7251 119.982C45.3994 120.041 45.3425 119.771 45.3073 119.604C45.2572 119.366 45.2514 119.338 44.5769 120.772C44.3027 120.47 44.3637 120.619 44.4798 120.902C44.6676 121.36 44.9993 122.169 44.2898 121.991C43.1416 121.704 41.8499 121.776 42.5675 122.781C43.2852 123.786 43.1416 124.503 42.5675 124.144C41.9934 123.786 41.9217 124.575 42.5675 125.293C43.2564 124.718 43.4287 125.053 43.4287 125.293C43.022 125.436 42.3666 125.838 42.9981 126.297C43.6296 126.757 41.5868 126.489 40.4864 126.297C40.6539 126.8 41.1036 127.804 41.5629 127.804H39.8406C39.1708 127.493 37.6877 127.216 37.1136 128.594C36.5395 129.971 37.2571 130.172 37.6877 130.101C37.8551 130.388 38.4627 130.919 39.5535 130.746C40.6443 130.574 40.6299 131.105 40.4864 131.392L41.204 130.746C41.2644 131.129 41.2435 131.864 40.7906 132.19M40.7906 132.19C40.7053 132.251 40.6047 132.298 40.4864 132.325C40.1274 132.408 40.3529 132.332 40.7906 132.19ZM40.7906 132.19C40.8454 132.172 40.9035 132.153 40.9642 132.134C41.679 131.903 42.7539 131.555 42.9981 131.392C43.174 131.275 43.3977 131.361 43.6547 131.46C44.0269 131.604 44.4687 131.774 44.9357 131.392C45.5672 130.876 44.7682 131.799 44.2898 132.325C43.8592 132.66 42.9981 133.445 42.9981 133.904C42.9981 134.363 42.4718 134.717 42.2087 134.837C41.5389 134.67 40.0702 134.521 39.5535 135.268C39.0368 136.014 37.0897 136.487 36.1807 136.631C37.2332 137.086 39.2377 138.081 38.8359 138.425C38.6523 138.582 38.6508 138.96 38.6493 139.345C38.6467 140.013 38.644 140.701 37.6877 140.291C36.4821 139.774 36.3242 138.975 36.396 138.64C35.774 138.497 34.3435 138.253 33.5972 138.425C33.2057 138.515 33.1175 138.302 33.0092 138.041C32.8593 137.679 32.6707 137.224 31.5879 137.349C30.4613 137.479 30.4859 137.818 30.5084 138.13C30.5232 138.334 30.5371 138.527 30.2244 138.64C29.7656 138.807 29.582 139.186 29.5251 139.491M29.5251 139.491C29.5037 139.606 29.5002 139.71 29.5068 139.789C29.5258 139.712 29.5357 139.609 29.5251 139.491ZM29.5251 139.491C29.4957 139.163 29.3081 138.72 28.7174 138.425C29.2197 137.707 28.9327 136.487 27.4256 136.129C26.1044 135.814 23.5695 134.782 22.4811 134.339C22.3281 134.277 22.2037 134.226 22.1152 134.191C21.3976 133.904 20.967 133.904 21.5411 135.268C22.0004 136.358 20.967 135.722 20.3929 135.268C20.0102 135.435 19.1586 135.583 18.8142 134.837C18.3836 133.904 16.8766 134.478 16.9483 135.555C17.0057 136.416 16.5417 137.109 16.3025 137.349C16.2785 137.779 16.3025 138.64 16.5895 138.64C16.8766 138.64 16.9483 137.779 16.9483 137.349C17.5703 136.775 18.8142 135.727 18.8142 136.129C18.8142 136.331 19.0011 136.172 19.2147 135.99C19.5305 135.72 19.9044 135.401 19.8188 136.129C19.7544 136.677 19.5016 136.747 19.2363 136.82C18.9109 136.911 18.5666 137.006 18.5271 137.994C17.666 138.425 18.0248 140.004 18.5271 139.789C18.929 139.616 19.5557 139.143 19.8188 138.927C19.3883 139.382 18.6563 140.506 19.173 141.367C19.6897 142.228 19.149 142.348 18.8142 142.3C18.4553 142.324 17.7377 142.272 17.7377 141.87C17.7377 141.784 17.7461 141.696 17.7547 141.606C17.796 141.173 17.8405 140.707 16.9483 140.291C16.3748 140.023 16.0253 140.183 15.7372 140.316C15.4845 140.431 15.2789 140.526 15.0107 140.291C14.5515 139.889 14.1974 140.602 14.0778 141.009C14.6041 141.248 15.7858 141.654 16.3025 141.367C16.8192 141.08 16.3264 142.205 16.0154 142.803C16.7091 143.066 18.0248 143.649 17.7377 143.879C17.3789 144.166 18.5271 145.171 19.173 144.525C19.8188 143.879 22.1152 144.31 22.1152 144.955C22.1152 145.472 21.7325 146.223 21.5411 146.534C20.6561 146.702 18.6563 146.936 17.7377 146.534C16.8192 146.132 16.8287 148.424 16.9483 149.62C16.6134 149.811 15.7571 150.079 15.0107 149.62C14.2644 149.161 14.6998 150.242 15.0107 150.84C14.341 150.529 13.0014 150.094 13.0014 150.84C13.0014 151.586 13.719 152.538 14.0778 152.921C13.6712 153.112 12.7 153.438 12.0685 153.208C11.2791 152.921 11.925 154.643 13.0014 154.428C13.0014 155.146 15.8719 155.648 15.5848 154.428C15.3552 153.452 16.3982 154.548 16.9483 155.217C16.0633 155.409 14.6376 155.949 16.0154 156.581C16.7903 156.936 16.9987 157.102 17.1634 157.067C17.3647 157.023 17.5008 156.678 18.5271 156.007C20.0198 155.031 19.8188 156.414 19.5318 157.227C19.173 157.538 18.5271 158.275 18.8142 158.734C19.1012 159.193 19.6035 159.117 19.8188 159.021C19.9624 159.428 20.5077 160.169 21.5411 159.882C22.5745 159.595 24.8422 160.002 25.8469 160.241C25.9665 159.978 26.1339 159.308 25.8469 158.734C25.5598 158.16 25.9186 157.059 26.1339 156.581C25.799 156.39 25.0431 156.007 24.6987 156.007C24.3542 156.007 23.6462 154.954 23.3352 154.428C23.1199 154.285 22.5745 154.012 22.1152 154.069C21.5411 154.141 23.2634 153.208 24.6987 153.639C25.8469 153.983 25.6555 155.026 25.4163 155.505C25.6555 155.863 26.3349 156.581 27.1386 156.581C27.9423 156.581 27.1864 157.346 26.708 157.729C26.8037 158.136 26.9377 159.078 26.708 159.595C26.421 160.241 25.9904 161.676 26.708 161.676H28.4303C28.1193 161.915 27.5261 162.537 27.6409 163.111C27.7558 163.685 25.9186 162.824 24.9857 162.322C25.2728 162.585 25.7608 163.111 25.4163 163.111C25.3463 163.111 25.2555 163.121 25.1506 163.132C24.6101 163.188 23.6958 163.284 23.3352 162.322C22.9907 161.403 20.4168 164.618 19.173 166.341C19.6275 166.652 20.5939 167.216 20.8235 166.987C21.0531 166.757 19.3883 168.757 18.5271 169.785C18.4314 170.168 18.1396 170.933 17.7377 170.933H16.0154L13.0014 173.158C12.5469 173.158 11.5518 173.23 11.2073 173.517C10.8629 173.804 13.2645 173.876 14.5084 173.876C14.7955 173.637 15.5561 173.158 16.3025 173.158C16.8134 173.158 16.7216 172.642 16.6638 172.316C16.616 172.046 16.5913 171.907 16.9483 172.297C17.2274 172.601 17.4258 172.888 17.5942 173.131C17.902 173.576 18.1096 173.876 18.5271 173.876C19.0438 173.876 20.2733 174.067 20.8235 174.163C20.1537 174.282 19.0151 174.565 19.8188 174.737C20.6226 174.909 21.6847 174.809 22.1152 174.737C23.7108 173.213 24.5948 172.385 25.8469 171.723C25.8469 172.321 25.7608 173.517 25.4163 173.517C25.3316 173.517 25.3663 173.52 25.4768 173.529C25.9277 173.565 27.6409 173.702 27.6409 174.163C27.6409 174.622 25.8708 174.354 24.9857 174.163C24.9618 174.545 24.7848 175.254 24.2681 175.024C23.7514 174.794 21.7564 175.167 20.8235 175.383C20.058 175.048 18.3692 174.507 17.7377 175.024C17.4971 174.936 17.2565 174.796 17.0219 174.658C16.4871 174.345 15.9839 174.051 15.5848 174.45C15.3794 174.655 15.0729 174.769 14.7837 174.876C14.2647 175.068 13.8013 175.24 14.0778 175.885C14.4223 176.689 11.8293 176.89 10.4897 176.89C10.5375 177.153 10.8342 177.78 11.6379 178.181C12.4416 178.583 11.2073 179.497 10.4897 179.904C10.5734 180.238 10.7961 180.833 11.081 180.862M11.081 180.862C11.1219 180.866 11.1641 180.858 11.2073 180.837C11.2693 180.806 11.2967 180.791 11.2967 180.791C11.2967 180.791 11.2143 180.822 11.081 180.862ZM74.4136 231.748L74.4234 231.747M74.4136 231.748C74.4175 231.747 74.4214 231.747 74.4253 231.747M74.4136 231.748C74.4169 231.748 74.4201 231.747 74.4234 231.747M74.4234 231.747L74.4253 231.747M74.4253 231.747L74.4676 231.745M74.4253 231.747C74.4397 231.747 74.4538 231.746 74.4676 231.745M106.937 184.488H106.935C106.881 184.49 106.826 184.492 106.772 184.493M106.937 184.488C106.883 184.49 106.827 184.492 106.772 184.493M87.6343 151.773C87.6343 151.558 87.7492 151.055 88.2084 150.768C88.6677 150.481 89.0696 149.022 89.2131 148.328C89.6437 148.209 90.5479 147.826 90.7201 147.252C90.9354 146.534 93.3036 144.023 94.5235 144.453C93.7772 145.142 94.0212 146.223 94.2365 146.678C94.4518 146.797 94.7532 147.166 94.2365 147.682C93.7198 148.199 93.5906 148.902 93.5906 149.189C93.2557 149.5 92.5142 150.108 92.2271 150.051C91.8683 149.979 92.0118 151.055 91.366 151.271C90.7201 151.486 89.9307 151.701 90.0743 152.203C90.2178 152.706 88.9261 152.06 88.7825 151.773C88.6677 151.543 87.9692 151.677 87.6343 151.773ZM127.606 233.51C127.75 232.912 128.639 232.132 131.051 233.797C133.462 235.462 132.055 235.448 131.051 235.233C130.811 235.615 130.405 236.424 130.692 236.596C131.051 236.811 128.969 237.314 128.682 236.955C128.453 236.668 126.769 235.448 125.955 234.874C125.788 234.754 125.353 234.587 124.951 234.874C124.448 235.233 126.099 233.51 127.606 233.51ZM85.0509 116.538C84.716 115.533 84.4481 113.394 86.0556 112.878C87.663 112.361 88.0649 114.72 88.0649 115.963C88.1606 116.466 88.2658 117.442 87.9214 117.327C87.5769 117.212 87.9692 117.853 88.2084 118.188L88.0649 119.408C86.9885 119.528 84.8356 119.523 84.8356 118.547C84.8356 117.327 84.6921 116.753 85.0509 116.538ZM82.1804 102.185L79.7405 103.836C79.0468 104.194 77.7742 105.099 78.2335 105.845C78.865 105.615 79.2142 105.893 79.3099 106.06C79.0228 106.204 78.3626 106.448 78.0182 106.275C77.6737 106.103 76.9657 106.778 76.6547 107.137C76.4633 107.998 76.2959 109.72 77.157 109.72C78.0182 109.72 78.2335 108.763 78.2335 108.285C78.5923 108.093 79.3529 107.567 79.5252 106.993C79.6974 106.419 81.08 104.84 81.7498 104.123C82.1086 103.62 82.6971 102.53 82.1804 102.185ZM82.1804 101.252C82.4674 101.085 83.0128 100.85 82.898 101.252C82.7545 101.754 82.8263 101.97 81.9651 101.97C81.2762 101.97 81.8216 101.491 82.1804 101.252ZM74.8606 103.836C75.2434 103.07 76.0949 101.625 76.4394 101.97C76.87 102.4 75.5065 103.549 75.8653 103.836C76.2241 104.123 74.7116 104.123 74.8606 103.836ZM73.3536 108.5C73.9995 107.639 75.406 105.988 75.8653 106.275C76.3246 106.563 76.2002 108.691 76.0806 109.72C76.3916 110.151 76.8987 111.012 76.4394 111.012C75.9801 111.012 76.248 111.442 76.4394 111.658C76.5829 111.945 76.7408 112.519 76.2241 112.519C75.7074 112.519 75.7696 112.806 75.8653 112.949C75.339 113.189 74.2435 113.595 74.0712 113.308C73.856 112.949 73.7124 114.815 72.7078 113.882C71.904 113.136 72.8034 112.662 73.3536 112.519C73.5211 112.399 73.7842 112.06 73.4971 111.658C73.1383 111.155 72.4925 111.012 73.3536 110.366C74.2148 109.72 74.2148 109.792 73.7842 109.505C73.3536 109.218 72.636 109.505 72.5642 109.935C72.5068 110.28 72.0619 110.605 71.8466 110.725C71.6074 110.892 71.1433 111.285 71.2007 111.514C71.2725 111.801 70.1243 111.945 70.3396 111.012C70.5118 110.265 71.129 109.696 71.416 109.505C71.2486 109.266 71.0429 108.758 71.5596 108.644C70.9137 108.285 71.8466 108.213 71.7031 107.783C71.5883 107.438 72.8513 107.208 73.4971 107.137C73.3536 107.591 73.124 108.5 73.3536 108.5ZM71.3443 90.4878C71.7031 90.2486 72.4207 89.7127 72.4207 89.4831C72.4207 89.196 73.5689 88.6219 73.8559 88.5502C74.0856 88.4928 74.5736 88.5262 74.7889 88.5502L74.0712 89.7701C73.9038 89.6505 73.5258 89.4831 73.3536 89.7701C73.1383 90.1289 72.923 90.703 72.4207 90.703C72.0188 90.703 71.5356 90.5595 71.3443 90.4878ZM67.182 91.7795C67.206 92.1861 67.4117 92.9995 68.0432 92.9995C68.8326 92.9995 67.7561 92.2818 68.6173 92.2818C69.3062 92.2818 69.622 91.9469 69.6937 91.7795C70.4353 91.612 71.5021 91.2484 69.8373 91.1336C68.6173 90.7748 69.0479 91.3489 68.6173 91.4207C68.1867 91.4924 67.182 91.2772 67.182 91.7795ZM76.0088 81.4457C76.3437 81.7806 76.9848 82.5078 76.87 82.7374C76.7265 83.0245 78.3052 82.8809 78.3052 82.1633C78.3052 81.4457 78.2335 79.6516 76.5829 80.7281C75.2625 81.5892 75.65 81.5653 76.0088 81.4457ZM81.9651 74.7L82.8263 74.413C82.898 74.1977 82.9985 73.7384 82.8263 73.6236C82.611 73.4801 82.7545 72.2601 83.0415 71.9731C83.2712 71.7434 83.4243 71.4468 83.4721 71.3272L83.3286 70.8249C83.1611 70.777 82.8263 70.7675 82.8263 71.1119C82.8263 71.5425 82.6827 71.8295 82.3957 71.686C82.1086 71.5425 81.7498 73.0495 81.7498 73.2648C81.7498 73.4801 81.8216 74.7479 81.9651 74.7ZM62.5892 79.3646C62.5175 79.0058 62.5318 78.3599 63.1633 78.647C63.7949 78.934 63.3786 78.0729 63.5939 78.0011C63.8092 77.9293 64.0819 78.5034 64.0245 78.7905C63.9527 79.1493 64.6704 79.8669 64.0245 79.9387C63.3786 80.0104 62.9481 80.3693 63.1633 80.5128C63.3786 80.6563 61.9434 80.5128 61.9434 79.9387C61.9434 79.4794 62.374 79.3646 62.5892 79.3646ZM64.7421 74.5565C64.5986 75.322 64.3977 76.8816 64.7421 76.9964C65.0866 77.1112 65.5076 77.14 65.675 77.14C66.0578 77.3313 66.8232 77.6566 66.8232 77.427C66.8232 77.14 66.6797 76.4941 66.3209 76.4223C65.9621 76.3506 67.1103 75.1306 66.5362 74.8436C66.0769 74.6139 66.5362 74.4608 66.8232 74.413L67.1103 73.6236C67.3973 73.3844 67.8853 72.8773 67.5409 72.7625C67.1964 72.6476 67.206 72.4276 67.2538 72.3319C67.493 72.0927 67.8279 71.5568 67.2538 71.3272C66.6797 71.0976 66.8711 70.7053 67.0385 70.5378L68.1867 70.3225C68.115 70.3225 67.9284 70.2221 67.7561 69.8202C67.5839 69.4183 67.9714 69.3179 68.1867 69.3179C67.7801 68.8873 66.8376 68.0835 66.3209 68.3132C65.8042 68.5428 65.7707 69.3179 65.8186 69.6767C66.1535 69.892 66.7228 70.3225 66.3209 70.3225H65.2445V72.3319C65.1249 72.4993 64.8282 72.9634 64.5986 73.4801C64.3116 74.1259 64.3833 74.1259 64.7421 74.5565ZM65.8186 66.1603C66.2252 66.3278 67.0242 66.7344 66.9668 67.0215C66.9093 67.3085 67.0864 67.8587 67.182 68.0979L69.2632 68.1697C69.311 67.9783 69.3923 67.5525 69.3349 67.3803C69.2632 67.165 69.622 66.7344 69.7655 66.8062C69.8803 66.8636 69.5263 66.5909 69.3349 66.4474C69.2632 66.3756 69.0909 66.146 68.9761 65.8015C68.8613 65.457 69.2632 65.4188 69.4784 65.4427C69.7655 65.634 70.3109 66.0455 70.1961 66.1603C70.0525 66.3038 71.2007 65.5862 70.6266 65.1556C70.0525 64.7251 69.4784 65.2274 69.4784 64.7968C69.4784 64.3663 69.8373 64.2945 69.2632 64.2227C68.8039 64.1653 68.4499 64.5815 68.3302 64.7968C68.091 64.749 67.627 64.5959 67.6844 64.3662C67.7561 64.0792 67.6126 64.0792 66.9668 64.438C66.4501 63.9213 65.7946 64.2227 65.5315 64.438C65.4597 64.6772 65.2445 65.1843 64.9574 65.2992C64.5986 65.4427 64.3833 65.4427 64.8139 65.8015C65.2445 66.1603 65.675 66.5191 65.8186 66.1603ZM124.52 45.5645C124.52 46.1147 124.434 47.2294 124.09 47.2868C123.745 47.3442 123.563 46.2582 123.516 45.708C123.229 45.4688 122.741 44.976 123.085 44.9186C123.429 44.8612 124.52 44.9904 125.023 45.0621C124.999 45.3014 124.865 45.7367 124.52 45.5645ZM119.21 42.4069C118.875 42.6461 118.334 43.182 118.851 43.4116C119.497 43.6987 118.923 44.7751 119.497 44.9186C120.071 45.0621 119.353 45.708 119.927 45.708C120.502 45.708 121.578 46.2103 121.721 45.5645C121.836 45.0478 121.1 45.2535 120.717 45.421C120.765 45.3014 120.946 45.0334 121.291 44.9186C121.635 44.8038 121.339 44.5359 121.147 44.4163C121.028 43.6987 120.473 42.2921 119.21 42.4069ZM119.927 39.1776C120.214 38.0773 121.176 36.3215 122.726 38.1012C122.726 37.24 123.396 38.2686 123.731 38.8906C123.946 39.2255 124.248 39.8952 123.731 39.8952C123.085 39.8952 123.372 41.0434 122.726 40.6129C122.209 40.2684 122.511 40.8521 122.726 41.187C123.181 41.1391 124.09 41.1152 124.09 41.4023C124.09 41.6893 124.855 41.7611 125.238 41.7611C125.716 41.7132 126.687 41.6463 126.745 41.7611C126.817 41.9046 127.821 41.9046 127.534 42.4069C127.247 42.9093 126.745 43.4116 126.53 43.4116C126.314 43.4116 125.74 44.5598 125.023 43.6269C124.448 42.8806 123.635 42.5026 123.3 42.4069C122.678 42.6701 121.406 43.0958 121.291 42.694C121.147 42.1916 120.932 40.6129 121.506 40.6129C122.08 40.6129 121.147 39.4647 120.717 40.6129C120.286 41.7611 120.717 42.1916 119.784 41.5458C119.038 41.0291 119.569 39.7517 119.927 39.1776ZM124.52 38.1012C124.831 37.7185 125.18 36.9386 124.09 36.8812C122.726 36.8095 123.444 36.3071 123.085 37.4553C123.429 37.7424 124.185 38.0055 124.52 38.1012ZM148.704 5.87985C148.585 6.741 148.489 8.50635 149.063 8.67858C149.781 8.89387 150.211 9.10916 150.211 7.96096C150.211 6.81276 150.857 5.87985 150.211 5.87985C149.694 5.87985 149.996 5.21007 150.211 4.87517L150.929 5.37751C150.977 4.63597 150.9 3.19593 150.211 3.36816C149.522 3.54039 149.446 4.34892 149.494 4.73165C149.183 4.75557 148.589 4.86082 148.704 5.09046C148.819 5.3201 148.752 5.7124 148.704 5.87985ZM151.575 6.1669L151.933 7.17157C151.933 6.93237 151.977 6.49701 152.149 6.66924C152.364 6.88452 153.369 7.3151 153.369 6.81276C153.369 6.31042 153.153 5.95161 153.01 6.38219C152.866 6.81276 153.153 5.37751 151.933 5.87985C150.957 6.28172 151.288 6.23866 151.575 6.1669ZM151.288 3.79874C151.288 3.96618 151.46 4.34413 152.149 4.51636C153.01 4.73165 152.723 4.37284 152.723 4.01403C152.723 3.65521 152.651 3.36816 153.01 3.36816C153.369 3.36816 153.584 2.50702 153.225 2.43525C152.938 2.37784 153.393 2.21997 153.656 2.1482C153.728 1.5741 153.699 0.641192 153.01 1.50234C152.321 2.36349 152.292 2.05252 152.364 1.78939C152.579 1.52626 152.881 1 152.364 1C151.847 1 151.766 1.76547 151.79 2.1482C151.718 2.31565 151.575 2.751 151.575 3.15287C151.575 3.55474 151.383 3.7509 151.288 3.79874ZM75.7218 79.8669C75.7218 80.1047 75.5515 80.3693 75.0759 80.3693C74.6003 80.3693 73.9995 80.1047 73.9995 79.8669C73.9995 79.6291 74.5286 79.2928 75.0042 79.2928C75.4797 79.2928 75.7218 79.6291 75.7218 79.8669ZM103 262L115 250.5L118.851 252L125 247.5C125.296 247.968 114.71 269.358 114 270C113.625 270.339 110.195 273.667 107.5 271.5C105.087 269.561 103.384 262.126 103 262ZM127.606 266.5H132.5L153 256C153.299 256.354 148.783 260.218 148.5 265C148.221 269.69 147.851 271.301 147.5 271.5C147.149 271.698 139.333 272.918 134.065 274C131.953 274.434 129.933 278.643 127.606 280C123.962 282.124 120.294 281.552 119.927 281.5L121.5 272.5L127.606 266.5Z" stroke="black" stroke-opacity="0.2"/>
</svg>
