<svg width="176" height="274" viewBox="0 0 176 274" fill="none" xmlns="http://www.w3.org/2000/svg">
<path fill-rule="evenodd" clip-rule="evenodd" d="M106.455 184.488H106.453C106.399 184.49 106.344 184.492 106.29 184.493C106.344 184.492 106.4 184.49 106.455 184.488Z" fill="#F19832"/>
<path fill-rule="evenodd" clip-rule="evenodd" d="M128.149 232.036C128.19 232.094 128.209 232.111 128.2 232.075C128.198 232.067 128.194 232.061 128.188 232.055C128.179 232.047 128.166 232.041 128.149 232.036ZM153.389 169.642C153.444 169.532 153.488 169.409 153.519 169.274C153.502 169.399 153.46 169.524 153.389 169.642ZM106.455 184.488H106.453C106.399 184.49 106.344 184.492 106.29 184.493C106.344 184.492 106.4 184.49 106.455 184.488ZM74.235 231.644C74.3726 231.72 74.2395 231.734 74.0078 231.744C74.0424 231.632 74.1114 231.577 74.235 231.644ZM93.5213 107.267C93.473 107.21 93.3966 107.166 93.3238 107.137C93.3355 107.144 93.3474 107.152 93.3594 107.16C93.3881 107.178 93.4175 107.198 93.4477 107.218C93.4718 107.234 93.4964 107.25 93.5213 107.267ZM105.286 72.6246C105.349 72.6677 105.406 72.7172 105.452 72.7625C105.396 72.7279 105.335 72.6797 105.286 72.6246ZM89.018 76.207C89.0284 76.1967 89.0238 76.1938 89.0086 76.1981C89.0098 76.2087 89.0128 76.2123 89.018 76.207ZM116.79 233.367L116.874 233.254C116.657 233.213 116.702 233.293 116.79 233.367ZM167.741 207.173C167.763 207.188 167.788 207.202 167.817 207.216C167.795 207.199 167.77 207.185 167.741 207.173ZM113.489 156.15C113.417 156.194 113.336 156.245 113.252 156.303C113.347 156.259 113.43 156.202 113.489 156.15Z" fill="#F19832"/>
<path d="M61.1025 241.763C61.9636 242.122 63.8438 242.466 64.4753 240.974C65.6809 240.974 66.5086 241.5 66.7717 241.763C67.1544 242.074 67.8912 242.854 67.7764 243.485C67.6616 244.117 68.2069 244.753 68.494 244.992L69.5704 243.916H70.2163L71.0057 242.983C71.1253 242.624 71.1348 241.935 70.2163 242.05C70.3253 241.977 70.4067 241.928 70.4734 241.887C70.6699 241.767 70.7377 241.726 71.0057 241.404C71.2927 241.06 71.8429 241.117 72.0821 241.189L72.728 240.256L72.7584 240.236C73.5076 239.744 74.0397 239.395 75.5267 239.395C76.0284 239.395 75.9438 239.072 75.8338 238.652C75.8003 238.523 75.7644 238.386 75.742 238.247L76.3879 237.96V237.385H77.5361V237.96H80.8371C81.172 237.696 81.9853 237.213 82.5594 237.385C83.1335 237.558 83.7076 237.84 83.9229 237.96C83.8751 238.294 83.8942 238.892 84.3535 238.605C84.8128 238.318 85.6452 238.247 86.004 238.247C86.0758 238.629 86.3198 239.395 86.7216 239.395C87.1235 239.395 87.8938 239.203 88.2287 239.108L90.1662 241.835C90.4533 241.811 91.1422 241.82 91.6015 242.05C92.0608 242.28 92.4626 242.002 92.6062 241.835V240.256C92.8693 240.017 93.4817 239.581 93.8261 239.754C94.1706 239.926 93.9697 239.395 93.8261 239.108H94.6873V238.605C95.07 238.366 95.7207 237.859 95.2614 237.744C95.0487 237.691 94.9345 237.707 94.8495 237.719C94.705 237.739 94.6447 237.747 94.3285 237.385C93.9266 236.926 94.783 236.764 95.2614 236.74C95.3092 235.783 95.6202 233.812 96.4813 233.582V232.147C96.577 232.553 96.9837 233.338 97.8448 233.223C98.706 233.108 99.2561 232.458 99.4236 232.147L100.787 231.932C101.074 232.075 101.749 232.276 102.151 231.932C102.398 231.719 102.75 231.786 103.078 231.848C103.416 231.912 103.727 231.971 103.873 231.716C104.103 231.314 104.973 231.357 105.38 231.429C107.252 232.377 110.936 234.686 110.838 236.404C110.984 234.582 111.344 234.3 112.269 234.3C112.592 234.3 113.458 234.575 114.44 234.888C116.292 235.477 118.556 236.198 118.369 235.448C118.383 235.408 118.397 235.37 118.411 235.332C118.742 234.409 118.892 233.993 117.651 233.51C117.252 233.355 117.011 233.28 116.874 233.254L116.79 233.367C116.702 233.293 116.657 233.213 116.874 233.254L117.436 232.506L118.799 233.367L119.015 233.797L119.445 233.008H121.024C122.364 232.912 124.928 232.879 124.469 233.51C124.009 234.142 124.804 233.391 125.258 232.936C126.135 232.585 127.829 231.961 128.149 232.036C127.929 231.727 127.085 230.246 126.622 229.42C128.32 230.879 132.09 233.625 133.583 232.936C135.075 232.247 133.87 232.075 133.08 232.075L132.434 230.927C133.415 231.166 135.319 231.774 135.09 232.29C134.86 232.807 134.42 232.984 134.228 233.008L136.238 234.228V233.367C137.625 233.08 140.787 232.606 142.338 233.008C143.321 233.263 143.343 233.13 143.37 232.965C143.397 232.805 143.428 232.615 144.347 232.721C145.84 232.893 149.896 234.276 151.738 234.946C152.312 234.635 153.461 233.883 153.461 233.367C153.461 233.066 154.366 232.998 155.354 232.925C156.485 232.842 157.723 232.75 157.838 232.29C158.01 231.601 159.345 230.999 159.991 230.783C160.661 231.142 162.058 231.802 162.287 231.573C162.517 231.343 162.575 230.233 162.575 229.707L164.225 227.913C164.584 228.008 165.373 228.142 165.66 227.913C165.947 227.683 167.215 227.1 167.813 226.836C168.579 226.286 169.851 224.712 168.818 222.818C168.818 222.244 169.296 222.196 169.536 222.244C169.775 221.717 170.009 220.665 169.033 220.665C168.057 220.665 163.125 221 160.78 221.167C162.096 221.024 164.024 220.507 161.211 219.588C158.398 218.67 159.226 220.067 159.991 220.88C159.489 220.497 158.24 219.804 157.264 220.091C157.13 219.856 157.42 219.762 157.817 219.633C158.27 219.487 158.863 219.296 159.13 218.799C159.532 218.053 157.049 218.01 155.757 218.081L154.824 218.512L155.757 217.436C156.523 217.459 158.082 217.45 158.197 217.22C158.235 217.145 158.517 217.134 158.925 217.118C160.066 217.074 162.19 216.993 162.718 215.354C163.436 213.13 163.292 212.34 162.431 212.34C162.13 212.34 161.881 212.508 161.617 212.685C161.128 213.014 160.587 213.377 159.561 212.771C158.297 212.025 159.848 212.173 160.78 212.34C161.307 212.364 162.273 212.254 161.929 211.623C161.584 210.991 162.79 210.498 163.436 210.331C163.962 211.168 165.373 212.441 166.809 210.833C168.244 209.226 167.407 209.159 166.809 209.326C167.331 208.736 168.22 207.532 167.817 207.216C167.788 207.202 167.763 207.188 167.741 207.173C167.77 207.185 167.795 207.199 167.817 207.216C168.377 207.492 170.311 207.763 170.038 206.671C169.751 205.523 172.406 204.805 172.478 205.021C172.55 205.236 174.2 200.715 173.195 200.571C173.841 199.782 175.104 197.859 174.989 196.481C175.851 196.251 175.348 195.189 174.989 194.687C175.181 193.012 175.133 189.463 173.411 188.659C173.238 187.568 172.095 187.2 171.545 187.152C170.301 185.98 167.182 183.707 164.656 183.994C165.66 184.568 163.22 184.568 163.077 183.994C162.933 183.42 157.623 183.42 157.623 184.425C157.623 185.229 156.523 186.913 155.972 187.654C155.709 187.511 155.068 187.267 154.609 187.439C154.421 187.509 154.218 187.196 153.947 186.777C153.389 185.916 152.542 184.61 150.949 185.286C151.207 185.065 151.485 184.867 151.749 184.678C152.514 184.133 153.172 183.664 152.958 182.918C152.772 182.265 153.859 181.854 154.722 181.528C155.186 181.353 155.585 181.203 155.685 181.052C155.972 180.621 156.403 174.378 154.107 172.799C154.508 171.536 153.365 171.316 152.743 171.364C152.049 170.24 150.59 168.235 150.303 169.211C150.303 167.891 149.538 167.848 149.155 167.991C148.7 167.202 147.906 165.652 148.366 165.767C148.617 165.829 149.018 166.345 149.427 166.869C149.953 167.544 150.491 168.234 150.734 167.991C150.888 167.991 151.078 167.936 151.289 167.875C151.668 167.766 152.113 167.638 152.528 167.776C153.067 167.956 153.607 168.636 153.519 169.274C153.774 168.169 153.202 166.211 151.093 163.398C149.198 160.872 149.442 158.758 149.801 158.016L151.308 156.725L149.155 155.433C149.346 154.978 149.385 153.983 148.007 153.639C146.629 153.294 146.763 152.251 147.002 151.773C146.93 150.984 146.6 149.433 145.854 149.548C145.854 148.831 141.763 144.525 139.18 144.955C137.113 145.3 137.553 144.286 138.032 143.735C138.008 143.137 137.659 141.884 136.453 141.654C135.247 141.425 135.281 138.162 135.448 136.559C135.472 136.2 135.391 135.354 134.874 134.837C134.358 134.32 134.276 133.521 134.3 133.186C134.348 131.99 134.243 129.57 133.439 129.455C132.635 129.34 133.104 128.546 133.439 128.163C133.463 127.948 133.439 127.302 133.152 126.441C132.865 125.58 133.224 125.412 133.439 125.436C133.583 124.647 133.726 123.097 133.152 123.211C133.319 123.164 133.554 122.967 133.152 122.566C133.152 121.991 132.937 120.628 132.076 120.7C131.387 120.757 131.262 120.58 131.286 120.484C131.454 120.293 131.573 119.925 130.712 119.982C129.851 120.04 129.97 119.575 130.138 119.336C129.923 118.595 129.277 116.882 128.416 115.963C127.683 115.657 126.664 116.978 125.882 117.99C125.381 118.639 124.978 119.161 124.81 119.049C124.379 118.762 123.374 119.336 124.092 119.982C124.666 120.499 124.81 122.924 124.81 124.073C124.164 124.12 122.872 124.388 122.872 125.077C122.929 126.57 121.987 126.178 121.509 125.795C120.982 126.225 119.829 127.101 119.427 127.158C119.026 127.216 118.734 128.33 118.638 128.881C117.346 129.861 114.72 131.895 114.548 132.182C114.375 132.469 113.615 132.301 113.256 132.182L112.987 133.617C113.202 133.832 113.13 134.406 112.7 134.406C112.269 134.406 111.264 134.406 111.049 134.119C110.834 133.832 108.466 134.406 109.757 134.837C110.791 135.181 109.805 135.268 109.183 135.268C109.04 134.98 108.638 134.607 108.179 135.411C107.605 136.416 106.959 137.923 107.246 138.066C107.475 138.181 106.719 138.545 106.313 138.712C105.547 140.004 104.074 142.645 104.303 142.874C104.409 142.98 104.301 143.066 104.172 143.169C103.951 143.345 103.669 143.569 104.303 144.023C105.107 144.597 106.169 146.75 106.6 147.754C106.48 148.352 106.341 149.563 106.743 149.62C106.887 149.979 107.533 151.342 108.107 151.271C108.566 151.213 108.872 150.385 108.968 149.979C109.064 150.577 109.14 151.773 108.681 151.773C108.222 151.773 108.346 152.969 108.466 153.567C108.872 153.639 109.614 153.911 109.327 154.428C108.968 155.074 110.116 153.926 109.973 153.567C109.917 153.429 110.117 153.216 110.372 152.946C110.779 152.513 111.325 151.933 111.193 151.271C111.02 150.409 111.456 150.816 111.695 151.127C111.647 151.677 111.695 152.749 112.269 152.634C112.755 152.537 112.977 152.177 113.115 151.954C113.181 151.848 113.227 151.773 113.274 151.773C113.417 151.773 114.063 151.988 114.063 152.778C114.063 153.042 114.144 153.234 114.213 153.399C114.351 153.727 114.444 153.951 113.776 154.428C112.771 155.146 112.197 155.648 112.556 156.15C112.755 156.429 113.035 156.402 113.252 156.303C113.336 156.245 113.417 156.194 113.489 156.15C113.43 156.202 113.347 156.259 113.252 156.303C112.78 156.625 112.215 157.127 112.556 157.37C112.72 157.487 112.427 157.497 111.995 157.513C111.099 157.544 109.605 157.597 110.331 158.662C111.193 159.925 110.595 160.624 110.188 160.815C110.236 161.437 110.647 162.638 111.91 162.465C110.131 163.327 109.112 165.36 108.824 166.269L109.542 168.924C109.112 169.187 108.179 169.685 107.892 169.57C107.533 169.426 106.743 169.857 107.317 170.646C107.892 171.436 108.322 172.871 108.25 173.158L109.973 174.88C109.542 175.287 108.81 176.172 109.327 176.459C109.973 176.818 110.403 178.971 110.188 179.401C110.016 179.746 111.264 179.928 111.91 179.976C112.114 181.028 112.151 182.76 110.672 181.267C109.194 179.775 107.82 180.645 107.317 181.267C106.642 181.794 105.448 183.176 106.08 184.497C106.149 184.497 106.219 184.495 106.29 184.493C106.344 184.492 106.399 184.49 106.453 184.488H106.455C107.195 184.461 107.892 184.437 107.892 185.358C107.892 186.219 106.827 187.2 106.295 187.582C105.757 187.75 104.82 188.3 105.38 189.161C105.75 189.73 106.27 189.657 106.679 189.6C107.043 189.549 107.317 189.511 107.317 189.951C107.317 190.697 105.822 191.17 105.075 191.314C104.549 191.553 103.654 192.233 104.286 193.036C104.917 193.84 106.223 194.519 106.797 194.759C107.036 195.404 107.271 196.682 106.295 196.624C105.075 196.553 104.465 202.007 105.38 203.155C106.112 204.073 107.359 204.112 107.892 204.016C108.537 204.279 109.686 205.021 109.112 205.882C108.537 206.743 109.913 206.432 110.672 206.169C109.865 208.011 108.58 211.752 109.901 211.982C110.068 211.862 110.403 211.58 110.403 211.407C110.403 211.312 110.644 211.145 110.906 210.965C111.232 210.739 111.591 210.491 111.551 210.331C111.516 210.19 111.932 209.91 112.363 209.619C112.81 209.319 113.274 209.006 113.274 208.824C113.274 208.653 113.585 208.645 113.918 208.637C114.282 208.628 114.672 208.618 114.709 208.393C114.781 207.963 114.781 209.255 114.207 209.039C113.633 208.824 112.054 210.475 111.91 210.69C111.859 210.767 111.853 210.835 111.848 210.908C111.838 211.036 111.827 211.178 111.551 211.407C111.121 211.766 110.188 213.13 110.116 213.56C110.059 213.905 109.422 214.087 109.112 214.134C108.466 214.182 106.987 214.579 106.241 215.785C105.495 215.498 105.212 216.527 105.165 217.077C105.021 217.412 104.691 217.981 104.519 217.579C104.346 217.177 104.303 219.182 104.303 220.234C102.749 219.995 99.5097 219.66 98.993 220.234C98.7657 219.052 97.4723 219.022 96.2813 218.995C95.5926 218.979 94.9381 218.964 94.5437 218.727C93.4673 218.081 92.965 217.866 92.3909 218.297C92.1428 218.483 91.1307 218.387 90.0207 218.283C88.5624 218.145 86.9351 217.992 86.6499 218.44C86.248 219.072 86.5781 219.373 86.7934 219.445H85.9323C86.2672 219.971 86.8365 221.081 86.4346 221.311C86.2353 221.425 86.0472 221.719 85.8525 222.024C85.5566 222.488 85.2454 222.976 84.8558 222.889C84.7449 222.865 84.5534 222.808 84.3171 222.739C83.1781 222.403 80.9974 221.76 81.7701 222.889C81.0811 223.291 80.9567 224.205 80.9807 224.612C80.885 225.688 80.6075 227.812 80.263 227.698C79.8325 227.554 79.0431 228.128 79.0431 228.702C79.0431 229.161 78.0384 229.372 77.5361 229.42C77.5121 229.803 77.3208 230.669 76.7467 231.07C76.1726 231.472 75.0244 231.238 74.522 231.07C74.522 231.525 74.6656 232.491 75.2397 232.721C75.8138 232.951 74.6656 232.625 74.0197 232.434C73.9834 232.23 73.9541 231.918 74.0078 231.744L73.9854 231.745L73.9432 231.747L73.9413 231.747L73.9315 231.748L73.9249 231.748C73.4835 231.767 72.7997 231.796 72.7997 232.147C72.7997 232.194 72.8002 232.248 72.8008 232.306C72.8067 232.95 72.818 234.174 72.2256 234.371C72.1259 234.405 71.9989 234.44 71.8579 234.478C71.0857 234.691 69.8965 235.018 70.5033 235.807C70.8754 236.29 70.6495 236.369 70.0356 236.583C69.4654 236.781 68.5606 237.096 67.4893 237.96C66.5708 237.5 66.1976 238.534 66.1258 239.108C65.8149 239.012 65.1212 238.706 64.8341 238.247C64.5471 237.787 64.1882 238.294 64.0447 238.605C63.1597 238.773 61.3895 239.337 61.3895 240.256C61.3895 241.175 61.1981 241.643 61.1025 241.763Z" fill="#EAEAEA"/>
<path d="M127.124 233.51C127.267 232.912 128.157 232.132 130.568 233.797C132.98 235.462 131.573 235.448 130.568 235.233C130.329 235.615 129.923 236.424 130.21 236.596C130.568 236.811 128.487 237.314 128.2 236.955C127.971 236.668 126.287 235.448 125.473 234.874C125.306 234.754 124.871 234.587 124.469 234.874C123.966 235.233 125.617 233.51 127.124 233.51Z" fill="#EAEAEA"/>
<path fill-rule="evenodd" clip-rule="evenodd" d="M78.3972 96.3005C78.4106 96.2737 78.404 96.2845 78.3745 96.3207C78.3861 96.3141 78.3938 96.3074 78.3972 96.3005Z" fill="#F19832"/>
<path fill-rule="evenodd" clip-rule="evenodd" d="M57.5861 124.144C57.4659 124.224 57.4327 124.213 57.4638 124.14C57.5064 124.14 57.5473 124.142 57.5861 124.144ZM40.0043 132.325C39.6453 132.408 39.8708 132.332 40.3085 132.19C40.2232 132.251 40.1226 132.298 40.0043 132.325ZM60.7992 124.638C60.7997 124.784 60.9516 124.704 61.1025 124.575C61.0133 124.595 60.9104 124.617 60.7992 124.638ZM76.0153 131.399C76.0201 131.421 76.0247 131.443 76.029 131.464C75.9926 131.391 75.9717 131.324 75.9928 131.3C76.0008 131.334 76.0083 131.367 76.0153 131.399ZM29.0246 139.789C29.0437 139.712 29.0536 139.609 29.043 139.491C29.0216 139.606 29.0181 139.71 29.0246 139.789ZM10.8145 180.791C10.8145 180.791 10.7322 180.822 10.5988 180.862C10.6398 180.866 10.682 180.858 10.7252 180.837C10.7872 180.806 10.8145 180.791 10.8145 180.791Z" fill="#F19832"/>
<path fill-rule="evenodd" clip-rule="evenodd" d="M75.1454 53.2644C75.2882 53.3156 75.4267 53.3916 75.5267 53.4584C75.4281 53.4255 75.2812 53.3594 75.1454 53.2644Z" fill="#E65052"/>
<path fill-rule="evenodd" clip-rule="evenodd" d="M147.935 11.9797C147.879 11.9983 147.917 11.9973 148.008 11.9849C147.98 11.9753 147.955 11.973 147.935 11.9797Z" fill="#E65052"/>
<path d="M78.0019 160C78.0019 159.785 81.0426 151.787 81.5019 151.5C81.9612 151.213 83.3584 147.694 83.5019 147C83.9325 146.88 87.1953 147.108 87.3675 146.534C87.5828 145.817 96.7684 139.717 97.9883 140.147C97.242 140.836 96.7866 146.546 97.0019 147C97.2172 147.12 96.5186 149.983 96.0019 150.5C95.4852 151.017 95.0019 151.213 95.0019 151.5C94.667 151.811 94.7889 153.557 94.5019 153.5C94.1431 153.428 93.1478 155.785 92.5019 156C91.856 156.215 89.3584 156.498 89.5019 157C89.6454 157.502 87.1454 158.787 87.0019 158.5C86.8871 158.27 78.3368 159.904 78.0019 160Z" fill="#6A4C93"/>
<path d="M121.572 269.864H125.902C126.494 270.566 127.5 272.07 126.79 272.471C126.079 272.872 123.533 272.638 122.349 272.471L121.572 269.864Z" fill="#EAEAEA"/>
<path d="M111.247 263.847L114.577 261.641C114.873 262.109 115.288 263.206 114.577 263.847C113.867 264.489 112.061 264.115 111.247 263.847Z" fill="#EAEAEA"/>
<path d="M110.838 236.404C110.936 234.686 107.252 232.377 105.38 231.429C104.973 231.357 104.103 231.314 103.873 231.716C103.727 231.971 103.416 231.912 103.078 231.848C102.75 231.786 102.398 231.719 102.151 231.932C101.749 232.276 101.074 232.075 100.787 231.932L99.4236 232.147C99.2561 232.458 98.706 233.108 97.8448 233.223C96.9837 233.338 96.577 232.553 96.4813 232.147V233.582C95.6202 233.812 95.3092 235.783 95.2614 236.74C94.783 236.764 93.9266 236.926 94.3285 237.385C94.6447 237.747 94.705 237.739 94.8495 237.719C94.9345 237.707 95.0487 237.691 95.2614 237.744C95.7207 237.859 95.07 238.366 94.6873 238.605V239.108H93.8261C93.9697 239.395 94.1706 239.926 93.8261 239.754C93.4817 239.581 92.8693 240.017 92.6062 240.256V241.835C92.4626 242.002 92.0608 242.28 91.6015 242.05C91.1422 241.82 90.4533 241.811 90.1662 241.835L88.2287 239.108C87.8938 239.203 87.1235 239.395 86.7216 239.395C86.3198 239.395 86.0758 238.629 86.004 238.247C85.6452 238.247 84.8128 238.318 84.3535 238.605C83.8942 238.892 83.8751 238.294 83.9229 237.96C83.7076 237.84 83.1335 237.558 82.5594 237.385C81.9853 237.213 81.172 237.696 80.8371 237.96H77.5361V237.385H76.3879V237.96L75.742 238.247C75.7644 238.386 75.8003 238.523 75.8338 238.652C75.9438 239.072 76.0284 239.395 75.5267 239.395C74.0397 239.395 73.5076 239.744 72.7584 240.236L72.728 240.256L72.0821 241.189C71.8429 241.117 71.2927 241.06 71.0057 241.404C70.7377 241.726 70.6699 241.767 70.4734 241.887C70.4067 241.928 70.3253 241.977 70.2163 242.05C71.1348 241.935 71.1253 242.624 71.0057 242.983L70.2163 243.916H69.5704L68.494 244.992C68.2069 244.753 67.6615 244.117 67.7764 243.485C67.8912 242.854 67.1544 242.074 66.7717 241.763C66.5086 241.5 65.6809 240.974 64.4753 240.974C63.8438 242.466 61.9636 242.122 61.1025 241.763C61.1981 241.643 61.3895 241.175 61.3895 240.256C61.3895 239.337 63.1597 238.773 64.0447 238.605C64.1882 238.294 64.5471 237.787 64.8341 238.247C65.1212 238.706 65.8149 239.012 66.1258 239.108C66.1976 238.534 66.5708 237.5 67.4893 237.96C68.5606 237.096 69.4654 236.781 70.0356 236.583C70.6495 236.369 70.8754 236.29 70.5033 235.807C69.8965 235.018 71.0857 234.691 71.8579 234.478C71.9989 234.44 72.1259 234.405 72.2256 234.371C72.818 234.174 72.8067 232.95 72.8008 232.306C72.8002 232.248 72.7997 232.194 72.7997 232.147C72.7997 231.796 73.4835 231.767 73.9249 231.748L73.9315 231.748M110.838 236.404C110.837 236.42 110.835 236.436 110.834 236.453M110.838 236.404C110.984 234.582 111.344 234.3 112.269 234.3C112.592 234.3 113.458 234.575 114.44 234.888C116.292 235.477 118.556 236.198 118.369 235.448C118.383 235.408 118.397 235.37 118.411 235.332C118.742 234.409 118.892 233.993 117.651 233.51C117.252 233.355 117.011 233.28 116.874 233.254M116.874 233.254C116.657 233.213 116.702 233.293 116.79 233.367L116.874 233.254ZM116.874 233.254L117.436 232.506L118.799 233.367L119.015 233.797L119.445 233.008H121.024C122.364 232.912 124.928 232.879 124.469 233.51C124.009 234.142 124.804 233.391 125.258 232.936C126.135 232.585 127.829 231.961 128.149 232.036M128.149 232.036C128.19 232.094 128.209 232.111 128.2 232.075C128.198 232.067 128.194 232.061 128.188 232.055C128.179 232.047 128.166 232.041 128.149 232.036ZM128.149 232.036C127.929 231.727 127.085 230.246 126.622 229.42C128.32 230.879 132.09 233.625 133.583 232.936C135.075 232.247 133.87 232.075 133.08 232.075L132.434 230.927C133.415 231.166 135.319 231.774 135.09 232.29C134.86 232.807 134.42 232.984 134.228 233.008L136.238 234.228V233.367C137.625 233.08 140.787 232.606 142.338 233.008C143.321 233.263 143.343 233.13 143.37 232.965C143.397 232.805 143.428 232.615 144.347 232.721C145.84 232.893 149.896 234.276 151.738 234.946C152.313 234.635 153.461 233.883 153.461 233.367C153.461 233.066 154.366 232.998 155.354 232.925C156.485 232.842 157.723 232.75 157.838 232.29C158.01 231.601 159.345 230.999 159.991 230.783C160.661 231.142 162.058 231.802 162.287 231.573C162.517 231.343 162.575 230.233 162.575 229.707L164.225 227.913C164.584 228.009 165.373 228.142 165.66 227.913C165.947 227.683 167.215 227.1 167.813 226.836C168.579 226.286 169.851 224.712 168.818 222.818C168.818 222.244 169.296 222.196 169.536 222.244C169.775 221.717 170.009 220.665 169.033 220.665C168.057 220.665 163.125 221 160.78 221.167C162.096 221.024 164.024 220.507 161.211 219.588C158.398 218.67 159.226 220.067 159.991 220.88C159.489 220.497 158.24 219.804 157.264 220.091C157.13 219.856 157.42 219.762 157.817 219.633C158.27 219.487 158.863 219.296 159.13 218.799C159.532 218.053 157.049 218.01 155.757 218.081L154.824 218.512L155.757 217.436C156.523 217.459 158.082 217.45 158.197 217.22C158.235 217.145 158.517 217.134 158.925 217.118C160.066 217.074 162.19 216.993 162.718 215.354C163.436 213.13 163.292 212.34 162.431 212.34C162.13 212.34 161.881 212.508 161.617 212.685C161.128 213.014 160.587 213.377 159.561 212.771C158.297 212.025 159.848 212.173 160.78 212.34C161.307 212.364 162.273 212.254 161.929 211.623C161.584 210.991 162.79 210.498 163.436 210.331C163.962 211.168 165.373 212.441 166.809 210.833C168.244 209.226 167.407 209.159 166.809 209.326C167.331 208.736 168.22 207.532 167.817 207.216M167.817 207.216C167.795 207.199 167.77 207.185 167.741 207.173C167.763 207.188 167.788 207.202 167.817 207.216ZM167.817 207.216C168.377 207.492 170.311 207.763 170.038 206.671C169.751 205.523 172.406 204.805 172.478 205.021C172.55 205.236 174.2 200.715 173.195 200.571C173.841 199.782 175.104 197.859 174.989 196.481C175.851 196.251 175.348 195.189 174.989 194.687C175.181 193.012 175.133 189.463 173.411 188.659C173.238 187.568 172.095 187.2 171.545 187.152C170.301 185.98 167.182 183.707 164.656 183.994C165.66 184.568 163.22 184.568 163.077 183.994C162.933 183.42 157.623 183.42 157.623 184.425C157.623 185.229 156.523 186.913 155.972 187.654C155.709 187.511 155.068 187.267 154.609 187.439C154.421 187.509 154.218 187.196 153.947 186.777C153.389 185.916 152.542 184.61 150.949 185.286C151.207 185.065 151.485 184.867 151.749 184.678C152.514 184.133 153.172 183.664 152.958 182.918C152.772 182.265 153.859 181.854 154.722 181.528C155.186 181.353 155.585 181.203 155.685 181.052C155.972 180.621 156.403 174.378 154.107 172.799C154.508 171.536 153.365 171.316 152.743 171.364C152.049 170.24 150.59 168.235 150.303 169.211C150.303 167.891 149.538 167.848 149.155 167.991C148.7 167.202 147.906 165.652 148.366 165.767C148.617 165.829 149.018 166.345 149.427 166.869C149.953 167.544 150.491 168.234 150.734 167.991C150.888 167.991 151.078 167.936 151.289 167.875C151.668 167.766 152.113 167.638 152.528 167.776C153.067 167.956 153.607 168.636 153.519 169.274M153.519 169.274C153.502 169.399 153.46 169.524 153.389 169.642C153.444 169.532 153.488 169.409 153.519 169.274ZM153.519 169.274C153.774 168.169 153.202 166.211 151.093 163.398C149.198 160.872 149.442 158.758 149.801 158.016L151.308 156.725L149.155 155.433C149.346 154.978 149.385 153.983 148.007 153.639C146.629 153.294 146.763 152.251 147.002 151.773C146.93 150.984 146.6 149.433 145.854 149.548C145.854 148.831 141.763 144.525 139.18 144.955C137.113 145.3 137.553 144.286 138.032 143.735C138.008 143.137 137.659 141.884 136.453 141.654C135.247 141.425 135.281 138.162 135.448 136.559C135.472 136.2 135.391 135.354 134.874 134.837C134.358 134.32 134.276 133.521 134.3 133.186C134.348 131.99 134.243 129.57 133.439 129.455C132.635 129.34 133.104 128.546 133.439 128.163C133.463 127.948 133.439 127.302 133.152 126.441C132.865 125.58 133.224 125.412 133.439 125.436C133.583 124.647 133.726 123.097 133.152 123.211C133.319 123.164 133.554 122.967 133.152 122.566C133.152 121.991 132.937 120.628 132.076 120.7C131.387 120.757 131.262 120.58 131.286 120.484C131.454 120.293 131.573 119.925 130.712 119.982C129.851 120.04 129.97 119.575 130.138 119.336C129.923 118.595 129.277 116.882 128.416 115.963M128.416 115.963C128.248 115.365 127.827 114.126 127.483 113.954C127.052 113.739 127.411 113.236 126.55 112.878C125.689 112.519 125.402 112.304 124.54 112.232C123.852 112.174 124.11 111.969 124.325 111.873C123.966 111.395 122.962 110.466 121.813 110.581C121.813 110.007 119.661 107.424 117.508 110.151C115.785 112.332 115.211 111.921 115.14 111.442C114.661 111.012 113.446 110.151 112.413 110.151C111.379 110.151 111.599 110.007 111.839 109.935C110.882 109.481 108.767 108.615 107.963 108.787C106.959 109.002 108.25 107.783 107.03 108.285C106.399 107.596 106.193 106.897 106.169 106.634C106.791 107.256 108.236 108.457 109.04 108.285C109.844 108.113 110.188 108.548 110.26 108.787C110.714 109.05 111.839 109.419 112.7 108.787C113.561 108.156 114.159 108.381 114.35 108.572C114.589 108.213 114.996 107.452 114.709 107.28C114.422 107.108 115.068 107.208 115.427 107.28C116.12 106.778 117.436 105.716 117.149 105.486C116.862 105.257 117.747 105.39 118.225 105.486C118.68 105.965 119.661 106.634 119.948 105.486C120.809 105.486 121.957 105.127 122.316 104.338C122.603 103.706 120.665 102.783 119.661 102.4C119.948 101.946 120.35 100.879 119.661 100.247C118.972 99.616 115.642 100.798 114.063 101.467C114.518 100.822 115.599 99.4868 116.288 99.3146C116.977 99.1423 119.302 99.4342 120.378 99.6016C121.046 99.7449 121.216 99.5314 121.383 98.9558C121.694 99.0275 122.316 98.9701 122.316 98.1664C122.962 97.8793 123.823 97.664 124.325 96.5158C124.727 95.5973 124.588 95.4155 124.469 95.4394C124.708 95.1523 125.143 94.4491 124.971 93.9324C124.799 93.4157 125.569 93.1908 125.976 93.143C126.167 93.0712 126.607 92.8129 126.837 92.3536C127.066 91.8943 127.889 91.3489 128.272 91.1336C128.2 90.8944 128.172 90.3873 128.631 90.2725C129.09 90.1577 128.822 89.22 128.631 88.7655C129.349 87.9283 130.784 86.0959 130.784 85.4644C130.784 84.8329 131.023 83.5268 131.143 82.9527C131.597 82.2112 132.635 80.5989 133.152 80.0822C133.798 79.4364 134.013 79.7234 134.157 78.7187C134.271 77.915 134.635 77.9533 134.802 78.0729C134.97 77.14 135.161 75.0589 134.587 74.1977C134.013 73.3366 133.678 73.217 133.583 73.2648C133.654 73.1213 133.611 72.8055 132.865 72.6907C132.119 72.5759 132.315 72.308 132.506 72.1884C131.98 72.0687 130.856 71.9444 130.568 72.4036C130.281 72.8629 129.779 72.595 129.564 72.4036C129.349 72.1166 128.861 71.7147 128.631 72.4036C128.401 73.0926 127.913 72.6907 127.698 72.4036C127.459 72.1644 126.837 71.7865 126.263 72.1884C125.689 72.5902 125.258 72.1166 125.115 71.8295C124.708 71.7099 123.78 71.4851 123.32 71.5425C122.861 71.5999 122.794 71.3751 122.818 71.2554C122.124 71.0402 120.651 70.7675 120.306 71.399C119.962 72.0305 119.302 71.7578 119.015 71.5425C118.417 71.2554 117.178 70.5809 117.005 70.179C116.833 69.7771 114.972 70.0116 114.063 70.179C114.111 70.5378 114.049 71.2267 113.417 71.1119C112.628 70.9684 110.619 71.1119 109.757 72.1884C108.896 73.2648 109.399 71.6143 106.815 72.1884C106.815 72.6189 107.461 72.906 106.456 73.2648C105.452 73.6236 104.59 73.3365 104.734 72.7625C104.822 72.4117 105.082 72.4851 105.286 72.6246M128.416 115.963C127.683 115.657 126.664 116.978 125.882 117.99C125.381 118.639 124.978 119.161 124.81 119.049C124.379 118.762 123.374 119.336 124.092 119.982C124.666 120.499 124.81 122.924 124.81 124.073C124.164 124.12 122.872 124.388 122.872 125.077C122.929 126.57 121.987 126.178 121.509 125.795C120.982 126.225 119.829 127.101 119.427 127.158C119.026 127.216 118.734 128.33 118.638 128.881C117.346 129.861 114.72 131.895 114.548 132.182C114.375 132.469 113.615 132.301 113.256 132.182L112.987 133.617M105.286 72.6246C105.349 72.6677 105.406 72.7172 105.452 72.7625C105.396 72.7279 105.335 72.6797 105.286 72.6246ZM105.286 72.6246C105.166 72.4889 105.125 72.3108 105.452 72.1884C106.026 71.9731 106.6 72.1166 106.456 71.5425C106.313 70.9684 108.035 71.1119 107.892 70.4661C107.748 69.8202 107.461 70.179 106.6 70.3225C105.739 70.4661 105.81 69.5331 104.303 70.179C103.098 70.6957 102.605 71.3033 102.509 71.5425C102.581 71.088 103.04 70.0785 104.303 69.6767C105.882 69.1743 106.169 70.0355 106.6 69.0308C106.944 68.2271 107.605 68.6959 107.892 69.0308C107.82 69.4853 107.863 70.2077 108.609 69.4614C109.542 68.5285 111.48 66.5191 111.121 66.2321C110.834 66.0024 109.853 66.7105 109.399 67.0932C109.327 66.7344 108.925 66.146 107.892 66.6626C106.858 67.1793 106.504 66.7344 106.456 66.4474C106.265 66.1125 105.653 65.4857 104.734 65.658C103.815 65.8302 103.921 64.9164 104.088 64.438C104.303 64.9164 104.992 65.7584 106.026 65.2992C107.059 64.8399 106.983 65.7297 106.815 66.2321C106.935 65.945 107.289 65.3996 107.748 65.5145C108.322 65.658 108.609 65.8015 108.609 64.6533C108.609 63.7347 108.035 63.84 107.748 64.0074V63.3616C108.035 63.6008 108.724 63.9787 109.183 63.5769C109.643 63.175 110.284 63.0745 110.547 63.0745C110.738 62.8353 111.121 62.2708 111.121 61.9263C111.121 61.4958 113.13 61.4958 114.853 59.9887C116.575 58.4817 116.431 58.2664 116.36 58.0512C116.288 57.8359 118.943 56.903 119.302 56.9747C119.661 57.0465 121.526 53.2431 120.809 52.0231C121.67 50.9467 122.316 49.5114 122.244 49.1526C122.172 48.7938 121.239 49.3679 121.024 49.1526C120.809 48.9373 119.517 48.435 119.015 48.7938C118.613 49.0809 118.417 48.5785 118.369 48.2915C118.082 48.1719 117.623 48.2915 118.082 49.7267C117.292 49.5114 116.503 49.3679 116.001 49.7267C115.599 50.0138 115.738 49.3679 115.857 49.0091C115.307 48.8895 114.034 48.8656 113.346 49.7267C112.657 50.5879 111.097 49.9898 110.403 49.5832C110.284 49.2005 109.958 48.6646 109.614 49.5832C109.269 50.5017 109.04 50.0616 108.968 49.7267C108.801 49.5832 108.394 49.4253 108.107 49.942C107.82 50.4587 107.509 50.3487 107.389 50.229C107.102 49.7267 106.141 49.2531 104.59 51.3772C103.04 53.5014 104.327 51.162 105.165 49.7267C104.925 48.8656 104.146 47.66 102.94 49.7267C102.136 49.8989 101.409 50.8031 101.146 51.2337C101.242 50.7792 101.519 49.8415 101.864 49.7267C102.294 49.5832 102.581 48.6503 101.361 47.7891C100.859 48.7938 101.074 49.5832 100.644 49.5832C100.213 49.5832 101.433 47.2868 99.5671 46.9997C98.0745 46.7701 98.0362 47.9566 98.2036 48.5785C97.7731 48.6981 96.9263 49.0665 96.9837 49.5832C97.0411 50.0999 97.5338 50.5639 97.7731 50.7314C97.2707 50.7792 96.4813 51.0184 97.3425 51.5925C98.2036 52.1666 97.2707 52.0231 96.6966 51.8796C96.1943 51.8317 95.491 52.3963 96.6966 55.0371C95.4767 55.4677 95.2614 54.1042 93.9697 55.0371C93.2807 54.0612 92.7736 54.6305 92.6062 55.0371C92.8693 55.6591 93.5104 56.9747 93.9697 57.2618C94.4289 57.5488 93.9218 57.7641 93.6108 57.8359C93.4912 57.9794 93.3238 58.3956 93.6108 58.9123C93.8979 59.429 92.8215 59.1276 92.2474 58.9123C91.8885 58.5296 91.3862 58.1803 92.2474 59.8452C93.3238 61.9263 93.3238 61.711 93.4673 61.2805C93.6108 60.8499 94.472 62.2134 93.9697 62.4287C93.4673 62.6439 95.979 64.0792 95.3331 64.7251C94.6873 65.3709 93.8979 62.4287 92.8932 62.7157C92.7258 62.4287 92.2761 61.8833 91.8168 61.9981C91.3575 62.1129 92.7258 63.4333 93.4673 64.0792C92.9411 63.9118 91.745 63.3472 91.1709 62.4287C90.5968 61.5101 90.5968 62.7157 90.6686 63.4333C90.3337 63.3377 89.6639 62.9597 89.6639 62.2134C89.6639 61.2805 87.8698 61.8546 88.3004 62.2134C88.4439 62.8592 88.3004 63.1463 88.8745 63.7204C89.4486 64.2945 88.5875 65.4427 88.4439 65.2992C88.3004 65.1556 87.9416 64.438 87.9416 63.4333C87.9416 62.4287 86.2193 62.5722 86.2911 63.4333C86.3628 64.2945 86.004 65.2992 86.1475 65.5145C86.2624 65.6867 86.7695 65.9689 87.0087 66.0885C87.2479 66.3756 87.6546 66.9497 87.3675 66.9497C87.0087 66.9497 86.5781 66.0885 86.1475 66.6626C85.717 67.2367 85.2146 67.8108 85.8605 68.0261C86.3772 68.1984 86.3628 68.5763 86.2911 68.7438C86.4107 69.2939 86.7216 70.3799 87.0087 70.3225C87.3675 70.2508 88.8745 70.1072 88.8745 70.8249C88.8745 71.399 87.6306 71.2554 87.0087 71.1119C86.5303 70.5139 85.5304 69.3179 85.3582 69.3179C85.1429 69.3179 84.0664 71.6143 84.3535 72.3319C84.6405 73.0495 84.2817 74.5565 85.0711 74.7C85.7026 74.8149 86.626 73.9346 87.0087 73.4801C87.1283 73.791 87.3675 74.4704 87.3675 74.7C87.3675 74.9871 88.8745 73.4801 89.0898 73.6236C89.3051 73.7671 88.8745 74.7718 87.9416 74.9153C87.0087 75.0588 86.2193 74.3412 85.6452 75.5612C85.1859 76.5372 85.7887 76.4462 86.1475 76.2788C86.626 76.6137 87.755 77.0251 88.4439 75.9918C89.2422 74.7943 88.9922 76.0635 89.0086 76.1981M89.0086 76.1981C89.0098 76.2087 89.0128 76.2123 89.018 76.207C89.0284 76.1967 89.0238 76.1938 89.0086 76.1981ZM89.0086 76.1981C88.9175 76.2237 88.4439 76.5048 88.4439 76.9964C88.4439 77.4557 88.9702 77.8097 89.2333 77.9293C89.0898 78.0968 88.731 78.3312 88.4439 77.9293C88.0851 77.427 87.0805 76.207 86.2911 78.1446C85.6452 78.5034 85.2864 79.6516 86.1475 79.7234C86.8365 79.7808 87.0087 80.2736 87.0087 80.5128C87.511 80.441 88.5875 80.3406 88.8745 80.5128C89.2333 80.7281 87.2957 80.9434 87.0087 80.7998C86.7216 80.6563 85.5734 79.2928 84.497 80.5128C83.6359 81.4888 84.3774 81.7806 84.8558 81.8045C84.9276 82.3308 85.2433 83.3259 85.9323 83.0962C86.6212 82.8666 86.9369 83.0962 87.0087 83.2398C86.5781 83.4311 85.6309 83.7564 85.2864 83.5268C84.8558 83.2398 83.7794 80.7281 82.7029 83.6703C81.6265 86.6126 82.3441 84.675 83.7076 85.0338C82.9039 85.6653 83.2771 85.9667 83.5641 86.0385C83.8272 85.895 84.4252 85.651 84.7123 85.8232C85.0711 86.0385 83.3488 86.3973 82.7029 86.3973C82.0571 86.3973 82.2724 87.1149 82.9182 87.402C83.5641 87.689 80.9089 87.1867 81.9136 87.9761C82.7173 88.6076 81.5787 87.8565 80.9089 87.402C80.6218 87.3781 80.0477 87.4163 80.0477 87.7608C80.0477 88.1053 79.4258 87.9043 79.1148 87.7608C78.7082 87.5933 77.8518 87.402 77.6796 87.9761C77.5074 88.5502 77.1772 88.3588 77.0337 88.1914C77.1294 88.6459 77.4786 89.4831 78.1102 89.196C78.7417 88.909 78.9474 89.0764 78.9713 89.196C79.354 89.3874 80.1482 89.7127 80.263 89.4831C80.3778 89.2534 80.7414 89.5788 80.9089 89.7701C81.1003 89.8658 81.5691 89.9998 81.9136 89.7701C82.3441 89.4831 81.6983 90.3442 81.483 90.416C81.2677 90.4878 80.1195 89.6266 79.6889 90.703C79.3445 91.5642 81.1242 92.6885 82.0571 93.143C82.2006 93.4539 82.5738 94.0328 82.9182 93.8606C83.2627 93.6884 83.301 94.0759 83.2771 94.2912C84.21 93.8845 86.1332 92.8703 86.3628 92.0665C86.5925 91.2628 86.9848 91.3011 87.1522 91.4207C87.6306 91.1815 88.6018 90.6456 88.6592 90.416C88.731 90.129 89.8074 90.2725 89.951 90.416C90.0945 90.5595 91.458 90.8466 89.8792 90.7748C88.3004 90.7031 88.2287 91.5642 88.5157 91.636C88.7453 91.6934 88.3243 92.0426 88.0851 92.2101C87.6785 92.4253 86.9226 93.0569 87.1522 93.8606C87.4393 94.8653 87.0087 94.0759 88.9463 93.8606C90.4963 93.6884 88.6832 94.2194 87.5828 94.5065C87.0326 94.5782 86.2193 94.9083 87.3675 95.6547C88.5157 96.401 89.5204 95.9656 89.8792 95.6547C89.7596 95.9895 89.3481 96.6306 88.6592 96.5158C87.7981 96.3723 86.1475 95.3676 85.6452 96.7311C84.8415 97.3626 84.7841 97.7597 84.8558 97.8793C84.2578 98.4773 83.1909 99.7595 83.7076 100.104C84.3965 99.8743 84.8558 100.008 84.9993 100.104C84.7601 100.319 84.2243 100.721 83.9947 100.606C83.765 100.491 83.8033 100.989 83.8512 101.252L83.1335 102.616C83.301 102.376 83.7363 101.869 84.1382 101.754C84.5401 101.64 84.21 102.281 83.9947 102.616C83.7555 102.855 83.3919 103.434 83.8512 103.836C82.7747 103.979 80.7654 105.917 81.2677 106.778C81.8418 105.701 82.703 105.199 82.9182 105.199C83.1335 105.199 81.6983 107.352 81.483 107.424C81.2677 107.495 81.1242 108.5 81.6983 108.213C82.1576 107.983 82.5116 107.83 82.6312 107.783C81.7222 108.62 80.263 110.38 81.6983 110.725C81.483 111.155 82.6312 111.514 82.6312 110.94C82.6312 110.481 83.2053 110.462 83.4923 110.509C82.5355 111.203 80.751 112.648 81.2677 112.878C81.7844 113.107 81.0524 113.26 80.6218 113.308L79.8325 115.389C79.5454 116.25 79.0574 118.059 79.4019 118.403C79.8325 118.834 78.8995 118.69 78.2537 119.264C77.737 119.724 77.8949 121.082 78.0384 121.704C78.3972 121.728 79.1722 121.733 79.4019 121.561C79.6315 121.389 79.9281 121.585 80.0477 121.704C80.6697 121.441 81.8275 120.728 81.483 119.982C81.1385 119.236 80.9089 119.001 80.8371 118.977C81.2199 118.762 82.014 118.188 82.1289 117.614C82.2437 117.04 82.5116 116.801 82.6312 116.753V115.963C82.8226 115.868 83.1479 115.562 82.9182 115.102C82.6886 114.643 82.8226 114.289 82.9182 114.169C83.4684 113.236 84.7266 111.471 85.3582 111.873C85.9897 112.275 85.3342 110.462 84.9276 109.505C84.9993 108.787 85.0281 107.309 84.5688 107.137C84.1095 106.964 84.4731 106.012 84.7123 105.558C84.9515 106.252 85.5591 107.151 86.0758 105.199C86.7216 105.343 89.018 102.257 89.2333 103.046C89.4056 103.678 88.9702 103.836 88.731 103.836C87.7263 104.649 85.7887 106.304 86.0758 106.419C86.3628 106.534 86.0519 107.376 85.8605 107.783C85.7887 108.093 85.7313 108.773 86.0758 109.002C85.717 109.361 86.8652 110.294 87.1522 110.509C87.3819 110.682 87.1522 109.672 87.0087 109.146L87.5828 107.998C87.4871 108.644 87.3819 109.993 87.7263 110.222C88.1569 110.509 88.2287 112.591 89.0898 113.021C89.7787 113.366 89.4725 111.395 89.2333 110.366L88.5157 109.146C88.8028 109.194 89.3338 109.089 89.1616 108.285C88.9893 107.481 88.8984 107.089 88.8745 106.993C89.0898 107.232 89.506 107.768 89.4486 107.998C89.3769 108.285 89.5204 110.366 90.0945 109.935C90.5538 109.591 90.8121 109.026 90.8839 108.787C91.2905 108.476 91.9029 107.711 91.0992 107.137C91.6015 107.424 91.8168 107.639 91.8168 106.419C91.8168 105.443 92.1517 105.773 92.3191 106.06C92.2234 106.754 92.233 108.07 93.0367 107.783C93.5958 107.583 93.6317 107.395 93.5213 107.267M93.5213 107.267C93.473 107.21 93.3966 107.166 93.3238 107.137C93.3355 107.144 93.3474 107.152 93.3594 107.16C93.3881 107.178 93.4176 107.198 93.4477 107.218C93.4718 107.234 93.4964 107.25 93.5213 107.267ZM93.5213 107.267C94.361 107.827 95.6513 108.79 95.3331 109.002C94.9026 109.29 96.9837 109.074 96.8401 109.505C96.7253 109.849 95.692 109.648 95.1896 109.505L93.5391 108.572C92.8693 108.404 91.5154 108.314 91.458 109.29C91.4006 110.265 91.434 112.088 91.458 112.878C91.0992 113.069 90.3959 113.524 90.4533 113.811C90.5107 114.098 91.2905 114.887 91.6733 115.246C91.6254 115.485 91.6589 115.963 92.1756 115.963C92.8215 115.963 93.4673 117.399 93.3956 117.47C93.3238 117.542 92.6062 118.332 93.3956 118.403C94.0271 118.461 93.2759 119.863 92.8214 120.556C92.367 120.652 91.458 121.059 91.458 121.92C90.3815 120.772 89.3769 124.073 90.1662 123.786C90.7977 123.556 89.7596 124.886 89.1616 125.58C88.3961 125.891 86.9656 126.757 87.3675 127.732C86.5781 128.665 86.6499 130.818 87.0805 131.249C87.511 131.679 86.2911 132.325 86.2911 131.249C86.2911 130.172 86.1475 128.952 85.5017 129.311C84.8558 129.67 84.5688 131.105 84.7841 132.612C84.9563 133.818 86.004 134.789 86.5064 135.124L86.9369 136.272C86.6738 136.775 86.3617 138.425 87.7263 138.425C88.3004 138.425 88.3722 137.994 87.8698 136.703C87.7981 136.272 87.5971 135.354 87.3675 135.124C87.0805 134.837 88.3722 132.612 89.3051 133.258C89.3051 133.976 90.0227 134.622 90.238 134.55C90.4533 134.478 92.6779 136.057 92.4626 136.559C92.2904 136.961 92.8214 137.588 93.1085 137.851C93.4195 137.827 94.0414 137.865 94.0414 138.21C94.0414 138.64 95.4767 138.282 95.0461 137.062C94.7016 136.086 95.0461 136.129 95.2614 136.272C95.3092 135.818 95.247 134.894 94.6155 134.837C93.984 134.78 94.5438 133.617 94.9026 133.043C95.2135 133.737 95.979 135.067 96.5531 134.837C97.1272 134.607 97.4142 134.406 97.486 134.335C97.2707 135.076 97.1703 136.559 98.4907 136.559C98.4907 135.526 98.9691 135.555 99.2083 135.698C99.0169 136.224 98.9787 137.205 100.357 136.918C102.079 136.559 99.9977 136.631 102.222 136.057C101.706 135.253 102.916 135.196 103.586 135.268C103.562 135.124 103.615 134.837 104.016 134.837C104.519 134.837 105.954 135.842 106.026 134.119C106.083 132.741 106.241 132.493 106.313 132.541C108.179 133.067 112.126 134.019 112.987 133.617M112.987 133.617C113.202 133.832 113.13 134.406 112.7 134.406C112.269 134.406 111.264 134.406 111.049 134.119C110.834 133.832 108.466 134.406 109.757 134.837C110.791 135.181 109.805 135.268 109.183 135.268C109.04 134.98 108.638 134.607 108.179 135.411C107.605 136.416 106.959 137.923 107.246 138.066C107.475 138.181 106.719 138.545 106.313 138.712C105.547 140.004 104.074 142.645 104.303 142.874C104.409 142.98 104.301 143.066 104.172 143.169C103.951 143.345 103.669 143.569 104.303 144.023C105.107 144.597 106.169 146.75 106.6 147.754C106.48 148.352 106.341 149.563 106.743 149.62C106.887 149.979 107.533 151.342 108.107 151.271C108.566 151.213 108.872 150.385 108.968 149.979C109.064 150.577 109.14 151.773 108.681 151.773C108.222 151.773 108.346 152.969 108.466 153.567C108.872 153.639 109.614 153.911 109.327 154.428C108.968 155.074 110.116 153.926 109.973 153.567C109.917 153.429 110.117 153.216 110.372 152.946C110.779 152.513 111.325 151.933 111.193 151.271C111.02 150.409 111.456 150.816 111.695 151.127C111.647 151.677 111.695 152.749 112.269 152.634C112.755 152.537 112.977 152.177 113.115 151.954C113.181 151.848 113.227 151.773 113.274 151.773C113.417 151.773 114.063 151.988 114.063 152.778C114.063 153.042 114.144 153.234 114.213 153.399C114.351 153.727 114.444 153.951 113.776 154.428C112.771 155.146 112.197 155.648 112.556 156.15C112.755 156.429 113.035 156.402 113.252 156.303M113.252 156.303C113.347 156.259 113.43 156.202 113.489 156.15C113.417 156.194 113.336 156.245 113.252 156.303ZM113.252 156.303C112.78 156.625 112.215 157.127 112.556 157.37C112.72 157.487 112.427 157.497 111.995 157.513C111.099 157.544 109.605 157.597 110.331 158.662C111.193 159.925 110.595 160.624 110.188 160.815C110.236 161.437 110.647 162.638 111.91 162.465C110.131 163.327 109.112 165.36 108.824 166.269L109.542 168.924C109.112 169.187 108.179 169.685 107.892 169.57C107.533 169.426 106.743 169.857 107.317 170.646C107.892 171.436 108.322 172.871 108.25 173.158M108.25 173.158L109.973 174.88C109.542 175.287 108.81 176.172 109.327 176.459C109.973 176.818 110.403 178.971 110.188 179.401C110.016 179.746 111.264 179.928 111.91 179.976C112.114 181.028 112.151 182.76 110.672 181.267C109.194 179.775 107.82 180.645 107.317 181.267C106.642 181.794 105.448 183.176 106.08 184.497C106.149 184.497 106.22 184.495 106.29 184.493M108.25 173.158C108.21 173.321 107.365 172.495 106.6 171.748C106.013 171.174 105.473 170.646 105.38 170.646M105.38 170.646C105.368 170.646 105.351 170.646 105.329 170.646M105.38 170.646L105.329 170.646M109.901 211.982C109.518 211.982 108.681 212.068 108.394 212.412C108.107 212.757 106.648 212.699 105.954 212.627C105.834 212.388 105.595 212.01 105.595 212.412C105.595 212.814 103.873 213.536 103.012 213.847C103.131 214.134 103.141 214.881 102.222 215.57C101.304 216.259 98.2993 215.426 96.9119 214.924C96.6249 214.254 95.979 212.943 95.6919 213.058C95.3331 213.202 94.1849 212.771 94.5437 212.269C94.825 211.875 94.1803 210.776 93.7502 210.042L93.7483 210.039C93.6306 209.838 93.529 209.665 93.4673 209.542C93.1803 208.968 91.745 209.972 91.6015 210.403C91.458 210.833 89.6639 210.69 89.6639 210.403C89.6639 210.173 89.1855 210.211 88.9463 210.259C88.5396 210.427 87.6546 210.69 87.3675 210.403C86.5064 210.518 86.626 209.302 86.7934 208.68C87.3914 208.609 88.7166 208.508 89.2333 208.68C89.8792 208.896 90.4533 207.604 90.0945 207.963C89.8074 208.25 88.7788 207.843 88.3004 207.604C87.8459 207.676 86.7934 207.661 86.2193 207.03C85.6452 206.398 85.9801 206.097 86.2193 206.025V205.236C85.9323 205.021 85.3725 204.676 85.4299 205.021C85.4873 205.365 85.0233 205.547 84.7841 205.595C83.7555 205.475 81.7126 205.351 81.7701 205.81C81.8275 206.269 81.172 206.91 80.8371 207.173C79.8564 206.958 77.9666 206.686 78.2537 207.317C76.5314 208.681 76.029 206.743 76.029 206.528C75.742 206.757 75.3832 206.001 75.2397 205.595C75.431 205.738 75.8568 205.982 76.029 205.81C76.2443 205.595 76.6749 205.666 76.8902 205.81C77.0624 205.925 78.4929 205.619 79.1866 205.451C78.9474 205.379 78.5551 205.164 78.8995 204.877C79.3301 204.518 78.469 203.227 78.469 203.944C78.469 204.076 78.4834 204.2 78.4969 204.316C78.5569 204.831 78.5971 205.177 77.249 205.236C76.4881 205.269 75.9407 204.997 75.5436 204.8C75.0792 204.569 74.8203 204.44 74.6656 205.021C74.4359 205.882 74.0915 205.188 73.9479 204.734C73.8044 204.542 73.6035 204.159 73.9479 204.159C74.2924 204.159 75.1918 203.538 75.5985 203.227C75.9573 202.652 76.1582 201.418 74.0915 201.074C72.3282 200.78 73.2059 200.386 73.8496 200.097C74.1491 199.962 74.3979 199.85 74.3067 199.782C74.0197 199.567 74.6656 199.423 74.8091 199.495C74.9526 199.567 77.1772 199.208 76.5314 198.634C75.8855 198.06 77.3925 197.557 77.4643 197.773C77.5361 197.988 79.1866 198.921 78.8995 198.49C78.6699 198.146 78.9952 198.06 79.1866 198.06C79.6411 198.275 80.4783 198.662 80.1913 198.49C79.9042 198.318 80.0717 197.94 80.1913 197.773C80.4544 198.012 81.0524 198.304 81.3395 197.557C81.6983 196.624 82.3441 196.553 82.7029 196.624C82.9055 196.665 82.9022 196.477 82.8997 196.331C82.8978 196.219 82.8962 196.131 82.99 196.194C83.5572 195.994 83.9693 196.259 84.32 196.485C84.7236 196.744 85.0459 196.952 85.4299 196.337C86.004 195.419 87.3914 194.998 88.0134 194.902C88.8984 194.495 90.7403 193.481 91.0274 192.677C91.1661 192.289 91.4333 191.944 91.7091 191.587C92.1469 191.022 92.6062 190.428 92.6062 189.592C92.6062 188.42 92.7651 188.414 93.4016 188.39C93.5059 188.386 93.623 188.382 93.7544 188.372C94.6873 188.3 94.6155 188.013 93.1085 187.798C91.6015 187.582 92.1756 185.214 92.4626 185.214C92.7497 185.214 93.5391 183.922 93.3956 183.779C93.3415 183.725 93.2875 183.6 93.2143 183.43C93.0931 183.149 92.9193 182.746 92.6062 182.344C92.1038 181.698 92.3191 181.195 92.8214 181.124C93.0613 181.089 92.9248 180.826 92.787 180.56C92.6363 180.269 92.484 179.976 92.8214 179.976C93.7974 179.287 92.654 179.114 91.9603 179.114C91.6254 179.019 90.9126 178.885 90.7403 179.114C90.5681 179.344 89.4247 179.401 88.8745 179.401C88.42 179.401 87.5397 179.645 87.6546 180.621C87.7981 181.841 86.7216 181.626 87.0805 181.483C87.2272 181.424 87.0978 181.365 86.9034 181.277C86.6226 181.15 86.2063 180.961 86.2911 180.621C85.3938 180.518 84.6957 180.912 84.2606 181.158C83.7909 181.423 83.6276 181.515 83.8512 180.621C84.1956 179.244 86.4346 178.181 87.511 177.823C88.5396 177.392 90.5107 176.33 90.1662 175.526C89.8218 174.723 90.7403 174.282 91.2427 174.163C91.0752 174.043 90.5968 173.818 90.0227 173.876C89.4486 173.933 89.4486 173.23 89.5204 172.871C89.4725 172.847 89.3051 172.814 89.018 172.871C88.731 172.928 88.42 171.89 88.3004 171.364C88.2526 171.244 88.0851 171.005 87.7981 171.005C87.511 171.005 87.2001 170.335 87.0805 170.001C86.8412 170.192 86.3485 170.345 86.2911 169.426C86.2193 168.278 87.5828 169.642 87.6546 169.785C87.7263 169.929 88.6592 168.996 88.1569 168.852C89.018 165.48 92.8215 167.991 92.3191 168.637C92.6098 168.673 92.6797 169.133 92.7431 169.55C92.8049 169.956 92.8605 170.322 93.1085 170.216C93.5104 170.044 94.6634 170.288 95.1896 170.431C94.8308 170.742 94.1132 171.464 94.1132 171.866C94.1132 172.268 94.9265 172.13 95.3331 172.01C95.7876 171.484 96.955 170.546 97.9883 171.005C97.4854 170.062 97.5883 170.111 98.0557 170.33C98.1219 170.361 98.1953 170.396 98.2754 170.431C98.7921 170.661 99.3518 171.149 99.5671 171.364C100.189 171.627 101.605 171.996 102.294 171.364C103.108 170.618 104.947 170.641 105.329 170.646M109.901 211.982C110.068 211.862 110.403 211.58 110.403 211.407C110.403 211.312 110.644 211.145 110.906 210.965C111.232 210.739 111.591 210.491 111.551 210.331C111.516 210.19 111.932 209.91 112.363 209.619C112.81 209.319 113.274 209.006 113.274 208.824C113.274 208.653 113.585 208.645 113.918 208.637C114.282 208.628 114.672 208.618 114.709 208.393C114.781 207.963 114.781 209.255 114.207 209.039C113.633 208.824 112.054 210.475 111.91 210.69C111.859 210.767 111.853 210.835 111.848 210.908C111.838 211.036 111.827 211.178 111.551 211.407C111.121 211.766 110.188 213.13 110.116 213.56C110.059 213.905 109.422 214.087 109.112 214.134C108.466 214.182 106.987 214.579 106.241 215.785C105.495 215.498 105.212 216.527 105.165 217.077C105.021 217.412 104.691 217.981 104.519 217.579C104.346 217.177 104.303 219.182 104.303 220.234C102.749 219.995 99.5097 219.66 98.993 220.234C98.7657 219.052 97.4723 219.022 96.2813 218.995C95.5926 218.979 94.9381 218.964 94.5437 218.727C93.4673 218.081 92.965 217.866 92.3909 218.297C92.1428 218.483 91.1307 218.387 90.0207 218.283C88.5624 218.145 86.9351 217.992 86.6499 218.44C86.248 219.072 86.5781 219.373 86.7934 219.445H85.9323C86.2671 219.971 86.8365 221.081 86.4346 221.311C86.2352 221.425 86.0472 221.719 85.8525 222.024C85.5566 222.488 85.2454 222.976 84.8558 222.889C84.7449 222.865 84.5534 222.808 84.3171 222.739C83.1781 222.403 80.9974 221.76 81.7701 222.889C81.0811 223.291 80.9567 224.205 80.9807 224.612C80.885 225.688 80.6075 227.812 80.263 227.698C79.8325 227.554 79.0431 228.128 79.0431 228.702C79.0431 229.161 78.0384 229.372 77.5361 229.42C77.5121 229.803 77.3208 230.668 76.7467 231.07C76.1726 231.472 75.0244 231.238 74.522 231.07C74.522 231.525 74.6656 232.491 75.2397 232.721C75.8138 232.951 74.6656 232.625 74.0197 232.434C73.9834 232.23 73.9541 231.918 74.0078 231.744M109.901 211.982C108.58 211.752 109.865 208.011 110.672 206.169C109.913 206.432 108.537 206.743 109.112 205.882C109.686 205.021 108.537 204.279 107.892 204.016C107.359 204.112 106.112 204.073 105.38 203.155C104.465 202.007 105.075 196.553 106.295 196.624C107.271 196.682 107.036 195.404 106.797 194.759C106.223 194.519 104.917 193.84 104.286 193.036C103.654 192.233 104.549 191.553 105.075 191.314C105.822 191.17 107.317 190.697 107.317 189.951C107.317 189.511 107.043 189.549 106.679 189.6C106.27 189.657 105.75 189.73 105.38 189.161C104.82 188.3 105.757 187.75 106.295 187.582C106.827 187.2 107.892 186.219 107.892 185.358C107.892 184.437 107.195 184.461 106.455 184.488M74.0078 231.744C74.0424 231.632 74.1114 231.577 74.235 231.644C74.3726 231.72 74.2395 231.734 74.0078 231.744ZM74.0078 231.744L73.9854 231.745M74.0078 231.744C74.0005 231.745 73.993 231.745 73.9854 231.745M78.3745 96.3207C78.1917 96.4243 77.0444 96.4933 76.4596 96.5158C76.1726 96.2288 75.7707 95.6547 76.4596 95.6547C77.3208 95.6547 76.5314 94.7935 77.3925 94.7935C78.8852 94.6213 79.067 93.9563 78.9713 93.6453C78.5407 93.8606 77.6796 94.2051 77.6796 93.8606C77.6796 93.43 76.4596 92.5689 75.9573 92.5689C75.5554 92.5689 75.3114 92.0426 75.2397 91.7795C75.7564 91.7795 75.6463 91.1097 75.5267 90.7748C75.8377 90.5595 76.517 90.2438 76.7467 90.703C78.6125 89.3396 78.3972 90.416 78.8278 90.7748C79.8324 91.0619 79.4019 92.8559 79.9042 93.2147C81.8418 93.0712 80.4066 94.2912 81.4112 93.7888C82.4159 93.2865 81.6983 94.5065 82.2724 94.3629C82.8465 94.2194 82.9182 94.7935 83.1335 95.2241C83.3488 95.6547 83.1335 95.6547 83.2771 95.9417C83.4206 96.2288 83.1335 96.5158 82.9182 96.7311C82.7553 96.8941 82.4277 96.3167 82.3717 96.2134M78.3745 96.3207C78.3861 96.3141 78.3938 96.3074 78.3972 96.3005C78.4106 96.2737 78.404 96.2845 78.3745 96.3207ZM78.3745 96.3207C78.2461 96.4782 77.6849 97.1167 76.4596 97.2334C75.254 97.3483 75.144 97.1377 75.2397 97.0181C74.9287 96.5636 74.2493 96.0996 74.0197 97.8793C74.0197 98.683 74.833 98.6926 75.2397 98.5969C75.5985 98.4295 76.4022 98.152 76.7467 98.3816C77.0911 98.6113 77.7035 98.3816 77.9666 98.2381C78.3015 98.2142 78.9713 98.1089 78.9713 97.8793C78.9713 97.5922 80.263 97.7358 80.263 97.2334C80.263 96.7311 80.9089 98.0228 80.4066 98.0228C79.9042 98.0228 81.483 98.5252 81.6983 98.0228C81.9136 97.5205 82.7029 97.4487 82.7029 97.2334C82.7029 97.0612 82.0332 97.0181 81.6983 97.0181C82.0093 96.9225 82.5881 96.645 82.4159 96.3005C82.3942 96.2571 82.3798 96.229 82.3717 96.2134M82.3717 96.2134C82.3602 96.1913 82.3611 96.194 82.3717 96.2134ZM81.9136 75.7765C81.8418 75.9439 81.8275 76.2788 82.3441 76.2788C82.99 76.2788 82.703 76.2788 82.99 76.7094C83.2771 77.1399 83.4206 76.5659 84.3535 76.4223C85.2864 76.2788 84.8558 76.5658 85.3582 76.7094C85.8605 76.8529 86.1475 77.4988 86.1475 77.7858C86.1475 78.0729 84.6405 79.0775 84.3535 79.0775C84.4683 79.5942 83.7794 80.0104 83.4206 80.154C82.703 81.0151 81.1529 82.4791 80.6936 81.4457C80.1195 80.154 81.2677 81.5892 81.2677 80.5128C81.2677 79.6516 82.5594 78.7666 83.2053 78.4317C82.6312 78.5034 81.5691 78.5465 81.9136 78.1446C82.3441 77.6423 81.4112 76.9964 81.483 77.2835C81.5548 77.5705 80.6936 79.2928 80.3348 79.0775C80.0477 78.9053 80.1195 78.1446 80.1913 77.7858C79.3062 78.025 77.5791 78.3886 77.7513 77.9293C77.9666 77.3552 78.6843 77.5705 77.5361 77.14C76.3879 76.7094 77.8231 76.2788 77.5361 75.9918C77.3064 75.7621 76.8663 75.8961 76.6749 75.9918C76.3879 75.5612 75.8999 74.5565 76.2443 73.9824C76.6749 73.2648 77.4643 74.3412 77.5361 73.9824C77.6078 73.6236 76.962 73.6236 76.6749 73.4801C76.3879 73.3365 76.6749 72.1166 76.4596 72.3319C76.2443 72.5472 76.1008 72.3319 75.8138 71.9731C75.5841 71.686 75.2397 72.8581 75.0961 73.4801C74.6895 73.2409 73.8475 72.7625 73.7327 72.7625C73.6178 72.7625 73.4456 71.8056 73.3738 71.3272C73.2542 71.1837 73.015 70.8392 73.015 70.6096C73.015 70.3799 73.3978 70.3225 73.5891 70.3225C73.5891 69.9876 73.6752 69.3179 74.0197 69.3179C74.3642 69.3179 74.6895 70.179 74.8091 70.6096C74.9526 70.6096 75.211 70.5522 75.0961 70.3225C74.9813 70.0929 75.144 69.7963 75.2397 69.6767C75.6702 69.6767 76.3305 69.5475 75.5267 69.0308C74.723 68.5141 75.0005 68.1457 75.2397 68.0261C75.1918 67.6673 75.1823 66.9927 75.5267 67.165C75.8712 67.3372 76.1487 68.2893 76.2443 68.7438C76.4836 68.7438 76.962 68.9303 76.962 69.6767C77.7657 69.3322 78.3015 70.1551 78.469 70.6096C78.7321 70.5139 79.1435 70.2795 78.6842 70.1072C78.225 69.935 78.158 69.0308 78.1819 68.6002C78.5168 68.6481 79.0431 68.6002 78.469 68.0261C77.8949 67.452 78.469 66.6866 78.8278 66.3756C78.9235 66.0885 79.2153 65.5575 79.6172 65.7297C80.1195 65.945 79.9042 66.9497 80.3348 67.165C80.7654 67.3803 81.0524 68.7438 81.2677 69.0308C81.4399 69.2604 81.1959 70.8009 81.0524 71.5425L80.1913 72.7625C80.995 72.4754 80.9567 72.9777 80.8371 73.2648C80.4544 73.3365 79.8899 73.5805 80.6936 73.9824C81.6983 74.4848 79.8325 74.9153 80.3348 74.9153C80.8371 74.9153 81.483 75.0589 81.2677 75.5612C81.0955 75.9631 81.6265 75.8721 81.9136 75.7765ZM81.9136 75.7765L82.1289 74.9153C82.5116 74.9871 83.2196 75.2167 82.99 75.5612C82.703 75.9918 82.2006 75.9917 81.9136 75.7765ZM75.1454 53.2644C74.8787 53.1686 74.5968 53.1592 74.522 53.4584C74.4072 53.9176 74.4503 55.0371 74.3785 55.0371L74.0197 53.1713C74.235 52.8603 74.5364 52.2671 74.0197 52.3819C73.3738 52.5254 73.5891 51.6643 72.8715 51.8796C72.2974 52.0518 72.6323 52.5733 72.8715 52.8125C72.7519 52.8843 72.4122 53.0565 72.0104 53.1713C71.508 53.3148 71.221 56.0418 72.5127 56.0418C71.221 56.6877 73.4456 56.2571 72.8715 56.6159C72.2974 56.9747 70.5751 56.5441 71.221 57.8359C71.8668 59.1276 72.5127 57.8359 72.8715 58.6253C73.2303 59.4146 74.0915 59.5582 73.8044 59.5582C73.5748 59.5582 72.8476 59.7017 72.5127 59.7735C72.5366 60.0127 72.4696 60.5198 72.0104 60.6346C71.4363 60.7781 71.508 61.8546 71.0057 61.1369C70.6038 60.5628 70.2641 60.8977 70.1445 61.1369C70.3598 61.4957 70.8334 62.3712 71.0057 63.0028C71.221 63.7921 71.4362 63.4333 72.8715 63.0028C74.3067 62.5722 72.2974 61.424 73.8044 61.8546C75.01 62.199 74.7852 61.0891 74.522 60.4911C74.546 60.2519 74.7804 59.917 75.5267 60.4911C76.4596 61.2087 75.5267 59.7735 75.8855 59.7735C76.1726 59.7735 76.0051 59.3429 75.8855 59.1276C75.6702 58.9123 75.2397 58.4674 75.5267 57.8359C75.8855 57.0465 76.0291 57.8359 75.8855 58.1229C75.7707 58.3526 76.1247 59.319 76.3161 59.7735C76.5792 60.0605 77.0481 60.4193 76.8184 59.5582C77.3925 60.7064 77.4643 60.204 77.6078 59.7735C77.56 59.917 77.6509 60.0749 78.3972 59.5582C79.1435 59.0415 78.5168 58.7209 78.1102 58.6253C78.0384 58.1468 77.9953 57.3766 78.3972 58.1229C78.7991 58.8692 79.8564 58.2425 80.3348 57.8359C80.0956 57.9076 79.6602 57.9507 79.8325 57.5488C80.0477 57.0465 80.0477 56.0418 79.6172 56.2571C79.1866 56.4724 78.8278 56.4724 77.8949 56.2571C76.962 56.0418 78.8278 55.97 79.2584 55.8265L79.2915 55.8155C79.7348 55.6683 80.6147 55.3762 80.3348 54.6066C80.0477 53.8172 80.7654 54.0325 80.9807 54.176C81.1959 54.3195 82.1289 54.3195 82.1289 54.6066C82.1289 54.8936 82.703 54.463 82.99 54.6066C83.2771 54.7501 83.5641 53.8172 83.5641 53.4584C83.5641 53.0995 83.4206 52.5972 82.99 53.4584C82.6455 54.1473 81.5069 53.7454 80.9807 53.4584C81.0524 53.0278 81.2534 52.2958 81.483 52.8125C81.7126 53.3292 82.392 52.5972 82.7029 52.1666C82.6073 51.9992 82.5738 51.6212 83.2053 51.449C83.9947 51.2337 83.4923 51.0902 83.2053 50.7314C82.9182 50.3726 83.7794 49.7985 83.9947 49.0808C84.1669 48.5067 83.7794 47.1432 83.2053 47.1432C82.6312 47.1433 82.4733 48.1049 82.1289 48.2197C81.7844 48.3345 80.0717 49.32 79.2584 49.7985C79.2584 50.1429 77.8709 50.4204 77.1772 50.5161L75.8855 51.2337V52.3819C75.8377 52.5972 75.6559 52.8986 75.3114 52.3819C74.8809 51.7361 74.7373 52.3819 74.8091 52.8125C74.8402 52.9991 74.985 53.152 75.1454 53.2644ZM75.1454 53.2644C75.2882 53.3156 75.4267 53.3916 75.5267 53.4584C75.4281 53.4255 75.2812 53.3594 75.1454 53.2644ZM148.008 11.9849C148.224 12.0588 148.656 12.5658 148.868 12.8408C148.461 12.8886 147.777 13.0848 148.294 13.4867C148.81 13.8885 148.509 14.0847 148.294 14.1325C147.863 14.2043 147.095 14.3478 147.465 14.3478C147.836 14.3478 147.55 15.2568 147.361 15.7113C147.074 16.5724 146.6 18.3378 147.002 18.51C147.404 18.6823 146.93 18.9645 146.643 19.0841C146.548 19.2516 146.457 19.6152 146.859 19.73C147.26 19.8448 146.691 20.4476 146.356 20.7347C145.997 20.7825 145.409 21.1365 145.926 22.1699C146.572 23.4616 144.993 23.6052 145.28 23.3181C145.567 23.0311 145.567 23.1028 144.777 22.3852C143.988 21.6676 144.993 21.4523 144.993 20.8782C144.993 20.3041 145.926 17.8642 146.069 17.7924C146.213 17.7206 146.356 16.0701 145.926 16.0701C145.581 16.0701 145.639 15.496 145.71 15.209C145.495 15.0415 145.05 14.8071 144.993 15.209C144.935 15.6108 144.682 15.7113 144.562 15.7113C144.443 15.8787 144.045 16.1419 143.414 15.8548C142.782 15.5678 143.438 14.9698 143.845 14.7066C143.51 14.587 142.826 14.3909 142.768 14.5631C142.711 14.7353 142.266 14.4913 142.051 14.3478C141.811 14.2521 141.39 14.0034 141.62 13.7737C141.792 12.2811 142.696 12.5298 143.127 12.8408C143.845 11.9079 144.275 13.4867 144.562 12.6255C144.849 11.7644 145.423 12.8408 145.352 12.4102C145.294 12.0658 145.997 11.7883 146.356 11.6926L145.71 10.8315C145.538 10.6018 145.878 10.5444 146.069 10.5444C146.021 10.377 145.883 10.0995 145.71 10.3291C145.495 10.6162 144.993 10.1856 144.777 10.0421C144.605 9.92725 144.706 9.22876 144.777 8.89387L143.845 8.67858C143.605 8.82211 143.055 8.95128 142.768 8.31977C142.409 7.53038 143.558 8.17624 143.701 7.38686C143.816 6.75535 144.323 7.12373 144.562 7.38686C144.514 7.14765 144.533 6.61183 144.993 6.38219C144.993 5.11917 146.093 5.85593 146.643 6.38219L146.356 8.17624C146.213 8.63074 146.112 9.41056 146.859 8.89387C147.792 8.24801 147.648 9.03739 148.15 9.10916C148.552 9.16657 148.174 9.75502 147.935 10.0421C147.576 10.2334 146.98 10.6018 147.465 10.5444C147.951 10.487 148.124 10.7597 148.15 10.9032C148.198 10.8075 148.409 10.6592 148.868 10.8315C149.327 11.0037 149.059 11.573 148.868 11.8361C148.609 11.8846 148.196 11.9593 148.008 11.9849ZM148.008 11.9849C147.98 11.9753 147.955 11.973 147.935 11.9797C147.879 11.9983 147.917 11.9973 148.008 11.9849ZM67.4893 148.328C68.6375 148.974 69.3551 150.984 68.9246 150.984C68.494 150.984 67.4893 150.696 65.9823 149.835C64.3748 150.754 65.3125 152.323 65.9823 152.993C66.4846 153.232 67.3602 153.969 66.8435 155.002C66.3268 156.036 66.2933 157.633 66.3411 158.303C66.5086 158.71 66.9726 159.581 67.4893 159.81C68.1352 160.097 68.4222 162.107 67.4893 162.537C66.9885 162.768 66.3842 162.813 66.043 162.839C65.7486 162.861 65.6499 162.868 65.9823 162.968C66.6999 163.183 67.5611 164.762 66.8435 164.618C66.1258 164.475 65.2647 165.695 65.6235 166.125C65.9105 166.47 66.5564 166.891 66.8435 167.058C66.676 167.513 66.4416 168.494 66.8435 168.781C67.2453 169.068 67.0109 169.713 66.8435 170.001C67.1784 170.67 67.6472 172.024 66.8435 172.082C66.0397 172.139 66.1737 173.11 66.3411 173.589C67.0348 173.708 68.1065 174.148 66.8435 174.952C66.0462 175.459 66.0359 175.857 66.0269 176.2C66.0181 176.537 66.0107 176.821 65.2647 177.105C64.0591 177.564 64.0447 178.875 64.1882 179.473L62.8248 180.908C62.8008 181.435 62.7673 182.674 62.8248 183.42C62.8683 183.986 62.0943 184.63 61.3021 185.29C60.7875 185.719 60.2651 186.154 59.9543 186.578C59.3228 187.439 59.4998 187.845 59.6672 187.941C59.4998 187.941 58.9783 187.826 58.232 187.367C57.0837 186.908 58.0884 187.941 58.7343 188.515C59.3323 189.089 60.3561 190.424 59.6672 191.17C59.138 191.744 59.0153 191.423 58.9327 191.207C58.8809 191.071 58.8449 190.977 58.7343 191.17C58.5047 191.572 57.9688 191.338 57.7296 191.17H55.8638C55.0266 190.214 53.266 188.687 52.9215 190.238C52.491 192.175 49.2617 191.159 50.6251 191.17C51.7159 191.179 51.0796 189.595 50.6251 188.802C50.5295 189.592 50.2089 191.17 49.6922 191.17C49.0464 191.17 48.4005 191.17 48.8311 190.238C49.1755 189.491 47.9699 190.214 47.3241 190.668C46.6304 190.525 44.9128 190.324 43.5924 190.668C42.272 191.013 41.607 190.525 41.4395 190.238C40.7698 190.381 39.746 190.769 41.009 191.17C42.5877 191.673 41.7984 192.247 41.4395 192.247C41.1525 192.247 41.0329 192.725 41.009 192.965C40.6502 193.132 39.8321 193.366 39.4302 192.965C39.0283 192.563 39.0714 193.419 39.1431 193.897C38.7365 194.041 37.8227 194.055 37.4208 192.965C37.4208 193.666 36.8042 193.869 36.4163 193.997C36.1294 194.092 35.9676 194.145 36.2726 194.328C36.9903 194.759 35.4115 195.189 34.7656 194.83C34.2489 194.543 34.3111 195.381 34.4068 195.835L30.8905 195.548C31.2254 195.428 31.8951 194.931 31.8951 193.897C31.8951 192.606 28.0917 193.467 28.8811 193.467C29.5645 193.467 29.7101 194.112 29.9696 195.263C30.0099 195.442 30.0529 195.633 30.1011 195.835C30.3881 197.041 28.02 197.581 26.8 197.701C26.3216 198.514 25.4652 199.969 25.8671 199.28C26.3694 198.418 23.2836 197.701 23.786 198.275C24.1878 198.734 23.6185 199.375 23.2836 199.638C22.7335 199.184 21.4752 198.476 20.8437 199.28C20.2122 200.083 19.8151 199.615 19.6955 199.28C19.1453 198.945 17.9732 198.418 17.6862 198.993C17.5026 199.36 17.1877 199.351 16.8373 199.342C16.5027 199.333 16.1358 199.323 15.8203 199.638C15.3037 200.155 15.1266 199.615 15.1027 199.28C14.7439 199.519 13.9402 200.026 13.5957 200.141C13.3946 200.208 13.3814 200.024 13.3659 199.81C13.3482 199.565 13.3276 199.28 13.0216 199.28C12.5623 199.28 12.8303 198.61 13.0216 198.275C12.4714 198.131 11.328 197.93 11.1558 198.275C10.9836 198.619 10.3186 198.418 10.0076 198.275C9.00292 199.04 6.97922 200.313 6.92181 199.28C6.86687 198.291 7.77918 198.059 8.49978 197.876C8.7205 197.82 8.92323 197.768 9.07468 197.701C9.72053 197.414 11.1558 196.696 11.1558 196.337C11.1558 196.166 10.2732 196.338 9.3505 196.518C8.33968 196.715 7.28062 196.921 7.28062 196.696C7.28062 196.352 10.7731 195.548 12.5193 195.189C13.213 194.902 14.3995 194.328 13.5957 194.328C12.9509 194.328 12.8677 193.973 12.777 193.586C12.7264 193.37 12.6735 193.144 12.5193 192.965C12.0887 192.462 11.8734 193.467 11.7299 194.328C11.6485 194.816 9.99782 194.751 8.57078 194.694C7.48138 194.651 6.5223 194.613 6.49124 194.83C6.43383 195.232 5.12775 195.237 4.48189 195.189C3.93171 195.309 2.83135 195.404 2.83135 194.83C2.83135 194.256 3.93171 194.256 4.48189 194.328V193.467C4.88854 193.539 5.78796 193.481 6.13242 192.677C6.47687 191.874 7.04141 192.056 7.28062 192.247C7.66336 192.271 8.42882 192.204 8.42882 191.745C8.42882 191.285 9.05076 191.17 9.36173 191.17L12.5193 190.238C11.7777 190.238 10.0506 190.324 9.07468 190.668C8.0987 191.013 7.9504 190.812 7.99824 190.668C7.66335 190.668 6.73523 190.769 5.70185 191.17C4.66847 191.572 4.07523 191.338 3.90779 191.17C3.35761 190.955 2.37207 190.553 2.83135 190.668C3.29063 190.783 3.45329 189.616 3.47721 189.018C3.07056 189.018 2.12808 189.161 1.61139 189.735C1.28947 190.093 1.32412 189.809 1.36877 189.443C1.4137 189.074 1.46876 188.623 1.18081 188.659C0.721528 188.716 0.702396 188.013 0.75024 187.654C1.25258 187.463 2.37207 187.109 2.83135 187.224C3.29063 187.338 3.02272 186.41 2.83135 185.932C3.8121 185.477 6.07501 184.654 7.28062 184.999C7.68249 184.138 8.21353 184.64 8.42882 184.999L9.07468 183.707C9.38565 183.875 10.1511 184.109 10.7252 183.707C11.2993 183.305 9.14644 183.109 7.99824 183.061C6.99357 183.181 4.88376 183.262 4.48189 182.631C4.13743 183.205 2.85527 182.87 2.25725 182.631C1.82667 182.822 1.00858 182.86 1.18081 181.483C1.35304 180.105 2.16156 180.717 2.5443 181.195C2.61606 180.765 2.90311 179.904 3.47721 179.904C3.64944 179.157 5.31911 179.21 6.13242 179.33C5.7736 179.521 5.27127 180.004 6.13242 180.406C6.99357 180.808 7.73511 179.665 7.99824 179.043C8.07 179.497 8.38576 180.492 9.07468 180.837C9.60197 181.1 10.2638 180.96 10.5988 180.862M67.4893 148.328C66.3411 147.682 69.5704 148.4 69.4987 149.118C69.4269 149.835 69.9292 149.835 70.6469 149.835C71.3645 149.835 73.5891 147.467 73.2303 146.247C72.9433 145.271 74.9765 145.841 76.029 146.247C76.7227 145.96 78.0958 145.185 78.0384 144.381C77.9666 143.377 79.0431 144.381 79.0431 143.305C79.0431 142.444 79.665 141.798 79.976 141.583C79.9521 141.296 79.8612 140.607 79.6889 140.147C79.5167 139.688 79.6172 138.951 79.6889 138.64C79.4736 138.162 79.0431 137.076 79.0431 136.559C79.0431 136.043 78.2298 136.248 77.8231 136.416C77.2012 136.105 75.8999 135.54 75.6702 135.77C75.3832 136.057 74.4503 137.42 74.0915 136.918C73.7326 136.416 74.5938 135.268 75.3114 135.268C76.0291 135.268 78.5407 133.761 77.1055 132.253C76.3074 131.416 76.041 131.246 75.9928 131.3M67.4893 148.328H66.3411C66.2215 148.591 65.7814 149.046 64.9776 148.759C64.1739 148.472 63.0161 148.878 62.5377 149.118C61.844 148.855 60.7149 148.113 61.7483 147.252C63.1836 144.955 61.9158 145.195 61.1025 145.601C60.4088 144.836 59.1505 143.075 59.6672 142.157C60.1839 141.238 58.6865 140.052 57.8731 139.573C57.0359 140.028 55.4332 141.066 55.7203 141.583C56.0073 142.099 56.2226 143.329 56.2944 143.879C55.792 143.496 54.7874 142.932 54.7874 143.735C54.7874 144.353 54.4621 144.645 54.1281 144.945C53.9187 145.133 53.7057 145.325 53.5674 145.601C53.2804 146.175 51.9647 145.362 51.3428 144.884C50.5295 144.716 49.0607 144.252 49.6922 143.735C50.4605 143.107 48.1017 142.546 46.5857 142.186L46.4629 142.157C45.507 141.929 46.1103 141.009 46.4596 140.476C46.6609 140.168 46.7778 139.99 46.4629 140.147C45.774 140.492 44.8363 139.143 44.4536 138.425L42.516 135.124C43.1618 135.339 44.4536 135.641 44.4536 135.124C44.4536 134.478 46.4629 133.904 46.8935 134.55C47.3241 135.196 50.3381 133.258 49.6922 133.258C49.43 133.258 49.3098 133.069 49.173 132.854C48.9728 132.539 48.7373 132.168 47.9699 132.253C46.9366 132.368 47.1088 131.297 47.3241 130.746C47.8503 130.268 48.9028 129.469 48.9028 130.101C48.9028 130.732 49.8597 130.794 50.3381 130.746C50.3381 130.268 50.7974 129.598 52.6345 130.746C52.1752 129.828 53.8784 128.402 54.7874 127.804C54.3089 126.967 53.754 125.493 55.3615 126.297C55.3615 124.556 56.6933 124.139 57.4638 124.14M75.9928 131.3C75.9717 131.324 75.9926 131.391 76.029 131.464C76.0247 131.443 76.0201 131.421 76.0153 131.399C76.0083 131.367 76.0008 131.334 75.9928 131.3ZM75.9928 131.3C75.7634 130.328 75.1216 128.648 74.0915 128.594C73.0007 128.536 73.924 127.756 74.522 127.374C74.6656 127.206 74.7804 126.757 74.0915 126.297C73.4025 125.838 73.8044 124.671 74.0915 124.144C73.9479 123.618 73.2447 122.609 71.5798 122.781C70.6469 121.704 70.0728 121.704 69.4987 121.704C68.9246 121.704 67.4893 120.628 67.4893 121.704C67.4893 122.781 66.6999 121.92 63.9012 122.35C61.1025 122.781 63.3989 120.126 61.7483 122.781C61.0228 123.948 60.7985 124.461 60.7992 124.638M60.7992 124.638C60.7997 124.784 60.9516 124.704 61.1025 124.575C61.0133 124.595 60.9104 124.617 60.7992 124.638ZM60.7992 124.638C60.1344 124.765 59.1689 124.87 59.0213 124.575C58.8061 124.144 58.232 123.714 57.5861 124.144M57.5861 124.144C57.4659 124.224 57.4327 124.213 57.4638 124.14M57.5861 124.144C57.5473 124.142 57.5064 124.14 57.4638 124.14M57.4638 124.14C57.5997 123.824 58.9663 122.35 59.6672 122.35C60.3561 122.35 60.6719 121.824 60.7436 121.561C61.1742 121.561 62.1358 121.403 62.5377 120.772C62.9396 120.14 61.3177 119.504 60.4566 119.264C59.7151 118.092 58.1028 115.906 57.5861 116.538C57.0694 117.169 57.5622 117.757 57.8731 117.973C57.4426 117.829 56.5958 117.714 56.6532 118.403C56.7106 119.092 56.0552 118.69 55.7203 118.403C55.4332 118.379 54.8448 118.576 54.7874 119.552C54.73 120.528 55.1462 121.298 55.3615 121.561C55.2418 121.92 55.0744 122.752 55.3615 123.211C55.6485 123.671 53.4717 124.79 52.3474 125.293C52.5149 125.125 52.9502 124.589 53.3521 123.786C53.754 122.982 53.0411 123.451 52.6345 123.786C53.0172 123.164 53.8832 122.006 54.285 122.35C54.6869 122.695 54.4525 121.776 54.285 121.274C54.1176 120.939 53.7396 120.24 53.5674 120.126C53.3952 120.011 53.7348 119.312 53.9262 118.977C53.8066 118.595 53.3808 117.973 52.6345 118.547C52.0604 117.571 50.8643 118.427 50.3381 118.977C50.4577 119.575 50.5677 120.772 50.051 120.772C49.5344 120.772 49.5965 119.958 49.6922 119.552C49.453 119.886 48.9602 120.355 48.9028 119.552C48.8311 118.547 48.6876 118.332 47.9699 119.552C47.3958 120.528 46.726 120.341 46.4629 120.126C46.3194 120.03 45.8745 119.867 45.243 119.982C44.9173 120.041 44.8603 119.771 44.8252 119.604C44.7751 119.366 44.7693 119.338 44.0948 120.772C43.8206 120.47 43.8816 120.619 43.9977 120.902C44.1855 121.36 44.5172 122.169 43.8077 121.991C42.6595 121.704 41.3678 121.776 42.0854 122.781C42.803 123.786 42.6595 124.503 42.0854 124.144C41.5113 123.786 41.4395 124.575 42.0854 125.293C42.7743 124.718 42.9466 125.053 42.9466 125.293C42.5399 125.436 41.8845 125.838 42.516 126.297C43.1475 126.757 41.1047 126.489 40.0043 126.297C40.1717 126.8 40.6215 127.804 41.0807 127.804H39.3584C38.6887 127.493 37.2056 127.216 36.6315 128.594C36.0574 129.971 36.775 130.172 37.2056 130.101C37.373 130.388 37.9806 130.919 39.0714 130.746C40.1622 130.574 40.1478 131.105 40.0043 131.392L40.7219 130.746C40.7823 131.129 40.7614 131.864 40.3085 132.19M40.3085 132.19C40.2232 132.251 40.1226 132.298 40.0043 132.325C39.6453 132.408 39.8708 132.332 40.3085 132.19ZM40.3085 132.19C40.3633 132.172 40.4214 132.153 40.4821 132.134C41.1969 131.903 42.2718 131.555 42.516 131.392C42.6919 131.275 42.9156 131.361 43.1726 131.46C43.5448 131.604 43.9866 131.774 44.4536 131.392C45.0851 130.876 44.2861 131.799 43.8077 132.325C43.3771 132.66 42.516 133.445 42.516 133.904C42.516 134.363 41.9897 134.717 41.7266 134.837C41.0568 134.67 39.5881 134.521 39.0714 135.268C38.5547 136.014 36.6075 136.487 35.6986 136.631C36.7511 137.086 38.7556 138.081 38.3538 138.425C38.1702 138.582 38.1687 138.96 38.1672 139.345C38.1646 140.013 38.1619 140.701 37.2056 140.291C36 139.774 35.8421 138.975 35.9138 138.64C35.2919 138.497 33.8614 138.253 33.1151 138.425C32.7236 138.515 32.6354 138.302 32.527 138.041C32.3771 137.679 32.1886 137.224 31.1058 137.349C29.9792 137.479 30.0037 137.818 30.0263 138.13C30.0411 138.334 30.055 138.527 29.7423 138.64C29.2835 138.807 29.0999 139.186 29.043 139.491M29.043 139.491C29.0216 139.606 29.0181 139.71 29.0246 139.789C29.0437 139.712 29.0536 139.609 29.043 139.491ZM29.043 139.491C29.0136 139.163 28.826 138.72 28.2353 138.425C28.7376 137.707 28.4505 136.487 26.9435 136.129C25.6222 135.814 23.0874 134.782 21.999 134.339C21.846 134.277 21.7216 134.226 21.6331 134.191C20.9155 133.904 20.4849 133.904 21.059 135.268C21.5183 136.358 20.4849 135.722 19.9108 135.268C19.5281 135.435 18.6765 135.583 18.332 134.837C17.9015 133.904 16.3945 134.478 16.4662 135.555C16.5236 136.416 16.0596 137.109 15.8204 137.349C15.7964 137.779 15.8204 138.64 16.1074 138.64C16.3945 138.64 16.4662 137.779 16.4662 137.349C17.0882 136.775 18.332 135.727 18.332 136.129C18.332 136.331 18.519 136.172 18.7326 135.99C19.0484 135.72 19.4223 135.401 19.3367 136.129C19.2722 136.677 19.0195 136.747 18.7542 136.82C18.4288 136.911 18.0845 137.006 18.045 137.994C17.1838 138.425 17.5426 140.004 18.045 139.789C18.4469 139.616 19.0736 139.143 19.3367 138.927C18.9061 139.382 18.1742 140.506 18.6908 141.367C19.2075 142.228 18.6669 142.348 18.332 142.3C17.9732 142.324 17.2556 142.272 17.2556 141.87C17.2556 141.784 17.264 141.696 17.2726 141.606C17.3139 141.173 17.3584 140.707 16.4662 140.291C15.8927 140.023 15.5432 140.183 15.255 140.316C15.0024 140.431 14.7968 140.526 14.5286 140.291C14.0693 139.889 13.7153 140.602 13.5957 141.009C14.122 141.248 15.3037 141.654 15.8204 141.367C16.337 141.08 15.8443 142.205 15.5333 142.803C16.227 143.066 17.5426 143.649 17.2556 143.879C16.8968 144.166 18.045 145.171 18.6908 144.525C19.3367 143.879 21.6331 144.31 21.6331 144.955C21.6331 145.472 21.2504 146.223 21.059 146.534C20.1739 146.702 18.1742 146.936 17.2556 146.534C16.337 146.132 16.3466 148.424 16.4662 149.62C16.1313 149.811 15.275 150.079 14.5286 149.62C13.7823 149.161 14.2177 150.242 14.5286 150.84C13.8588 150.529 12.5193 150.094 12.5193 150.84C12.5193 151.586 13.2369 152.538 13.5957 152.921C13.1891 153.112 12.2179 153.438 11.5864 153.208C10.797 152.921 11.4428 154.643 12.5193 154.428C12.5193 155.146 15.3898 155.648 15.1027 154.428C14.8731 153.452 15.916 154.548 16.4662 155.217C15.5811 155.409 14.1555 155.949 15.5333 156.581C16.3082 156.936 16.5166 157.102 16.6812 157.067C16.8826 157.023 17.0186 156.678 18.045 156.007C19.5376 155.031 19.3367 156.414 19.0497 157.227C18.6908 157.538 18.045 158.275 18.332 158.734C18.6191 159.193 19.1214 159.117 19.3367 159.021C19.4802 159.428 20.0256 160.169 21.059 159.882C22.0924 159.595 24.3601 160.002 25.3648 160.241C25.4844 159.978 25.6518 159.308 25.3648 158.734C25.0777 158.16 25.4365 157.059 25.6518 156.581C25.3169 156.39 24.561 156.007 24.2166 156.007C23.8721 156.007 23.164 154.954 22.8531 154.428C22.6378 154.285 22.0924 154.012 21.6331 154.069C21.059 154.141 22.7813 153.208 24.2166 153.639C25.3648 153.983 25.1734 155.026 24.9342 155.505C25.1734 155.863 25.8527 156.581 26.6565 156.581C27.4602 156.581 26.7043 157.346 26.2259 157.729C26.3216 158.136 26.4555 159.078 26.2259 159.595C25.9389 160.241 25.5083 161.676 26.2259 161.676H27.9482C27.6372 161.915 27.044 162.537 27.1588 163.111C27.2736 163.685 25.4365 162.824 24.5036 162.322C24.7907 162.585 25.2786 163.111 24.9342 163.111C24.8642 163.111 24.7734 163.121 24.6685 163.132C24.1279 163.188 23.2137 163.284 22.8531 162.322C22.5086 161.403 19.9347 164.618 18.6908 166.341C19.1453 166.652 20.1117 167.216 20.3414 166.987C20.571 166.757 18.9061 168.757 18.045 169.785C17.9493 170.168 17.6575 170.933 17.2556 170.933H15.5333L12.5193 173.158C12.0648 173.158 11.0697 173.23 10.7252 173.517C10.3808 173.804 12.7824 173.876 14.0263 173.876C14.3133 173.637 15.074 173.158 15.8203 173.158C16.3313 173.158 16.2395 172.642 16.1816 172.316C16.1338 172.046 16.1091 171.907 16.4662 172.297C16.7453 172.601 16.9437 172.888 17.1121 173.131C17.4199 173.576 17.6275 173.876 18.045 173.876C18.5617 173.876 19.7912 174.067 20.3414 174.163C19.6716 174.282 18.533 174.565 19.3367 174.737C20.1404 174.909 21.2025 174.809 21.6331 174.737C23.2287 173.213 24.1126 172.385 25.3648 171.723C25.3648 172.321 25.2786 173.517 24.9342 173.517C24.8495 173.517 24.8842 173.52 24.9946 173.529C25.4456 173.565 27.1588 173.702 27.1588 174.163C27.1588 174.622 25.3887 174.354 24.5036 174.163C24.4797 174.545 24.3027 175.254 23.786 175.024C23.2693 174.794 21.2743 175.167 20.3414 175.383C19.5759 175.048 17.8871 174.507 17.2556 175.024C17.015 174.936 16.7743 174.796 16.5398 174.658C16.005 174.345 15.5018 174.051 15.1027 174.45C14.8973 174.655 14.5908 174.769 14.3016 174.876C13.7826 175.068 13.3192 175.24 13.5957 175.885C13.9402 176.689 11.3472 176.89 10.0076 176.89C10.0554 177.153 10.352 177.78 11.1558 178.181C11.9595 178.583 10.7252 179.497 10.0076 179.904C10.0913 180.238 10.3139 180.833 10.5988 180.862M10.5988 180.862C10.6398 180.866 10.682 180.858 10.7252 180.837C10.7872 180.806 10.8145 180.791 10.8145 180.791C10.8145 180.791 10.7322 180.822 10.5988 180.862ZM73.9315 231.748L73.9413 231.747M73.9315 231.748C73.9354 231.747 73.9393 231.747 73.9432 231.747M73.9315 231.748C73.9348 231.748 73.938 231.747 73.9413 231.747M73.9413 231.747L73.9432 231.747M73.9432 231.747L73.9854 231.745M73.9432 231.747C73.9576 231.747 73.9717 231.746 73.9854 231.745M106.455 184.488H106.453C106.399 184.49 106.344 184.492 106.29 184.493M106.455 184.488C106.4 184.49 106.344 184.492 106.29 184.493M78.0019 160C78.0019 159.785 81.0426 151.787 81.5019 151.5C81.9612 151.213 83.3584 147.694 83.5019 147C83.9325 146.88 87.1953 147.108 87.3675 146.534C87.5828 145.817 96.7684 139.717 97.9883 140.147C97.242 140.836 96.7866 146.546 97.0019 147C97.2172 147.12 96.5186 149.983 96.0019 150.5C95.4852 151.017 95.0019 151.213 95.0019 151.5C94.667 151.811 94.7889 153.557 94.5019 153.5C94.1431 153.428 93.1478 155.785 92.5019 156C91.856 156.215 89.3584 156.498 89.5019 157C89.6454 157.502 87.1454 158.787 87.0019 158.5C86.8871 158.27 78.3368 159.904 78.0019 160ZM127.124 233.51C127.267 232.912 128.157 232.132 130.568 233.797C132.98 235.462 131.573 235.448 130.568 235.233C130.329 235.615 129.923 236.424 130.21 236.596C130.568 236.811 128.487 237.314 128.2 236.955C127.971 236.668 126.287 235.448 125.473 234.874C125.306 234.754 124.871 234.587 124.469 234.874C123.966 235.233 125.617 233.51 127.124 233.51ZM84.5688 116.538C84.2339 115.533 83.966 113.394 85.5734 112.878C87.1809 112.361 87.5828 114.72 87.5828 115.963C87.6785 116.466 87.7837 117.442 87.4393 117.327C87.0948 117.212 87.4871 117.853 87.7263 118.188L87.5828 119.408C86.5064 119.528 84.3535 119.523 84.3535 118.547C84.3535 117.327 84.21 116.753 84.5688 116.538ZM81.6983 102.185L79.2584 103.836C78.5647 104.194 77.2921 105.099 77.7513 105.845C78.3829 105.615 78.7321 105.893 78.8278 106.06C78.5407 106.204 77.8805 106.448 77.5361 106.275C77.1916 106.103 76.4836 106.778 76.1726 107.137C75.9812 107.998 75.8138 109.72 76.6749 109.72C77.5361 109.72 77.7513 108.763 77.7513 108.285C78.1102 108.093 78.8708 107.567 79.0431 106.993C79.2153 106.419 80.5979 104.84 81.2677 104.123C81.6265 103.62 82.215 102.53 81.6983 102.185ZM81.6983 101.252C81.9853 101.085 82.5307 100.85 82.4159 101.252C82.2724 101.754 82.3441 101.97 81.483 101.97C80.7941 101.97 81.3395 101.491 81.6983 101.252ZM74.3785 103.836C74.7612 103.07 75.6128 101.625 75.9573 101.97C76.3879 102.4 75.0244 103.549 75.3832 103.836C75.742 104.123 74.2295 104.123 74.3785 103.836ZM72.8715 108.5C73.5174 107.639 74.9239 105.988 75.3832 106.275C75.8425 106.563 75.7181 108.691 75.5985 109.72C75.9095 110.151 76.4166 111.012 75.9573 111.012C75.498 111.012 75.7659 111.442 75.9573 111.658C76.1008 111.945 76.2587 112.519 75.742 112.519C75.2253 112.519 75.2875 112.806 75.3832 112.949C74.8569 113.189 73.7614 113.595 73.5891 113.308C73.3738 112.949 73.2303 114.815 72.2256 113.882C71.4219 113.136 72.3213 112.662 72.8715 112.519C73.0389 112.399 73.3021 112.06 73.015 111.658C72.6562 111.155 72.0103 111.012 72.8715 110.366C73.7326 109.72 73.7327 109.792 73.3021 109.505C72.8715 109.218 72.1539 109.505 72.0821 109.935C72.0247 110.28 71.5798 110.605 71.3645 110.725C71.1253 110.892 70.6612 111.285 70.7186 111.514C70.7904 111.801 69.6422 111.945 69.8575 111.012C70.0297 110.265 70.6469 109.696 70.9339 109.505C70.7665 109.266 70.5607 108.758 71.0774 108.644C70.4316 108.285 71.3645 108.213 71.221 107.783C71.1062 107.438 72.3692 107.208 73.015 107.137C72.8715 107.591 72.6419 108.5 72.8715 108.5ZM70.8622 90.4878C71.221 90.2486 71.9386 89.7127 71.9386 89.4831C71.9386 89.196 73.0868 88.6219 73.3738 88.5502C73.6035 88.4928 74.0915 88.5262 74.3067 88.5502L73.5891 89.7701C73.4217 89.6505 73.0437 89.4831 72.8715 89.7701C72.6562 90.1289 72.4409 90.703 71.9386 90.703C71.5367 90.703 71.0535 90.5595 70.8622 90.4878ZM66.6999 91.7795C66.7238 92.1861 66.9296 92.9995 67.5611 92.9995C68.3505 92.9995 67.274 92.2818 68.1352 92.2818C68.8241 92.2818 69.1399 91.9469 69.2116 91.7795C69.9532 91.612 71.02 91.2484 69.3551 91.1336C68.1352 90.7748 68.5658 91.3489 68.1352 91.4207C67.7046 91.4924 66.6999 91.2772 66.6999 91.7795ZM75.5267 81.4457C75.8616 81.7806 76.5027 82.5078 76.3879 82.7374C76.2443 83.0245 77.8231 82.8809 77.8231 82.1633C77.8231 81.4457 77.7513 79.6516 76.1008 80.7281C74.7804 81.5892 75.1679 81.5653 75.5267 81.4457ZM81.483 74.7L82.3441 74.413C82.4159 74.1977 82.5164 73.7384 82.3441 73.6236C82.1289 73.4801 82.2724 72.2601 82.5594 71.9731C82.7891 71.7434 82.9422 71.4468 82.99 71.3272L82.8465 70.8249C82.679 70.777 82.3441 70.7675 82.3441 71.1119C82.3441 71.5425 82.2006 71.8295 81.9136 71.686C81.6265 71.5425 81.2677 73.0495 81.2677 73.2648C81.2677 73.4801 81.3395 74.7479 81.483 74.7ZM62.1071 79.3646C62.0354 79.0058 62.0497 78.3599 62.6812 78.647C63.3127 78.934 62.8965 78.0729 63.1118 78.0011C63.3271 77.9293 63.5998 78.5034 63.5424 78.7905C63.4706 79.1493 64.1882 79.8669 63.5424 79.9387C62.8965 80.0104 62.4659 80.3693 62.6812 80.5128C62.8965 80.6563 61.4613 80.5128 61.4613 79.9387C61.4613 79.4794 61.8918 79.3646 62.1071 79.3646ZM64.26 74.5565C64.1165 75.322 63.9155 76.8816 64.26 76.9964C64.6045 77.1112 65.0255 77.14 65.1929 77.14C65.5757 77.3313 66.3411 77.6566 66.3411 77.427C66.3411 77.14 66.1976 76.4941 65.8388 76.4223C65.48 76.3506 66.6282 75.1306 66.0541 74.8436C65.5948 74.6139 66.0541 74.4608 66.3411 74.413L66.6282 73.6236C66.9152 73.3844 67.4032 72.8773 67.0587 72.7625C66.7143 72.6476 66.7238 72.4276 66.7717 72.3319C67.0109 72.0927 67.3458 71.5568 66.7717 71.3272C66.1976 71.0976 66.389 70.7053 66.5564 70.5378L67.7046 70.3225C67.6328 70.3225 67.4463 70.2221 67.274 69.8202C67.1018 69.4183 67.4893 69.3179 67.7046 69.3179C67.2979 68.8873 66.3555 68.0835 65.8388 68.3132C65.3221 68.5428 65.2886 69.3179 65.3364 69.6767C65.6713 69.892 66.2407 70.3225 65.8388 70.3225H64.7623V72.3319C64.6427 72.4993 64.3461 72.9634 64.1165 73.4801C63.8294 74.1259 63.9012 74.1259 64.26 74.5565ZM65.3364 66.1603C65.7431 66.3278 66.5421 66.7344 66.4846 67.0215C66.4272 67.3085 66.6042 67.8587 66.6999 68.0979L68.781 68.1697C68.8289 67.9783 68.9102 67.5525 68.8528 67.3803C68.781 67.165 69.1399 66.7344 69.2834 66.8062C69.3982 66.8636 69.0442 66.5909 68.8528 66.4474C68.781 66.3756 68.6088 66.146 68.494 65.8015C68.3792 65.457 68.781 65.4188 68.9963 65.4427C69.2834 65.634 69.8288 66.0455 69.714 66.1603C69.5704 66.3038 70.7186 65.5862 70.1445 65.1556C69.5704 64.7251 68.9963 65.2274 68.9963 64.7968C68.9963 64.3663 69.3551 64.2945 68.781 64.2227C68.3218 64.1653 67.9677 64.5815 67.8481 64.7968C67.6089 64.749 67.1449 64.5959 67.2023 64.3662C67.274 64.0792 67.1305 64.0792 66.4846 64.438C65.968 63.9213 65.3125 64.2227 65.0494 64.438C64.9776 64.6772 64.7623 65.1843 64.4753 65.2992C64.1165 65.4427 63.9012 65.4427 64.3318 65.8015C64.7623 66.1603 65.1929 66.5191 65.3364 66.1603ZM124.038 45.5645C124.038 46.1147 123.952 47.2294 123.608 47.2868C123.263 47.3442 123.081 46.2582 123.033 45.708C122.746 45.4688 122.258 44.976 122.603 44.9186C122.947 44.8612 124.038 44.9904 124.54 45.0621C124.517 45.3014 124.383 45.7367 124.038 45.5645ZM118.728 42.4069C118.393 42.6461 117.852 43.182 118.369 43.4116C119.015 43.6987 118.441 44.7751 119.015 44.9186C119.589 45.0621 118.871 45.708 119.445 45.708C120.019 45.708 121.096 46.2103 121.239 45.5645C121.354 45.0478 120.617 45.2535 120.235 45.421C120.283 45.3014 120.464 45.0334 120.809 44.9186C121.153 44.8038 120.857 44.5359 120.665 44.4163C120.546 43.6987 119.991 42.2921 118.728 42.4069ZM119.445 39.1776C119.732 38.0773 120.694 36.3215 122.244 38.1012C122.244 37.24 122.914 38.2686 123.249 38.8906C123.464 39.2255 123.765 39.8952 123.249 39.8952C122.603 39.8952 122.89 41.0434 122.244 40.6129C121.727 40.2684 122.029 40.8521 122.244 41.187C122.699 41.1391 123.608 41.1152 123.608 41.4023C123.608 41.6893 124.373 41.7611 124.756 41.7611C125.234 41.7132 126.205 41.6463 126.263 41.7611C126.335 41.9046 127.339 41.9046 127.052 42.4069C126.765 42.9093 126.263 43.4116 126.047 43.4116C125.832 43.4116 125.258 44.5598 124.54 43.6269C123.966 42.8806 123.153 42.5026 122.818 42.4069C122.196 42.6701 120.924 43.0958 120.809 42.694C120.665 42.1916 120.45 40.6129 121.024 40.6129C121.598 40.6129 120.665 39.4647 120.235 40.6129C119.804 41.7611 120.235 42.1916 119.302 41.5458C118.555 41.0291 119.087 39.7517 119.445 39.1776ZM124.038 38.1012C124.349 37.7185 124.698 36.9386 123.608 36.8812C122.244 36.8095 122.962 36.3071 122.603 37.4553C122.947 37.7424 123.703 38.0055 124.038 38.1012ZM148.222 5.87985C148.102 6.741 148.007 8.50635 148.581 8.67858C149.298 8.89387 149.729 9.10916 149.729 7.96096C149.729 6.81276 150.375 5.87985 149.729 5.87985C149.212 5.87985 149.514 5.21007 149.729 4.87517L150.447 5.37751C150.495 4.63597 150.418 3.19593 149.729 3.36816C149.04 3.54039 148.964 4.34892 149.011 4.73165C148.7 4.75557 148.107 4.86082 148.222 5.09046C148.337 5.3201 148.27 5.7124 148.222 5.87985ZM151.093 6.1669L151.451 7.17157C151.451 6.93237 151.494 6.49701 151.667 6.66924C151.882 6.88452 152.887 7.3151 152.887 6.81276C152.887 6.31042 152.671 5.95161 152.528 6.38219C152.384 6.81276 152.671 5.37751 151.451 5.87985C150.475 6.28172 150.805 6.23866 151.093 6.1669ZM150.805 3.79874C150.805 3.96618 150.978 4.34413 151.667 4.51636C152.528 4.73165 152.241 4.37284 152.241 4.01403C152.241 3.65521 152.169 3.36816 152.528 3.36816C152.887 3.36816 153.102 2.50702 152.743 2.43525C152.456 2.37784 152.911 2.21997 153.174 2.1482C153.245 1.5741 153.217 0.641192 152.528 1.50234C151.839 2.36349 151.81 2.05252 151.882 1.78939C152.097 1.52626 152.399 1 151.882 1C151.365 1 151.284 1.76547 151.308 2.1482C151.236 2.31565 151.093 2.751 151.093 3.15287C151.093 3.55474 150.901 3.7509 150.805 3.79874ZM75.2396 79.8669C75.2396 80.1047 75.0694 80.3693 74.5938 80.3693C74.1182 80.3693 73.5173 80.1047 73.5173 79.8669C73.5173 79.6291 74.0464 79.2928 74.522 79.2928C74.9976 79.2928 75.2396 79.6291 75.2396 79.8669ZM111.247 263.847L114.577 261.641C114.873 262.109 115.288 263.206 114.577 263.847C113.867 264.489 112.061 264.115 111.247 263.847ZM121.572 269.864H125.902C126.494 270.566 127.5 272.07 126.79 272.471C126.079 272.872 123.533 272.638 122.349 272.471L121.572 269.864Z" stroke="black" stroke-opacity="0.2"/>
</svg>
