<svg width="177" height="286" viewBox="0 0 177 286" fill="none" xmlns="http://www.w3.org/2000/svg">
<rect x="0.580078" y="1" width="175.214" height="285" fill="white"/>
<path fill-rule="evenodd" clip-rule="evenodd" d="M106.962 184.488H106.96C106.906 184.49 106.851 184.492 106.797 184.493C106.852 184.492 106.908 184.49 106.962 184.488Z" fill="#E3E3E3"/>
<path fill-rule="evenodd" clip-rule="evenodd" d="M128.656 232.036C128.697 232.094 128.717 232.111 128.708 232.075C128.706 232.067 128.702 232.061 128.696 232.055C128.687 232.047 128.673 232.041 128.656 232.036ZM153.896 169.642C153.951 169.532 153.995 169.409 154.026 169.274C154.009 169.399 153.967 169.524 153.896 169.642ZM106.962 184.488H106.96C106.906 184.49 106.851 184.492 106.797 184.493C106.852 184.492 106.908 184.49 106.962 184.488ZM74.7422 231.644C74.8799 231.72 74.7468 231.734 74.5151 231.744C74.5497 231.632 74.6186 231.577 74.7422 231.644ZM94.0285 107.267C93.9802 107.21 93.9039 107.166 93.831 107.137C93.8428 107.144 93.8547 107.152 93.8667 107.16C93.8954 107.178 93.9248 107.198 93.955 107.218C93.9791 107.234 94.0036 107.25 94.0285 107.267ZM105.793 72.6246C105.856 72.6677 105.914 72.7172 105.959 72.7625C105.904 72.7279 105.842 72.6797 105.793 72.6246ZM89.5253 76.207C89.5356 76.1967 89.5311 76.1938 89.5158 76.1981C89.5171 76.2087 89.5201 76.2123 89.5253 76.207ZM117.297 233.367L117.382 233.254C117.164 233.213 117.209 233.293 117.297 233.367ZM168.249 207.173C168.27 207.188 168.295 207.202 168.324 207.216C168.303 207.199 168.278 207.185 168.249 207.173ZM113.996 156.15C113.924 156.194 113.843 156.245 113.759 156.303C113.854 156.259 113.938 156.202 113.996 156.15Z" fill="#E3E3E3"/>
<path d="M61.6097 241.763C62.4709 242.122 64.3511 242.466 64.9826 240.974C66.1882 240.974 67.0158 241.5 67.279 241.763C67.6617 242.074 68.3984 242.854 68.2836 243.485C68.1688 244.117 68.7142 244.753 69.0013 244.992L70.0777 243.916H70.7235L71.5129 242.983C71.6325 242.624 71.6421 241.935 70.7235 242.05C70.8326 241.977 70.914 241.928 70.9806 241.887C71.1771 241.767 71.245 241.726 71.5129 241.404C71.8 241.06 72.3502 241.117 72.5894 241.189L73.2352 240.256L73.2656 240.236C74.0149 239.744 74.547 239.395 76.034 239.395C76.5356 239.395 76.451 239.072 76.341 238.652C76.3075 238.523 76.2716 238.386 76.2493 238.247L76.8951 237.96V237.385H78.0433V237.96H81.3444C81.6793 237.696 82.4926 237.213 83.0667 237.385C83.6408 237.558 84.2149 237.84 84.4302 237.96C84.3823 238.294 84.4015 238.892 84.8607 238.605C85.32 238.318 86.1525 238.247 86.5113 238.247C86.583 238.629 86.827 239.395 87.2289 239.395C87.6308 239.395 88.401 239.203 88.7359 239.108L90.6735 241.835C90.9605 241.811 91.6495 241.82 92.1087 242.05C92.568 242.28 92.9699 242.002 93.1134 241.835V240.256C93.3765 240.017 93.9889 239.581 94.3334 239.754C94.6778 239.926 94.4769 239.395 94.3334 239.108H95.1945V238.605C95.5773 238.366 96.2279 237.859 95.7686 237.744C95.556 237.691 95.4418 237.707 95.3567 237.719C95.2122 237.739 95.152 237.747 94.8357 237.385C94.4339 236.926 95.2902 236.764 95.7686 236.74C95.8165 235.783 96.1274 233.812 96.9886 233.582V232.147C97.0843 232.553 97.4909 233.338 98.3521 233.223C99.2132 233.108 99.7634 232.458 99.9309 232.147L101.294 231.932C101.581 232.075 102.256 232.276 102.658 231.932C102.905 231.719 103.258 231.786 103.585 231.848C103.923 231.912 104.235 231.971 104.38 231.716C104.61 231.314 105.48 231.357 105.887 231.429C107.759 232.377 111.443 234.686 111.345 236.404C111.491 234.582 111.852 234.3 112.776 234.3C113.1 234.3 113.965 234.575 114.947 234.888C116.799 235.477 119.064 236.198 118.876 235.448C118.89 235.408 118.904 235.37 118.918 235.332C119.25 234.409 119.399 233.993 118.159 233.51C117.759 233.355 117.519 233.28 117.382 233.254L117.297 233.367C117.209 233.293 117.164 233.213 117.382 233.254L117.943 232.506L119.307 233.367L119.522 233.797L119.953 233.008H121.531C122.871 232.912 125.435 232.879 124.976 233.51C124.517 234.142 125.311 233.391 125.765 232.936C126.643 232.585 128.336 231.961 128.656 232.036C128.436 231.727 127.592 230.246 127.129 229.42C128.827 230.879 132.597 233.625 134.09 232.936C135.582 232.247 134.377 232.075 133.587 232.075L132.942 230.927C133.922 231.166 135.826 231.774 135.597 232.29C135.367 232.807 134.927 232.984 134.736 233.008L136.745 234.228V233.367C138.132 233.08 141.295 232.606 142.845 233.008C143.828 233.263 143.85 233.13 143.878 232.965C143.904 232.805 143.935 232.615 144.854 232.721C146.347 232.893 150.404 234.276 152.246 234.946C152.82 234.635 153.968 233.883 153.968 233.367C153.968 233.066 154.873 232.998 155.862 232.925C156.992 232.842 158.231 232.75 158.346 232.29C158.518 231.601 159.852 230.999 160.498 230.783C161.168 231.142 162.565 231.802 162.795 231.573C163.024 231.343 163.082 230.233 163.082 229.707L164.732 227.913C165.091 228.008 165.881 228.142 166.168 227.913C166.455 227.683 167.722 227.1 168.32 226.836C169.086 226.286 170.359 224.712 169.325 222.818C169.325 222.244 169.804 222.196 170.043 222.244C170.282 221.717 170.516 220.665 169.54 220.665C168.564 220.665 163.632 221 161.288 221.167C162.603 221.024 164.531 220.507 161.718 219.588C158.905 218.67 159.733 220.067 160.498 220.88C159.996 220.497 158.747 219.804 157.771 220.091C157.637 219.856 157.927 219.762 158.325 219.633C158.777 219.487 159.37 219.296 159.637 218.799C160.039 218.053 157.556 218.01 156.264 218.081L155.331 218.512L156.264 217.436C157.03 217.459 158.59 217.45 158.704 217.22C158.742 217.145 159.024 217.134 159.433 217.118C160.573 217.074 162.697 216.993 163.225 215.354C163.943 213.13 163.799 212.34 162.938 212.34C162.637 212.34 162.388 212.508 162.124 212.685C161.635 213.014 161.094 213.377 160.068 212.771C158.805 212.025 160.355 212.173 161.288 212.34C161.814 212.364 162.78 212.254 162.436 211.623C162.091 210.991 163.297 210.498 163.943 210.331C164.469 211.168 165.881 212.441 167.316 210.833C168.751 209.226 167.914 209.159 167.316 209.326C167.838 208.736 168.728 207.532 168.324 207.216C168.295 207.202 168.27 207.188 168.249 207.173C168.278 207.185 168.303 207.199 168.324 207.216C168.884 207.492 170.818 207.763 170.545 206.671C170.258 205.523 172.913 204.805 172.985 205.021C173.057 205.236 174.707 200.715 173.703 200.571C174.349 199.782 175.612 197.859 175.497 196.481C176.358 196.251 175.856 195.189 175.497 194.687C175.688 193.012 175.64 189.463 173.918 188.659C173.746 187.568 172.602 187.2 172.052 187.152C170.808 185.98 167.689 183.707 165.163 183.994C166.168 184.568 163.728 184.568 163.584 183.994C163.441 183.42 158.13 183.42 158.13 184.425C158.13 185.229 157.03 186.913 156.48 187.654C156.217 187.511 155.575 187.267 155.116 187.439C154.928 187.509 154.725 187.196 154.454 186.777C153.896 185.916 153.05 184.61 151.456 185.286C151.715 185.065 151.992 184.867 152.257 184.678C153.021 184.133 153.679 183.664 153.466 182.918C153.279 182.265 154.366 181.854 155.229 181.528C155.693 181.353 156.092 181.203 156.193 181.052C156.48 180.621 156.91 174.378 154.614 172.799C155.016 171.536 153.872 171.316 153.25 171.364C152.557 170.24 151.097 168.235 150.81 169.211C150.81 167.891 150.045 167.848 149.662 167.991C149.208 167.202 148.414 165.652 148.873 165.767C149.124 165.829 149.526 166.345 149.934 166.869C150.461 167.544 150.999 168.234 151.241 167.991C151.395 167.991 151.585 167.936 151.796 167.875C152.175 167.766 152.62 167.638 153.035 167.776C153.575 167.956 154.114 168.636 154.026 169.274C154.281 168.169 153.709 166.211 151.6 163.398C149.705 160.872 149.949 158.758 150.308 158.016L151.815 156.725L149.662 155.433C149.854 154.978 149.892 153.983 148.514 153.639C147.136 153.294 147.27 152.251 147.509 151.773C147.438 150.984 147.108 149.433 146.361 149.548C146.361 148.831 142.271 144.525 139.687 144.955C137.621 145.3 138.061 144.286 138.539 143.735C138.515 143.137 138.166 141.884 136.96 141.654C135.755 141.425 135.788 138.162 135.956 136.559C135.98 136.2 135.898 135.354 135.382 134.837C134.865 134.32 134.783 133.521 134.807 133.186C134.855 131.99 134.75 129.57 133.946 129.455C133.143 129.34 133.611 128.546 133.946 128.163C133.97 127.948 133.946 127.302 133.659 126.441C133.372 125.58 133.731 125.412 133.946 125.436C134.09 124.647 134.233 123.097 133.659 123.211C133.827 123.164 134.061 122.967 133.659 122.566C133.659 121.991 133.444 120.628 132.583 120.7C131.894 120.757 131.769 120.58 131.793 120.484C131.961 120.293 132.08 119.925 131.219 119.982C130.358 120.04 130.478 119.575 130.645 119.336C130.43 118.595 129.784 116.882 128.923 115.963C128.19 115.657 127.171 116.978 126.389 117.99C125.888 118.639 125.485 119.161 125.317 119.049C124.886 118.762 123.882 119.336 124.599 119.982C125.173 120.499 125.317 122.924 125.317 124.073C124.671 124.12 123.379 124.388 123.379 125.077C123.437 126.57 122.494 126.178 122.016 125.795C121.49 126.225 120.337 127.101 119.935 127.158C119.533 127.216 119.241 128.33 119.145 128.881C117.854 129.861 115.227 131.895 115.055 132.182C114.883 132.469 114.122 132.301 113.763 132.182L113.494 133.617C113.709 133.832 113.637 134.406 113.207 134.406C112.776 134.406 111.772 134.406 111.556 134.119C111.341 133.832 108.973 134.406 110.265 134.837C111.298 135.181 110.312 135.268 109.691 135.268C109.547 134.98 109.145 134.607 108.686 135.411C108.112 136.416 107.466 137.923 107.753 138.066C107.983 138.181 107.227 138.545 106.82 138.712C106.055 140.004 104.581 142.645 104.811 142.874C104.916 142.98 104.808 143.066 104.679 143.169C104.458 143.345 104.176 143.569 104.811 144.023C105.614 144.597 106.677 146.75 107.107 147.754C106.988 148.352 106.849 149.563 107.251 149.62C107.394 149.979 108.04 151.342 108.614 151.271C109.073 151.213 109.38 150.385 109.475 149.979C109.571 150.577 109.647 151.773 109.188 151.773C108.729 151.773 108.853 152.969 108.973 153.567C109.38 153.639 110.121 153.911 109.834 154.428C109.475 155.074 110.623 153.926 110.48 153.567C110.425 153.429 110.625 153.216 110.879 152.946C111.286 152.513 111.832 151.933 111.7 151.271C111.528 150.409 111.963 150.816 112.202 151.127C112.154 151.677 112.202 152.749 112.776 152.634C113.262 152.537 113.485 152.177 113.622 151.954C113.688 151.848 113.735 151.773 113.781 151.773C113.925 151.773 114.57 151.988 114.57 152.778C114.57 153.042 114.651 153.234 114.72 153.399C114.858 153.727 114.952 153.951 114.283 154.428C113.279 155.146 112.705 155.648 113.063 156.15C113.263 156.429 113.542 156.402 113.759 156.303C113.843 156.245 113.924 156.194 113.996 156.15C113.938 156.202 113.854 156.259 113.759 156.303C113.287 156.625 112.722 157.127 113.063 157.37C113.227 157.487 112.934 157.497 112.502 157.513C111.607 157.544 110.113 157.597 110.839 158.662C111.7 159.925 111.102 160.624 110.695 160.815C110.743 161.437 111.155 162.638 112.418 162.465C110.638 163.327 109.619 165.36 109.332 166.269L110.049 168.924C109.619 169.187 108.686 169.685 108.399 169.57C108.04 169.426 107.251 169.857 107.825 170.646C108.399 171.436 108.829 172.871 108.758 173.158L110.48 174.88C110.049 175.287 109.317 176.172 109.834 176.459C110.48 176.818 110.911 178.971 110.695 179.401C110.523 179.746 111.772 179.928 112.418 179.976C112.621 181.028 112.658 182.76 111.18 181.267C109.701 179.775 108.327 180.645 107.825 181.267C107.149 181.794 105.955 183.176 106.587 184.497C106.657 184.497 106.727 184.495 106.797 184.493C106.851 184.492 106.906 184.49 106.96 184.488H106.962C107.703 184.461 108.399 184.437 108.399 185.358C108.399 186.219 107.334 187.2 106.802 187.582C106.264 187.75 105.327 188.3 105.887 189.161C106.257 189.73 106.778 189.657 107.186 189.6C107.55 189.549 107.825 189.511 107.825 189.951C107.825 190.697 106.33 191.17 105.582 191.314C105.056 191.553 104.161 192.233 104.793 193.036C105.424 193.84 106.73 194.519 107.305 194.759C107.544 195.404 107.778 196.682 106.802 196.624C105.582 196.553 104.972 202.007 105.887 203.155C106.619 204.073 107.867 204.112 108.399 204.016C109.045 204.279 110.193 205.021 109.619 205.882C109.045 206.743 110.42 206.432 111.18 206.169C110.372 208.011 109.088 211.752 110.408 211.982C110.576 211.862 110.911 211.58 110.911 211.407C110.911 211.312 111.151 211.145 111.413 210.965C111.74 210.739 112.099 210.491 112.059 210.331C112.023 210.19 112.439 209.91 112.871 209.619C113.317 209.319 113.781 209.006 113.781 208.824C113.781 208.653 114.092 208.645 114.425 208.637C114.789 208.628 115.179 208.618 115.216 208.393C115.288 207.963 115.288 209.255 114.714 209.039C114.14 208.824 112.561 210.475 112.418 210.69C112.366 210.767 112.361 210.835 112.355 210.908C112.345 211.036 112.334 211.178 112.059 211.407C111.628 211.766 110.695 213.13 110.623 213.56C110.566 213.905 109.93 214.087 109.619 214.134C108.973 214.182 107.495 214.579 106.748 215.785C106.002 215.498 105.72 216.527 105.672 217.077C105.528 217.412 105.198 217.981 105.026 217.579C104.854 217.177 104.811 219.182 104.811 220.234C103.256 219.995 100.017 219.66 99.5003 220.234C99.2729 219.052 97.9796 219.022 96.7885 218.995C96.0999 218.979 95.4454 218.964 95.051 218.727C93.9746 218.081 93.4722 217.866 92.8981 218.297C92.65 218.483 91.6379 218.387 90.528 218.283C89.0697 218.145 87.4424 217.992 87.1571 218.44C86.7553 219.072 87.0854 219.373 87.3007 219.445H86.4395C86.7744 219.971 87.3437 221.081 86.9419 221.311C86.7425 221.425 86.5545 221.719 86.3598 222.024C86.0639 222.488 85.7527 222.976 85.3631 222.889C85.2521 222.865 85.0607 222.808 84.8244 222.739C83.6854 222.403 81.5047 221.76 82.2773 222.889C81.5884 223.291 81.464 224.205 81.4879 224.612C81.3922 225.688 81.1148 227.812 80.7703 227.698C80.3397 227.554 79.5503 228.128 79.5503 228.702C79.5503 229.161 78.5457 229.372 78.0433 229.42C78.0194 229.803 77.828 230.669 77.2539 231.07C76.6798 231.472 75.5316 231.238 75.0293 231.07C75.0293 231.525 75.1728 232.491 75.7469 232.721C76.321 232.951 75.1728 232.625 74.527 232.434C74.4906 232.23 74.4614 231.918 74.5151 231.744L74.4927 231.745L74.4504 231.747L74.4485 231.747L74.4388 231.748L74.4322 231.748C73.9908 231.767 73.307 231.796 73.307 232.147C73.307 232.194 73.3075 232.248 73.308 232.306C73.314 232.95 73.3252 234.174 72.7329 234.371C72.6332 234.405 72.5061 234.44 72.3652 234.478C71.593 234.691 70.4038 235.018 71.0106 235.807C71.3827 236.29 71.1567 236.369 70.5429 236.583C69.9727 236.781 69.0678 237.096 67.9966 237.96C67.078 237.5 66.7049 238.534 66.6331 239.108C66.3221 239.012 65.6284 238.706 65.3414 238.247C65.0543 237.787 64.6955 238.294 64.552 238.605C63.6669 238.773 61.8968 239.337 61.8968 240.256C61.8968 241.175 61.7054 241.643 61.6097 241.763Z" fill="#EAEAEA"/>
<path d="M127.631 233.51C127.775 232.912 128.665 232.132 131.076 233.797C133.487 235.462 132.08 235.448 131.076 235.233C130.837 235.615 130.43 236.424 130.717 236.596C131.076 236.811 128.995 237.314 128.708 236.955C128.478 236.668 126.794 235.448 125.981 234.874C125.813 234.754 125.378 234.587 124.976 234.874C124.474 235.233 126.124 233.51 127.631 233.51Z" fill="#EAEAEA"/>
<path fill-rule="evenodd" clip-rule="evenodd" d="M78.9045 96.3005C78.9179 96.2737 78.9112 96.2845 78.8817 96.3207C78.8933 96.3141 78.901 96.3074 78.9045 96.3005Z" fill="#E3E3E3"/>
<path fill-rule="evenodd" clip-rule="evenodd" d="M58.0934 124.144C57.9732 124.224 57.94 124.213 57.9711 124.14C58.0136 124.14 58.0545 124.142 58.0934 124.144ZM40.5116 132.325C40.1526 132.408 40.378 132.332 40.8158 132.19C40.7305 132.251 40.6299 132.298 40.5116 132.325ZM61.3064 124.638C61.307 124.784 61.4588 124.704 61.6097 124.575C61.5205 124.595 61.4177 124.617 61.3064 124.638ZM76.5225 131.399C76.5274 131.421 76.532 131.443 76.5363 131.464C76.4998 131.391 76.4789 131.324 76.5001 131.3C76.508 131.334 76.5155 131.367 76.5225 131.399ZM29.5319 139.789C29.5509 139.712 29.5609 139.609 29.5503 139.491C29.5288 139.606 29.5254 139.71 29.5319 139.789ZM11.3218 180.791C11.3218 180.791 11.2394 180.822 11.1061 180.862C11.147 180.866 11.1892 180.858 11.2325 180.837C11.2945 180.806 11.3218 180.791 11.3218 180.791Z" fill="#E3E3E3"/>
<path fill-rule="evenodd" clip-rule="evenodd" d="M75.6527 53.2644C75.7955 53.3156 75.9339 53.3916 76.034 53.4584C75.9353 53.4255 75.7884 53.3594 75.6527 53.2644Z" fill="#E65052"/>
<path fill-rule="evenodd" clip-rule="evenodd" d="M148.442 11.9797C148.386 11.9983 148.425 11.9973 148.515 11.9849C148.487 11.9753 148.462 11.973 148.442 11.9797Z" fill="#E65052"/>
<path d="M122.079 269.864H126.409C127.001 270.566 128.008 272.07 127.297 272.471C126.587 272.872 124.04 272.638 122.856 272.471L122.079 269.864Z" fill="#E3E3E3"/>
<path d="M111.754 263.847L115.085 261.641C115.381 262.109 115.795 263.206 115.085 263.847C114.374 264.489 112.568 264.115 111.754 263.847Z" fill="#E3E3E3"/>
<path d="M87.6595 151.773C87.6595 151.558 87.7743 151.055 88.2336 150.768C88.6929 150.481 89.0947 149.022 89.2383 148.328C89.6688 148.209 90.573 147.826 90.7453 147.252C90.9606 146.534 93.3287 144.023 94.5487 144.453C93.8023 145.142 94.0463 146.223 94.2616 146.678C94.4769 146.797 94.7783 147.166 94.2616 147.682C93.7449 148.199 93.6158 148.902 93.6158 149.189C93.2809 149.5 92.5393 150.108 92.2523 150.051C91.8935 149.979 92.037 151.055 91.3911 151.271C90.7453 151.486 89.9559 151.701 90.0994 152.203C90.2429 152.706 88.9512 152.06 88.8077 151.773C88.6929 151.543 87.9944 151.677 87.6595 151.773Z" fill="#EAEAEA"/>
<path d="M102.801 171.364C102.112 171.996 100.696 171.627 100.074 171.364C99.8591 171.149 99.2993 170.661 98.7827 170.431C98.7026 170.396 98.6291 170.361 98.563 170.33C98.0956 170.111 97.9927 170.062 98.4956 171.005C97.4622 170.546 96.2949 171.484 95.8404 172.01C95.4337 172.13 94.6204 172.268 94.6204 171.866C94.6204 171.464 95.3381 170.742 95.6969 170.431C95.1706 170.288 94.0176 170.044 93.6158 170.216C93.3678 170.322 93.3122 169.956 93.2504 169.55C93.187 169.133 93.1171 168.673 92.8264 168.637C93.3287 167.991 89.5253 165.48 88.6642 168.852C89.1665 168.996 88.2336 169.929 88.1618 169.785C88.0901 169.642 86.7266 168.278 86.7983 169.426C86.8557 170.345 87.3485 170.192 87.5877 170.001C87.7073 170.335 88.0183 171.005 88.3053 171.005C88.5924 171.005 88.7598 171.244 88.8077 171.364C88.9273 171.89 89.2383 172.928 89.5253 172.871C89.8124 172.814 89.9798 172.847 90.0276 172.871C89.9559 173.23 89.9559 173.933 90.53 173.876C91.1041 173.818 91.5825 174.043 91.7499 174.163C91.2476 174.282 90.329 174.723 90.6735 175.526C91.018 176.33 89.0469 177.392 88.0183 177.823C86.9419 178.181 84.7029 179.244 84.3584 180.621C84.1349 181.515 84.2982 181.423 84.7679 181.158C85.203 180.912 85.9011 180.518 86.7983 180.621C86.7135 180.961 87.1299 181.15 87.4107 181.277C87.6051 181.365 87.7345 181.424 87.5877 181.483C87.2289 181.626 88.3053 181.841 88.1618 180.621C88.047 179.645 88.9273 179.401 89.3818 179.401C89.932 179.401 91.0754 179.344 91.2476 179.114C91.4198 178.885 92.1327 179.019 92.4676 179.114C93.1613 179.114 94.3047 179.287 93.3287 179.976C92.9913 179.976 93.1436 180.269 93.2943 180.56C93.4321 180.826 93.5686 181.089 93.3287 181.124C92.8264 181.195 92.6111 181.698 93.1134 182.344C93.4266 182.746 93.6003 183.149 93.7215 183.43C93.7947 183.6 93.8488 183.725 93.9028 183.779C94.0463 183.922 93.257 185.214 92.9699 185.214C92.6829 185.214 92.1087 187.582 93.6158 187.798C95.1228 188.013 95.1945 188.3 94.2616 188.372C94.1303 188.382 94.0132 188.386 93.9089 188.39C93.2724 188.414 93.1134 188.42 93.1134 189.592C93.1134 190.428 92.6542 191.022 92.2164 191.587C91.9406 191.944 91.6733 192.289 91.5347 192.677C91.2476 193.481 89.4057 194.495 88.5206 194.902C87.8987 194.998 86.5113 195.419 85.9372 196.337C85.5532 196.952 85.2309 196.744 84.8273 196.485C84.4766 196.259 84.0645 195.994 83.4973 196.194C83.4035 196.131 83.405 196.219 83.407 196.331C83.4095 196.477 83.4128 196.665 83.2102 196.624C82.8514 196.553 82.2055 196.624 81.8467 197.557C81.5597 198.304 80.9617 198.012 80.6985 197.773C80.5789 197.94 80.4115 198.318 80.6985 198.49C80.9856 198.662 80.1484 198.275 79.6939 198.06C79.5025 198.06 79.1772 198.146 79.4068 198.49C79.6938 198.921 78.0433 197.988 77.9716 197.773C77.8998 197.557 76.3928 198.06 77.0387 198.634C77.6845 199.208 75.4599 199.567 75.3164 199.495C75.1728 199.423 74.527 199.567 74.814 199.782C74.9051 199.85 74.6563 199.962 74.3569 200.097C73.7131 200.386 72.8355 200.78 74.5987 201.074C76.6655 201.418 76.4646 202.652 76.1057 203.227C75.6991 203.538 74.7997 204.159 74.4552 204.159C74.1107 204.159 74.3117 204.542 74.4552 204.734C74.5987 205.188 74.9432 205.882 75.1728 205.021C75.3276 204.44 75.5865 204.569 76.0508 204.8C76.448 204.997 76.9954 205.269 77.7563 205.236C79.1044 205.177 79.0642 204.831 79.0042 204.316C78.9907 204.2 78.9762 204.076 78.9762 203.944C78.9762 203.227 79.8374 204.518 79.4068 204.877C79.0623 205.164 79.4546 205.379 79.6939 205.451C79.0002 205.619 77.5697 205.925 77.3975 205.81C77.1822 205.666 76.7516 205.595 76.5363 205.81C76.3641 205.982 75.9383 205.738 75.7469 205.595C75.8905 206.001 76.2493 206.757 76.5363 206.528C76.5363 206.743 77.0387 208.68 78.7609 207.317C78.4739 206.686 80.3636 206.958 81.3444 207.173C81.6793 206.91 82.3347 206.269 82.2773 205.81C82.2199 205.351 84.2627 205.475 85.2913 205.595C85.5305 205.547 85.9946 205.365 85.9372 205.021C85.8798 204.676 86.4395 205.021 86.7266 205.236V206.025C86.4874 206.097 86.1525 206.398 86.7266 207.03C87.3007 207.661 88.3532 207.676 88.8077 207.604C89.2861 207.843 90.3147 208.25 90.6017 207.963C90.9605 207.604 90.3865 208.896 89.7406 208.68C89.2239 208.508 87.8987 208.609 87.3007 208.68C87.1332 209.302 87.0136 210.518 87.8748 210.403C88.1618 210.69 89.0469 210.427 89.4535 210.259C89.6927 210.211 90.1712 210.173 90.1712 210.403C90.1712 210.69 91.9652 210.833 92.1087 210.403C92.2523 209.972 93.6875 208.968 93.9746 209.542C94.0363 209.665 94.1379 209.838 94.2556 210.039L94.2574 210.042C94.6875 210.776 95.3323 211.875 95.051 212.269C94.6922 212.771 95.8404 213.202 96.1992 213.058C96.4863 212.943 97.1321 214.254 97.4192 214.924C98.8066 215.426 101.811 216.259 102.73 215.57C103.648 214.881 103.639 214.134 103.519 213.847C104.38 213.536 106.102 212.814 106.102 212.412C106.102 212.01 106.342 212.388 106.461 212.627C107.155 212.699 108.614 212.757 108.901 212.412C109.188 212.068 110.025 211.982 110.408 211.982C109.088 211.752 110.372 208.011 111.18 206.169C110.42 206.432 109.045 206.743 109.619 205.882C110.193 205.021 109.045 204.279 108.399 204.016C107.867 204.112 106.619 204.073 105.887 203.155C104.972 202.007 105.582 196.553 106.802 196.624C107.778 196.682 107.544 195.404 107.305 194.759C106.73 194.519 105.424 193.84 104.793 193.036C104.161 192.233 105.056 191.553 105.582 191.314C106.33 191.17 107.825 190.697 107.825 189.951C107.825 189.511 107.55 189.549 107.186 189.6C106.778 189.657 106.257 189.73 105.887 189.161C105.327 188.3 106.264 187.75 106.802 187.582C107.334 187.2 108.399 186.219 108.399 185.358C108.399 184.437 107.703 184.461 106.962 184.488C106.908 184.49 106.852 184.492 106.797 184.493C106.727 184.495 106.657 184.497 106.587 184.497C105.955 183.176 107.149 181.794 107.825 181.267C108.327 180.645 109.701 179.775 111.18 181.267C112.658 182.76 112.621 181.028 112.418 179.976C111.772 179.928 110.523 179.746 110.695 179.401C110.911 178.971 110.48 176.818 109.834 176.459C109.317 176.172 110.049 175.287 110.48 174.88L108.758 173.158C108.717 173.321 107.872 172.495 107.108 171.748C106.521 171.174 105.981 170.646 105.887 170.646C105.875 170.646 105.858 170.646 105.836 170.646C105.455 170.641 103.615 170.618 102.801 171.364Z" fill="#4D908E"/>
<path d="M111.345 236.404C111.443 234.686 107.759 232.377 105.887 231.429C105.48 231.357 104.61 231.314 104.38 231.716C104.235 231.971 103.923 231.912 103.585 231.848C103.258 231.786 102.905 231.719 102.658 231.932C102.256 232.276 101.581 232.075 101.294 231.932L99.9309 232.147C99.7634 232.458 99.2132 233.108 98.3521 233.223C97.4909 233.338 97.0843 232.553 96.9886 232.147V233.582C96.1274 233.812 95.8165 235.783 95.7686 236.74C95.2902 236.764 94.4339 236.926 94.8357 237.385C95.152 237.747 95.2122 237.739 95.3567 237.719C95.4418 237.707 95.556 237.691 95.7686 237.744C96.2279 237.859 95.5773 238.366 95.1945 238.605V239.108H94.3334C94.4769 239.395 94.6779 239.926 94.3334 239.754C93.9889 239.581 93.3766 240.017 93.1134 240.256V241.835C92.9699 242.002 92.568 242.28 92.1087 242.05C91.6495 241.82 90.9605 241.811 90.6735 241.835L88.7359 239.108C88.401 239.203 87.6308 239.395 87.2289 239.395C86.827 239.395 86.583 238.629 86.5113 238.247C86.1525 238.247 85.32 238.318 84.8607 238.605C84.4015 238.892 84.3823 238.294 84.4302 237.96C84.2149 237.84 83.6408 237.558 83.0667 237.385C82.4926 237.213 81.6793 237.696 81.3444 237.96H78.0433V237.385H76.8951V237.96L76.2493 238.247C76.2716 238.386 76.3075 238.523 76.341 238.652C76.451 239.072 76.5356 239.395 76.034 239.395C74.547 239.395 74.0149 239.744 73.2656 240.236L73.2352 240.256L72.5894 241.189C72.3502 241.117 71.8 241.06 71.5129 241.404C71.245 241.726 71.1771 241.767 70.9806 241.887C70.914 241.928 70.8326 241.977 70.7235 242.05C71.6421 241.935 71.6325 242.624 71.5129 242.983L70.7235 243.916H70.0777L69.0013 244.992C68.7142 244.753 68.1688 244.117 68.2836 243.485C68.3984 242.854 67.6617 242.074 67.279 241.763C67.0158 241.5 66.1882 240.974 64.9826 240.974C64.3511 242.466 62.4709 242.122 61.6097 241.763C61.7054 241.643 61.8968 241.175 61.8968 240.256C61.8968 239.337 63.6669 238.773 64.552 238.605C64.6955 238.294 65.0543 237.787 65.3414 238.247C65.6284 238.706 66.3221 239.012 66.6331 239.108C66.7049 238.534 67.078 237.5 67.9966 237.96C69.0678 237.096 69.9727 236.781 70.5429 236.583C71.1567 236.369 71.3827 236.29 71.0106 235.807C70.4038 235.018 71.593 234.691 72.3652 234.478C72.5061 234.44 72.6332 234.405 72.7329 234.371C73.3252 234.174 73.314 232.95 73.308 232.306C73.3075 232.248 73.307 232.194 73.307 232.147C73.307 231.796 73.9908 231.767 74.4322 231.748L74.4388 231.748M111.345 236.404C111.344 236.42 111.343 236.436 111.341 236.453M111.345 236.404C111.491 234.582 111.852 234.3 112.776 234.3C113.1 234.3 113.965 234.575 114.947 234.888C116.799 235.477 119.064 236.198 118.876 235.448C118.89 235.408 118.904 235.37 118.918 235.332C119.25 234.409 119.399 233.993 118.159 233.51C117.759 233.355 117.519 233.28 117.382 233.254M117.382 233.254C117.164 233.213 117.209 233.293 117.297 233.367L117.382 233.254ZM117.382 233.254L117.943 232.506L119.307 233.367L119.522 233.797L119.953 233.008H121.531C122.871 232.912 125.435 232.879 124.976 233.51C124.517 234.142 125.311 233.391 125.765 232.936C126.643 232.585 128.336 231.961 128.656 232.036M128.656 232.036C128.697 232.094 128.717 232.111 128.708 232.075C128.706 232.067 128.702 232.061 128.696 232.055C128.687 232.047 128.673 232.041 128.656 232.036ZM128.656 232.036C128.436 231.727 127.592 230.246 127.129 229.42C128.827 230.879 132.597 233.625 134.09 232.936C135.582 232.247 134.377 232.075 133.587 232.075L132.942 230.927C133.922 231.166 135.826 231.774 135.597 232.29C135.367 232.807 134.927 232.984 134.736 233.008L136.745 234.228V233.367C138.132 233.08 141.295 232.606 142.845 233.008C143.828 233.263 143.85 233.13 143.878 232.965C143.904 232.805 143.935 232.615 144.854 232.721C146.347 232.893 150.404 234.276 152.246 234.946C152.82 234.635 153.968 233.883 153.968 233.367C153.968 233.066 154.873 232.998 155.862 232.925C156.992 232.842 158.231 232.75 158.346 232.29C158.518 231.601 159.852 230.999 160.498 230.783C161.168 231.142 162.565 231.802 162.795 231.573C163.024 231.343 163.082 230.233 163.082 229.707L164.732 227.913C165.091 228.009 165.881 228.142 166.168 227.913C166.455 227.683 167.722 227.1 168.32 226.836C169.086 226.286 170.359 224.712 169.325 222.818C169.325 222.244 169.804 222.196 170.043 222.244C170.282 221.717 170.516 220.665 169.54 220.665C168.564 220.665 163.632 221 161.288 221.167C162.603 221.024 164.531 220.507 161.718 219.588C158.905 218.67 159.733 220.067 160.498 220.88C159.996 220.497 158.747 219.804 157.771 220.091C157.637 219.856 157.927 219.762 158.325 219.633C158.777 219.487 159.37 219.296 159.637 218.799C160.039 218.053 157.556 218.01 156.264 218.081L155.331 218.512L156.264 217.436C157.03 217.459 158.59 217.45 158.704 217.22C158.742 217.145 159.024 217.134 159.433 217.118C160.573 217.074 162.697 216.993 163.225 215.354C163.943 213.13 163.799 212.34 162.938 212.34C162.637 212.34 162.388 212.508 162.124 212.685C161.635 213.014 161.094 213.377 160.068 212.771C158.805 212.025 160.355 212.173 161.288 212.34C161.814 212.364 162.78 212.254 162.436 211.623C162.091 210.991 163.297 210.498 163.943 210.331C164.469 211.168 165.881 212.441 167.316 210.833C168.751 209.226 167.914 209.159 167.316 209.326C167.838 208.736 168.728 207.532 168.324 207.216M168.324 207.216C168.303 207.199 168.278 207.185 168.249 207.173C168.27 207.188 168.295 207.202 168.324 207.216ZM168.324 207.216C168.884 207.492 170.818 207.763 170.545 206.671C170.258 205.523 172.913 204.805 172.985 205.021C173.057 205.236 174.707 200.715 173.703 200.571C174.349 199.782 175.612 197.859 175.497 196.481C176.358 196.251 175.856 195.189 175.497 194.687C175.688 193.012 175.64 189.463 173.918 188.659C173.746 187.568 172.602 187.2 172.052 187.152C170.808 185.98 167.689 183.707 165.163 183.994C166.168 184.568 163.728 184.568 163.584 183.994C163.441 183.42 158.13 183.42 158.13 184.425C158.13 185.229 157.03 186.913 156.48 187.654C156.217 187.511 155.575 187.267 155.116 187.439C154.928 187.509 154.725 187.196 154.454 186.777C153.896 185.916 153.05 184.61 151.456 185.286C151.715 185.065 151.992 184.867 152.257 184.678C153.021 184.133 153.679 183.664 153.466 182.918C153.279 182.265 154.366 181.854 155.229 181.528C155.693 181.353 156.092 181.203 156.193 181.052C156.48 180.621 156.91 174.378 154.614 172.799C155.016 171.536 153.872 171.316 153.25 171.364C152.557 170.24 151.097 168.235 150.81 169.211C150.81 167.891 150.045 167.848 149.662 167.991C149.208 167.202 148.414 165.652 148.873 165.767C149.124 165.829 149.526 166.345 149.934 166.869C150.461 167.544 150.999 168.234 151.241 167.991C151.395 167.991 151.585 167.936 151.796 167.875C152.175 167.766 152.62 167.638 153.035 167.776C153.575 167.956 154.114 168.636 154.026 169.274M154.026 169.274C154.009 169.399 153.967 169.524 153.896 169.642C153.951 169.532 153.995 169.409 154.026 169.274ZM154.026 169.274C154.281 168.169 153.709 166.211 151.6 163.398C149.705 160.872 149.949 158.758 150.308 158.016L151.815 156.725L149.662 155.433C149.854 154.978 149.892 153.983 148.514 153.639C147.136 153.294 147.27 152.251 147.509 151.773C147.438 150.984 147.108 149.433 146.361 149.548C146.361 148.831 142.271 144.525 139.687 144.955C137.621 145.3 138.061 144.286 138.539 143.735C138.515 143.137 138.166 141.884 136.96 141.654C135.755 141.425 135.788 138.162 135.956 136.559C135.98 136.2 135.898 135.354 135.382 134.837C134.865 134.32 134.783 133.521 134.807 133.186C134.855 131.99 134.75 129.57 133.946 129.455C133.143 129.34 133.611 128.546 133.946 128.163C133.97 127.948 133.946 127.302 133.659 126.441C133.372 125.58 133.731 125.412 133.946 125.436C134.09 124.647 134.233 123.097 133.659 123.211C133.827 123.164 134.061 122.967 133.659 122.566C133.659 121.991 133.444 120.628 132.583 120.7C131.894 120.757 131.769 120.58 131.793 120.484C131.961 120.293 132.08 119.925 131.219 119.982C130.358 120.04 130.478 119.575 130.645 119.336C130.43 118.595 129.784 116.882 128.923 115.963M128.923 115.963C128.755 115.365 128.334 114.126 127.99 113.954C127.559 113.739 127.918 113.236 127.057 112.878C126.196 112.519 125.909 112.304 125.048 112.232C124.359 112.174 124.617 111.969 124.832 111.873C124.474 111.395 123.469 110.466 122.321 110.581C122.321 110.007 120.168 107.424 118.015 110.151C116.293 112.332 115.719 111.921 115.647 111.442C115.168 111.012 113.953 110.151 112.92 110.151C111.886 110.151 112.107 110.007 112.346 109.935C111.389 109.481 109.274 108.615 108.471 108.787C107.466 109.002 108.758 107.783 107.538 108.285C106.906 107.596 106.7 106.897 106.677 106.634C107.298 107.256 108.743 108.457 109.547 108.285C110.351 108.113 110.695 108.548 110.767 108.787C111.221 109.05 112.346 109.419 113.207 108.787C114.068 108.156 114.666 108.381 114.857 108.572C115.097 108.213 115.503 107.452 115.216 107.28C114.929 107.108 115.575 107.208 115.934 107.28C116.628 106.778 117.943 105.716 117.656 105.486C117.369 105.257 118.254 105.39 118.733 105.486C119.187 105.965 120.168 106.634 120.455 105.486C121.316 105.486 122.464 105.127 122.823 104.338C123.11 103.706 121.173 102.783 120.168 102.4C120.455 101.946 120.857 100.879 120.168 100.247C119.479 99.616 116.149 100.798 114.57 101.467C115.025 100.822 116.106 99.4868 116.795 99.3146C117.484 99.1423 119.809 99.4342 120.885 99.6016C121.554 99.7449 121.723 99.5314 121.89 98.9558C122.201 99.0275 122.823 98.9701 122.823 98.1664C123.469 97.8793 124.33 97.664 124.832 96.5158C125.234 95.5973 125.096 95.4155 124.976 95.4394C125.215 95.1523 125.651 94.4491 125.478 93.9324C125.306 93.4157 126.076 93.1908 126.483 93.143C126.674 93.0712 127.114 92.8129 127.344 92.3536C127.574 91.8943 128.397 91.3489 128.779 91.1336C128.708 90.8944 128.679 90.3873 129.138 90.2725C129.597 90.1577 129.33 89.22 129.138 88.7655C129.856 87.9283 131.291 86.0959 131.291 85.4644C131.291 84.8329 131.53 83.5268 131.65 82.9527C132.104 82.2112 133.143 80.5989 133.659 80.0822C134.305 79.4364 134.52 79.7234 134.664 78.7187C134.779 77.915 135.142 77.9533 135.31 78.0729C135.477 77.14 135.669 75.0589 135.094 74.1977C134.52 73.3366 134.185 73.217 134.09 73.2648C134.162 73.1213 134.119 72.8055 133.372 72.6907C132.626 72.5759 132.822 72.308 133.013 72.1884C132.487 72.0687 131.363 71.9444 131.076 72.4036C130.789 72.8629 130.286 72.595 130.071 72.4036C129.856 72.1166 129.368 71.7147 129.138 72.4036C128.909 73.0926 128.421 72.6907 128.205 72.4036C127.966 72.1644 127.344 71.7865 126.77 72.1884C126.196 72.5902 125.765 72.1166 125.622 71.8295C125.215 71.7099 124.287 71.4851 123.828 71.5425C123.368 71.5999 123.301 71.3751 123.325 71.2554C122.632 71.0402 121.158 70.7675 120.814 71.399C120.469 72.0305 119.809 71.7578 119.522 71.5425C118.924 71.2554 117.685 70.5809 117.513 70.179C117.34 69.7771 115.479 70.0116 114.57 70.179C114.618 70.5378 114.556 71.2267 113.925 71.1119C113.135 70.9684 111.126 71.1119 110.265 72.1884C109.403 73.2648 109.906 71.6143 107.322 72.1884C107.322 72.6189 107.968 72.906 106.964 73.2648C105.959 73.6236 105.098 73.3365 105.241 72.7625C105.329 72.4117 105.59 72.4851 105.793 72.6246M128.923 115.963C128.19 115.657 127.171 116.978 126.389 117.99C125.888 118.639 125.485 119.161 125.317 119.049C124.886 118.762 123.882 119.336 124.599 119.982C125.173 120.499 125.317 122.924 125.317 124.073C124.671 124.12 123.379 124.388 123.379 125.077C123.437 126.57 122.494 126.178 122.016 125.795C121.49 126.225 120.337 127.101 119.935 127.158C119.533 127.216 119.241 128.33 119.145 128.881C117.854 129.861 115.227 131.895 115.055 132.182C114.883 132.469 114.122 132.301 113.763 132.182L113.494 133.617M105.793 72.6246C105.856 72.6677 105.914 72.7172 105.959 72.7625C105.904 72.7279 105.842 72.6797 105.793 72.6246ZM105.793 72.6246C105.673 72.4889 105.632 72.3108 105.959 72.1884C106.533 71.9731 107.107 72.1166 106.964 71.5425C106.82 70.9684 108.542 71.1119 108.399 70.4661C108.255 69.8202 107.968 70.179 107.107 70.3225C106.246 70.4661 106.318 69.5331 104.811 70.179C103.605 70.6957 103.112 71.3033 103.017 71.5425C103.088 71.088 103.548 70.0785 104.811 69.6767C106.389 69.1743 106.677 70.0355 107.107 69.0308C107.452 68.2271 108.112 68.6959 108.399 69.0308C108.327 69.4853 108.37 70.2077 109.116 69.4614C110.049 68.5285 111.987 66.5191 111.628 66.2321C111.341 66.0024 110.36 66.7105 109.906 67.0932C109.834 66.7344 109.432 66.146 108.399 66.6626C107.365 67.1793 107.011 66.7344 106.964 66.4474C106.772 66.1125 106.16 65.4857 105.241 65.658C104.323 65.8302 104.428 64.9164 104.595 64.438C104.811 64.9164 105.5 65.7584 106.533 65.2992C107.566 64.8399 107.49 65.7297 107.322 66.2321C107.442 65.945 107.796 65.3996 108.255 65.5145C108.829 65.658 109.116 65.8015 109.116 64.6533C109.116 63.7347 108.542 63.84 108.255 64.0074V63.3616C108.542 63.6008 109.231 63.9787 109.691 63.5769C110.15 63.175 110.791 63.0745 111.054 63.0745C111.245 62.8353 111.628 62.2708 111.628 61.9263C111.628 61.4958 113.637 61.4958 115.36 59.9887C117.082 58.4817 116.939 58.2664 116.867 58.0512C116.795 57.8359 119.45 56.903 119.809 56.9747C120.168 57.0465 122.034 53.2431 121.316 52.0231C122.177 50.9467 122.823 49.5114 122.751 49.1526C122.68 48.7938 121.747 49.3679 121.531 49.1526C121.316 48.9373 120.024 48.435 119.522 48.7938C119.12 49.0809 118.924 48.5785 118.876 48.2915C118.589 48.1719 118.13 48.2915 118.589 49.7267C117.8 49.5114 117.01 49.3679 116.508 49.7267C116.106 50.0138 116.245 49.3679 116.364 49.0091C115.814 48.8895 114.542 48.8656 113.853 49.7267C113.164 50.5879 111.604 49.9898 110.911 49.5832C110.791 49.2005 110.466 48.6646 110.121 49.5832C109.777 50.5017 109.547 50.0616 109.475 49.7267C109.308 49.5832 108.901 49.4253 108.614 49.942C108.327 50.4587 108.016 50.3487 107.896 50.229C107.609 49.7267 106.648 49.2531 105.098 51.3772C103.548 53.5014 104.835 51.162 105.672 49.7267C105.433 48.8656 104.653 47.66 103.447 49.7267C102.643 49.8989 101.916 50.8031 101.653 51.2337C101.749 50.7792 102.026 49.8415 102.371 49.7267C102.801 49.5832 103.088 48.6503 101.868 47.7891C101.366 48.7938 101.581 49.5832 101.151 49.5832C100.72 49.5832 101.94 47.2868 100.074 46.9997C98.5817 46.7701 98.5434 47.9566 98.7109 48.5785C98.2803 48.6981 97.4335 49.0665 97.4909 49.5832C97.5483 50.0999 98.0411 50.5639 98.2803 50.7314C97.778 50.7792 96.9886 51.0184 97.8497 51.5925C98.7109 52.1666 97.778 52.0231 97.2039 51.8796C96.7016 51.8317 95.9983 52.3963 97.2039 55.0371C95.9839 55.4677 95.7686 54.1042 94.4769 55.0371C93.788 54.0612 93.2809 54.6305 93.1134 55.0371C93.3766 55.6591 94.0176 56.9747 94.4769 57.2618C94.9362 57.5488 94.4291 57.7641 94.1181 57.8359C93.9985 57.9794 93.831 58.3956 94.1181 58.9123C94.4051 59.429 93.3287 59.1276 92.7546 58.9123C92.3958 58.5296 91.8935 58.1803 92.7546 59.8452C93.8311 61.9263 93.8311 61.711 93.9746 61.2805C94.1181 60.8499 94.9793 62.2134 94.4769 62.4287C93.9746 62.6439 96.4863 64.0792 95.8404 64.7251C95.1945 65.3709 94.4052 62.4287 93.4005 62.7157C93.233 62.4287 92.7833 61.8833 92.324 61.9981C91.8648 62.1129 93.233 63.4333 93.9746 64.0792C93.4483 63.9118 92.2523 63.3472 91.6782 62.4287C91.1041 61.5101 91.1041 62.7157 91.1758 63.4333C90.8409 63.3377 90.1712 62.9597 90.1712 62.2134C90.1712 61.2805 88.3771 61.8546 88.8077 62.2134C88.9512 62.8592 88.8077 63.1463 89.3818 63.7204C89.9559 64.2945 89.0947 65.4427 88.9512 65.2992C88.8077 65.1556 88.4489 64.438 88.4489 63.4333C88.4489 62.4287 86.7266 62.5722 86.7983 63.4333C86.8701 64.2945 86.5113 65.2992 86.6548 65.5145C86.7696 65.6867 87.2767 65.9689 87.516 66.0885C87.7552 66.3756 88.1618 66.9497 87.8748 66.9497C87.516 66.9497 87.0854 66.0885 86.6548 66.6626C86.2242 67.2367 85.7219 67.8108 86.3678 68.0261C86.8844 68.1984 86.8701 68.5763 86.7983 68.7438C86.9179 69.2939 87.2289 70.3799 87.516 70.3225C87.8748 70.2508 89.3818 70.1072 89.3818 70.8249C89.3818 71.399 88.1379 71.2554 87.516 71.1119C87.0375 70.5139 86.0377 69.3179 85.8654 69.3179C85.6501 69.3179 84.5737 71.6143 84.8607 72.3319C85.1478 73.0495 84.789 74.5565 85.5784 74.7C86.2099 74.8149 87.1332 73.9346 87.516 73.4801C87.6356 73.791 87.8748 74.4704 87.8748 74.7C87.8748 74.9871 89.3818 73.4801 89.5971 73.6236C89.8124 73.7671 89.3818 74.7718 88.4489 74.9153C87.516 75.0588 86.7266 74.3412 86.1525 75.5612C85.6932 76.5372 86.296 76.4462 86.6548 76.2788C87.1332 76.6137 88.2623 77.0251 88.9512 75.9918C89.7495 74.7943 89.4994 76.0635 89.5158 76.1981M89.5158 76.1981C89.5171 76.2087 89.5201 76.2123 89.5253 76.207C89.5356 76.1967 89.5311 76.1938 89.5158 76.1981ZM89.5158 76.1981C89.4248 76.2237 88.9512 76.5048 88.9512 76.9964C88.9512 77.4557 89.4775 77.8097 89.7406 77.9293C89.5971 78.0968 89.2383 78.3312 88.9512 77.9293C88.5924 77.427 87.5877 76.207 86.7983 78.1446C86.1525 78.5034 85.7937 79.6516 86.6548 79.7234C87.3437 79.7808 87.516 80.2736 87.516 80.5128C88.0183 80.441 89.0947 80.3406 89.3818 80.5128C89.7406 80.7281 87.803 80.9434 87.516 80.7998C87.2289 80.6563 86.0807 79.2928 85.0043 80.5128C84.1431 81.4888 84.8847 81.7806 85.3631 81.8045C85.4348 82.3308 85.7506 83.3259 86.4395 83.0962C87.1284 82.8666 87.4442 83.0962 87.516 83.2398C87.0854 83.4311 86.1381 83.7564 85.7937 83.5268C85.3631 83.2398 84.2866 80.7281 83.2102 83.6703C82.1338 86.6126 82.8514 84.675 84.2149 85.0338C83.4112 85.6653 83.7843 85.9667 84.0714 86.0385C84.3345 85.895 84.9325 85.651 85.2196 85.8232C85.5784 86.0385 83.8561 86.3973 83.2102 86.3973C82.5644 86.3973 82.7796 87.1149 83.4255 87.402C84.0714 87.689 81.4162 87.1867 82.4208 87.9761C83.2246 88.6076 82.0859 87.8565 81.4162 87.402C81.1291 87.3781 80.555 87.4163 80.555 87.7608C80.555 88.1053 79.9331 87.9043 79.6221 87.7608C79.2154 87.5933 78.3591 87.402 78.1869 87.9761C78.0146 88.5502 77.6845 88.3588 77.541 88.1914C77.6367 88.6459 77.9859 89.4831 78.6174 89.196C79.2489 88.909 79.4546 89.0764 79.4786 89.196C79.8613 89.3874 80.6555 89.7127 80.7703 89.4831C80.8851 89.2534 81.2487 89.5788 81.4162 89.7701C81.6075 89.8658 82.0764 89.9998 82.4208 89.7701C82.8514 89.4831 82.2055 90.3442 81.9903 90.416C81.775 90.4878 80.6268 89.6266 80.1962 90.703C79.8517 91.5642 81.6314 92.6885 82.5644 93.143C82.7079 93.4539 83.081 94.0328 83.4255 93.8606C83.77 93.6884 83.8082 94.0759 83.7843 94.2912C84.7172 93.8845 86.6405 92.8703 86.8701 92.0665C87.0997 91.2628 87.492 91.3011 87.6595 91.4207C88.1379 91.1815 89.1091 90.6456 89.1665 90.416C89.2383 90.129 90.3147 90.2725 90.4582 90.416C90.6017 90.5595 91.9652 90.8466 90.3865 90.7748C88.8077 90.7031 88.7359 91.5642 89.023 91.636C89.2526 91.6934 88.8316 92.0426 88.5924 92.2101C88.1857 92.4253 87.4298 93.0569 87.6595 93.8606C87.9465 94.8653 87.516 94.0759 89.4535 93.8606C91.0036 93.6884 89.1904 94.2194 88.0901 94.5065C87.5399 94.5782 86.7266 94.9083 87.8748 95.6547C89.023 96.401 90.0276 95.9656 90.3865 95.6547C90.2669 95.9895 89.8554 96.6306 89.1665 96.5158C88.3053 96.3723 86.6548 95.3676 86.1525 96.7311C85.3487 97.3626 85.2913 97.7597 85.3631 97.8793C84.7651 98.4773 83.6982 99.7595 84.2149 100.104C84.9038 99.8743 85.3631 100.008 85.5066 100.104C85.2674 100.319 84.7316 100.721 84.5019 100.606C84.2723 100.491 84.3106 100.989 84.3584 101.252L83.6408 102.616C83.8082 102.376 84.2436 101.869 84.6455 101.754C85.0473 101.64 84.7172 102.281 84.5019 102.616C84.2627 102.855 83.8991 103.434 84.3584 103.836C83.282 103.979 81.2726 105.917 81.775 106.778C82.3491 105.701 83.2102 105.199 83.4255 105.199C83.6408 105.199 82.2055 107.352 81.9903 107.424C81.775 107.495 81.6314 108.5 82.2055 108.213C82.6648 107.983 83.0189 107.83 83.1385 107.783C82.2295 108.62 80.7703 110.38 82.2055 110.725C81.9903 111.155 83.1385 111.514 83.1385 110.94C83.1385 110.481 83.7126 110.462 83.9996 110.509C83.0428 111.203 81.2583 112.648 81.775 112.878C82.2917 113.107 81.5597 113.26 81.1291 113.308L80.3397 115.389C80.0527 116.25 79.5647 118.059 79.9091 118.403C80.3397 118.834 79.4068 118.69 78.7609 119.264C78.2443 119.724 78.4021 121.082 78.5457 121.704C78.9045 121.728 79.6795 121.733 79.9091 121.561C80.1388 121.389 80.4354 121.585 80.555 121.704C81.1769 121.441 82.3347 120.728 81.9903 119.982C81.6458 119.236 81.4162 119.001 81.3444 118.977C81.7271 118.762 82.5213 118.188 82.6361 117.614C82.7509 117.04 83.0189 116.801 83.1385 116.753V115.963C83.3298 115.868 83.6551 115.562 83.4255 115.102C83.1959 114.643 83.3298 114.289 83.4255 114.169C83.9757 113.236 85.2339 111.471 85.8654 111.873C86.4969 112.275 85.8415 110.462 85.4348 109.505C85.5066 108.787 85.5353 107.309 85.076 107.137C84.6168 106.964 84.9803 106.012 85.2196 105.558C85.4588 106.252 86.0664 107.151 86.583 105.199C87.2289 105.343 89.5253 102.257 89.7406 103.046C89.9128 103.678 89.4775 103.836 89.2383 103.836C88.2336 104.649 86.296 106.304 86.583 106.419C86.8701 106.534 86.5591 107.376 86.3678 107.783C86.296 108.093 86.2386 108.773 86.583 109.002C86.2242 109.361 87.3724 110.294 87.6595 110.509C87.8891 110.682 87.6595 109.672 87.516 109.146L88.0901 107.998C87.9944 108.644 87.8891 109.993 88.2336 110.222C88.6642 110.509 88.7359 112.591 89.5971 113.021C90.286 113.366 89.9798 111.395 89.7406 110.366L89.023 109.146C89.31 109.194 89.8411 109.089 89.6688 108.285C89.4966 107.481 89.4057 107.089 89.3818 106.993C89.5971 107.232 90.0133 107.768 89.9559 107.998C89.8841 108.285 90.0276 110.366 90.6017 109.935C91.061 109.591 91.3194 109.026 91.3911 108.787C91.7978 108.476 92.4102 107.711 91.6064 107.137C92.1088 107.424 92.324 107.639 92.324 106.419C92.324 105.443 92.6589 105.773 92.8264 106.06C92.7307 106.754 92.7403 108.07 93.544 107.783C94.1031 107.583 94.139 107.395 94.0285 107.267M94.0285 107.267C93.9802 107.21 93.9039 107.166 93.831 107.137M94.0285 107.267C94.8683 107.827 96.1586 108.79 95.8404 109.002C95.4098 109.29 97.4909 109.074 97.3474 109.505C97.2326 109.849 96.1992 109.648 95.6969 109.505L94.0463 108.572C93.3765 108.404 92.0226 108.314 91.9652 109.29C91.9078 110.265 91.9413 112.088 91.9652 112.878C91.6064 113.069 90.9031 113.524 90.9606 113.811C91.018 114.098 91.7978 114.887 92.1805 115.246C92.1327 115.485 92.1662 115.963 92.6829 115.963C93.3287 115.963 93.9746 117.399 93.9028 117.47C93.8311 117.542 93.1134 118.332 93.9028 118.403C94.5343 118.461 93.7832 119.863 93.3287 120.556C92.8742 120.652 91.9652 121.059 91.9652 121.92C90.8888 120.772 89.8841 124.073 90.6735 123.786C91.305 123.556 90.2669 124.886 89.6688 125.58C88.9034 125.891 87.4729 126.757 87.8748 127.732C87.0854 128.665 87.1571 130.818 87.5877 131.249C88.0183 131.679 86.7983 132.325 86.7983 131.249C86.7983 130.172 86.6548 128.952 86.0089 129.311C85.3631 129.67 85.076 131.105 85.2913 132.612C85.4636 133.818 86.5113 134.789 87.0136 135.124L87.4442 136.272C87.1811 136.775 86.869 138.425 88.2336 138.425C88.8077 138.425 88.8794 137.994 88.3771 136.703C88.3053 136.272 88.1044 135.354 87.8748 135.124C87.5877 134.837 88.8794 132.612 89.8124 133.258C89.8124 133.976 90.53 134.622 90.7453 134.55C90.9606 134.478 93.1852 136.057 92.9699 136.559C92.7977 136.961 93.3287 137.588 93.6158 137.851C93.9267 137.827 94.5487 137.865 94.5487 138.21C94.5487 138.64 95.9839 138.282 95.5533 137.062C95.2089 136.086 95.5534 136.129 95.7686 136.272C95.8165 135.818 95.7543 134.894 95.1228 134.837C94.4913 134.78 95.051 133.617 95.4098 133.043C95.7208 133.737 96.4863 135.067 97.0604 134.837C97.6345 134.607 97.9215 134.406 97.9933 134.335C97.778 135.076 97.6775 136.559 98.9979 136.559C98.9979 135.526 99.4764 135.555 99.7156 135.698C99.5242 136.224 99.4859 137.205 100.864 136.918C102.586 136.559 100.505 136.631 102.73 136.057C102.213 135.253 103.423 135.196 104.093 135.268C104.069 135.124 104.122 134.837 104.524 134.837C105.026 134.837 106.461 135.842 106.533 134.119C106.59 132.741 106.748 132.493 106.82 132.541C108.686 133.067 112.633 134.019 113.494 133.617M94.0285 107.267C94.0036 107.25 93.9791 107.234 93.955 107.218M94.0285 107.267L93.955 107.218M93.831 107.137C93.8428 107.144 93.8547 107.152 93.8667 107.16M93.831 107.137L93.8667 107.16M113.494 133.617C113.709 133.832 113.637 134.406 113.207 134.406C112.776 134.406 111.772 134.406 111.556 134.119C111.341 133.832 108.973 134.406 110.265 134.837C111.298 135.181 110.312 135.268 109.691 135.268C109.547 134.98 109.145 134.607 108.686 135.411C108.112 136.416 107.466 137.923 107.753 138.066C107.983 138.181 107.227 138.545 106.82 138.712C106.055 140.004 104.581 142.645 104.811 142.874C104.916 142.98 104.808 143.066 104.679 143.169C104.458 143.345 104.176 143.569 104.811 144.023C105.614 144.597 106.677 146.75 107.107 147.754C106.988 148.352 106.849 149.563 107.251 149.62C107.394 149.979 108.04 151.342 108.614 151.271C109.073 151.213 109.38 150.385 109.475 149.979C109.571 150.577 109.647 151.773 109.188 151.773C108.729 151.773 108.853 152.969 108.973 153.567C109.38 153.639 110.121 153.911 109.834 154.428C109.475 155.074 110.623 153.926 110.48 153.567C110.425 153.429 110.625 153.216 110.879 152.946C111.286 152.513 111.832 151.933 111.7 151.271C111.528 150.409 111.963 150.816 112.202 151.127C112.154 151.677 112.202 152.749 112.776 152.634C113.262 152.537 113.485 152.177 113.622 151.954C113.688 151.848 113.735 151.773 113.781 151.773C113.925 151.773 114.57 151.988 114.57 152.778C114.57 153.042 114.651 153.234 114.72 153.399C114.858 153.727 114.952 153.951 114.283 154.428C113.279 155.146 112.705 155.648 113.063 156.15C113.263 156.429 113.542 156.402 113.759 156.303M113.759 156.303C113.854 156.259 113.938 156.202 113.996 156.15C113.924 156.194 113.843 156.245 113.759 156.303ZM113.759 156.303C113.287 156.625 112.722 157.127 113.063 157.37C113.227 157.487 112.934 157.497 112.502 157.513C111.607 157.544 110.113 157.597 110.839 158.662C111.7 159.925 111.102 160.624 110.695 160.815C110.743 161.437 111.155 162.638 112.418 162.465C110.638 163.327 109.619 165.36 109.332 166.269L110.049 168.924C109.619 169.187 108.686 169.685 108.399 169.57C108.04 169.426 107.251 169.857 107.825 170.646C108.399 171.436 108.829 172.871 108.758 173.158M108.758 173.158L110.48 174.88C110.049 175.287 109.317 176.172 109.834 176.459C110.48 176.818 110.911 178.971 110.695 179.401C110.523 179.746 111.772 179.928 112.418 179.976C112.621 181.028 112.658 182.76 111.18 181.267C109.701 179.775 108.327 180.645 107.825 181.267C107.149 181.794 105.955 183.176 106.587 184.497C106.657 184.497 106.727 184.495 106.797 184.493M108.758 173.158C108.717 173.321 107.872 172.495 107.108 171.748C106.521 171.174 105.981 170.646 105.887 170.646M105.887 170.646C105.875 170.646 105.858 170.646 105.836 170.646M105.887 170.646L105.836 170.646M110.408 211.982C110.025 211.982 109.188 212.068 108.901 212.412C108.614 212.757 107.155 212.699 106.461 212.627C106.342 212.388 106.102 212.01 106.102 212.412C106.102 212.814 104.38 213.536 103.519 213.847C103.639 214.134 103.648 214.881 102.73 215.57C101.811 216.259 98.8066 215.426 97.4192 214.924C97.1321 214.254 96.4863 212.943 96.1992 213.058C95.8404 213.202 94.6922 212.771 95.051 212.269C95.3323 211.875 94.6875 210.776 94.2574 210.042L94.2556 210.039C94.1379 209.838 94.0363 209.665 93.9746 209.542C93.6875 208.968 92.2523 209.972 92.1087 210.403C91.9652 210.833 90.1712 210.69 90.1712 210.403C90.1712 210.173 89.6927 210.211 89.4535 210.259C89.0469 210.427 88.1618 210.69 87.8748 210.403C87.0136 210.518 87.1332 209.302 87.3007 208.68C87.8987 208.609 89.2239 208.508 89.7406 208.68C90.3865 208.896 90.9606 207.604 90.6017 207.963C90.3147 208.25 89.2861 207.843 88.8077 207.604C88.3532 207.676 87.3007 207.661 86.7266 207.03C86.1525 206.398 86.4874 206.097 86.7266 206.025V205.236C86.4395 205.021 85.8798 204.676 85.9372 205.021C85.9946 205.365 85.5305 205.547 85.2913 205.595C84.2627 205.475 82.2199 205.351 82.2773 205.81C82.3347 206.269 81.6793 206.91 81.3444 207.173C80.3636 206.958 78.4739 206.686 78.7609 207.317C77.0386 208.681 76.5363 206.743 76.5363 206.528C76.2493 206.757 75.8905 206.001 75.7469 205.595C75.9383 205.738 76.3641 205.982 76.5363 205.81C76.7516 205.595 77.1822 205.666 77.3975 205.81C77.5697 205.925 79.0002 205.619 79.6939 205.451C79.4546 205.379 79.0623 205.164 79.4068 204.877C79.8374 204.518 78.9762 203.227 78.9762 203.944C78.9762 204.076 78.9907 204.2 79.0042 204.316C79.0642 204.831 79.1044 205.177 77.7563 205.236C76.9954 205.269 76.448 204.997 76.0508 204.8C75.5865 204.569 75.3276 204.44 75.1728 205.021C74.9432 205.882 74.5987 205.188 74.4552 204.734C74.3117 204.542 74.1107 204.159 74.4552 204.159C74.7997 204.159 75.6991 203.538 76.1057 203.227C76.4646 202.652 76.6655 201.418 74.5987 201.074C72.8355 200.78 73.7131 200.386 74.3569 200.097C74.6563 199.962 74.9051 199.85 74.814 199.782C74.527 199.567 75.1728 199.423 75.3164 199.495C75.4599 199.567 77.6845 199.208 77.0387 198.634C76.3928 198.06 77.8998 197.557 77.9716 197.773C78.0433 197.988 79.6938 198.921 79.4068 198.49C79.1772 198.146 79.5025 198.06 79.6939 198.06C80.1484 198.275 80.9856 198.662 80.6985 198.49C80.4115 198.318 80.5789 197.94 80.6985 197.773C80.9617 198.012 81.5597 198.304 81.8467 197.557C82.2055 196.624 82.8514 196.553 83.2102 196.624C83.4128 196.665 83.4095 196.477 83.407 196.331C83.405 196.219 83.4035 196.131 83.4973 196.194C84.0645 195.994 84.4766 196.259 84.8273 196.485C85.2309 196.744 85.5532 196.952 85.9372 196.337C86.5113 195.419 87.8987 194.998 88.5206 194.902C89.4057 194.495 91.2476 193.481 91.5347 192.677C91.6733 192.289 91.9406 191.944 92.2164 191.587C92.6542 191.022 93.1134 190.428 93.1134 189.592C93.1134 188.42 93.2724 188.414 93.9089 188.39C94.0132 188.386 94.1303 188.382 94.2616 188.372C95.1945 188.3 95.1228 188.013 93.6158 187.798C92.1087 187.582 92.6829 185.214 92.9699 185.214C93.257 185.214 94.0463 183.922 93.9028 183.779C93.8488 183.725 93.7947 183.6 93.7215 183.43C93.6003 183.149 93.4266 182.746 93.1134 182.344C92.6111 181.698 92.8264 181.195 93.3287 181.124C93.5686 181.089 93.4321 180.826 93.2943 180.56C93.1436 180.269 92.9913 179.976 93.3287 179.976C94.3047 179.287 93.1613 179.114 92.4676 179.114C92.1327 179.019 91.4198 178.885 91.2476 179.114C91.0754 179.344 89.932 179.401 89.3818 179.401C88.9273 179.401 88.047 179.645 88.1618 180.621C88.3053 181.841 87.2289 181.626 87.5877 181.483C87.7345 181.424 87.6051 181.365 87.4107 181.277C87.1299 181.15 86.7135 180.961 86.7983 180.621C85.9011 180.518 85.203 180.912 84.7679 181.158C84.2982 181.423 84.1349 181.515 84.3584 180.621C84.7029 179.244 86.9419 178.181 88.0183 177.823C89.0469 177.392 91.018 176.33 90.6735 175.526C90.329 174.723 91.2476 174.282 91.7499 174.163C91.5825 174.043 91.1041 173.818 90.53 173.876C89.9559 173.933 89.9559 173.23 90.0276 172.871C89.9798 172.847 89.8124 172.814 89.5253 172.871C89.2383 172.928 88.9273 171.89 88.8077 171.364C88.7598 171.244 88.5924 171.005 88.3053 171.005C88.0183 171.005 87.7073 170.335 87.5877 170.001C87.3485 170.192 86.8557 170.345 86.7983 169.426C86.7266 168.278 88.0901 169.642 88.1618 169.785C88.2336 169.929 89.1665 168.996 88.6642 168.852C89.5253 165.48 93.3287 167.991 92.8264 168.637C93.1171 168.673 93.187 169.133 93.2504 169.55C93.3122 169.956 93.3678 170.322 93.6158 170.216C94.0176 170.044 95.1706 170.288 95.6969 170.431C95.3381 170.742 94.6204 171.464 94.6204 171.866C94.6204 172.268 95.4337 172.13 95.8404 172.01C96.2949 171.484 97.4622 170.546 98.4956 171.005C97.9927 170.062 98.0955 170.111 98.563 170.33C98.6291 170.361 98.7026 170.396 98.7827 170.431C99.2993 170.661 99.8591 171.149 100.074 171.364C100.696 171.627 102.112 171.996 102.801 171.364C103.615 170.618 105.455 170.641 105.836 170.646M110.408 211.982C110.576 211.862 110.911 211.58 110.911 211.407C110.911 211.312 111.151 211.145 111.413 210.965C111.74 210.739 112.099 210.491 112.059 210.331C112.023 210.19 112.439 209.91 112.871 209.619C113.317 209.319 113.781 209.006 113.781 208.824C113.781 208.653 114.092 208.645 114.425 208.637C114.789 208.628 115.179 208.618 115.216 208.393C115.288 207.963 115.288 209.255 114.714 209.039C114.14 208.824 112.561 210.475 112.418 210.69C112.366 210.767 112.361 210.835 112.355 210.908C112.345 211.036 112.334 211.178 112.059 211.407C111.628 211.766 110.695 213.13 110.623 213.56C110.566 213.905 109.93 214.087 109.619 214.134C108.973 214.182 107.495 214.579 106.748 215.785C106.002 215.498 105.72 216.527 105.672 217.077C105.528 217.412 105.198 217.981 105.026 217.579C104.854 217.177 104.811 219.182 104.811 220.234C103.256 219.995 100.017 219.66 99.5003 220.234C99.2729 219.052 97.9796 219.022 96.7885 218.995C96.0999 218.979 95.4454 218.964 95.051 218.727C93.9746 218.081 93.4722 217.866 92.8981 218.297C92.65 218.483 91.6379 218.387 90.528 218.283C89.0697 218.145 87.4424 217.992 87.1571 218.44C86.7553 219.072 87.0854 219.373 87.3007 219.445H86.4395C86.7744 219.971 87.3437 221.081 86.9419 221.311C86.7425 221.425 86.5545 221.719 86.3598 222.024C86.0639 222.488 85.7527 222.976 85.3631 222.889C85.2521 222.865 85.0607 222.808 84.8244 222.739C83.6854 222.403 81.5047 221.76 82.2773 222.889C81.5884 223.291 81.464 224.205 81.4879 224.612C81.3922 225.688 81.1148 227.812 80.7703 227.698C80.3397 227.554 79.5503 228.128 79.5503 228.702C79.5503 229.161 78.5457 229.372 78.0433 229.42C78.0194 229.803 77.828 230.668 77.2539 231.07C76.6798 231.472 75.5316 231.238 75.0293 231.07C75.0293 231.525 75.1728 232.491 75.7469 232.721C76.321 232.951 75.1728 232.625 74.527 232.434C74.4906 232.23 74.4614 231.918 74.5151 231.744M110.408 211.982C109.088 211.752 110.372 208.011 111.18 206.169C110.42 206.432 109.045 206.743 109.619 205.882C110.193 205.021 109.045 204.279 108.399 204.016C107.867 204.112 106.619 204.073 105.887 203.155C104.972 202.007 105.582 196.553 106.802 196.624C107.778 196.682 107.544 195.404 107.305 194.759C106.73 194.519 105.424 193.84 104.793 193.036C104.161 192.233 105.056 191.553 105.582 191.314C106.33 191.17 107.825 190.697 107.825 189.951C107.825 189.511 107.55 189.549 107.186 189.6C106.778 189.657 106.257 189.73 105.887 189.161C105.327 188.3 106.264 187.75 106.802 187.582C107.334 187.2 108.399 186.219 108.399 185.358C108.399 184.437 107.703 184.461 106.962 184.488M74.5151 231.744C74.5497 231.632 74.6186 231.577 74.7422 231.644C74.8799 231.72 74.7468 231.734 74.5151 231.744ZM74.5151 231.744L74.4927 231.745M74.5151 231.744C74.5077 231.745 74.5003 231.745 74.4927 231.745M78.8817 96.3207C78.699 96.4243 77.5517 96.4933 76.9669 96.5158C76.6798 96.2288 76.278 95.6547 76.9669 95.6547C77.828 95.6547 77.0387 94.7935 77.8998 94.7935C79.3925 94.6213 79.5742 93.9563 79.4786 93.6453C79.048 93.8606 78.1869 94.2051 78.1869 93.8606C78.1869 93.43 76.9669 92.5689 76.4646 92.5689C76.0627 92.5689 75.8187 92.0426 75.7469 91.7795C76.2636 91.7795 76.1536 91.1097 76.034 90.7748C76.345 90.5595 77.0243 90.2438 77.2539 90.703C79.1198 89.3396 78.9045 90.416 79.335 90.7748C80.3397 91.0619 79.9091 92.8559 80.4115 93.2147C82.3491 93.0712 80.9138 94.2912 81.9185 93.7888C82.9232 93.2865 82.2055 94.5065 82.7796 94.3629C83.3537 94.2194 83.4255 94.7935 83.6408 95.2241C83.8561 95.6547 83.6408 95.6547 83.7843 95.9417C83.9278 96.2288 83.6408 96.5158 83.4255 96.7311C83.2625 96.8941 82.935 96.3167 82.8789 96.2134M78.8817 96.3207C78.8933 96.3141 78.901 96.3074 78.9045 96.3005C78.9179 96.2737 78.9112 96.2845 78.8817 96.3207ZM78.8817 96.3207C78.7533 96.4782 78.1922 97.1167 76.9669 97.2334C75.7613 97.3483 75.6512 97.1377 75.7469 97.0181C75.436 96.5636 74.7566 96.0996 74.527 97.8793C74.527 98.683 75.3403 98.6926 75.7469 98.5969C76.1057 98.4295 76.9095 98.152 77.2539 98.3816C77.5984 98.6113 78.2108 98.3816 78.4739 98.2381C78.8088 98.2142 79.4786 98.1089 79.4786 97.8793C79.4786 97.5922 80.7703 97.7358 80.7703 97.2334C80.7703 96.7311 81.4162 98.0228 80.9138 98.0228C80.4115 98.0228 81.9903 98.5252 82.2055 98.0228C82.4208 97.5205 83.2102 97.4487 83.2102 97.2334C83.2102 97.0612 82.5404 97.0181 82.2055 97.0181C82.5165 96.9225 83.0954 96.645 82.9232 96.3005C82.9015 96.2571 82.8871 96.229 82.8789 96.2134M82.8789 96.2134C82.8674 96.1913 82.8684 96.194 82.8789 96.2134ZM82.4208 75.7765C82.3491 75.9439 82.3347 76.2788 82.8514 76.2788C83.4973 76.2788 83.2102 76.2788 83.4973 76.7094C83.7843 77.1399 83.9278 76.5659 84.8607 76.4223C85.7937 76.2788 85.3631 76.5658 85.8654 76.7094C86.3678 76.8529 86.6548 77.4988 86.6548 77.7858C86.6548 78.0729 85.1478 79.0775 84.8607 79.0775C84.9756 79.5942 84.2867 80.0104 83.9278 80.154C83.2102 81.0151 81.6601 82.4791 81.2009 81.4457C80.6268 80.154 81.775 81.5892 81.775 80.5128C81.775 79.6516 83.0667 78.7666 83.7126 78.4317C83.1385 78.5034 82.0764 78.5465 82.4208 78.1446C82.8514 77.6423 81.9185 76.9964 81.9903 77.2835C82.062 77.5705 81.2009 79.2928 80.8421 79.0775C80.555 78.9053 80.6268 78.1446 80.6985 77.7858C79.8135 78.025 78.0864 78.3886 78.2586 77.9293C78.4739 77.3552 79.1915 77.5705 78.0433 77.14C76.8951 76.7094 78.3304 76.2788 78.0433 75.9918C77.8137 75.7621 77.3735 75.8961 77.1822 75.9918C76.8951 75.5612 76.4071 74.5565 76.7516 73.9824C77.1822 73.2648 77.9716 74.3412 78.0433 73.9824C78.1151 73.6236 77.4692 73.6236 77.1822 73.4801C76.8951 73.3365 77.1822 72.1166 76.9669 72.3319C76.7516 72.5472 76.6081 72.3319 76.321 71.9731C76.0914 71.686 75.7469 72.8581 75.6034 73.4801C75.1968 73.2409 74.3547 72.7625 74.2399 72.7625C74.1251 72.7625 73.9529 71.8056 73.8811 71.3272C73.7615 71.1837 73.5223 70.8392 73.5223 70.6096C73.5223 70.3799 73.905 70.3225 74.0964 70.3225C74.0964 69.9876 74.1825 69.3179 74.527 69.3179C74.8714 69.3179 75.1968 70.179 75.3164 70.6096C75.4599 70.6096 75.7182 70.5522 75.6034 70.3225C75.4886 70.0929 75.6512 69.7963 75.7469 69.6767C76.1775 69.6767 76.8377 69.5475 76.034 69.0308C75.2303 68.5141 75.5077 68.1457 75.7469 68.0261C75.6991 67.6673 75.6895 66.9927 76.034 67.165C76.3785 67.3372 76.6559 68.2893 76.7516 68.7438C76.9908 68.7438 77.4692 68.9303 77.4692 69.6767C78.273 69.3322 78.8088 70.1551 78.9762 70.6096C79.2394 70.5139 79.6508 70.2795 79.1915 70.1072C78.7322 69.935 78.6653 69.0308 78.6892 68.6002C79.0241 68.6481 79.5503 68.6002 78.9762 68.0261C78.4021 67.452 78.9762 66.6866 79.335 66.3756C79.4307 66.0885 79.7226 65.5575 80.1244 65.7297C80.6268 65.945 80.4115 66.9497 80.8421 67.165C81.2726 67.3803 81.5597 68.7438 81.775 69.0308C81.9472 69.2604 81.7032 70.8009 81.5597 71.5425L80.6985 72.7625C81.5023 72.4754 81.464 72.9777 81.3444 73.2648C80.9617 73.3365 80.3971 73.5805 81.2009 73.9824C82.2055 74.4848 80.3397 74.9153 80.8421 74.9153C81.3444 74.9153 81.9903 75.0589 81.775 75.5612C81.6027 75.9631 82.1338 75.8721 82.4208 75.7765ZM82.4208 75.7765L82.6361 74.9153C83.0189 74.9871 83.7269 75.2167 83.4973 75.5612C83.2102 75.9918 82.7079 75.9917 82.4208 75.7765ZM75.6527 53.2644C75.3859 53.1686 75.1041 53.1592 75.0293 53.4584C74.9145 53.9176 74.9575 55.0371 74.8858 55.0371L74.527 53.1713C74.7422 52.8603 75.0436 52.2671 74.527 52.3819C73.8811 52.5254 74.0964 51.6643 73.3788 51.8796C72.8047 52.0518 73.1396 52.5733 73.3788 52.8125C73.2592 52.8843 72.9195 53.0565 72.5176 53.1713C72.0153 53.3148 71.7282 56.0418 73.02 56.0418C71.7282 56.6877 73.9529 56.2571 73.3788 56.6159C72.8047 56.9747 71.0824 56.5441 71.7282 57.8359C72.3741 59.1276 73.0199 57.8359 73.3788 58.6253C73.7376 59.4146 74.5987 59.5582 74.3117 59.5582C74.082 59.5582 73.3548 59.7017 73.02 59.7735C73.0439 60.0127 72.9769 60.5198 72.5176 60.6346C71.9435 60.7781 72.0153 61.8546 71.5129 61.1369C71.1111 60.5628 70.7714 60.8977 70.6518 61.1369C70.8671 61.4957 71.3407 62.3712 71.5129 63.0028C71.7282 63.7921 71.9435 63.4333 73.3788 63.0028C74.814 62.5722 72.8047 61.424 74.3117 61.8546C75.5173 62.199 75.2924 61.0891 75.0293 60.4911C75.0532 60.2519 75.2877 59.917 76.034 60.4911C76.9669 61.2087 76.034 59.7735 76.3928 59.7735C76.6798 59.7735 76.5124 59.3429 76.3928 59.1276C76.1775 58.9123 75.7469 58.4674 76.034 57.8359C76.3928 57.0465 76.5363 57.8359 76.3928 58.1229C76.278 58.3526 76.632 59.319 76.8234 59.7735C77.0865 60.0605 77.5553 60.4193 77.3257 59.5582C77.8998 60.7064 77.9716 60.204 78.1151 59.7735C78.0673 59.917 78.1581 60.0749 78.9045 59.5582C79.6508 59.0415 79.0241 58.7209 78.6174 58.6253C78.5457 58.1468 78.5026 57.3766 78.9045 58.1229C79.3063 58.8692 80.3636 58.2425 80.8421 57.8359C80.6028 57.9076 80.1675 57.9507 80.3397 57.5488C80.555 57.0465 80.555 56.0418 80.1244 56.2571C79.6939 56.4724 79.335 56.4724 78.4021 56.2571C77.4692 56.0418 79.335 55.97 79.7656 55.8265L79.7988 55.8155C80.242 55.6683 81.1219 55.3762 80.8421 54.6066C80.555 53.8172 81.2726 54.0325 81.4879 54.176C81.7032 54.3195 82.6361 54.3195 82.6361 54.6066C82.6361 54.8936 83.2102 54.463 83.4973 54.6066C83.7843 54.7501 84.0714 53.8172 84.0714 53.4584C84.0714 53.0995 83.9278 52.5972 83.4973 53.4584C83.1528 54.1473 82.0142 53.7454 81.4879 53.4584C81.5597 53.0278 81.7606 52.2958 81.9903 52.8125C82.2199 53.3292 82.8992 52.5972 83.2102 52.1666C83.1145 51.9992 83.081 51.6212 83.7126 51.449C84.5019 51.2337 83.9996 51.0902 83.7126 50.7314C83.4255 50.3726 84.2867 49.7985 84.5019 49.0808C84.6742 48.5067 84.2867 47.1432 83.7126 47.1432C83.1385 47.1433 82.9806 48.1049 82.6361 48.2197C82.2917 48.3345 80.5789 49.32 79.7656 49.7985C79.7656 50.1429 78.3782 50.4204 77.6845 50.5161L76.3928 51.2337V52.3819C76.345 52.5972 76.1632 52.8986 75.8187 52.3819C75.3881 51.7361 75.2446 52.3819 75.3164 52.8125C75.3475 52.9991 75.4923 53.152 75.6527 53.2644ZM75.6527 53.2644C75.7955 53.3156 75.9339 53.3916 76.034 53.4584C75.9353 53.4255 75.7884 53.3594 75.6527 53.2644ZM148.515 11.9849C148.731 12.0588 149.164 12.5658 149.375 12.8408C148.969 12.8886 148.284 13.0848 148.801 13.4867C149.318 13.8885 149.016 14.0847 148.801 14.1325C148.37 14.2043 147.602 14.3478 147.972 14.3478C148.343 14.3478 148.057 15.2568 147.868 15.7113C147.581 16.5724 147.108 18.3378 147.509 18.51C147.911 18.6823 147.438 18.9645 147.151 19.0841C147.055 19.2516 146.964 19.6152 147.366 19.73C147.768 19.8448 147.198 20.4476 146.864 20.7347C146.505 20.7825 145.916 21.1365 146.433 22.1699C147.079 23.4616 145.5 23.6052 145.787 23.3181C146.074 23.0311 146.074 23.1028 145.285 22.3852C144.495 21.6676 145.5 21.4523 145.5 20.8782C145.5 20.3041 146.433 17.8642 146.576 17.7924C146.72 17.7206 146.864 16.0701 146.433 16.0701C146.088 16.0701 146.146 15.496 146.218 15.209C146.002 15.0415 145.557 14.8071 145.5 15.209C145.443 15.6108 145.189 15.7113 145.069 15.7113C144.95 15.8787 144.553 16.1419 143.921 15.8548C143.29 15.5678 143.945 14.9698 144.352 14.7066C144.017 14.587 143.333 14.3909 143.275 14.5631C143.218 14.7353 142.773 14.4913 142.558 14.3478C142.319 14.2521 141.898 14.0034 142.127 13.7737C142.299 12.2811 143.204 12.5298 143.634 12.8408C144.352 11.9079 144.782 13.4867 145.069 12.6255C145.356 11.7644 145.931 12.8408 145.859 12.4102C145.801 12.0658 146.505 11.7883 146.864 11.6926L146.218 10.8315C146.045 10.6018 146.385 10.5444 146.576 10.5444C146.529 10.377 146.39 10.0995 146.218 10.3291C146.002 10.6162 145.5 10.1856 145.285 10.0421C145.113 9.92725 145.213 9.22876 145.285 8.89387L144.352 8.67858C144.113 8.82211 143.562 8.95128 143.275 8.31977C142.917 7.53038 144.065 8.17624 144.208 7.38686C144.323 6.75535 144.83 7.12373 145.069 7.38686C145.022 7.14765 145.041 6.61183 145.5 6.38219C145.5 5.11917 146.6 5.85593 147.151 6.38219L146.864 8.17624C146.72 8.63074 146.62 9.41056 147.366 8.89387C148.299 8.24801 148.155 9.03739 148.658 9.10916C149.059 9.16657 148.681 9.75502 148.442 10.0421C148.083 10.2334 147.487 10.6018 147.972 10.5444C148.458 10.487 148.631 10.7597 148.658 10.9032C148.705 10.8075 148.916 10.6592 149.375 10.8315C149.834 11.0037 149.567 11.573 149.375 11.8361C149.117 11.8846 148.703 11.9593 148.515 11.9849ZM148.515 11.9849C148.487 11.9753 148.462 11.973 148.442 11.9797C148.386 11.9983 148.425 11.9973 148.515 11.9849ZM67.9966 148.328C69.1448 148.974 69.8624 150.984 69.4318 150.984C69.0013 150.984 67.9966 150.696 66.4896 149.835C64.8821 150.754 65.8198 152.323 66.4896 152.993C66.9919 153.232 67.8674 153.969 67.3507 155.002C66.834 156.036 66.8005 157.633 66.8484 158.303C67.0158 158.71 67.4799 159.581 67.9966 159.81C68.6424 160.097 68.9295 162.107 67.9966 162.537C67.4957 162.768 66.8915 162.813 66.5502 162.839C66.2558 162.861 66.1572 162.868 66.4896 162.968C67.2072 163.183 68.0683 164.762 67.3507 164.618C66.6331 164.475 65.7719 165.695 66.1308 166.125C66.4178 166.47 67.0637 166.891 67.3507 167.058C67.1833 167.513 66.9489 168.494 67.3507 168.781C67.7526 169.068 67.5182 169.713 67.3507 170.001C67.6856 170.67 68.1545 172.024 67.3507 172.082C66.547 172.139 66.6809 173.11 66.8484 173.589C67.5421 173.708 68.6137 174.148 67.3507 174.952C66.5535 175.459 66.5431 175.857 66.5342 176.2C66.5254 176.537 66.518 176.821 65.7719 177.105C64.5663 177.564 64.552 178.875 64.6955 179.473L63.332 180.908C63.3081 181.435 63.2746 182.674 63.332 183.42C63.3755 183.986 62.6016 184.63 61.8094 185.29C61.2947 185.719 60.7724 186.154 60.4615 186.578C59.83 187.439 60.007 187.845 60.1745 187.941C60.007 187.941 59.4855 187.826 58.7392 187.367C57.591 186.908 58.5957 187.941 59.2416 188.515C59.8396 189.089 60.8634 190.424 60.1745 191.17C59.6453 191.744 59.5226 191.423 59.44 191.207C59.3882 191.071 59.3522 190.977 59.2416 191.17C59.0119 191.572 58.4761 191.338 58.2369 191.17H56.3711C55.5338 190.214 53.7733 188.687 53.4288 190.238C52.9982 192.175 49.7689 191.159 51.1324 191.17C52.2232 191.179 51.5869 189.595 51.1324 188.802C51.0367 189.592 50.7162 191.17 50.1995 191.17C49.5536 191.17 48.9078 191.17 49.3383 190.238C49.6828 189.491 48.4772 190.214 47.8313 190.668C47.1376 190.525 45.4201 190.324 44.0997 190.668C42.7793 191.013 42.1143 190.525 41.9468 190.238C41.277 190.381 40.2532 190.769 41.5162 191.17C43.095 191.673 42.3056 192.247 41.9468 192.247C41.6598 192.247 41.5402 192.725 41.5162 192.965C41.1574 193.132 40.3393 193.366 39.9375 192.965C39.5356 192.563 39.5786 193.419 39.6504 193.897C39.2438 194.041 38.33 194.055 37.9281 192.965C37.9281 193.666 37.3115 193.869 36.9235 193.997C36.6367 194.092 36.4748 194.145 36.7799 194.328C37.4975 194.759 35.9188 195.189 35.2729 194.83C34.7562 194.543 34.8184 195.381 34.9141 195.835L31.3977 195.548C31.7326 195.428 32.4024 194.931 32.4024 193.897C32.4024 192.606 28.599 193.467 29.3884 193.467C30.0718 193.467 30.2173 194.112 30.4769 195.263C30.5172 195.442 30.5602 195.633 30.6083 195.835C30.8954 197.041 28.5272 197.581 27.3073 197.701C26.8289 198.514 25.9725 199.969 26.3744 199.28C26.8767 198.418 23.7909 197.701 24.2932 198.275C24.6951 198.734 24.1258 199.375 23.7909 199.638C23.2407 199.184 21.9825 198.476 21.351 199.28C20.7195 200.083 20.3224 199.615 20.2028 199.28C19.6526 198.945 18.4805 198.418 18.1934 198.993C18.0099 199.36 17.6949 199.351 17.3445 199.342C17.01 199.333 16.6431 199.323 16.3276 199.638C15.8109 200.155 15.6339 199.615 15.61 199.28C15.2512 199.519 14.4474 200.026 14.103 200.141C13.9019 200.208 13.8886 200.024 13.8731 199.81C13.8554 199.565 13.8348 199.28 13.5289 199.28C13.0696 199.28 13.3375 198.61 13.5289 198.275C12.9787 198.131 11.8353 197.93 11.6631 198.275C11.4908 198.619 10.8258 198.418 10.5149 198.275C9.51018 199.04 7.48648 200.313 7.42907 199.28C7.37414 198.291 8.28645 198.059 9.00704 197.876C9.22776 197.82 9.4305 197.768 9.58194 197.701C10.2278 197.414 11.6631 196.696 11.6631 196.337C11.6631 196.166 10.7805 196.338 9.85776 196.518C8.84694 196.715 7.78789 196.921 7.78789 196.696C7.78789 196.352 11.2803 195.548 13.0265 195.189C13.7202 194.902 14.9067 194.328 14.103 194.328C13.4581 194.328 13.375 193.973 13.2843 193.586C13.2337 193.37 13.1808 193.144 13.0265 192.965C12.596 192.462 12.3807 193.467 12.2372 194.328C12.1558 194.816 10.5051 194.751 9.07805 194.694C7.98864 194.651 7.02957 194.613 6.9985 194.83C6.94109 195.232 5.63501 195.237 4.98915 195.189C4.43897 195.309 3.33861 195.404 3.33861 194.83C3.33861 194.256 4.43897 194.256 4.98915 194.328V193.467C5.3958 193.539 6.29523 193.481 6.63968 192.677C6.98414 191.874 7.54867 192.056 7.78789 192.247C8.17062 192.271 8.93608 192.204 8.93608 191.745C8.93608 191.285 9.55802 191.17 9.869 191.17L13.0265 190.238C12.285 190.238 10.5579 190.324 9.58194 190.668C8.60597 191.013 8.45766 190.812 8.5055 190.668C8.17061 190.668 7.24249 190.769 6.20911 191.17C5.17573 191.572 4.5825 191.338 4.41505 191.17C3.86487 190.955 2.87933 190.553 3.33861 190.668C3.7979 190.783 3.96055 189.616 3.98447 189.018C3.57782 189.018 2.63534 189.161 2.11865 189.735C1.79673 190.093 1.83138 189.809 1.87604 189.443C1.92097 189.074 1.97602 188.623 1.68807 188.659C1.22879 188.716 1.20966 188.013 1.2575 187.654C1.75984 187.463 2.87933 187.109 3.33861 187.224C3.7979 187.338 3.52998 186.41 3.33861 185.932C4.31937 185.477 6.58228 184.654 7.78789 184.999C8.18975 184.138 8.7208 184.64 8.93608 184.999L9.58194 183.707C9.89291 183.875 10.6584 184.109 11.2325 183.707C11.8066 183.305 9.6537 183.109 8.5055 183.061C7.50083 183.181 5.39102 183.262 4.98915 182.631C4.64469 183.205 3.36253 182.87 2.76451 182.631C2.33394 182.822 1.51584 182.86 1.68807 181.483C1.8603 180.105 2.66883 180.717 3.05156 181.195C3.12332 180.765 3.41037 179.904 3.98447 179.904C4.1567 179.157 5.82637 179.21 6.63968 179.33C6.28087 179.521 5.77853 180.004 6.63968 180.406C7.50083 180.808 8.24237 179.665 8.5055 179.043C8.57727 179.497 8.89302 180.492 9.58194 180.837C10.1092 181.1 10.7711 180.96 11.1061 180.862M67.9966 148.328C66.8484 147.682 70.0777 148.4 70.0059 149.118C69.9342 149.835 70.4365 149.835 71.1541 149.835C71.8718 149.835 74.0964 147.467 73.7376 146.247C73.4505 145.271 75.4838 145.841 76.5363 146.247C77.23 145.96 78.6031 145.185 78.5457 144.381C78.4739 143.377 79.5503 144.381 79.5503 143.305C79.5503 142.444 80.1723 141.798 80.4832 141.583C80.4593 141.296 80.3684 140.607 80.1962 140.147C80.024 139.688 80.1244 138.951 80.1962 138.64C79.9809 138.162 79.5503 137.076 79.5503 136.559C79.5503 136.043 78.737 136.248 78.3304 136.416C77.7084 136.105 76.4071 135.54 76.1775 135.77C75.8905 136.057 74.9575 137.42 74.5987 136.918C74.2399 136.416 75.1011 135.268 75.8187 135.268C76.5363 135.268 79.048 133.761 77.6128 132.253C76.8147 131.416 76.5482 131.246 76.5001 131.3M67.9966 148.328H66.8484C66.7288 148.591 66.2886 149.046 65.4849 148.759C64.6811 148.472 63.5234 148.878 63.045 149.118C62.3513 148.855 61.2222 148.113 62.2556 147.252C63.6908 144.955 62.423 145.195 61.6097 145.601C60.916 144.836 59.6578 143.075 60.1745 142.157C60.6912 141.238 59.1937 140.052 58.3804 139.573C57.5432 140.028 55.9405 141.066 56.2275 141.583C56.5146 142.099 56.7299 143.329 56.8016 143.879C56.2993 143.496 55.2946 142.932 55.2946 143.735C55.2946 144.353 54.9694 144.645 54.6354 144.945C54.4259 145.133 54.213 145.325 54.0747 145.601C53.7876 146.175 52.472 145.362 51.85 144.884C51.0367 144.716 49.568 144.252 50.1995 143.735C50.9678 143.107 48.609 142.546 47.093 142.186L46.9702 142.157C46.0142 141.929 46.6176 141.009 46.9668 140.476C47.1682 140.168 47.2851 139.99 46.9702 140.147C46.2813 140.492 45.3436 139.143 44.9608 138.425L43.0232 135.124C43.6691 135.339 44.9608 135.641 44.9608 135.124C44.9608 134.478 46.9702 133.904 47.4008 134.55C47.8313 135.196 50.8454 133.258 50.1995 133.258C49.9373 133.258 49.817 133.069 49.6802 132.854C49.4801 132.539 49.2445 132.168 48.4772 132.253C47.4438 132.368 47.616 131.297 47.8313 130.746C48.3576 130.268 49.4101 129.469 49.4101 130.101C49.4101 130.732 50.3669 130.794 50.8454 130.746C50.8454 130.268 51.3046 129.598 53.1418 130.746C52.6825 129.828 54.3856 128.402 55.2946 127.804C54.8162 126.967 54.2612 125.493 55.8687 126.297C55.8687 124.556 57.2005 124.139 57.9711 124.14M76.5001 131.3C76.4789 131.324 76.4998 131.391 76.5363 131.464C76.532 131.443 76.5274 131.421 76.5225 131.399C76.5155 131.367 76.508 131.334 76.5001 131.3ZM76.5001 131.3C76.2707 130.328 75.6288 128.648 74.5987 128.594C73.5079 128.536 74.4313 127.756 75.0293 127.374C75.1728 127.206 75.2876 126.757 74.5987 126.297C73.9098 125.838 74.3117 124.671 74.5987 124.144C74.4552 123.618 73.7519 122.609 72.087 122.781C71.1541 121.704 70.58 121.704 70.0059 121.704C69.4318 121.704 67.9966 120.628 67.9966 121.704C67.9966 122.781 67.2072 121.92 64.4085 122.35C61.6097 122.781 63.9061 120.126 62.2556 122.781C61.5301 123.948 61.3057 124.461 61.3064 124.638M61.3064 124.638C61.307 124.784 61.4588 124.704 61.6097 124.575C61.5205 124.595 61.4177 124.617 61.3064 124.638ZM61.3064 124.638C60.6416 124.765 59.6761 124.87 59.5286 124.575C59.3133 124.144 58.7392 123.714 58.0934 124.144M58.0934 124.144C57.9732 124.224 57.94 124.213 57.9711 124.14M58.0934 124.144C58.0545 124.142 58.0136 124.14 57.9711 124.14M57.9711 124.14C58.107 123.824 59.4735 122.35 60.1745 122.35C60.8634 122.35 61.1791 121.824 61.2509 121.561C61.6815 121.561 62.6431 121.403 63.045 120.772C63.4468 120.14 61.825 119.504 60.9639 119.264C60.2223 118.092 58.6101 115.906 58.0934 116.538C57.5767 117.169 58.0694 117.757 58.3804 117.973C57.9498 117.829 57.103 117.714 57.1604 118.403C57.2179 119.092 56.5624 118.69 56.2275 118.403C55.9405 118.379 55.352 118.576 55.2946 119.552C55.2372 120.528 55.6534 121.298 55.8687 121.561C55.7491 121.92 55.5817 122.752 55.8687 123.211C56.1558 123.671 53.979 124.79 52.8547 125.293C53.0221 125.125 53.4575 124.589 53.8594 123.786C54.2612 122.982 53.5484 123.451 53.1418 123.786C53.5245 123.164 54.3904 122.006 54.7923 122.35C55.1942 122.695 54.9597 121.776 54.7923 121.274C54.6248 120.939 54.2469 120.24 54.0747 120.126C53.9024 120.011 54.2421 119.312 54.4335 118.977C54.3139 118.595 53.8881 117.973 53.1418 118.547C52.5677 117.571 51.3716 118.427 50.8454 118.977C50.965 119.575 51.075 120.772 50.5583 120.772C50.0416 120.772 50.1038 119.958 50.1995 119.552C49.9603 119.886 49.4675 120.355 49.4101 119.552C49.3383 118.547 49.1948 118.332 48.4772 119.552C47.9031 120.528 47.2333 120.341 46.9702 120.126C46.8267 120.03 46.3817 119.867 45.7502 119.982C45.4246 120.041 45.3676 119.771 45.3324 119.604C45.2824 119.366 45.2765 119.338 44.602 120.772C44.3278 120.47 44.3889 120.619 44.505 120.902C44.6927 121.36 45.0245 122.169 44.315 121.991C43.1668 121.704 41.875 121.776 42.5927 122.781C43.3103 123.786 43.1668 124.503 42.5927 124.144C42.0186 123.786 41.9468 124.575 42.5927 125.293C43.2816 124.718 43.4538 125.053 43.4538 125.293C43.0472 125.436 42.3917 125.838 43.0232 126.297C43.6548 126.757 41.6119 126.489 40.5116 126.297C40.679 126.8 41.1287 127.804 41.588 127.804H39.8657C39.1959 127.493 37.7128 127.216 37.1387 128.594C36.5646 129.971 37.2823 130.172 37.7128 130.101C37.8803 130.388 38.4879 130.919 39.5787 130.746C40.6694 130.574 40.6551 131.105 40.5116 131.392L41.2292 130.746C41.2896 131.129 41.2687 131.864 40.8158 132.19M40.8158 132.19C40.7305 132.251 40.6299 132.298 40.5116 132.325C40.1526 132.408 40.378 132.332 40.8158 132.19ZM40.8158 132.19C40.8706 132.172 40.9287 132.153 40.9893 132.134C41.7042 131.903 42.7791 131.555 43.0232 131.392C43.1991 131.275 43.4229 131.361 43.6799 131.46C44.052 131.604 44.4939 131.774 44.9608 131.392C45.5923 130.876 44.7934 131.799 44.315 132.325C43.8844 132.66 43.0232 133.445 43.0232 133.904C43.0232 134.363 42.497 134.717 42.2339 134.837C41.5641 134.67 40.0953 134.521 39.5787 135.268C39.062 136.014 37.1148 136.487 36.2058 136.631C37.2583 137.086 39.2629 138.081 38.861 138.425C38.6775 138.582 38.676 138.96 38.6745 139.345C38.6718 140.013 38.6691 140.701 37.7128 140.291C36.5072 139.774 36.3493 138.975 36.4211 138.64C35.7992 138.497 34.3687 138.253 33.6224 138.425C33.2309 138.515 33.1427 138.302 33.0343 138.041C32.8844 137.679 32.6959 137.224 31.613 137.349C30.4865 137.479 30.511 137.818 30.5336 138.13C30.5484 138.334 30.5623 138.527 30.2495 138.64C29.7907 138.807 29.6072 139.186 29.5503 139.491M29.5503 139.491C29.5288 139.606 29.5254 139.71 29.5319 139.789C29.5509 139.712 29.5609 139.609 29.5503 139.491ZM29.5503 139.491C29.5208 139.163 29.3333 138.72 28.7425 138.425C29.2449 137.707 28.9578 136.487 27.4508 136.129C26.1295 135.814 23.5946 134.782 22.5062 134.339C22.3532 134.277 22.2288 134.226 22.1404 134.191C21.4227 133.904 20.9922 133.904 21.5663 135.268C22.0256 136.358 20.9922 135.722 20.4181 135.268C20.0353 135.435 19.1838 135.583 18.8393 134.837C18.4087 133.904 16.9017 134.478 16.9735 135.555C17.0309 136.416 16.5668 137.109 16.3276 137.349C16.3037 137.779 16.3276 138.64 16.6147 138.64C16.9017 138.64 16.9735 137.779 16.9735 137.349C17.5954 136.775 18.8393 135.727 18.8393 136.129C18.8393 136.331 19.0263 136.172 19.2399 135.99C19.5556 135.72 19.9296 135.401 19.844 136.129C19.7795 136.677 19.5268 136.747 19.2614 136.82C18.9361 136.911 18.5918 137.006 18.5522 137.994C17.6911 138.425 18.0499 140.004 18.5522 139.789C18.9541 139.616 19.5808 139.143 19.844 138.927C19.4134 139.382 18.6814 140.506 19.1981 141.367C19.7148 142.228 19.1742 142.348 18.8393 142.3C18.4805 142.324 17.7629 142.272 17.7629 141.87C17.7629 141.784 17.7713 141.696 17.7798 141.606C17.8212 141.173 17.8656 140.707 16.9735 140.291C16.3999 140.023 16.0505 140.183 15.7623 140.316C15.5096 140.431 15.3041 140.526 15.0359 140.291C14.5766 139.889 14.2226 140.602 14.103 141.009C14.6292 141.248 15.8109 141.654 16.3276 141.367C16.8443 141.08 16.3515 142.205 16.0406 142.803C16.7343 143.066 18.0499 143.649 17.7629 143.879C17.404 144.166 18.5522 145.171 19.1981 144.525C19.844 143.879 22.1404 144.31 22.1404 144.955C22.1404 145.472 21.7576 146.223 21.5663 146.534C20.6812 146.702 18.6814 146.936 17.7629 146.534C16.8443 146.132 16.8539 148.424 16.9735 149.62C16.6386 149.811 15.7822 150.079 15.0359 149.62C14.2896 149.161 14.7249 150.242 15.0359 150.84C14.3661 150.529 13.0265 150.094 13.0265 150.84C13.0265 151.586 13.7442 152.538 14.103 152.921C13.6963 153.112 12.7251 153.438 12.0936 153.208C11.3042 152.921 11.9501 154.643 13.0265 154.428C13.0265 155.146 15.897 155.648 15.61 154.428C15.3803 153.452 16.4233 154.548 16.9735 155.217C16.0884 155.409 14.6627 155.949 16.0406 156.581C16.8155 156.936 17.0238 157.102 17.1885 157.067C17.3898 157.023 17.5259 156.678 18.5522 156.007C20.0449 155.031 19.844 156.414 19.5569 157.227C19.1981 157.538 18.5523 158.275 18.8393 158.734C19.1263 159.193 19.6287 159.117 19.844 159.021C19.9875 159.428 20.5329 160.169 21.5663 159.882C22.5996 159.595 24.8673 160.002 25.872 160.241C25.9916 159.978 26.1591 159.308 25.872 158.734C25.585 158.16 25.9438 157.059 26.1591 156.581C25.8242 156.39 25.0683 156.007 24.7238 156.007C24.3794 156.007 23.6713 154.954 23.3603 154.428C23.145 154.285 22.5997 154.012 22.1404 154.069C21.5663 154.141 23.2886 153.208 24.7238 153.639C25.872 153.983 25.6807 155.026 25.4414 155.505C25.6807 155.863 26.36 156.581 27.1637 156.581C27.9675 156.581 27.2116 157.346 26.7332 157.729C26.8288 158.136 26.9628 159.078 26.7332 159.595C26.4461 160.241 26.0155 161.676 26.7332 161.676H28.4555C28.1445 161.915 27.5513 162.537 27.6661 163.111C27.7809 163.685 25.9438 162.824 25.0109 162.322C25.2979 162.585 25.7859 163.111 25.4414 163.111C25.3715 163.111 25.2806 163.121 25.1758 163.132C24.6352 163.188 23.7209 163.284 23.3603 162.322C23.0159 161.403 20.442 164.618 19.1981 166.341C19.6526 166.652 20.619 167.216 20.8486 166.987C21.0783 166.757 19.4134 168.757 18.5522 169.785C18.4566 170.168 18.1647 170.933 17.7629 170.933H16.0406L13.0265 173.158C12.572 173.158 11.5769 173.23 11.2325 173.517C10.888 173.804 13.2897 173.876 14.5336 173.876C14.8206 173.637 15.5813 173.158 16.3276 173.158C16.8385 173.158 16.7468 172.642 16.6889 172.316C16.6411 172.046 16.6164 171.907 16.9735 172.297C17.2526 172.601 17.4509 172.888 17.6193 173.131C17.9272 173.576 18.1347 173.876 18.5522 173.876C19.0689 173.876 20.2985 174.067 20.8486 174.163C20.1789 174.282 19.0402 174.565 19.844 174.737C20.6477 174.909 21.7098 174.809 22.1404 174.737C23.7359 173.213 24.6199 172.385 25.872 171.723C25.872 172.321 25.7859 173.517 25.4414 173.517C25.3567 173.517 25.3915 173.52 25.5019 173.529C25.9529 173.565 27.6661 173.702 27.6661 174.163C27.6661 174.622 25.8959 174.354 25.0109 174.163C24.9869 174.545 24.8099 175.254 24.2932 175.024C23.7766 174.794 21.7816 175.167 20.8486 175.383C20.0832 175.048 18.3944 174.507 17.7629 175.024C17.5222 174.936 17.2816 174.796 17.0471 174.658C16.5122 174.345 16.0091 174.051 15.61 174.45C15.4046 174.655 15.0981 174.769 14.8089 174.876C14.2898 175.068 13.8265 175.24 14.103 175.885C14.4474 176.689 11.8544 176.89 10.5149 176.89C10.5627 177.153 10.8593 177.78 11.6631 178.181C12.4668 178.583 11.2325 179.497 10.5149 179.904C10.5985 180.238 10.8212 180.833 11.1061 180.862M11.1061 180.862C11.147 180.866 11.1892 180.858 11.2325 180.837C11.2945 180.806 11.3218 180.791 11.3218 180.791C11.3218 180.791 11.2394 180.822 11.1061 180.862ZM93.955 107.218C93.9248 107.198 93.8954 107.178 93.8667 107.16M93.955 107.218L93.8667 107.16M74.4388 231.748L74.4485 231.747M74.4388 231.748C74.4427 231.747 74.4466 231.747 74.4504 231.747M74.4388 231.748C74.442 231.748 74.4453 231.747 74.4485 231.747M74.4485 231.747L74.4504 231.747M74.4504 231.747L74.4927 231.745M74.4504 231.747C74.4648 231.747 74.4789 231.746 74.4927 231.745M106.962 184.488H106.96C106.906 184.49 106.851 184.492 106.797 184.493M106.962 184.488C106.908 184.49 106.852 184.492 106.797 184.493M87.6595 151.773C87.6595 151.558 87.7743 151.055 88.2336 150.768C88.6929 150.481 89.0947 149.022 89.2383 148.328C89.6688 148.209 90.573 147.826 90.7453 147.252C90.9606 146.534 93.3287 144.023 94.5487 144.453C93.8023 145.142 94.0463 146.223 94.2616 146.678C94.4769 146.797 94.7783 147.166 94.2616 147.682C93.7449 148.199 93.6158 148.902 93.6158 149.189C93.2809 149.5 92.5393 150.108 92.2523 150.051C91.8935 149.979 92.037 151.055 91.3911 151.271C90.7453 151.486 89.9559 151.701 90.0994 152.203C90.2429 152.706 88.9512 152.06 88.8077 151.773C88.6929 151.543 87.9944 151.677 87.6595 151.773ZM127.631 233.51C127.775 232.912 128.665 232.132 131.076 233.797C133.487 235.462 132.08 235.448 131.076 235.233C130.837 235.615 130.43 236.424 130.717 236.596C131.076 236.811 128.995 237.314 128.708 236.955C128.478 236.668 126.794 235.448 125.981 234.874C125.813 234.754 125.378 234.587 124.976 234.874C124.474 235.233 126.124 233.51 127.631 233.51ZM85.076 116.538C84.7411 115.533 84.4732 113.394 86.0807 112.878C87.6882 112.361 88.0901 114.72 88.0901 115.963C88.1857 116.466 88.291 117.442 87.9465 117.327C87.6021 117.212 87.9944 117.853 88.2336 118.188L88.0901 119.408C87.0136 119.528 84.8607 119.523 84.8607 118.547C84.8607 117.327 84.7172 116.753 85.076 116.538ZM82.2055 102.185L79.7656 103.836C79.0719 104.194 77.7993 105.099 78.2586 105.845C78.8901 105.615 79.2394 105.893 79.335 106.06C79.048 106.204 78.3878 106.448 78.0433 106.275C77.6989 106.103 76.9908 106.778 76.6798 107.137C76.4885 107.998 76.321 109.72 77.1822 109.72C78.0433 109.72 78.2586 108.763 78.2586 108.285C78.6174 108.093 79.3781 107.567 79.5503 106.993C79.7226 106.419 81.1052 104.84 81.775 104.123C82.1338 103.62 82.7222 102.53 82.2055 102.185ZM82.2055 101.252C82.4926 101.085 83.038 100.85 82.9232 101.252C82.7796 101.754 82.8514 101.97 81.9903 101.97C81.3013 101.97 81.8467 101.491 82.2055 101.252ZM74.8858 103.836C75.2685 103.07 76.1201 101.625 76.4646 101.97C76.8951 102.4 75.5316 103.549 75.8905 103.836C76.2493 104.123 74.7367 104.123 74.8858 103.836ZM73.3788 108.5C74.0246 107.639 75.4312 105.988 75.8905 106.275C76.3497 106.563 76.2253 108.691 76.1057 109.72C76.4167 110.151 76.9238 111.012 76.4646 111.012C76.0053 111.012 76.2732 111.442 76.4646 111.658C76.6081 111.945 76.766 112.519 76.2493 112.519C75.7326 112.519 75.7948 112.806 75.8905 112.949C75.3642 113.189 74.2686 113.595 74.0964 113.308C73.8811 112.949 73.7376 114.815 72.7329 113.882C71.9292 113.136 72.8286 112.662 73.3788 112.519C73.5462 112.399 73.8093 112.06 73.5223 111.658C73.1635 111.155 72.5176 111.012 73.3788 110.366C74.2399 109.72 74.2399 109.792 73.8093 109.505C73.3788 109.218 72.6611 109.505 72.5894 109.935C72.532 110.28 72.087 110.605 71.8717 110.725C71.6325 110.892 71.1685 111.285 71.2259 111.514C71.2977 111.801 70.1495 111.945 70.3647 111.012C70.537 110.265 71.1541 109.696 71.4412 109.505C71.2737 109.266 71.068 108.758 71.5847 108.644C70.9388 108.285 71.8718 108.213 71.7282 107.783C71.6134 107.438 72.8764 107.208 73.5223 107.137C73.3788 107.591 73.1491 108.5 73.3788 108.5ZM71.3694 90.4878C71.7282 90.2486 72.4458 89.7127 72.4458 89.4831C72.4458 89.196 73.594 88.6219 73.8811 88.5502C74.1107 88.4928 74.5987 88.5262 74.814 88.5502L74.0964 89.7701C73.9289 89.6505 73.551 89.4831 73.3788 89.7701C73.1635 90.1289 72.9482 90.703 72.4458 90.703C72.044 90.703 71.5608 90.5595 71.3694 90.4878ZM67.2072 91.7795C67.2311 92.1861 67.4368 92.9995 68.0683 92.9995C68.8577 92.9995 67.7813 92.2818 68.6424 92.2818C69.3314 92.2818 69.6471 91.9469 69.7189 91.7795C70.4604 91.612 71.5273 91.2484 69.8624 91.1336C68.6424 90.7748 69.073 91.3489 68.6424 91.4207C68.2119 91.4924 67.2072 91.2772 67.2072 91.7795ZM76.034 81.4457C76.3689 81.7806 77.0099 82.5078 76.8951 82.7374C76.7516 83.0245 78.3304 82.8809 78.3304 82.1633C78.3304 81.4457 78.2586 79.6516 76.6081 80.7281C75.2876 81.5892 75.6752 81.5653 76.034 81.4457ZM81.9903 74.7L82.8514 74.413C82.9232 74.1977 83.0236 73.7384 82.8514 73.6236C82.6361 73.4801 82.7796 72.2601 83.0667 71.9731C83.2963 71.7434 83.4494 71.4468 83.4973 71.3272L83.3537 70.8249C83.1863 70.777 82.8514 70.7675 82.8514 71.1119C82.8514 71.5425 82.7079 71.8295 82.4208 71.686C82.1338 71.5425 81.775 73.0495 81.775 73.2648C81.775 73.4801 81.8467 74.7479 81.9903 74.7ZM62.6144 79.3646C62.5426 79.0058 62.557 78.3599 63.1885 78.647C63.82 78.934 63.4038 78.0729 63.6191 78.0011C63.8344 77.9293 64.107 78.5034 64.0496 78.7905C63.9779 79.1493 64.6955 79.8669 64.0496 79.9387C63.4038 80.0104 62.9732 80.3693 63.1885 80.5128C63.4038 80.6563 61.9685 80.5128 61.9685 79.9387C61.9685 79.4794 62.3991 79.3646 62.6144 79.3646ZM64.7673 74.5565C64.6237 75.322 64.4228 76.8816 64.7673 76.9964C65.1117 77.1112 65.5327 77.14 65.7002 77.14C66.0829 77.3313 66.8484 77.6566 66.8484 77.427C66.8484 77.14 66.7049 76.4941 66.346 76.4223C65.9872 76.3506 67.1354 75.1306 66.5613 74.8436C66.1021 74.6139 66.5613 74.4608 66.8484 74.413L67.1354 73.6236C67.4225 73.3844 67.9105 72.8773 67.566 72.7625C67.2216 72.6476 67.2311 72.4276 67.279 72.3319C67.5182 72.0927 67.8531 71.5568 67.279 71.3272C66.7049 71.0976 66.8962 70.7053 67.0637 70.5378L68.2119 70.3225C68.1401 70.3225 67.9535 70.2221 67.7813 69.8202C67.6091 69.4183 67.9966 69.3179 68.2119 69.3179C67.8052 68.8873 66.8627 68.0835 66.346 68.3132C65.8294 68.5428 65.7959 69.3179 65.8437 69.6767C66.1786 69.892 66.7479 70.3225 66.346 70.3225H65.2696V72.3319C65.15 72.4993 64.8534 72.9634 64.6237 73.4801C64.3367 74.1259 64.4085 74.1259 64.7673 74.5565ZM65.8437 66.1603C66.2504 66.3278 67.0493 66.7344 66.9919 67.0215C66.9345 67.3085 67.1115 67.8587 67.2072 68.0979L69.2883 68.1697C69.3362 67.9783 69.4175 67.5525 69.3601 67.3803C69.2883 67.165 69.6471 66.7344 69.7906 66.8062C69.9055 66.8636 69.5514 66.5909 69.3601 66.4474C69.2883 66.3756 69.1161 66.146 69.0013 65.8015C68.8864 65.457 69.2883 65.4188 69.5036 65.4427C69.7906 65.634 70.336 66.0455 70.2212 66.1603C70.0777 66.3038 71.2259 65.5862 70.6518 65.1556C70.0777 64.7251 69.5036 65.2274 69.5036 64.7968C69.5036 64.3663 69.8624 64.2945 69.2883 64.2227C68.829 64.1653 68.475 64.5815 68.3554 64.7968C68.1162 64.749 67.6521 64.5959 67.7095 64.3662C67.7813 64.0792 67.6378 64.0792 66.9919 64.438C66.4752 63.9213 65.8198 64.2227 65.5567 64.438C65.4849 64.6772 65.2696 65.1843 64.9826 65.2992C64.6237 65.4427 64.4085 65.4427 64.839 65.8015C65.2696 66.1603 65.7002 66.5191 65.8437 66.1603ZM124.545 45.5645C124.545 46.1147 124.459 47.2294 124.115 47.2868C123.77 47.3442 123.589 46.2582 123.541 45.708C123.254 45.4688 122.766 44.976 123.11 44.9186C123.455 44.8612 124.545 44.9904 125.048 45.0621C125.024 45.3014 124.89 45.7367 124.545 45.5645ZM119.235 42.4069C118.9 42.6461 118.359 43.182 118.876 43.4116C119.522 43.6987 118.948 44.7751 119.522 44.9186C120.096 45.0621 119.378 45.708 119.953 45.708C120.527 45.708 121.603 46.2103 121.747 45.5645C121.861 45.0478 121.125 45.2535 120.742 45.421C120.79 45.3014 120.972 45.0334 121.316 44.9186C121.661 44.8038 121.364 44.5359 121.173 44.4163C121.053 43.6987 120.498 42.2921 119.235 42.4069ZM119.953 39.1776C120.24 38.0773 121.201 36.3215 122.751 38.1012C122.751 37.24 123.421 38.2686 123.756 38.8906C123.971 39.2255 124.273 39.8952 123.756 39.8952C123.11 39.8952 123.397 41.0434 122.751 40.6129C122.235 40.2684 122.536 40.8521 122.751 41.187C123.206 41.1391 124.115 41.1152 124.115 41.4023C124.115 41.6893 124.88 41.7611 125.263 41.7611C125.741 41.7132 126.713 41.6463 126.77 41.7611C126.842 41.9046 127.846 41.9046 127.559 42.4069C127.272 42.9093 126.77 43.4116 126.555 43.4116C126.339 43.4116 125.765 44.5598 125.048 43.6269C124.474 42.8806 123.66 42.5026 123.325 42.4069C122.703 42.6701 121.431 43.0958 121.316 42.694C121.173 42.1916 120.957 40.6129 121.531 40.6129C122.105 40.6129 121.173 39.4647 120.742 40.6129C120.311 41.7611 120.742 42.1916 119.809 41.5458C119.063 41.0291 119.594 39.7517 119.953 39.1776ZM124.545 38.1012C124.856 37.7185 125.206 36.9386 124.115 36.8812C122.751 36.8095 123.469 36.3071 123.11 37.4553C123.455 37.7424 124.21 38.0055 124.545 38.1012ZM148.729 5.87985C148.61 6.741 148.514 8.50635 149.088 8.67858C149.806 8.89387 150.236 9.10916 150.236 7.96096C150.236 6.81276 150.882 5.87985 150.236 5.87985C149.72 5.87985 150.021 5.21007 150.236 4.87517L150.954 5.37751C151.002 4.63597 150.925 3.19593 150.236 3.36816C149.547 3.54039 149.471 4.34892 149.519 4.73165C149.208 4.75557 148.614 4.86082 148.729 5.09046C148.844 5.3201 148.777 5.7124 148.729 5.87985ZM151.6 6.1669L151.959 7.17157C151.959 6.93237 152.002 6.49701 152.174 6.66924C152.389 6.88452 153.394 7.3151 153.394 6.81276C153.394 6.31042 153.179 5.95161 153.035 6.38219C152.892 6.81276 153.179 5.37751 151.959 5.87985C150.983 6.28172 151.313 6.23866 151.6 6.1669ZM151.313 3.79874C151.313 3.96618 151.485 4.34413 152.174 4.51636C153.035 4.73165 152.748 4.37284 152.748 4.01403C152.748 3.65521 152.676 3.36816 153.035 3.36816C153.394 3.36816 153.609 2.50702 153.25 2.43525C152.963 2.37784 153.418 2.21997 153.681 2.1482C153.753 1.5741 153.724 0.641192 153.035 1.50234C152.346 2.36349 152.317 2.05252 152.389 1.78939C152.604 1.52626 152.906 1 152.389 1C151.873 1 151.791 1.76547 151.815 2.1482C151.743 2.31565 151.6 2.751 151.6 3.15287C151.6 3.55474 151.408 3.7509 151.313 3.79874ZM75.7469 79.8669C75.7469 80.1047 75.5767 80.3693 75.1011 80.3693C74.6255 80.3693 74.0246 80.1047 74.0246 79.8669C74.0246 79.6291 74.5537 79.2928 75.0293 79.2928C75.5049 79.2928 75.7469 79.6291 75.7469 79.8669ZM111.754 263.847L115.085 261.641C115.381 262.109 115.795 263.206 115.085 263.847C114.374 264.489 112.568 264.115 111.754 263.847ZM122.079 269.864H126.409C127.001 270.566 128.008 272.07 127.297 272.471C126.587 272.872 124.04 272.638 122.856 272.471L122.079 269.864Z" stroke="black" stroke-opacity="0.2"/>
</svg>
